G04*
G04 #@! TF.GenerationSoftware,Altium Limited,Altium Designer,21.0.8 (223)*
G04*
G04 Layer_Color=16711935*
%FSTAX24Y24*%
%MOIN*%
G70*
G04*
G04 #@! TF.SameCoordinates,2867BDE3-1686-46F1-8F54-3A33D440E248*
G04*
G04*
G04 #@! TF.FilePolarity,Negative*
G04*
G01*
G75*
%ADD24R,0.0787X0.0866*%
%ADD45R,0.0480X0.0671*%
%ADD46R,0.0867X0.0946*%
%ADD63R,0.0395X0.0395*%
%ADD64R,0.0430X0.0513*%
%ADD65R,0.0395X0.0395*%
%ADD66C,0.0730*%
%ADD67C,0.0080*%
%ADD68R,0.0730X0.0730*%
%ADD69C,0.1064*%
%ADD70O,0.0880X0.1280*%
%ADD71O,0.1880X0.1080*%
%ADD72C,0.0630*%
%ADD73C,0.0830*%
%ADD74R,0.0730X0.0980*%
%ADD75O,0.0730X0.0980*%
%ADD76O,0.0930X0.0780*%
%ADD77R,0.0930X0.0780*%
%ADD78C,0.0592*%
%ADD79R,0.0592X0.0592*%
%ADD80C,0.0310*%
%ADD81C,0.0513*%
%ADD82C,0.0380*%
%ADD83C,0.0430*%
G04:AMPARAMS|DCode=117|XSize=38mil|YSize=88mil|CornerRadius=11.5mil|HoleSize=0mil|Usage=FLASHONLY|Rotation=270.000|XOffset=0mil|YOffset=0mil|HoleType=Round|Shape=RoundedRectangle|*
%AMROUNDEDRECTD117*
21,1,0.0380,0.0650,0,0,270.0*
21,1,0.0150,0.0880,0,0,270.0*
1,1,0.0230,-0.0325,-0.0075*
1,1,0.0230,-0.0325,0.0075*
1,1,0.0230,0.0325,0.0075*
1,1,0.0230,0.0325,-0.0075*
%
%ADD117ROUNDEDRECTD117*%
%ADD118R,0.0880X0.0380*%
G04:AMPARAMS|DCode=119|XSize=47.4mil|YSize=55.2mil|CornerRadius=0mil|HoleSize=0mil|Usage=FLASHONLY|Rotation=135.000|XOffset=0mil|YOffset=0mil|HoleType=Round|Shape=Rectangle|*
%AMROTATEDRECTD119*
4,1,4,0.0363,0.0028,-0.0028,-0.0363,-0.0363,-0.0028,0.0028,0.0363,0.0363,0.0028,0.0*
%
%ADD119ROTATEDRECTD119*%

%ADD120R,0.1379X0.1025*%
%ADD121R,0.0474X0.1025*%
%ADD122R,0.1458X0.1182*%
%ADD123P,0.0559X4X180.0*%
%ADD124P,0.0559X4X270.0*%
D24*
X07452Y02401D02*
D03*
X07455Y0263D02*
D03*
D45*
X06798Y02112D02*
D03*
X06878D02*
D03*
D46*
X07326Y02401D02*
D03*
X07329Y0263D02*
D03*
D63*
X062515Y0271D02*
D03*
X061925D02*
D03*
X073595Y027273D02*
D03*
X074185D02*
D03*
X068765Y025965D02*
D03*
X068175D02*
D03*
D64*
X063585Y029597D02*
D03*
X062915D02*
D03*
X061859Y02772D02*
D03*
X062528D02*
D03*
D65*
X068499Y024885D02*
D03*
Y024295D02*
D03*
X06906Y024299D02*
D03*
Y02489D02*
D03*
X067863Y024885D02*
D03*
Y024295D02*
D03*
D66*
X05187Y0324D02*
D03*
X05287D02*
D03*
X05387D02*
D03*
X05487D02*
D03*
X05587D02*
D03*
X05687D02*
D03*
X05887D02*
D03*
X05287Y0334D02*
D03*
X05487Y0334D02*
D03*
X05787Y0334D02*
D03*
X05687D02*
D03*
X05587Y0334D02*
D03*
X05387Y0334D02*
D03*
X05187Y0334D02*
D03*
Y028333D02*
D03*
X05287Y028333D02*
D03*
X05387D02*
D03*
X05487D02*
D03*
X05587Y028333D02*
D03*
X05687Y028333D02*
D03*
X05787D02*
D03*
X05887D02*
D03*
X05287Y029333D02*
D03*
X05487D02*
D03*
X05787D02*
D03*
X05687D02*
D03*
X05587D02*
D03*
X05387D02*
D03*
X05187D02*
D03*
Y025267D02*
D03*
X05387D02*
D03*
X05587D02*
D03*
X05687D02*
D03*
X05787D02*
D03*
X05487D02*
D03*
X05287D02*
D03*
X05887Y024267D02*
D03*
X05787Y024267D02*
D03*
X05687D02*
D03*
X05587Y024267D02*
D03*
X05487D02*
D03*
X05387Y024267D02*
D03*
X05287D02*
D03*
X05187Y024267D02*
D03*
Y0202D02*
D03*
X05287Y0202D02*
D03*
X05387Y0202D02*
D03*
X05487Y0202D02*
D03*
X05587Y0202D02*
D03*
X05687D02*
D03*
X05787Y0202D02*
D03*
X05887D02*
D03*
X05287Y0212D02*
D03*
X05487Y0212D02*
D03*
X05787Y0212D02*
D03*
X05687Y0212D02*
D03*
X05587D02*
D03*
X05387D02*
D03*
X05187D02*
D03*
D67*
X05787Y0324D02*
D03*
D68*
X05887Y0334D02*
D03*
X05887Y029333D02*
D03*
X05887Y025267D02*
D03*
Y0212D02*
D03*
D69*
X07043Y03382D02*
D03*
X06843D02*
D03*
D70*
X07312Y018983D02*
D03*
X07412D02*
D03*
X07612D02*
D03*
X07712D02*
D03*
X0719Y01895D02*
D03*
X0709D02*
D03*
X0689D02*
D03*
X0679D02*
D03*
D71*
X07511Y016983D02*
D03*
X06989Y01695D02*
D03*
D72*
X07712Y016983D02*
D03*
Y015983D02*
D03*
X07512Y018983D02*
D03*
X07312Y016983D02*
D03*
Y015983D02*
D03*
X0679Y01595D02*
D03*
Y01695D02*
D03*
X0699Y01895D02*
D03*
X0719Y01595D02*
D03*
Y01695D02*
D03*
D73*
X070789Y020637D02*
D03*
X071789Y022637D02*
D03*
X072789Y020637D02*
D03*
D74*
X068741Y02318D02*
D03*
D75*
X067741D02*
D03*
X066741D02*
D03*
D76*
X06537Y032385D02*
D03*
Y033365D02*
D03*
D77*
Y034375D02*
D03*
D78*
X0512Y015905D02*
D03*
Y016693D02*
D03*
Y01748D02*
D03*
X06643Y032079D02*
D03*
Y032866D02*
D03*
Y033654D02*
D03*
D79*
X0512Y018267D02*
D03*
X06643Y034441D02*
D03*
D80*
X073625Y030039D02*
D03*
X062976Y023706D02*
D03*
X061353Y02355D02*
D03*
X06638Y028269D02*
D03*
X065748Y028894D02*
D03*
X06937Y02406D02*
D03*
X053572Y019411D02*
D03*
X05607D02*
D03*
X055572Y03486D02*
D03*
X073184Y03479D02*
D03*
X07788Y021081D02*
D03*
Y025443D02*
D03*
Y03032D02*
D03*
Y03479D02*
D03*
X066254Y0315D02*
D03*
X06863Y032002D02*
D03*
X062962Y026346D02*
D03*
X066132Y025658D02*
D03*
X065294Y025716D02*
D03*
X06118Y02846D02*
D03*
X06275Y03085D02*
D03*
X059354Y018373D02*
D03*
X068783Y02186D02*
D03*
X067332Y021551D02*
D03*
X067863Y025481D02*
D03*
X066544Y026526D02*
D03*
X06352Y0259D02*
D03*
X06355Y02678D02*
D03*
X062959Y02597D02*
D03*
X06388Y02547D02*
D03*
X05758Y01758D02*
D03*
X0615Y017684D02*
D03*
X0719Y025791D02*
D03*
X07211Y025571D02*
D03*
X06517Y018D02*
D03*
X06507Y02001D02*
D03*
X06341Y020241D02*
D03*
X06404D02*
D03*
X07196Y028201D02*
D03*
X06638Y02036D02*
D03*
X07149Y021584D02*
D03*
X070345Y022737D02*
D03*
X067778Y025827D02*
D03*
X06806Y025021D02*
D03*
X064379Y020934D02*
D03*
X06388Y02365D02*
D03*
X06348Y02367D02*
D03*
X06421Y023898D02*
D03*
X06944Y025965D02*
D03*
X07356Y02507D02*
D03*
X0699Y03025D02*
D03*
X07151Y03022D02*
D03*
X06404Y02978D02*
D03*
X06325Y02724D02*
D03*
X06117Y02781D02*
D03*
X06153Y02759D02*
D03*
X06725Y02844D02*
D03*
X06776Y026896D02*
D03*
X06806Y02717D02*
D03*
X06335Y03137D02*
D03*
X061468Y02875D02*
D03*
X06144Y02819D02*
D03*
X0644Y02739D02*
D03*
X06295Y02703D02*
D03*
X06318Y02761D02*
D03*
X06805Y02931D02*
D03*
X05974Y02719D02*
D03*
X06123Y02446D02*
D03*
X0615Y02483D02*
D03*
X061817Y025115D02*
D03*
X06544Y02976D02*
D03*
X06513Y02921D02*
D03*
X0648Y02981D02*
D03*
X06178Y0263D02*
D03*
X06045Y02626D02*
D03*
X0609Y02627D02*
D03*
X06133Y02628D02*
D03*
D81*
X076344Y032681D02*
D03*
Y029529D02*
D03*
D82*
X06926Y03096D02*
D03*
D83*
X07145Y03098D02*
D03*
D117*
X06407Y034046D02*
D03*
Y033546D02*
D03*
Y033046D02*
D03*
Y032546D02*
D03*
Y032046D02*
D03*
Y031546D02*
D03*
Y031046D02*
D03*
Y030546D02*
D03*
X06035Y034046D02*
D03*
Y033546D02*
D03*
Y033046D02*
D03*
Y032546D02*
D03*
Y032046D02*
D03*
Y031546D02*
D03*
Y031046D02*
D03*
D118*
Y030546D02*
D03*
D119*
X065282Y027344D02*
D03*
X065644Y026982D02*
D03*
X065756Y027818D02*
D03*
X066118Y027456D02*
D03*
D120*
X07095Y024098D02*
D03*
D121*
X071856Y026382D02*
D03*
X07095Y026382D02*
D03*
X070044Y026382D02*
D03*
D122*
X07363Y03019D02*
D03*
X06759D02*
D03*
D123*
X064711Y026749D02*
D03*
X065129Y026331D02*
D03*
D124*
X064791Y027851D02*
D03*
X065209Y028269D02*
D03*
M02*
