M48
;Layer_Color=9474304
;FILE_FORMAT=2:4
INCH,LZ
;TYPE=PLATED
T6F00S00C0.0400
%
G90
G05
T06
G00X06969Y01695
M15
G01X07009
M16
G00X0689Y01905
M15
G01Y01885
M16
G00X0679Y01905
M15
G01Y01885
M16
G00X0709Y01905
M15
G01Y01885
M16
G00X0719Y01905
M15
G01Y01885
M16
G00X07312Y019083
M15
G01Y018883
M16
G00X07412Y019083
M15
G01Y018883
M16
G00X07612Y019083
M15
G01Y018883
M16
G00X07712Y019083
M15
G01Y018883
M16
G00X07491Y016983
M15
G01X07531
M16
M17
M30
