G04*
G04 #@! TF.GenerationSoftware,Altium Limited,Altium Designer,21.0.8 (223)*
G04*
G04 Layer_Physical_Order=2*
G04 Layer_Color=16711680*
%FSTAX24Y24*%
%MOIN*%
G70*
G04*
G04 #@! TF.SameCoordinates,2867BDE3-1686-46F1-8F54-3A33D440E248*
G04*
G04*
G04 #@! TF.FilePolarity,Positive*
G04*
G01*
G75*
%ADD14C,0.0150*%
%ADD16C,0.0100*%
%ADD23R,0.0400X0.0591*%
%ADD24R,0.0787X0.0866*%
%ADD40R,0.0315X0.0315*%
%ADD41R,0.0350X0.0433*%
%ADD42R,0.0315X0.0315*%
%ADD84C,0.0080*%
%ADD85C,0.0200*%
%ADD88C,0.0250*%
%ADD89C,0.0300*%
%ADD90C,0.0650*%
%ADD91R,0.0650X0.0650*%
%ADD92C,0.0984*%
%ADD93O,0.0800X0.1200*%
%ADD94O,0.1800X0.1000*%
%ADD95C,0.0550*%
%ADD96C,0.0750*%
%ADD97R,0.0650X0.0900*%
%ADD98O,0.0650X0.0900*%
%ADD99O,0.0850X0.0700*%
%ADD100R,0.0850X0.0700*%
%ADD101C,0.0512*%
%ADD102R,0.0512X0.0512*%
%ADD103C,0.0230*%
%ADD104C,0.0433*%
%ADD105C,0.0300*%
%ADD106C,0.0350*%
G04:AMPARAMS|DCode=107|XSize=30mil|YSize=80mil|CornerRadius=7.5mil|HoleSize=0mil|Usage=FLASHONLY|Rotation=270.000|XOffset=0mil|YOffset=0mil|HoleType=Round|Shape=RoundedRectangle|*
%AMROUNDEDRECTD107*
21,1,0.0300,0.0650,0,0,270.0*
21,1,0.0150,0.0800,0,0,270.0*
1,1,0.0150,-0.0325,-0.0075*
1,1,0.0150,-0.0325,0.0075*
1,1,0.0150,0.0325,0.0075*
1,1,0.0150,0.0325,-0.0075*
%
%ADD107ROUNDEDRECTD107*%
%ADD108R,0.0800X0.0300*%
G04:AMPARAMS|DCode=109|XSize=39.4mil|YSize=47.2mil|CornerRadius=0mil|HoleSize=0mil|Usage=FLASHONLY|Rotation=135.000|XOffset=0mil|YOffset=0mil|HoleType=Round|Shape=Rectangle|*
%AMROTATEDRECTD109*
4,1,4,0.0306,0.0028,-0.0028,-0.0306,-0.0306,-0.0028,0.0028,0.0306,0.0306,0.0028,0.0*
%
%ADD109ROTATEDRECTD109*%

%ADD110R,0.1299X0.0945*%
%ADD111R,0.0394X0.0945*%
%ADD112R,0.1378X0.1102*%
%ADD113P,0.0445X4X180.0*%
%ADD114P,0.0445X4X270.0*%
%ADD115C,0.0500*%
%ADD116C,0.0450*%
G36*
X078139Y015564D02*
X051518D01*
X051497Y015614D01*
X051533Y01565D01*
X051588Y015745D01*
X051616Y01585D01*
Y01596D01*
X051588Y016066D01*
X051533Y016161D01*
X051455Y016238D01*
X051361Y016293D01*
X051255Y016321D01*
X051145D01*
X051039Y016293D01*
X050945Y016238D01*
X050867Y016161D01*
X050844Y016121D01*
X050794Y016134D01*
Y017851D01*
X051616D01*
Y018683D01*
X050794D01*
X050794Y034985D01*
X050798Y035003D01*
X050825Y035035D01*
X078139D01*
Y015564D01*
D02*
G37*
%LPC*%
G36*
X065955Y034885D02*
X064785D01*
Y034589D01*
X063495D01*
X063413Y034573D01*
X063344Y034526D01*
X063199Y034381D01*
X063152Y034312D01*
X063136Y03423D01*
Y031545D01*
X06313Y031539D01*
X063094Y031476D01*
X063075Y031406D01*
Y031334D01*
X063094Y031264D01*
X063127Y031207D01*
X063087Y031176D01*
X062565Y031698D01*
X062496Y031744D01*
X062414Y03176D01*
X060872D01*
X060845Y0318D01*
X060844Y031802D01*
X060896Y031879D01*
X060914Y031971D01*
Y032121D01*
X060896Y032213D01*
X060844Y032291D01*
X060766Y032343D01*
X060675Y032361D01*
X060025D01*
X059933Y032343D01*
X059855Y032291D01*
X059803Y032213D01*
X059785Y032121D01*
Y031971D01*
X059803Y031879D01*
X059855Y031802D01*
Y031791D01*
X059803Y031713D01*
X059785Y031621D01*
Y031471D01*
X059803Y031379D01*
X059833Y031336D01*
X059853Y031296D01*
X059833Y031257D01*
X059803Y031213D01*
X059785Y031121D01*
Y030971D01*
X059798Y030906D01*
X05979Y030856D01*
X05979D01*
X05979Y030856D01*
Y030236D01*
X06091D01*
Y030832D01*
X062276D01*
X062286Y030834D01*
X062395Y030819D01*
X062483Y030783D01*
X062494Y030744D01*
X06253Y030681D01*
X062581Y03063D01*
X062644Y030594D01*
X062714Y030575D01*
X062786D01*
X062856Y030594D01*
X062919Y03063D01*
X062938Y030649D01*
X063007Y03065D01*
X063181Y030477D01*
Y030361D01*
X063197Y030279D01*
X063243Y03021D01*
X063404Y030049D01*
X063442Y030023D01*
X063427Y029973D01*
X06325D01*
Y02922D01*
X063851D01*
X063872Y02917D01*
X063656Y028954D01*
X061653D01*
X061637Y02897D01*
X061574Y029006D01*
X061505Y029025D01*
X061432D01*
X061362Y029006D01*
X061299Y02897D01*
X061248Y028919D01*
X061212Y028856D01*
X061193Y028786D01*
Y028735D01*
X061144D01*
X061074Y028716D01*
X061011Y02868D01*
X06096Y028629D01*
X060924Y028566D01*
X060905Y028496D01*
Y028424D01*
X060924Y028354D01*
X06096Y028291D01*
X061011Y02824D01*
X061074Y028204D01*
X061144Y028185D01*
X061165D01*
Y028154D01*
X061184Y028084D01*
X06122Y028021D01*
X061271Y02797D01*
X061334Y027934D01*
X061404Y027915D01*
X06144D01*
X061478Y027866D01*
X061477Y02786D01*
X061424Y027846D01*
X061361Y02781D01*
X06131Y027759D01*
X061274Y027696D01*
X061255Y027626D01*
Y027554D01*
X061274Y027484D01*
X061297Y027444D01*
X06127Y027394D01*
X059925D01*
X059909Y02741D01*
X059846Y027446D01*
X059776Y027465D01*
X059704D01*
X059634Y027446D01*
X059571Y02741D01*
X05952Y027359D01*
X059484Y027296D01*
X059479Y027279D01*
X059423Y027264D01*
X059346Y027341D01*
X059277Y027388D01*
X059195Y027404D01*
X0549D01*
X054818Y027388D01*
X054749Y027341D01*
X053239Y025831D01*
X053192Y025762D01*
X053181Y025705D01*
X053133Y025679D01*
X053126Y025679D01*
X053057Y025719D01*
X052934Y025752D01*
X052806D01*
X052683Y025719D01*
X052572Y025655D01*
X052482Y025564D01*
X052418Y025454D01*
X052396Y025371D01*
X052344D01*
X052322Y025454D01*
X052258Y025564D01*
X052168Y025655D01*
X052057Y025719D01*
X051934Y025752D01*
X051806D01*
X051683Y025719D01*
X051572Y025655D01*
X051482Y025564D01*
X051418Y025454D01*
X051385Y025331D01*
Y025203D01*
X051418Y025079D01*
X051482Y024969D01*
X051572Y024879D01*
X051683Y024815D01*
X051806Y024782D01*
X051934D01*
X052027Y024807D01*
X052126Y024708D01*
Y02299D01*
X052142Y022908D01*
X052189Y022839D01*
X053199Y021829D01*
X053268Y021782D01*
X05335Y021766D01*
X05918D01*
X059262Y021782D01*
X059331Y021829D01*
X061651Y024149D01*
X061698Y024218D01*
X061714Y0243D01*
Y024655D01*
X06172Y024661D01*
X061756Y024724D01*
X061775Y024794D01*
Y024835D01*
X061781Y02484D01*
X061854D01*
X061924Y024859D01*
X061986Y024895D01*
X062038Y024946D01*
X062074Y025009D01*
X062092Y025079D01*
Y025151D01*
X062078Y025206D01*
X062105Y025256D01*
X063705D01*
X063711Y02525D01*
X063774Y025214D01*
X063844Y025195D01*
X063916D01*
X063986Y025214D01*
X064049Y02525D01*
X0641Y025301D01*
X064136Y025364D01*
X064155Y025434D01*
Y025506D01*
X064136Y025576D01*
X0641Y025639D01*
X064049Y02569D01*
X063986Y025727D01*
X063916Y025745D01*
X063844D01*
X063799Y025733D01*
X063766Y025776D01*
X063776Y025794D01*
X063795Y025864D01*
Y025936D01*
X063776Y026006D01*
X06374Y026069D01*
X063689Y02612D01*
X063626Y026156D01*
X063556Y026175D01*
X063484D01*
X063473Y026172D01*
X063415Y026184D01*
X063133D01*
X063127Y02619D01*
X063065Y026226D01*
X062995Y026245D01*
X062922D01*
X062852Y026226D01*
X06279Y02619D01*
X062739Y026138D01*
X062702Y026076D01*
X062684Y026006D01*
Y025933D01*
X062702Y025863D01*
X062739Y025801D01*
X06279Y025749D01*
X062816Y025734D01*
X062803Y025684D01*
X06126D01*
X061178Y025668D01*
X061109Y025622D01*
X060449Y024961D01*
X060402Y024892D01*
X060394Y024851D01*
X060344Y024856D01*
Y025411D01*
X060469Y025536D01*
X06061D01*
X060692Y025552D01*
X060761Y025599D01*
X061027Y025864D01*
X061073Y025933D01*
X061089Y026015D01*
Y026061D01*
X061131Y02609D01*
X061161Y02606D01*
X061224Y026024D01*
X061294Y026005D01*
X061366D01*
X061436Y026024D01*
X061499Y02606D01*
X06155Y026111D01*
X061576Y026115D01*
X061611Y02608D01*
X061674Y026044D01*
X061744Y026025D01*
X061816D01*
X061886Y026044D01*
X061949Y02608D01*
X062Y026131D01*
X062036Y026194D01*
X062055Y026264D01*
Y026336D01*
X062036Y026406D01*
X062Y026469D01*
X061949Y02652D01*
X061938Y026526D01*
X061952Y026576D01*
X063365D01*
X063381Y02656D01*
X063444Y026524D01*
X063514Y026505D01*
X063586D01*
X063656Y026524D01*
X063719Y02656D01*
X06377Y026611D01*
X063806Y026674D01*
X063825Y026744D01*
Y026816D01*
X063806Y026886D01*
X063848Y026913D01*
X063981Y026781D01*
Y026675D01*
X063997Y026597D01*
X064041Y026531D01*
X064536Y026036D01*
X064602Y025992D01*
X06468Y025976D01*
X064978D01*
X065025Y025986D01*
X0651Y025911D01*
X065074Y025885D01*
X065037Y025823D01*
X065019Y025753D01*
Y02568D01*
X065037Y02561D01*
X065074Y025547D01*
X065125Y025496D01*
X065188Y02546D01*
X065257Y025441D01*
X06533D01*
X0654Y02546D01*
X065463Y025496D01*
X065514Y025547D01*
X065538Y02559D01*
X066098Y02615D01*
X066133Y026185D01*
X066189Y026227D01*
X066254Y026254D01*
X066324Y026264D01*
Y026264D01*
X06646D01*
X066508Y026251D01*
X06658D01*
X06665Y02627D01*
X066713Y026306D01*
X066764Y026357D01*
X066801Y02642D01*
X066819Y02649D01*
Y026562D01*
X066801Y026632D01*
X066764Y026695D01*
X066713Y026746D01*
X06665Y026782D01*
X06658Y026801D01*
X066508D01*
X06646Y026788D01*
X066324D01*
Y02679D01*
X066169Y026775D01*
X066019Y026729D01*
X065906Y026669D01*
X065876Y02671D01*
X066177Y02701D01*
X065815Y027372D01*
X066288Y027845D01*
X065784Y02835D01*
X065706Y028273D01*
X065645Y028282D01*
X065209Y028718D01*
X065135Y028644D01*
X065133Y028644D01*
X064918D01*
X064899Y02869D01*
X065143Y028935D01*
X065166D01*
X065236Y028954D01*
X065299Y02899D01*
X06535Y029041D01*
X065386Y029104D01*
X065405Y029174D01*
Y029246D01*
X065386Y029316D01*
X06535Y029379D01*
X065349Y02938D01*
X065453Y029485D01*
X065476D01*
X065546Y029504D01*
X065609Y02954D01*
X06566Y029591D01*
X065696Y029654D01*
X065706Y02969D01*
X065762Y029705D01*
X065959Y029508D01*
Y029077D01*
X065975Y028995D01*
X066022Y028925D01*
X066659Y028289D01*
X066728Y028242D01*
X06681Y028226D01*
X067075D01*
X067081Y02822D01*
X067144Y028184D01*
X067214Y028165D01*
X067286D01*
X067356Y028184D01*
X067373Y028193D01*
X067416Y028168D01*
Y027026D01*
X067432Y026944D01*
X067479Y026875D01*
X067485Y026869D01*
Y02686D01*
X067504Y02679D01*
X06754Y026727D01*
X067591Y026676D01*
X067654Y02664D01*
X067724Y026621D01*
X067796D01*
X067866Y02664D01*
X067929Y026676D01*
X06798Y026727D01*
X068016Y02679D01*
X068035Y02686D01*
Y026895D01*
X068096D01*
X068166Y026914D01*
X068229Y02695D01*
X06828Y027001D01*
X068316Y027064D01*
X068335Y027134D01*
Y027206D01*
X068316Y027276D01*
X06828Y027339D01*
X068229Y02739D01*
X068171Y027423D01*
Y028593D01*
X068155Y028675D01*
X068108Y028744D01*
X067696Y029156D01*
X067627Y029203D01*
X067545Y029219D01*
X067174D01*
X06696Y029433D01*
X066979Y029479D01*
X06778D01*
X067805Y029436D01*
X067794Y029416D01*
X067775Y029346D01*
Y029274D01*
X067794Y029204D01*
X06783Y029141D01*
X067881Y02909D01*
X067944Y029054D01*
X068014Y029035D01*
X068086D01*
X068156Y029054D01*
X068219Y02909D01*
X068225Y029096D01*
X06838D01*
X068462Y029112D01*
X068531Y029159D01*
X068811Y029439D01*
X068858Y029508D01*
X068874Y02959D01*
Y03048D01*
X068873Y030487D01*
X06886Y03062D01*
X068832Y03071D01*
X068873Y030747D01*
X068929Y030724D01*
X068973Y030714D01*
Y029537D01*
X068971D01*
X068987Y029335D01*
X069034Y029139D01*
X069112Y028952D01*
X069217Y028779D01*
X069349Y028626D01*
X06935Y028627D01*
X070454Y027523D01*
X070457Y02752D01*
X070543Y027415D01*
X070609Y027292D01*
X07065Y027158D01*
X070659Y027064D01*
X070615Y027014D01*
X070593D01*
Y025749D01*
X070637D01*
Y025334D01*
X06806D01*
X068036Y025331D01*
X067867D01*
X067848Y025331D01*
X067833Y025328D01*
X067817D01*
X06778Y02532D01*
X067765Y025314D01*
X06775Y025311D01*
X067716Y025297D01*
X067702Y025288D01*
X067687Y025282D01*
X067657Y025261D01*
X067645Y02525D01*
X067632Y025241D01*
X067619Y025228D01*
X067619Y025228D01*
X067619Y025228D01*
X067619Y025228D01*
X067613Y025222D01*
X067604Y025208D01*
X067598Y025203D01*
X067546D01*
Y025062D01*
X067545Y025059D01*
X067545Y02505D01*
X067545Y024868D01*
X067546Y024864D01*
Y024568D01*
X068181D01*
Y024568D01*
X068182D01*
Y024568D01*
X068817D01*
Y024572D01*
X069377D01*
Y024708D01*
X07014D01*
Y023466D01*
X07176D01*
Y023622D01*
X072706D01*
Y023417D01*
X073814D01*
Y024603D01*
X073621D01*
X073598Y024653D01*
X073625Y024693D01*
X073628Y024696D01*
X073781Y024849D01*
X073831Y024914D01*
X073862Y024989D01*
X073873Y02507D01*
X073862Y025151D01*
X073831Y025226D01*
X073781Y025291D01*
X073716Y025341D01*
X073641Y025372D01*
X07356Y025383D01*
X073479Y025372D01*
X073404Y025341D01*
X073339Y025291D01*
X073186Y025138D01*
X073185Y025139D01*
X073083Y025015D01*
X073008Y024874D01*
X072962Y024722D01*
X07295Y024603D01*
X072706D01*
Y024398D01*
X07176D01*
Y024731D01*
X071263D01*
Y025021D01*
Y025749D01*
X071307D01*
Y027014D01*
X071287D01*
X071239Y027019D01*
X071223Y02722D01*
X071176Y027417D01*
X071098Y027604D01*
X070993Y027776D01*
X070861Y02793D01*
X07086Y027929D01*
X07086Y027929D01*
X069756Y029033D01*
X069753Y029036D01*
X069667Y029141D01*
X069601Y029264D01*
X06956Y029398D01*
X069547Y029533D01*
X069547Y029537D01*
Y030673D01*
X071313D01*
X071321Y030668D01*
X071406Y030645D01*
X071494D01*
X071579Y030668D01*
X071656Y030712D01*
X071718Y030775D01*
X071762Y030851D01*
X071785Y030936D01*
Y031024D01*
X071762Y03111D01*
X071718Y031186D01*
X071656Y031248D01*
X071579Y031293D01*
X071494Y031315D01*
X071406D01*
X071321Y031293D01*
X071244Y031248D01*
X071243Y031247D01*
X069382D01*
X06938Y031249D01*
X069301Y03127D01*
X069219D01*
X069172Y031257D01*
X069132Y031263D01*
X069012Y031312D01*
X068932Y031374D01*
X068859Y031433D01*
X068699Y031519D01*
X068525Y031572D01*
X068344Y031589D01*
Y031587D01*
X067774D01*
X06777Y031587D01*
X067605Y0316D01*
X067441Y031639D01*
X067285Y031704D01*
X067141Y031792D01*
X067015Y031899D01*
X067013Y031902D01*
X066846Y03207D01*
Y032134D01*
X066818Y032239D01*
X066763Y032334D01*
X066685Y032412D01*
X066591Y032466D01*
X066485Y032495D01*
X066375D01*
X066269Y032466D01*
X066175Y032412D01*
X066129Y032366D01*
X06609D01*
X066086Y032366D01*
X065965Y032378D01*
X065959Y032385D01*
X065942Y032518D01*
X06589Y032642D01*
X065809Y032749D01*
X065702Y03283D01*
X065578Y032882D01*
X065445Y032899D01*
X065295D01*
X065162Y032882D01*
X065038Y03283D01*
X064931Y032749D01*
X06485Y032642D01*
X064798Y032518D01*
X064781Y032385D01*
X064798Y032252D01*
X06485Y032128D01*
X064931Y032021D01*
X065038Y03194D01*
X065162Y031888D01*
X065196Y031884D01*
X065193Y031834D01*
X0645D01*
X064487Y031843D01*
X064395Y031861D01*
X063745D01*
X063654Y031843D01*
X063614Y031816D01*
X063564Y031843D01*
Y034141D01*
X063584Y034161D01*
X064785D01*
Y033865D01*
X065955D01*
Y034885D01*
D02*
G37*
G36*
X057934Y033885D02*
X057806D01*
X057683Y033852D01*
X057572Y033788D01*
X057482Y033698D01*
X057418Y033587D01*
X057396Y033504D01*
X057344D01*
X057322Y033587D01*
X057258Y033698D01*
X057168Y033788D01*
X057057Y033852D01*
X056934Y033885D01*
X056806D01*
X056683Y033852D01*
X056572Y033788D01*
X056482Y033698D01*
X056418Y033587D01*
X056396Y033504D01*
X056344D01*
X056322Y033587D01*
X056258Y033698D01*
X056168Y033788D01*
X056057Y033852D01*
X055934Y033885D01*
X055806D01*
X055683Y033852D01*
X055572Y033788D01*
X055482Y033698D01*
X055418Y033587D01*
X055396Y033504D01*
X055344D01*
X055322Y033587D01*
X055258Y033698D01*
X055168Y033788D01*
X055057Y033852D01*
X054934Y033885D01*
X054806D01*
X054683Y033852D01*
X054572Y033788D01*
X054482Y033698D01*
X054418Y033587D01*
X054396Y033504D01*
X054344D01*
X054322Y033587D01*
X054258Y033698D01*
X054168Y033788D01*
X054057Y033852D01*
X053934Y033885D01*
X053806D01*
X053683Y033852D01*
X053572Y033788D01*
X053482Y033698D01*
X053418Y033587D01*
X053396Y033504D01*
X053344D01*
X053322Y033587D01*
X053258Y033698D01*
X053168Y033788D01*
X053057Y033852D01*
X052934Y033885D01*
X052806D01*
X052683Y033852D01*
X052572Y033788D01*
X052482Y033698D01*
X052418Y033587D01*
X052396Y033504D01*
X052344D01*
X052322Y033587D01*
X052258Y033698D01*
X052168Y033788D01*
X052057Y033852D01*
X051934Y033885D01*
X051806D01*
X051683Y033852D01*
X051572Y033788D01*
X051482Y033698D01*
X051418Y033587D01*
X051385Y033464D01*
Y033336D01*
X051418Y033213D01*
X051482Y033102D01*
X051572Y033012D01*
X051683Y032948D01*
X051806Y032915D01*
X051934D01*
X052057Y032948D01*
X052168Y033012D01*
X052258Y033102D01*
X052322Y033213D01*
X052344Y033296D01*
X052396D01*
X052418Y033213D01*
X052482Y033102D01*
X052572Y033012D01*
X052683Y032948D01*
X052766Y032926D01*
Y032874D01*
X052683Y032852D01*
X052572Y032788D01*
X052482Y032698D01*
X052418Y032587D01*
X052385Y032464D01*
Y032336D01*
X052418Y032213D01*
X052482Y032102D01*
X052572Y032012D01*
X052683Y031948D01*
X052806Y031915D01*
X052934D01*
X053057Y031948D01*
X053168Y032012D01*
X053258Y032102D01*
X053322Y032213D01*
X053344Y032296D01*
X053396D01*
X053418Y032213D01*
X053482Y032102D01*
X053572Y032012D01*
X053683Y031948D01*
X053806Y031915D01*
X053934D01*
X054057Y031948D01*
X054168Y032012D01*
X054258Y032102D01*
X054322Y032213D01*
X054344Y032296D01*
X054396D01*
X054418Y032213D01*
X054482Y032102D01*
X054572Y032012D01*
X054683Y031948D01*
X054806Y031915D01*
X054934D01*
X055057Y031948D01*
X055168Y032012D01*
X055258Y032102D01*
X055322Y032213D01*
X055344Y032296D01*
X055396D01*
X055418Y032213D01*
X055482Y032102D01*
X055572Y032012D01*
X055683Y031948D01*
X055806Y031915D01*
X055934D01*
X056057Y031948D01*
X056168Y032012D01*
X056258Y032102D01*
X056322Y032213D01*
X056344Y032296D01*
X056396D01*
X056418Y032213D01*
X056482Y032102D01*
X056572Y032012D01*
X056683Y031948D01*
X056806Y031915D01*
X056934D01*
X057057Y031948D01*
X057168Y032012D01*
X057258Y032102D01*
X057322Y032213D01*
X057355Y032336D01*
Y032464D01*
X057322Y032587D01*
X057258Y032698D01*
X057168Y032788D01*
X057057Y032852D01*
X056974Y032874D01*
Y032926D01*
X057057Y032948D01*
X057168Y033012D01*
X057258Y033102D01*
X057322Y033213D01*
X057344Y033296D01*
X057396D01*
X057418Y033213D01*
X057482Y033102D01*
X057572Y033012D01*
X057683Y032948D01*
X057806Y032915D01*
X057934D01*
X058057Y032948D01*
X058168Y033012D01*
X058258Y033102D01*
X058322Y033213D01*
X058335Y033262D01*
X058385Y033255D01*
Y032915D01*
X058725D01*
X058731Y032865D01*
X058683Y032852D01*
X058572Y032788D01*
X058482Y032698D01*
X058418Y032587D01*
X058385Y032464D01*
Y032336D01*
X058418Y032213D01*
X058482Y032102D01*
X058572Y032012D01*
X058683Y031948D01*
X058806Y031915D01*
X058934D01*
X059057Y031948D01*
X059168Y032012D01*
X059258Y032102D01*
X059322Y032213D01*
X059355Y032336D01*
Y032464D01*
X059322Y032587D01*
X059258Y032698D01*
X059168Y032788D01*
X059057Y032852D01*
X059008Y032865D01*
X059015Y032915D01*
X059355D01*
Y033885D01*
X058385D01*
Y033545D01*
X058335Y033538D01*
X058322Y033587D01*
X058258Y033698D01*
X058168Y033788D01*
X058057Y033852D01*
X057934Y033885D01*
D02*
G37*
G36*
X076394Y033058D02*
X076295D01*
X076199Y033032D01*
X076113Y032982D01*
X076043Y032912D01*
X075993Y032826D01*
X075968Y032731D01*
Y032632D01*
X075993Y032536D01*
X076043Y03245D01*
X076113Y03238D01*
X076199Y03233D01*
X076295Y032305D01*
X076394D01*
X07649Y03233D01*
X076575Y03238D01*
X076645Y03245D01*
X076695Y032536D01*
X076721Y032632D01*
Y032731D01*
X076695Y032826D01*
X076645Y032912D01*
X076575Y032982D01*
X07649Y033032D01*
X076394Y033058D01*
D02*
G37*
G36*
X057934Y029818D02*
X057806D01*
X057683Y029785D01*
X057572Y029721D01*
X057482Y029631D01*
X057418Y029521D01*
X057396Y029438D01*
X057344D01*
X057322Y029521D01*
X057258Y029631D01*
X057168Y029721D01*
X057057Y029785D01*
X056934Y029818D01*
X056806D01*
X056683Y029785D01*
X056572Y029721D01*
X056482Y029631D01*
X056418Y029521D01*
X056396Y029438D01*
X056344D01*
X056322Y029521D01*
X056258Y029631D01*
X056168Y029721D01*
X056057Y029785D01*
X055934Y029818D01*
X055806D01*
X055683Y029785D01*
X055572Y029721D01*
X055482Y029631D01*
X055418Y029521D01*
X055396Y029438D01*
X055344D01*
X055322Y029521D01*
X055258Y029631D01*
X055168Y029721D01*
X055057Y029785D01*
X054934Y029818D01*
X054806D01*
X054683Y029785D01*
X054572Y029721D01*
X054482Y029631D01*
X054418Y029521D01*
X054396Y029438D01*
X054344D01*
X054322Y029521D01*
X054258Y029631D01*
X054168Y029721D01*
X054057Y029785D01*
X053934Y029818D01*
X053806D01*
X053683Y029785D01*
X053572Y029721D01*
X053482Y029631D01*
X053418Y029521D01*
X053396Y029438D01*
X053344D01*
X053322Y029521D01*
X053258Y029631D01*
X053168Y029721D01*
X053057Y029785D01*
X052934Y029818D01*
X052806D01*
X052683Y029785D01*
X052572Y029721D01*
X052482Y029631D01*
X052418Y029521D01*
X052396Y029438D01*
X052344D01*
X052322Y029521D01*
X052258Y029631D01*
X052168Y029721D01*
X052057Y029785D01*
X051934Y029818D01*
X051806D01*
X051683Y029785D01*
X051572Y029721D01*
X051482Y029631D01*
X051418Y029521D01*
X051385Y029397D01*
Y029269D01*
X051418Y029146D01*
X051482Y029036D01*
X051572Y028945D01*
X051683Y028881D01*
X051806Y028848D01*
X051934D01*
X052057Y028881D01*
X052168Y028945D01*
X052258Y029036D01*
X052322Y029146D01*
X052344Y029229D01*
X052396D01*
X052418Y029146D01*
X052482Y029036D01*
X052572Y028945D01*
X052683Y028881D01*
X052766Y028859D01*
Y028807D01*
X052683Y028785D01*
X052572Y028721D01*
X052482Y028631D01*
X052418Y028521D01*
X052385Y028397D01*
Y028269D01*
X052418Y028146D01*
X052482Y028036D01*
X052572Y027945D01*
X052683Y027881D01*
X052806Y027848D01*
X052934D01*
X053057Y027881D01*
X053168Y027945D01*
X053258Y028036D01*
X053322Y028146D01*
X053344Y028229D01*
X053396D01*
X053418Y028146D01*
X053482Y028036D01*
X053572Y027945D01*
X053683Y027881D01*
X053806Y027848D01*
X053934D01*
X054057Y027881D01*
X054168Y027945D01*
X054258Y028036D01*
X054322Y028146D01*
X054344Y028229D01*
X054396D01*
X054418Y028146D01*
X054482Y028036D01*
X054572Y027945D01*
X054683Y027881D01*
X054806Y027848D01*
X054934D01*
X055057Y027881D01*
X055168Y027945D01*
X055258Y028036D01*
X055322Y028146D01*
X055344Y028229D01*
X055396D01*
X055418Y028146D01*
X055482Y028036D01*
X055572Y027945D01*
X055683Y027881D01*
X055806Y027848D01*
X055934D01*
X056057Y027881D01*
X056168Y027945D01*
X056258Y028036D01*
X056322Y028146D01*
X056344Y028229D01*
X056396D01*
X056418Y028146D01*
X056482Y028036D01*
X056572Y027945D01*
X056683Y027881D01*
X056806Y027848D01*
X056934D01*
X057057Y027881D01*
X057168Y027945D01*
X057258Y028036D01*
X057322Y028146D01*
X057344Y028229D01*
X057396D01*
X057418Y028146D01*
X057482Y028036D01*
X057572Y027945D01*
X057683Y027881D01*
X057806Y027848D01*
X057934D01*
X058057Y027881D01*
X058168Y027945D01*
X058258Y028036D01*
X058322Y028146D01*
X058344Y028229D01*
X058396D01*
X058418Y028146D01*
X058482Y028036D01*
X058572Y027945D01*
X058683Y027881D01*
X058806Y027848D01*
X058934D01*
X059057Y027881D01*
X059168Y027945D01*
X059258Y028036D01*
X059322Y028146D01*
X059355Y028269D01*
Y028397D01*
X059322Y028521D01*
X059258Y028631D01*
X059168Y028721D01*
X059057Y028785D01*
X059008Y028798D01*
X059015Y028848D01*
X059355D01*
Y029818D01*
X058385D01*
Y029478D01*
X058335Y029472D01*
X058322Y029521D01*
X058258Y029631D01*
X058168Y029721D01*
X058057Y029785D01*
X057934Y029818D01*
D02*
G37*
G36*
X076394Y029906D02*
X076295D01*
X076199Y02988D01*
X076113Y02983D01*
X076043Y02976D01*
X075993Y029674D01*
X075968Y029579D01*
Y02948D01*
X075993Y029384D01*
X076043Y029298D01*
X076113Y029228D01*
X076199Y029178D01*
X076295Y029153D01*
X076394D01*
X07649Y029178D01*
X076575Y029228D01*
X076645Y029298D01*
X076695Y029384D01*
X076721Y02948D01*
Y029579D01*
X076695Y029674D01*
X076645Y02976D01*
X076575Y02983D01*
X07649Y02988D01*
X076394Y029906D01*
D02*
G37*
G36*
X066846Y034857D02*
X066014D01*
Y034025D01*
X066147D01*
X066163Y033975D01*
X066097Y033909D01*
X066042Y033814D01*
X066014Y033708D01*
Y033599D01*
X066042Y033493D01*
X066097Y033398D01*
X066175Y033321D01*
X066269Y033266D01*
X066375Y033238D01*
X066485D01*
X066591Y033266D01*
X066685Y033321D01*
X066763Y033398D01*
X066818Y033493D01*
X066846Y033599D01*
Y033708D01*
X066818Y033814D01*
X066763Y033909D01*
X066697Y033975D01*
X066713Y034025D01*
X066846D01*
Y034237D01*
X067103D01*
X06711Y034239D01*
X067183Y034224D01*
X067245Y034183D01*
X06725Y034176D01*
X067255Y034173D01*
X067307Y034105D01*
X067342Y03402D01*
X067353Y033935D01*
X067352Y033929D01*
Y033775D01*
X067352Y033773D01*
X067367Y033586D01*
X067411Y033403D01*
X067483Y033228D01*
X067582Y033067D01*
X067704Y032925D01*
X067705Y032923D01*
X068285Y032343D01*
X068293Y032338D01*
X068364Y032245D01*
X068401Y032156D01*
X068374Y032108D01*
X068355Y032039D01*
Y031966D01*
X068374Y031896D01*
X06841Y031833D01*
X068461Y031782D01*
X068524Y031746D01*
X068594Y031727D01*
X068666D01*
X068736Y031746D01*
X068799Y031782D01*
X06885Y031833D01*
X068886Y031896D01*
X068905Y031966D01*
Y032039D01*
X068886Y032108D01*
X06885Y032171D01*
X068805Y032216D01*
X068767Y032343D01*
X068684Y032497D01*
X068574Y032632D01*
X068573Y032631D01*
X067993Y033212D01*
X067985Y033217D01*
X067892Y033331D01*
X067839Y03343D01*
X067841Y033438D01*
X067896Y033446D01*
X067923Y033404D01*
X068014Y033313D01*
X068121Y033242D01*
X06824Y033193D01*
X068366Y033168D01*
X068494D01*
X068497Y033168D01*
X069638Y032028D01*
X069638Y032028D01*
X069723Y031962D01*
X069823Y031921D01*
X06993Y031906D01*
X071559D01*
X072019Y031447D01*
Y028998D01*
X072019Y028998D01*
X072033Y028891D01*
X072074Y028791D01*
X07214Y028705D01*
X072877Y027969D01*
Y026893D01*
X072736D01*
Y026714D01*
X072212D01*
Y027014D01*
X071499D01*
Y026089D01*
X071497Y02608D01*
Y025749D01*
X0715Y025733D01*
Y025717D01*
X071517Y025632D01*
X071523Y025617D01*
X071526Y025601D01*
X071559Y025521D01*
X071568Y025508D01*
X071574Y025493D01*
X071623Y025421D01*
X071634Y02541D01*
X071643Y025396D01*
X071674Y025366D01*
X071695Y025344D01*
X071709Y025335D01*
X07172Y025324D01*
X071771Y02529D01*
X071786Y025284D01*
X071799Y025275D01*
X071856Y025251D01*
X071871Y025248D01*
X071886Y025242D01*
X071946Y02523D01*
X071962D01*
X071978Y025227D01*
X07216D01*
X072175Y02523D01*
X072191D01*
X072257Y025243D01*
X072272Y025249D01*
X072288Y025252D01*
X07235Y025278D01*
X072363Y025287D01*
X072378Y025293D01*
X072434Y025331D01*
X072446Y025342D01*
X072459Y025351D01*
X072483Y025375D01*
X072483Y025375D01*
X072519Y025411D01*
X072528Y025424D01*
X072539Y025436D01*
X072596Y025521D01*
X072602Y025536D01*
X072611Y025549D01*
X072651Y025644D01*
X072654Y02566D01*
X07266Y025675D01*
X07268Y025775D01*
Y025791D01*
X072683Y025807D01*
Y025886D01*
X072736D01*
Y025707D01*
X073844D01*
Y026893D01*
X073704D01*
Y026955D01*
X073912D01*
Y02759D01*
X073704D01*
Y02814D01*
X073704Y02814D01*
X07369Y028247D01*
X073648Y028347D01*
X073583Y028432D01*
X073582Y028432D01*
X072846Y029169D01*
Y031618D01*
X072846Y031618D01*
X072832Y031725D01*
X07279Y031825D01*
X072725Y031911D01*
X072725Y031911D01*
X072023Y032612D01*
X071937Y032678D01*
X071837Y032719D01*
X07173Y032734D01*
X07173Y032734D01*
X070101D01*
X069082Y033753D01*
X069082Y033756D01*
Y033884D01*
X069057Y03401D01*
X069008Y034129D01*
X068937Y034236D01*
X068846Y034327D01*
X068739Y034398D01*
X06862Y034447D01*
X068494Y034472D01*
X068366D01*
X06824Y034447D01*
X068121Y034398D01*
X068014Y034327D01*
X067923Y034236D01*
X067852Y034129D01*
X067803Y03401D01*
X067802Y034007D01*
X067752Y034009D01*
X067745Y034077D01*
X067702Y034219D01*
X067632Y03435D01*
X067539Y034463D01*
X067538Y034465D01*
X06753Y03447D01*
X06749Y034503D01*
X067486Y034509D01*
X067469Y03452D01*
X067444Y034541D01*
X067338Y034597D01*
X067223Y034632D01*
X067112Y034643D01*
X067103Y034645D01*
X066846D01*
Y034857D01*
D02*
G37*
G36*
X068492Y026283D02*
X067857D01*
Y026129D01*
X067849Y026126D01*
X067803Y026102D01*
X067741D01*
X067671Y026083D01*
X067609Y026047D01*
X067558Y025996D01*
X067521Y025933D01*
X067503Y025863D01*
Y02579D01*
X067521Y025721D01*
X067558Y025658D01*
X067609Y025607D01*
X067671Y02557D01*
X067741Y025552D01*
X067814D01*
X067884Y02557D01*
X067946Y025607D01*
X067988Y025648D01*
X068492D01*
Y026283D01*
D02*
G37*
G36*
X064247Y024173D02*
X064174D01*
X064104Y024154D01*
X064041Y024118D01*
X06399Y024067D01*
X063954Y024004D01*
X063945Y023969D01*
X063916Y023925D01*
X063844D01*
X063774Y023906D01*
X063711Y02387D01*
X06369Y023849D01*
X063649Y02389D01*
X063586Y023926D01*
X063516Y023945D01*
X063444D01*
X063374Y023926D01*
X063311Y02389D01*
X06326Y023839D01*
X063224Y023776D01*
X063205Y023706D01*
Y023634D01*
X063224Y023564D01*
X06326Y023501D01*
X063285Y023476D01*
X063294Y023408D01*
X063348Y023278D01*
X063434Y023165D01*
X063434Y023165D01*
X063466Y023128D01*
X063491Y023095D01*
X063526Y023011D01*
X063537Y022927D01*
X063536Y022921D01*
Y020985D01*
X063538Y020976D01*
X063524Y020829D01*
X063478Y020679D01*
X063404Y020541D01*
X063383Y020516D01*
X063374D01*
X063304Y020497D01*
X063241Y020461D01*
X06319Y020409D01*
X063154Y020347D01*
X063135Y020277D01*
Y020204D01*
X063154Y020134D01*
X06319Y020072D01*
X063241Y02002D01*
X063304Y019984D01*
X063374Y019966D01*
X063446D01*
X063516Y019984D01*
X063579Y02002D01*
X06363Y020072D01*
X063666Y020134D01*
X063685Y020204D01*
Y020243D01*
X063714Y020277D01*
X063718Y020283D01*
X063721Y020283D01*
X063765Y020265D01*
Y020204D01*
X063784Y020134D01*
X06382Y020072D01*
X063871Y02002D01*
X063934Y019984D01*
X064004Y019966D01*
X064076D01*
X064146Y019984D01*
X064209Y02002D01*
X06426Y020072D01*
X064296Y020134D01*
X064315Y020204D01*
Y020277D01*
X064296Y020347D01*
X06426Y020409D01*
X064244Y020426D01*
Y020641D01*
X064294Y020672D01*
X064343Y020659D01*
X064415D01*
X064485Y020677D01*
X064548Y020713D01*
X064599Y020765D01*
X064635Y020827D01*
X064654Y020897D01*
Y02097D01*
X064635Y02104D01*
X064614Y021076D01*
Y02344D01*
X064614D01*
X064598Y023608D01*
X064549Y02377D01*
X064485Y023888D01*
Y023934D01*
X064467Y024004D01*
X06443Y024067D01*
X064379Y024118D01*
X064316Y024154D01*
X064247Y024173D01*
D02*
G37*
G36*
X067741Y023794D02*
X067614Y023778D01*
X067497Y023729D01*
X067395Y023651D01*
X067317Y02355D01*
X067269Y023432D01*
X067266Y023414D01*
X067216D01*
X067214Y023432D01*
X067165Y02355D01*
X067087Y023651D01*
X066986Y023729D01*
X066868Y023778D01*
X066741Y023794D01*
X066614Y023778D01*
X066497Y023729D01*
X066395Y023651D01*
X066317Y02355D01*
X066269Y023432D01*
X066252Y023305D01*
Y023055D01*
X066269Y022928D01*
X066317Y02281D01*
X066325Y0228D01*
Y021767D01*
X066323D01*
X066341Y021579D01*
X066396Y021399D01*
X066485Y021232D01*
X066605Y021086D01*
X066606Y021086D01*
X066738Y020978D01*
X066889Y020897D01*
X067052Y020848D01*
X067222Y020831D01*
Y020833D01*
X06762D01*
Y020673D01*
X06626D01*
Y020673D01*
X066119Y02066D01*
X065983Y020618D01*
X065858Y020552D01*
X065748Y020462D01*
X065749Y020461D01*
X065642Y020337D01*
X065556Y020197D01*
X065494Y020045D01*
X065455Y019886D01*
X065442Y019723D01*
X065443D01*
Y019D01*
X065444Y018996D01*
X065431Y018866D01*
X065392Y018736D01*
X065328Y018617D01*
X065273Y018551D01*
X065242Y018514D01*
X064949Y018221D01*
X064949Y018221D01*
X064392Y017664D01*
X064389Y017661D01*
X064288Y017578D01*
X064169Y017514D01*
X06404Y017475D01*
X06391Y017462D01*
X063906Y017463D01*
X059164D01*
X059161Y017462D01*
X059068Y017474D01*
X058979Y017512D01*
X05894Y017541D01*
X058903Y017572D01*
X058903Y017572D01*
X058772Y017684D01*
X058625Y017774D01*
X058466Y01784D01*
X058298Y01788D01*
X058126Y017893D01*
Y017893D01*
X05758D01*
X057499Y017882D01*
X057424Y017851D01*
X057359Y017801D01*
X057309Y017736D01*
X057278Y017661D01*
X057267Y01758D01*
X057278Y017499D01*
X057309Y017424D01*
X057359Y017359D01*
X057424Y017309D01*
X057499Y017278D01*
X05758Y017267D01*
X058126D01*
X058133Y017268D01*
X058249Y017253D01*
X058363Y017206D01*
X058422Y01716D01*
X058459Y017127D01*
X058459Y017127D01*
X05861Y017003D01*
X058782Y016911D01*
X05897Y016854D01*
X059164Y016835D01*
Y016837D01*
X063906D01*
Y016836D01*
X064111Y016852D01*
X064312Y0169D01*
X064502Y016979D01*
X064678Y017087D01*
X064835Y017221D01*
X064834Y017222D01*
X065391Y017779D01*
X065391Y017779D01*
X065649Y018036D01*
X065685Y018071D01*
X065685Y018071D01*
X065819Y018228D01*
X065927Y018403D01*
X066005Y018594D01*
X066054Y018794D01*
X06607Y019D01*
X066068D01*
Y019723D01*
X066068Y019727D01*
X066081Y019831D01*
X066123Y019933D01*
X066161Y019981D01*
X066191Y020019D01*
X066223Y02004D01*
X06626Y020047D01*
Y020047D01*
X068772D01*
Y020046D01*
X068978Y020062D01*
X069178Y02011D01*
X069369Y020189D01*
X069544Y020297D01*
X069701Y020431D01*
X0697Y020432D01*
X070304Y021035D01*
X070338Y02107D01*
X070375Y021101D01*
X070442Y021156D01*
X070561Y02122D01*
X07069Y021259D01*
X07082Y021272D01*
X070824Y021271D01*
X07149D01*
X071571Y021282D01*
X071646Y021313D01*
X071711Y021363D01*
X071761Y021427D01*
X071792Y021503D01*
X071803Y021584D01*
X071792Y021665D01*
X071761Y02174D01*
X071711Y021805D01*
X071646Y021855D01*
X071571Y021886D01*
X07149Y021896D01*
X070824D01*
Y021898D01*
X070619Y021882D01*
X070418Y021833D01*
X070228Y021755D01*
X070052Y021647D01*
X069895Y021513D01*
X069895Y021513D01*
X069861Y021477D01*
X069258Y020874D01*
X069255Y020871D01*
X069155Y020788D01*
X069036Y020724D01*
X068906Y020685D01*
X068776Y020672D01*
X068772Y020673D01*
X06834D01*
Y021575D01*
X06762D01*
X067599Y021617D01*
X067588Y021658D01*
X067552Y02172D01*
X067501Y021772D01*
X06748Y021784D01*
Y022003D01*
X067479Y022007D01*
X067486Y02204D01*
X067505Y022069D01*
X067508Y022071D01*
X067618Y022181D01*
X067621Y022186D01*
X067743Y022329D01*
X067845Y022495D01*
X067884Y022589D01*
X067986Y022631D01*
X068087Y022709D01*
X068165Y02281D01*
X068206Y02291D01*
X068256Y0229D01*
Y02257D01*
X069226D01*
Y02379D01*
X068256D01*
Y02346D01*
X068206Y02345D01*
X068165Y02355D01*
X068087Y023651D01*
X067986Y023729D01*
X067868Y023778D01*
X067741Y023794D01*
D02*
G37*
G36*
X071859Y023172D02*
X071718D01*
X071582Y023135D01*
X07146Y023065D01*
X071361Y022965D01*
X07129Y022843D01*
X071254Y022707D01*
Y022566D01*
X07129Y02243D01*
X071361Y022308D01*
X07146Y022208D01*
X071582Y022138D01*
X071718Y022102D01*
X071859D01*
X071995Y022138D01*
X072117Y022208D01*
X072217Y022308D01*
X072287Y02243D01*
X072324Y022566D01*
Y022707D01*
X072287Y022843D01*
X072217Y022965D01*
X072117Y023065D01*
X071995Y023135D01*
X071859Y023172D01*
D02*
G37*
G36*
X07738Y02825D02*
X07529D01*
Y021451D01*
X07661D01*
Y022523D01*
X07738D01*
Y02825D01*
D02*
G37*
G36*
X059355Y021685D02*
X058385D01*
Y021345D01*
X058335Y021338D01*
X058322Y021387D01*
X058258Y021498D01*
X058168Y021588D01*
X058057Y021652D01*
X057934Y021685D01*
X057806D01*
X057683Y021652D01*
X057572Y021588D01*
X057482Y021498D01*
X057418Y021387D01*
X057396Y021304D01*
X057344D01*
X057322Y021387D01*
X057258Y021498D01*
X057168Y021588D01*
X057057Y021652D01*
X056934Y021685D01*
X056806D01*
X056683Y021652D01*
X056572Y021588D01*
X056482Y021498D01*
X056418Y021387D01*
X056396Y021304D01*
X056344D01*
X056322Y021387D01*
X056258Y021498D01*
X056168Y021588D01*
X056057Y021652D01*
X055934Y021685D01*
X055806D01*
X055683Y021652D01*
X055572Y021588D01*
X055482Y021498D01*
X055418Y021387D01*
X055396Y021304D01*
X055344D01*
X055322Y021387D01*
X055258Y021498D01*
X055168Y021588D01*
X055057Y021652D01*
X054934Y021685D01*
X054806D01*
X054683Y021652D01*
X054572Y021588D01*
X054482Y021498D01*
X054418Y021387D01*
X054396Y021304D01*
X054344D01*
X054322Y021387D01*
X054258Y021498D01*
X054168Y021588D01*
X054057Y021652D01*
X053934Y021685D01*
X053806D01*
X053683Y021652D01*
X053572Y021588D01*
X053482Y021498D01*
X053418Y021387D01*
X053396Y021304D01*
X053344D01*
X053322Y021387D01*
X053258Y021498D01*
X053168Y021588D01*
X053057Y021652D01*
X052934Y021685D01*
X052806D01*
X052683Y021652D01*
X052572Y021588D01*
X052482Y021498D01*
X052418Y021387D01*
X052396Y021304D01*
X052344D01*
X052322Y021387D01*
X052258Y021498D01*
X052168Y021588D01*
X052057Y021652D01*
X051934Y021685D01*
X051806D01*
X051683Y021652D01*
X051572Y021588D01*
X051482Y021498D01*
X051418Y021387D01*
X051385Y021264D01*
Y021136D01*
X051418Y021013D01*
X051482Y020902D01*
X051572Y020812D01*
X051683Y020748D01*
X051806Y020715D01*
X051934D01*
X052057Y020748D01*
X052168Y020812D01*
X052258Y020902D01*
X052322Y021013D01*
X052344Y021096D01*
X052396D01*
X052418Y021013D01*
X052482Y020902D01*
X052572Y020812D01*
X052683Y020748D01*
X052766Y020726D01*
Y020674D01*
X052683Y020652D01*
X052572Y020588D01*
X052482Y020498D01*
X052418Y020387D01*
X052385Y020264D01*
Y020136D01*
X052418Y020013D01*
X052482Y019902D01*
X052572Y019812D01*
X052683Y019748D01*
X052806Y019715D01*
X052934D01*
X053057Y019748D01*
X053168Y019812D01*
X053258Y019902D01*
X053322Y020013D01*
X053344Y020096D01*
X053396D01*
X053418Y020013D01*
X053482Y019902D01*
X053572Y019812D01*
X053683Y019748D01*
X053806Y019715D01*
X053934D01*
X054057Y019748D01*
X054168Y019812D01*
X054258Y019902D01*
X054322Y020013D01*
X054344Y020096D01*
X054396D01*
X054418Y020013D01*
X054482Y019902D01*
X054572Y019812D01*
X054683Y019748D01*
X054806Y019715D01*
X054934D01*
X055057Y019748D01*
X055168Y019812D01*
X055258Y019902D01*
X055322Y020013D01*
X055344Y020096D01*
X055396D01*
X055418Y020013D01*
X055482Y019902D01*
X055572Y019812D01*
X055683Y019748D01*
X055806Y019715D01*
X055934D01*
X056057Y019748D01*
X056168Y019812D01*
X056258Y019902D01*
X056322Y020013D01*
X056344Y020096D01*
X056396D01*
X056418Y020013D01*
X056482Y019902D01*
X056572Y019812D01*
X056683Y019748D01*
X056806Y019715D01*
X056934D01*
X057057Y019748D01*
X057168Y019812D01*
X057258Y019902D01*
X057322Y020013D01*
X057344Y020096D01*
X057396D01*
X057418Y020013D01*
X057482Y019902D01*
X057572Y019812D01*
X057683Y019748D01*
X057806Y019715D01*
X057934D01*
X058057Y019748D01*
X058168Y019812D01*
X058258Y019902D01*
X058322Y020013D01*
X058344Y020096D01*
X058396D01*
X058418Y020013D01*
X058482Y019902D01*
X058572Y019812D01*
X058683Y019748D01*
X058806Y019715D01*
X058934D01*
X059057Y019748D01*
X059168Y019812D01*
X059258Y019902D01*
X059322Y020013D01*
X059355Y020136D01*
Y020264D01*
X059322Y020387D01*
X059258Y020498D01*
X059168Y020588D01*
X059057Y020652D01*
X059008Y020665D01*
X059015Y020715D01*
X059355D01*
Y021685D01*
D02*
G37*
G36*
X072859Y021172D02*
X072718D01*
X072582Y021135D01*
X07246Y021065D01*
X072361Y020965D01*
X07229Y020843D01*
X072254Y020707D01*
Y020566D01*
X07229Y02043D01*
X072361Y020308D01*
X07246Y020208D01*
X072582Y020138D01*
X072718Y020102D01*
X072859D01*
X072995Y020138D01*
X073117Y020208D01*
X073217Y020308D01*
X073287Y02043D01*
X073324Y020566D01*
Y020707D01*
X073287Y020843D01*
X073217Y020965D01*
X073117Y021065D01*
X072995Y021135D01*
X072859Y021172D01*
D02*
G37*
G36*
X070859D02*
X070718D01*
X070582Y021135D01*
X07046Y021065D01*
X070361Y020965D01*
X07029Y020843D01*
X070254Y020707D01*
Y020566D01*
X07029Y02043D01*
X070361Y020308D01*
X07046Y020208D01*
X070582Y020138D01*
X070718Y020102D01*
X070859D01*
X070995Y020138D01*
X071117Y020208D01*
X071217Y020308D01*
X071287Y02043D01*
X071324Y020566D01*
Y020707D01*
X071287Y020843D01*
X071217Y020965D01*
X071117Y021065D01*
X070995Y021135D01*
X070859Y021172D01*
D02*
G37*
G36*
X07712Y019748D02*
X076974Y019729D01*
X076838Y019672D01*
X076721Y019583D01*
X07665Y019491D01*
X07659D01*
X076519Y019583D01*
X076402Y019672D01*
X076266Y019729D01*
X07612Y019748D01*
X075974Y019729D01*
X075838Y019672D01*
X075721Y019583D01*
X075631Y019466D01*
X075574Y019329D01*
X075555Y019183D01*
Y018783D01*
X075574Y018637D01*
X075631Y018501D01*
X075721Y018384D01*
X075838Y018294D01*
X075872Y01828D01*
X075862Y01823D01*
X074378D01*
X074368Y01828D01*
X074402Y018294D01*
X074519Y018384D01*
X074609Y018501D01*
X074666Y018637D01*
X074685Y018783D01*
Y019183D01*
X074666Y019329D01*
X074609Y019466D01*
X074519Y019583D01*
X074402Y019672D01*
X074266Y019729D01*
X07412Y019748D01*
X073974Y019729D01*
X073838Y019672D01*
X073721Y019583D01*
X07365Y019491D01*
X07359D01*
X073519Y019583D01*
X073402Y019672D01*
X073266Y019729D01*
X07312Y019748D01*
X072974Y019729D01*
X072838Y019672D01*
X072721Y019583D01*
X072631Y019466D01*
X072574Y019329D01*
X072555Y019183D01*
Y018783D01*
X072574Y018637D01*
X072631Y018501D01*
X072721Y018384D01*
X072838Y018294D01*
X072872Y01828D01*
X072862Y01823D01*
X072689D01*
X072675Y018227D01*
X072538Y018245D01*
X072397Y018303D01*
X072313Y018368D01*
X072389Y018468D01*
X072446Y018604D01*
X072465Y01875D01*
Y01915D01*
X072446Y019296D01*
X072389Y019432D01*
X072299Y019549D01*
X072182Y019639D01*
X072046Y019696D01*
X0719Y019715D01*
X071754Y019696D01*
X071618Y019639D01*
X071501Y019549D01*
X07143Y019458D01*
X07137D01*
X071299Y019549D01*
X071182Y019639D01*
X071046Y019696D01*
X0709Y019715D01*
X070754Y019696D01*
X070618Y019639D01*
X070501Y019549D01*
X070411Y019432D01*
X070354Y019296D01*
X070335Y01915D01*
Y01875D01*
X070354Y018604D01*
X070411Y018468D01*
X070501Y018351D01*
X070618Y018261D01*
X070754Y018204D01*
X0709Y018185D01*
X071046Y018204D01*
X071182Y018261D01*
X071299Y018351D01*
X07137Y018442D01*
X07143D01*
X071501Y018351D01*
X071618Y018261D01*
X071754Y018204D01*
X071831Y018194D01*
X071941Y018061D01*
X071941Y018061D01*
X07195Y018054D01*
X072068Y017954D01*
X072209Y017867D01*
X072363Y017804D01*
X072524Y017765D01*
X072678Y017753D01*
X072689Y01775D01*
X076196D01*
X076202Y017752D01*
X07639Y017766D01*
X076579Y017812D01*
X076758Y017886D01*
X076924Y017988D01*
X077067Y01811D01*
X077072Y018113D01*
X077119Y018161D01*
X077119Y018161D01*
X077119Y018161D01*
X077123Y018166D01*
X077172Y018225D01*
X077266Y018238D01*
X077402Y018294D01*
X077519Y018384D01*
X077609Y018501D01*
X077666Y018637D01*
X077685Y018783D01*
Y019183D01*
X077666Y019329D01*
X077609Y019466D01*
X077519Y019583D01*
X077402Y019672D01*
X077266Y019729D01*
X07712Y019748D01*
D02*
G37*
G36*
X0689Y019715D02*
X068754Y019696D01*
X068618Y019639D01*
X068501Y019549D01*
X06843Y019458D01*
X06837D01*
X068299Y019549D01*
X068182Y019639D01*
X068046Y019696D01*
X0679Y019715D01*
X067754Y019696D01*
X067618Y019639D01*
X067501Y019549D01*
X067411Y019432D01*
X067354Y019296D01*
X067335Y01915D01*
Y01875D01*
X067354Y018604D01*
X067411Y018468D01*
X067501Y018351D01*
X067618Y018261D01*
X067754Y018204D01*
X0679Y018185D01*
X068046Y018204D01*
X068182Y018261D01*
X068299Y018351D01*
X06837Y018442D01*
X06843D01*
X068501Y018351D01*
X068618Y018261D01*
X068754Y018204D01*
X0689Y018185D01*
X069046Y018204D01*
X069182Y018261D01*
X069299Y018351D01*
X069389Y018468D01*
X069446Y018604D01*
X069465Y01875D01*
Y01915D01*
X069446Y019296D01*
X069389Y019432D01*
X069299Y019549D01*
X069182Y019639D01*
X069046Y019696D01*
X0689Y019715D01*
D02*
G37*
%LPD*%
G36*
X06403Y029811D02*
X064043Y029797D01*
X064064Y029766D01*
X064079Y029731D01*
X064086Y029694D01*
Y029675D01*
X06398D01*
X063943Y029673D01*
X063869Y029658D01*
X0638Y02963D01*
X063738Y029588D01*
X06371Y029563D01*
Y029563D01*
X06371D01*
X06371Y029563D01*
X063506Y029813D01*
X063831D01*
X06385Y029814D01*
X063888Y029821D01*
X063924Y029836D01*
X063956Y029857D01*
X06397Y02987D01*
Y02987D01*
X06403Y029811D01*
D02*
G37*
G36*
X065209Y02782D02*
X065209Y02782D01*
X065223Y02779D01*
X065223Y02779D01*
X065585Y027428D01*
X065112Y026955D01*
X065288Y026779D01*
X065209Y0267D01*
X065129Y02678D01*
X064748Y0264D01*
X064389Y026759D01*
Y026865D01*
X064373Y026943D01*
X064329Y027009D01*
X063954Y027384D01*
X063888Y027428D01*
X06381Y027444D01*
X063459D01*
X063429Y027491D01*
X063436Y027504D01*
X063455Y027574D01*
Y027597D01*
X063594Y027736D01*
X06425D01*
X064328Y027752D01*
X064394Y027796D01*
X064813Y028215D01*
X065209Y02782D01*
D02*
G37*
G36*
X067867Y025168D02*
X068874D01*
X067708Y024868D01*
X067708Y02505D01*
Y02505D01*
X067708Y025059D01*
X067712Y025076D01*
X067718Y025092D01*
X067728Y025106D01*
X067734Y025113D01*
Y025113D01*
X067747Y025126D01*
X067778Y025146D01*
X067812Y02516D01*
X067848Y025168D01*
X067867Y025168D01*
D02*
G37*
G36*
X072502Y026174D02*
X072511Y026161D01*
X072517Y026146D01*
X07252Y02613D01*
Y026122D01*
Y025859D01*
Y025807D01*
X0725Y025707D01*
X072461Y025612D01*
X072404Y025526D01*
X072367Y02549D01*
X072344Y025466D01*
X072288Y025429D01*
X072225Y025403D01*
X07216Y02539D01*
X071978D01*
X071918Y025402D01*
X071861Y025425D01*
X071811Y025459D01*
X071789Y025481D01*
X071758Y025512D01*
X07171Y025584D01*
X071677Y025664D01*
X07166Y025749D01*
Y025792D01*
Y02608D01*
X072496Y02618D01*
X072502Y026174D01*
D02*
G37*
D14*
X06724Y021773D02*
G03*
X067332Y021551I000313J0D01*
G01*
X07095Y024098D02*
G03*
X0708Y02446I-000511J0D01*
G01*
X067448Y02235D02*
G03*
X067741Y023057I-000707J000707D01*
G01*
X067338Y022241D02*
G03*
X06724Y022003I000238J-000238D01*
G01*
X076196Y01799D02*
G03*
X076903Y018283I0J001D01*
G01*
X07211Y01823D02*
G03*
X072689Y01799I000579J000579D01*
G01*
X0719Y018737D02*
G03*
X07211Y01823I000717J0D01*
G01*
X07695Y01833D02*
G03*
X07712Y01874I-00041J00041D01*
G01*
X06724Y021773D02*
Y022003D01*
X067338Y022241D02*
X067448Y02235D01*
X067741Y023057D02*
Y02318D01*
X076903Y018283D02*
X07695Y01833D01*
X072689Y01799D02*
X076196D01*
X0719Y018737D02*
Y01895D01*
X07712Y01874D02*
Y018983D01*
D16*
X066488Y031265D02*
G03*
X067196Y030972I000707J000707D01*
G01*
X068499Y03085D02*
G03*
X068204Y030972I-000295J-000295D01*
G01*
X06866Y03048D02*
G03*
X068512Y030837I-000505J0D01*
G01*
X066132Y025658D02*
G03*
X066559Y025481I000427J000427D01*
G01*
X065933D02*
G03*
X065676Y025375I0J-000364D01*
G01*
X065548Y025322D02*
G03*
X065676Y025375I0J000181D01*
G01*
X064401Y025614D02*
G03*
X065108Y025322I000707J000707D01*
G01*
X063962Y026053D02*
G03*
X063255Y026346I-000707J-000707D01*
G01*
X05981Y029326D02*
G03*
X059517Y030033I-001J0D01*
G01*
X060961Y029597D02*
G03*
X060254Y029304I0J-001D01*
G01*
X066997Y02569D02*
G03*
X067501Y025481I000504J000504D01*
G01*
X066254Y027399D02*
G03*
X066118Y027456I-000136J-000136D01*
G01*
X060109Y033046D02*
G03*
X059877Y03295I0J-000328D01*
G01*
D02*
G03*
X059594Y032266I000684J-000684D01*
G01*
X0594Y0315D02*
G03*
X059594Y031969I-000469J000469D01*
G01*
X0594Y0315D02*
G03*
X05921Y031041I000459J-000459D01*
G01*
Y030694D02*
G03*
X05946Y03009I000854J0D01*
G01*
X05981Y028546D02*
G03*
X059973Y028153I000556J0D01*
G01*
X060023Y028103D02*
G03*
X06073Y02781I000707J000707D01*
G01*
X06275Y03085D02*
G03*
X062276Y031046I-000474J-000474D01*
G01*
X051594Y01758D02*
G03*
X05187Y018247I-000667J000667D01*
G01*
X051352Y01748D02*
G03*
X051594Y01758I0J000341D01*
G01*
X07432Y021654D02*
G03*
X074613Y020947I001J0D01*
G01*
X075057Y020503D02*
G03*
X075764Y02021I000707J000707D01*
G01*
X076174D02*
G03*
X075467Y019917I0J-001D01*
G01*
X07784Y019341D02*
G03*
X07765Y0198I-000649J0D01*
G01*
X077533Y019917D02*
G03*
X076826Y02021I-000707J-000707D01*
G01*
X07528Y01973D02*
G03*
X07512Y019344I000386J-000386D01*
G01*
X077547Y01741D02*
G03*
X07784Y018117I-000707J000707D01*
G01*
X0699Y01895D02*
G03*
X06989Y018926I000024J-000024D01*
G01*
X070193Y019693D02*
G03*
X0699Y018986I000707J-000707D01*
G01*
X072496Y021959D02*
G03*
X072789Y022666I-000707J000707D01*
G01*
X072253Y021716D02*
G03*
X07196Y021009I000707J-000707D01*
G01*
X07182Y02008D02*
G03*
X07196Y020419I-000339J000339D01*
G01*
X071434Y01992D02*
G03*
X07182Y02008I0J000546D01*
G01*
X070675Y01992D02*
G03*
X07024Y01974I0J-000615D01*
G01*
X07151Y029065D02*
G03*
X071803Y028358I001J0D01*
G01*
X06681Y026584D02*
G03*
X066627Y027026I-000626J0D01*
G01*
X06681Y026142D02*
G03*
X066997Y02569I000639J0D01*
G01*
X068112Y025965D02*
G03*
X067778Y025827I0J-000473D01*
G01*
X0644Y02344D02*
G03*
X06421Y023898I-000648J0D01*
G01*
X07363Y030044D02*
Y03019D01*
X073625Y030039D02*
X07363Y030044D01*
X065383Y032372D02*
X065676Y032079D01*
X06537Y032385D02*
X065383Y032372D01*
X066254Y0315D02*
X066488Y031265D01*
X067196Y030972D02*
X068204D01*
X068499Y03085D02*
X068512Y030837D01*
X06866Y02959D02*
Y03048D01*
X066559Y025481D02*
X067501D01*
X065933D02*
X066559D01*
X065108Y025322D02*
X065548D01*
X063962Y026053D02*
X064401Y025614D01*
X062962Y026346D02*
X063255D01*
X05981Y02886D02*
Y029326D01*
Y028546D02*
Y02886D01*
X060254Y029304D01*
X060961Y029597D02*
X062915D01*
X067501Y025481D02*
X067863D01*
X060109Y033046D02*
X06035D01*
Y033546D01*
Y032546D02*
Y033046D01*
X059594Y031969D02*
Y032266D01*
X05946Y03009D02*
X059517Y030033D01*
X05921Y030694D02*
Y031041D01*
X059973Y028153D02*
X060023Y028103D01*
X06073Y02781D02*
X06117D01*
X06035Y031046D02*
X062276D01*
X05187Y018247D02*
Y019896D01*
Y0202D01*
X0512Y01748D02*
X051352D01*
X068783Y021123D02*
Y02186D01*
X06878Y02112D02*
X068783Y021123D01*
X062959Y02597D02*
X063415D01*
X06038Y02575D02*
X06061D01*
X06013Y0255D02*
X06038Y02575D01*
X06061D02*
X060875Y026015D01*
X06013Y02455D02*
Y0255D01*
X060875Y026015D02*
Y026245D01*
X0609Y02627D01*
X0606Y02481D02*
X06126Y02547D01*
X06388D01*
X06989Y01695D02*
Y018926D01*
X07432Y021654D02*
Y02348D01*
X074613Y020947D02*
X075057Y020503D01*
X076174Y02021D02*
X076826D01*
X075764D02*
X076174D01*
X077533Y019917D02*
X07765Y0198D01*
X07528Y01973D02*
X075467Y019917D01*
X07512Y018983D02*
Y019344D01*
X07784Y018117D02*
Y019341D01*
X07712Y016983D02*
X077547Y01741D01*
X0699Y01895D02*
Y018986D01*
X072253Y021716D02*
X072496Y021959D01*
X070675Y01992D02*
X071434D01*
X070193Y019693D02*
X07024Y01974D01*
X072789Y022666D02*
Y023325D01*
X07196Y020419D02*
Y021009D01*
X07151Y029065D02*
Y03022D01*
X071803Y028358D02*
X07196Y028201D01*
X068765Y025965D02*
X06944D01*
X06681Y026142D02*
Y026584D01*
X066254Y027399D02*
X066627Y027026D01*
X068112Y025965D02*
X068175D01*
X0644Y020955D02*
Y02344D01*
X064379Y020934D02*
X0644Y020955D01*
X070044Y026112D02*
Y026382D01*
X069898Y025965D02*
X070044Y026112D01*
X06944Y025965D02*
X069898D01*
X0699Y03025D02*
X07148D01*
X07151Y03022D01*
X06407Y034046D02*
X064751Y033365D01*
X06117Y027571D02*
Y02781D01*
Y027571D02*
X061641Y0271D01*
X061729Y02759D02*
X061859Y02772D01*
X06153Y02759D02*
X061729D01*
X061641Y0271D02*
X061925D01*
X0644Y02746D02*
X064791Y027851D01*
X0644Y02739D02*
Y02746D01*
X06643Y033654D02*
X066606D01*
X06838Y02931D02*
X06866Y02959D01*
X06805Y02931D02*
X06838D01*
X06681Y02844D02*
X06725D01*
X0664Y02924D02*
X06691Y02873D01*
X06763Y027026D02*
Y028497D01*
X06691Y02873D02*
X067397D01*
X06763Y028497D01*
X066627Y029463D02*
X067085Y029005D01*
X067957Y027273D02*
Y028593D01*
X067085Y029005D02*
X067545D01*
X067957Y028593D01*
X066627Y029463D02*
Y029912D01*
X066173Y029077D02*
X06681Y02844D01*
X066173Y029077D02*
Y029597D01*
X06557Y0302D02*
X066173Y029597D01*
X063556Y0302D02*
X06557D01*
X06407Y030546D02*
X065631D01*
X0664Y02924D02*
Y029778D01*
X065631Y030546D02*
X0664Y029778D01*
X065493Y031046D02*
X066627Y029912D01*
X06407Y031046D02*
X065493D01*
X063395Y030361D02*
X063556Y0302D01*
X063395Y030361D02*
Y030565D01*
X062414Y031546D02*
X063395Y030565D01*
X06035Y031546D02*
X062414D01*
X06763Y027026D02*
X06776Y026896D01*
X067957Y027273D02*
X06806Y02717D01*
X06537Y033365D02*
X065869Y032866D01*
X06643D01*
X064751Y033365D02*
X06537D01*
X06335Y03423D02*
X063495Y034375D01*
X06335Y03137D02*
Y03423D01*
X063495Y034375D02*
X06537D01*
X06407Y033546D02*
Y034046D01*
Y033046D02*
Y033546D01*
Y032546D02*
Y033046D01*
Y032046D02*
Y032546D01*
X06035Y033546D02*
Y034046D01*
X064791Y027851D02*
X065282Y02736D01*
Y027344D02*
Y02736D01*
X064711Y026773D02*
X065282Y027344D01*
X064711Y026749D02*
Y026773D01*
X05996Y02438D02*
X06013Y02455D01*
X05969Y02438D02*
X05996D01*
X05953Y02454D02*
X05969Y02438D01*
X05953Y02454D02*
Y02569D01*
X05574Y02592D02*
X0593D01*
X05953Y02569D01*
X05814Y02663D02*
X05827D01*
X05475D02*
X05517D01*
X055515D01*
X05559Y026705D01*
Y026805D01*
X055665Y02688D01*
X055815D01*
X05589Y026805D01*
Y026705D02*
Y026805D01*
Y026705D02*
X055965Y02663D01*
X056115D01*
X05619Y026705D01*
Y026805D01*
X056265Y02688D01*
X056415D01*
X05649Y026805D01*
Y026705D02*
Y026805D01*
Y026705D02*
X056565Y02663D01*
X056715D01*
X05679Y026705D01*
Y026805D01*
X056865Y02688D01*
X057015D01*
X05709Y026805D01*
Y026705D02*
Y026805D01*
Y026705D02*
X057165Y02663D01*
X057315D01*
X05739Y026705D01*
Y026805D01*
X057465Y02688D01*
X057615D01*
X05769Y026805D01*
Y026705D02*
Y026805D01*
Y026705D02*
X057765Y02663D01*
X05799D01*
X05814D01*
X05387Y02575D02*
X05475Y02663D01*
X05387Y025267D02*
Y02575D01*
X0606Y02455D02*
Y02481D01*
X05944Y02339D02*
X0606Y02455D01*
X05916Y02339D02*
X05944D01*
X056747D02*
X05717D01*
X058295D02*
X05916D01*
X05822Y023465D02*
X058295Y02339D01*
X05822Y023465D02*
Y023565D01*
X058145Y02364D02*
X05822Y023565D01*
X057995Y02364D02*
X058145D01*
X05792Y023565D02*
X057995Y02364D01*
X05792Y02339D02*
Y023565D01*
Y023215D02*
Y02339D01*
X057845Y02314D02*
X05792Y023215D01*
X057695Y02314D02*
X057845D01*
X05762Y023215D02*
X057695Y02314D01*
X05762Y023215D02*
Y02339D01*
Y023565D01*
X057545Y02364D02*
X05762Y023565D01*
X057395Y02364D02*
X057545D01*
X05732Y023565D02*
X057395Y02364D01*
X05732Y023465D02*
Y023565D01*
X057245Y02339D02*
X05732Y023465D01*
X05717Y02339D02*
X057245D01*
X05587Y024267D02*
X056747Y02339D01*
X0544Y025149D02*
Y025612D01*
X054643Y02504D02*
X05487Y025267D01*
X054509Y02504D02*
X054643D01*
X0544Y025149D02*
X054509Y02504D01*
X05524Y02582D02*
X05539Y02597D01*
X054608Y02582D02*
X05524D01*
X0544Y025612D02*
X054608Y02582D01*
X05548Y02626D02*
X05572D01*
X05539Y02597D02*
Y02617D01*
X05548Y02626D01*
X0549Y02719D02*
X059195D01*
X05339Y02568D02*
X0549Y02719D01*
X05339Y025D02*
Y02568D01*
Y025D02*
X05387Y02452D01*
Y024267D02*
Y02452D01*
X06098Y02663D02*
X06133Y02628D01*
X0594Y02663D02*
X06098D01*
X05827D02*
X058575D01*
X05865Y026705D01*
Y026865D01*
X058725Y02694D01*
X058875D01*
X05895Y026865D01*
Y02663D02*
Y026865D01*
Y026555D02*
Y02663D01*
Y026555D02*
X059025Y02648D01*
X059175D01*
X05925Y026555D01*
X059325Y02663D01*
X0594D01*
X0595Y026885D02*
X061195D01*
X059195Y02719D02*
X0595Y026885D01*
X05537Y02555D02*
X05574Y02592D01*
X05537Y024767D02*
Y02555D01*
X05487Y024267D02*
X05537Y024767D01*
X05921Y02626D02*
X06045D01*
X058045D02*
X05921D01*
X05797Y026335D02*
X058045Y02626D01*
X05797Y026335D02*
Y026375D01*
X057895Y02645D02*
X05797Y026375D01*
X057745Y02645D02*
X057895D01*
X05767Y026375D02*
X057745Y02645D01*
X05767Y02626D02*
Y026375D01*
Y026175D02*
Y02626D01*
X057595Y0261D02*
X05767Y026175D01*
X057445Y0261D02*
X057595D01*
X05737Y026175D02*
X057445Y0261D01*
X05737Y026175D02*
Y02626D01*
Y026375D01*
X057295Y02645D02*
X05737Y026375D01*
X057145Y02645D02*
X057295D01*
X05707Y026375D02*
X057145Y02645D01*
X05707Y02626D02*
Y026375D01*
Y026175D02*
Y02626D01*
X056995Y0261D02*
X05707Y026175D01*
X056845Y0261D02*
X056995D01*
X05677Y026175D02*
X056845Y0261D01*
X05677Y026175D02*
Y02626D01*
Y026375D01*
X056695Y02645D02*
X05677Y026375D01*
X056545Y02645D02*
X056695D01*
X05647Y026375D02*
X056545Y02645D01*
X05647Y02626D02*
Y026375D01*
Y026175D02*
Y02626D01*
X056395Y0261D02*
X05647Y026175D01*
X056245Y0261D02*
X056395D01*
X05617Y026175D02*
X056245Y0261D01*
X05617Y026175D02*
Y02626D01*
Y026375D01*
X056095Y02645D02*
X05617Y026375D01*
X055945Y02645D02*
X056095D01*
X05587Y026375D02*
X055945Y02645D01*
X05587Y026335D02*
Y026375D01*
X055795Y02626D02*
X05587Y026335D01*
X05572Y02626D02*
X055795D01*
X05268Y024077D02*
X05287Y024267D01*
X061258Y025115D02*
X061817D01*
X06089Y024747D02*
X061258Y025115D01*
X06089Y02443D02*
Y024747D01*
X05913Y02267D02*
X06089Y02443D01*
X05738Y02267D02*
X05913D01*
X055484D02*
X05738D01*
X055409Y022745D02*
X055484Y02267D01*
X055409Y022745D02*
Y022973D01*
X055334Y023048D02*
X055409Y022973D01*
X055184Y023048D02*
X055334D01*
X055109Y022973D02*
X055184Y023048D01*
X055109Y022745D02*
Y022973D01*
X055034Y02267D02*
X055109Y022745D01*
X054809Y02267D02*
X055034D01*
X054659D02*
X054809D01*
X054547Y022783D02*
X054659Y02267D01*
X054388Y022942D02*
X054547Y022783D01*
X054282Y022942D02*
X054388D01*
X05412Y022781D02*
X054282Y022942D01*
X054014Y022781D02*
X05412D01*
X053908Y022887D02*
X054014Y022781D01*
X053908Y022887D02*
Y022993D01*
X054122Y023207D01*
X054337Y023421D01*
Y023527D01*
X054231Y023633D02*
X054337Y023527D01*
X054125Y023633D02*
X054231D01*
X05391Y023419D02*
X054125Y023633D01*
X053696Y023205D02*
X05391Y023419D01*
X05359Y023205D02*
X053696D01*
X053484Y023311D02*
X05359Y023205D01*
X053484Y023311D02*
Y023417D01*
X053645Y023578D01*
Y023684D01*
X053486Y023843D02*
X053645Y023684D01*
X05338Y023949D02*
X053486Y023843D01*
X05338Y023949D02*
Y02471D01*
X05287Y02522D02*
X05338Y02471D01*
X05268Y02381D02*
Y024077D01*
Y02314D02*
Y023185D01*
Y023372D01*
X052743Y023435D01*
X052906D01*
X052969Y023498D01*
Y023623D01*
X052906Y023685D02*
X052969Y023623D01*
X052743Y023685D02*
X052906D01*
X05268Y023747D02*
X052743Y023685D01*
X05268Y023747D02*
Y02381D01*
X053475Y022345D02*
X05357Y02225D01*
X053343Y022477D02*
X053475Y022345D01*
X053343Y022477D02*
Y022565D01*
X053459Y022681D01*
Y02277D01*
X05337Y022858D02*
X053459Y02277D01*
X053282Y022858D02*
X05337D01*
X053122Y022698D02*
X053282Y022858D01*
X053056Y022633D02*
X053122Y022698D01*
X052968Y022633D02*
X053056D01*
X05288Y022721D02*
X052968Y022633D01*
X05288Y022721D02*
Y022809D01*
X052901Y022831D01*
Y022919D01*
X052768Y023052D02*
X052901Y022919D01*
X05268Y02314D02*
X052768Y023052D01*
X05639Y02225D02*
X05906D01*
X054507D02*
X05639D01*
X054445Y022313D02*
X054507Y02225D01*
X054445Y022313D02*
Y022476D01*
X054383Y022539D02*
X054445Y022476D01*
X054257Y022539D02*
X054383D01*
X054195Y022476D02*
X054257Y022539D01*
X054195Y02225D02*
Y022476D01*
Y022222D02*
Y02225D01*
X054132Y02216D02*
X054195Y022222D01*
X054008Y02216D02*
X054132D01*
X053945Y022222D02*
X054008Y02216D01*
X053917Y02225D02*
X053945Y022222D01*
X053695Y02225D02*
X053917D01*
X05357D02*
X053695D01*
X05906D02*
X06123Y02442D01*
X05335Y02198D02*
X05918D01*
X05234Y02299D02*
X05335Y02198D01*
X05287Y02522D02*
Y025267D01*
X05234Y02299D02*
Y024797D01*
X05187Y025267D02*
X05234Y024797D01*
X05918Y02198D02*
X0615Y0243D01*
Y02483D01*
X06123Y02442D02*
Y02446D01*
X061195Y026885D02*
X06178Y0263D01*
X07652Y027819D02*
X076549Y027904D01*
X076634Y027961D01*
X076777Y02799D01*
X076863D01*
X077006Y027961D01*
X077091Y027904D01*
X07712Y027819D01*
Y027761D01*
X077091Y027676D01*
X077006Y027619D01*
X076863Y02759D01*
X076777D01*
X076634Y027619D01*
X076549Y027676D01*
X07652Y027761D01*
Y027819D01*
Y027399D02*
Y027084D01*
X076749Y027256D01*
Y02717D01*
X076777Y027113D01*
X076806Y027084D01*
X076891Y027056D01*
X076949D01*
X077034Y027084D01*
X077091Y027142D01*
X07712Y027227D01*
Y027313D01*
X077091Y027399D01*
X077063Y027427D01*
X077006Y027456D01*
X07672Y02655D02*
X076806Y026579D01*
X076863Y026636D01*
X076891Y026722D01*
Y02675D01*
X076863Y026836D01*
X076806Y026893D01*
X07672Y026922D01*
X076692D01*
X076606Y026893D01*
X076549Y026836D01*
X07652Y02675D01*
Y026722D01*
X076549Y026636D01*
X076606Y026579D01*
X07672Y02655D01*
X076863D01*
X077006Y026579D01*
X077091Y026636D01*
X07712Y026722D01*
Y026779D01*
X077091Y026865D01*
X077034Y026893D01*
X076663Y026359D02*
X076634D01*
X076577Y02633D01*
X076549Y026302D01*
X07652Y026245D01*
Y02613D01*
X076549Y026073D01*
X076577Y026045D01*
X076634Y026016D01*
X076692D01*
X076749Y026045D01*
X076834Y026102D01*
X07712Y026387D01*
Y025988D01*
X07652Y02571D02*
X076549Y025796D01*
X076606Y025825D01*
X076663D01*
X07672Y025796D01*
X076749Y025739D01*
X076777Y025625D01*
X076806Y025539D01*
X076863Y025482D01*
X07692Y025453D01*
X077006D01*
X077063Y025482D01*
X077091Y025511D01*
X07712Y025596D01*
Y02571D01*
X077091Y025796D01*
X077063Y025825D01*
X077006Y025853D01*
X07692D01*
X076863Y025825D01*
X076806Y025768D01*
X076777Y025682D01*
X076749Y025568D01*
X07672Y025511D01*
X076663Y025482D01*
X076606D01*
X076549Y025511D01*
X07652Y025596D01*
Y02571D01*
Y025262D02*
Y024948D01*
X076749Y025119D01*
Y025033D01*
X076777Y024976D01*
X076806Y024948D01*
X076891Y024919D01*
X076949D01*
X077034Y024948D01*
X077091Y025005D01*
X07712Y025091D01*
Y025176D01*
X077091Y025262D01*
X077063Y025291D01*
X077006Y025319D01*
X07652Y024442D02*
Y024728D01*
X076777Y024756D01*
X076749Y024728D01*
X07672Y024642D01*
Y024556D01*
X076749Y024471D01*
X076806Y024414D01*
X076891Y024385D01*
X076949D01*
X077034Y024414D01*
X077091Y024471D01*
X07712Y024556D01*
Y024642D01*
X077091Y024728D01*
X077063Y024756D01*
X077006Y024785D01*
X076663Y024222D02*
X076634D01*
X076577Y024194D01*
X076549Y024165D01*
X07652Y024108D01*
Y023994D01*
X076549Y023937D01*
X076577Y023908D01*
X076634Y023879D01*
X076692D01*
X076749Y023908D01*
X076834Y023965D01*
X07712Y024251D01*
Y023851D01*
X076663Y023688D02*
X076634D01*
X076577Y02366D01*
X076549Y023631D01*
X07652Y023574D01*
Y02346D01*
X076549Y023402D01*
X076577Y023374D01*
X076634Y023345D01*
X076692D01*
X076749Y023374D01*
X076834Y023431D01*
X07712Y023717D01*
Y023317D01*
X07652Y023125D02*
Y022811D01*
X076749Y022982D01*
Y022897D01*
X076777Y02284D01*
X076806Y022811D01*
X076891Y022783D01*
X076949D01*
X077034Y022811D01*
X077091Y022868D01*
X07712Y022954D01*
Y02304D01*
X077091Y023125D01*
X077063Y023154D01*
X077006Y023182D01*
X07555Y02799D02*
X07615D01*
X07555Y02759D02*
X07595Y02799D01*
X075807Y027847D02*
X07615Y02759D01*
X07555Y027456D02*
X07615D01*
X075864D02*
X075779Y02737D01*
X07575Y027313D01*
Y027227D01*
X075779Y02717D01*
X075864Y027142D01*
X07615D01*
X07575Y026642D02*
X07615D01*
X075836D02*
X075779Y026699D01*
X07575Y026756D01*
Y026842D01*
X075779Y026899D01*
X075836Y026956D01*
X075921Y026985D01*
X075979D01*
X076064Y026956D01*
X076121Y026899D01*
X07615Y026842D01*
Y026756D01*
X076121Y026699D01*
X076064Y026642D01*
X07575Y026482D02*
X07615D01*
X075864D02*
X075779Y026396D01*
X07575Y026339D01*
Y026253D01*
X075779Y026196D01*
X075864Y026168D01*
X07615D01*
X07555Y02601D02*
X07615D01*
X075864D02*
X075779Y025925D01*
X07575Y025868D01*
Y025782D01*
X075779Y025725D01*
X075864Y025696D01*
X07615D01*
X076093Y025511D02*
X076121Y025539D01*
X07615Y025511D01*
X076121Y025482D01*
X076093Y025511D01*
X07555Y025151D02*
X07615D01*
X07555Y025351D02*
Y024951D01*
Y024879D02*
X07615D01*
X075864D02*
X075779Y024794D01*
X07575Y024736D01*
Y024651D01*
X075779Y024594D01*
X075864Y024565D01*
X07615D01*
X07575Y024065D02*
X07615D01*
X075836D02*
X075779Y024122D01*
X07575Y024179D01*
Y024265D01*
X075779Y024322D01*
X075836Y024379D01*
X075921Y024408D01*
X075979D01*
X076064Y024379D01*
X076121Y024322D01*
X07615Y024265D01*
Y024179D01*
X076121Y024122D01*
X076064Y024065D01*
X07575Y023905D02*
X07615D01*
X075864D02*
X075779Y023819D01*
X07575Y023762D01*
Y023677D01*
X075779Y02362D01*
X075864Y023591D01*
X07615D01*
X075864D02*
X075779Y023505D01*
X07575Y023448D01*
Y023362D01*
X075779Y023305D01*
X075864Y023277D01*
X07615D01*
X07555Y023088D02*
X07615D01*
X07555D02*
Y022888D01*
X075579Y022803D01*
X075636Y022745D01*
X075693Y022717D01*
X075779Y022688D01*
X075921D01*
X076007Y022717D01*
X076064Y022745D01*
X076121Y022803D01*
X07615Y022888D01*
Y023088D01*
X07575Y022554D02*
X076036D01*
X076121Y022525D01*
X07615Y022468D01*
Y022383D01*
X076121Y022325D01*
X076036Y02224D01*
X07575D02*
X07615D01*
X07575Y022054D02*
X07615Y021883D01*
X07575Y021711D02*
X07615Y021883D01*
X076264Y02194D01*
X076321Y021997D01*
X07635Y022054D01*
Y022083D01*
D23*
X06798Y02112D02*
D03*
X06878D02*
D03*
D24*
X07326Y02401D02*
D03*
X07452D02*
D03*
X07455Y0263D02*
D03*
X07329D02*
D03*
D40*
X062515Y0271D02*
D03*
X061925D02*
D03*
X073595Y027273D02*
D03*
X074185D02*
D03*
X068765Y025965D02*
D03*
X068175D02*
D03*
D41*
X063585Y029597D02*
D03*
X062915D02*
D03*
X061859Y02772D02*
D03*
X062528D02*
D03*
D42*
X068499Y024885D02*
D03*
Y024295D02*
D03*
X06906Y024299D02*
D03*
Y02489D02*
D03*
X067863Y024885D02*
D03*
Y024295D02*
D03*
D84*
X06348Y023549D02*
G03*
X063579Y02331I000338J0D01*
G01*
X06374Y022921D02*
G03*
X063579Y02331I-00055J0D01*
G01*
X063447Y020278D02*
G03*
X06374Y020985I-000707J000707D01*
G01*
X06404Y023264D02*
G03*
X06388Y02365I-000546J0D01*
G01*
X067556Y033775D02*
G03*
X067849Y033067I001J0D01*
G01*
X067342Y034365D02*
G03*
X067103Y034441I-000239J-000335D01*
G01*
X067394Y034321D02*
G03*
X067342Y034365I-000291J-000291D01*
G01*
X067556Y033929D02*
G03*
X067394Y034321I-000554J0D01*
G01*
X06863Y032002D02*
G03*
X068429Y032487I-000686J0D01*
G01*
X064027Y02978D02*
G03*
X063585Y029597I0J-000625D01*
G01*
X06348Y023549D02*
Y02367D01*
X06374Y020985D02*
Y022921D01*
X06341Y020241D02*
X063447Y020278D01*
X06404Y020241D02*
Y023264D01*
X067556Y033775D02*
Y033929D01*
X06643Y034441D02*
X067103D01*
X067849Y033067D02*
X068429Y032487D01*
X064027Y02978D02*
X06404D01*
X06388Y02846D02*
X06494Y02952D01*
X06118Y02846D02*
X06388D01*
X06171Y02678D02*
X06355D01*
X06374Y02875D02*
X0648Y02981D01*
X065133Y02844D02*
X065756Y027818D01*
X06351Y02794D02*
X06425D01*
X06318Y02761D02*
X06351Y02794D01*
X064185Y026675D02*
Y026865D01*
X06381Y02724D02*
X064185Y026865D01*
X06325Y02724D02*
X06381D01*
X062515Y0271D02*
X06288D01*
X06295Y02703D01*
X062515Y0271D02*
X062528Y027113D01*
Y02772D01*
X064185Y026675D02*
X06468Y02618D01*
X061468Y02875D02*
X06374D01*
X06144Y02819D02*
X06411D01*
X065644Y026847D02*
Y026982D01*
X065129Y026331D02*
X065644Y026847D01*
X064978Y02618D02*
X065129Y026331D01*
X06468Y02618D02*
X064978D01*
X06475Y02844D02*
X065133D01*
X06425Y02794D02*
X06475Y02844D01*
X05974Y02719D02*
X0613D01*
X06171Y02678D01*
X0652Y02952D02*
X06544Y02976D01*
X06494Y02952D02*
X0652D01*
X06411Y02819D02*
X06513Y02921D01*
D85*
X067397Y025267D02*
G03*
X067332Y025108I000159J-000159D01*
G01*
X067863Y025481D02*
G03*
X067434Y025303I0J-000608D01*
G01*
X065948Y026371D02*
G03*
X065948Y02637I000376J-000376D01*
G01*
X066324Y026526D02*
G03*
X065948Y026371I0J-000532D01*
G01*
X05187Y019896D02*
G03*
X052163Y019189I001J0D01*
G01*
X052458Y018894D02*
G03*
X054111Y018373I001653J002362D01*
G01*
X066303Y02418D02*
G03*
X065596Y023887I0J-001D01*
G01*
X065363Y023654D02*
G03*
X06507Y022947I000707J-000707D01*
G01*
X064777Y018822D02*
G03*
X06507Y019529I-000707J000707D01*
G01*
X063225Y017684D02*
G03*
X063932Y017977I0J001D01*
G01*
X06025Y01815D02*
G03*
X059711Y018373I-000539J-000539D01*
G01*
X060423Y017977D02*
G03*
X06113Y017684I000707J000707D01*
G01*
X068499Y025481D02*
G03*
X06866Y025548I0J000228D01*
G01*
D02*
G03*
X068765Y025802I-000254J000254D01*
G01*
X069924Y023455D02*
G03*
X070034Y023325I000817J000577D01*
G01*
X069492Y023887D02*
G03*
X068785Y02418I-000707J-000707D01*
G01*
X07432Y02348D02*
G03*
X07452Y023963I-000483J000483D01*
G01*
X073945Y023325D02*
G03*
X07432Y02348I0J000531D01*
G01*
X071347Y023325D02*
G03*
X070639Y023032I0J-001D01*
G01*
X070052Y021987D02*
G03*
X070345Y022694I-000707J000707D01*
G01*
Y022737D02*
G03*
X070149Y02321I-000669J0D01*
G01*
X069775Y021868D02*
G03*
X070044Y02198I0J000381D01*
G01*
X066303Y02418D02*
X067332D01*
Y025108D01*
Y02418D02*
X068785D01*
X067863Y025481D02*
X068499D01*
X066324Y026526D02*
X066544D01*
X065294Y025716D02*
X065948Y02637D01*
X052163Y019189D02*
X052458Y018894D01*
X054111Y018373D02*
X054112Y018373D01*
X059354D01*
X059711D01*
X065363Y023654D02*
X065596Y023887D01*
X06507Y02001D02*
Y022947D01*
X063932Y017977D02*
X064777Y018822D01*
X06113Y017684D02*
X0615D01*
X063225D01*
X06507Y019529D02*
Y02001D01*
X06025Y01815D02*
X060423Y017977D01*
X068765Y025802D02*
Y025965D01*
X070034Y023325D02*
X070149Y02321D01*
X069492Y023887D02*
X069924Y023455D01*
X067397Y025267D02*
X067434Y025303D01*
X069767Y02186D02*
X069775Y021868D01*
X068783Y02186D02*
X069767D01*
X072789Y023325D02*
X073945D01*
X071347D02*
X072789D01*
X070345Y022694D02*
Y022737D01*
X070639Y023032D01*
X07452Y023963D02*
Y02401D01*
X070044Y02198D02*
X070052Y021987D01*
D88*
X068795Y031113D02*
G03*
X06926Y03096I000465J000629D01*
G01*
X068716Y031181D02*
G03*
X068795Y031113I000544J000561D01*
G01*
X068716Y031181D02*
G03*
X068344Y0313I-000371J-000518D01*
G01*
X068795Y031113D02*
G03*
X068716Y031181I-000451J-000451D01*
G01*
X06681Y031699D02*
G03*
X067774Y0313I000964J000964D01*
G01*
X065383Y032372D02*
G03*
X06609Y032079I000707J000707D01*
G01*
X07095Y027019D02*
G03*
X070657Y027726I-001J0D01*
G01*
X06926Y029537D02*
G03*
X069553Y02883I001J0D01*
G01*
X06681Y021291D02*
G03*
X067222Y02112I000412J000412D01*
G01*
X066613Y021767D02*
G03*
X06681Y021291I000674J0D01*
G01*
X066741Y02318D02*
G03*
X066613Y02287I00031J-00031D01*
G01*
X0719Y025791D02*
G03*
X071937Y025881I-00009J00009D01*
G01*
X067774Y0313D02*
X068344D01*
X06609Y032079D02*
X06643D01*
X06681Y031699D01*
X07095Y026382D02*
Y027019D01*
Y02618D02*
Y026382D01*
X069553Y02883D02*
X070657Y027726D01*
X06926Y03096D02*
X07143D01*
X06926Y029537D02*
Y03096D01*
X067222Y02112D02*
X06798D01*
X066613Y021767D02*
Y02287D01*
X071937Y025881D02*
Y0263D01*
X07143Y03096D02*
X07145Y03098D01*
X06654Y03048D02*
X0673D01*
X065474Y031546D02*
X06654Y03048D01*
X06407Y031546D02*
X065474D01*
X0673Y03048D02*
X06759Y03019D01*
D89*
X073407Y024917D02*
G03*
X07326Y024563I000354J-000354D01*
G01*
X065463Y018293D02*
G03*
X065756Y019I-000707J000707D01*
G01*
X063906Y01715D02*
G03*
X064613Y017443I0J001D01*
G01*
X058681Y01735D02*
G03*
X059164Y01715I000483J000483D01*
G01*
X058681Y01735D02*
G03*
X058126Y01758I-000555J-000555D01*
G01*
X06626Y02036D02*
G03*
X06597Y02024I0J-00041D01*
G01*
D02*
G03*
X065756Y019723I000517J-000517D01*
G01*
X070824Y021584D02*
G03*
X070117Y021291I0J-001D01*
G01*
X068772Y02036D02*
G03*
X069479Y020653I0J001D01*
G01*
X07326Y02401D02*
Y024563D01*
X073407Y024917D02*
X07356Y02507D01*
X07095Y025021D02*
Y02618D01*
Y024098D02*
Y025021D01*
X06806D02*
X07095D01*
X05758Y01758D02*
X058126D01*
X06517Y018D02*
X065463Y018293D01*
X064613Y017443D02*
X06517Y018D01*
X059164Y01715D02*
X063906D01*
X06638Y02036D02*
X068772D01*
X06626D02*
X06638D01*
X065756Y019D02*
Y019723D01*
X070824Y021584D02*
X07149D01*
X069479Y020653D02*
X070117Y021291D01*
D90*
X05187Y0324D02*
D03*
X05287D02*
D03*
X05387D02*
D03*
X05487D02*
D03*
X05587D02*
D03*
X05687D02*
D03*
X05887D02*
D03*
X05287Y0334D02*
D03*
X05487Y0334D02*
D03*
X05787Y0334D02*
D03*
X05687D02*
D03*
X05587Y0334D02*
D03*
X05387Y0334D02*
D03*
X05187Y0334D02*
D03*
Y028333D02*
D03*
X05287Y028333D02*
D03*
X05387D02*
D03*
X05487D02*
D03*
X05587Y028333D02*
D03*
X05687Y028333D02*
D03*
X05787D02*
D03*
X05887D02*
D03*
X05287Y029333D02*
D03*
X05487D02*
D03*
X05787D02*
D03*
X05687D02*
D03*
X05587D02*
D03*
X05387D02*
D03*
X05187D02*
D03*
Y025267D02*
D03*
X05387D02*
D03*
X05587D02*
D03*
X05687D02*
D03*
X05787D02*
D03*
X05487D02*
D03*
X05287D02*
D03*
X05887Y024267D02*
D03*
X05787Y024267D02*
D03*
X05687D02*
D03*
X05587Y024267D02*
D03*
X05487D02*
D03*
X05387Y024267D02*
D03*
X05287D02*
D03*
X05187Y024267D02*
D03*
Y0202D02*
D03*
X05287Y0202D02*
D03*
X05387Y0202D02*
D03*
X05487Y0202D02*
D03*
X05587Y0202D02*
D03*
X05687D02*
D03*
X05787Y0202D02*
D03*
X05887D02*
D03*
X05287Y0212D02*
D03*
X05487Y0212D02*
D03*
X05787Y0212D02*
D03*
X05687Y0212D02*
D03*
X05587D02*
D03*
X05387D02*
D03*
X05187D02*
D03*
D91*
X05887Y0334D02*
D03*
X05887Y029333D02*
D03*
X05887Y025267D02*
D03*
Y0212D02*
D03*
D92*
X07043Y03382D02*
D03*
X06843D02*
D03*
D93*
X07312Y018983D02*
D03*
X07412D02*
D03*
X07612D02*
D03*
X07712D02*
D03*
X0719Y01895D02*
D03*
X0709D02*
D03*
X0689D02*
D03*
X0679D02*
D03*
D94*
X07511Y016983D02*
D03*
X06989Y01695D02*
D03*
D95*
X07712Y016983D02*
D03*
Y015983D02*
D03*
X07512Y018983D02*
D03*
X07312Y016983D02*
D03*
Y015983D02*
D03*
X0679Y01595D02*
D03*
Y01695D02*
D03*
X0699Y01895D02*
D03*
X0719Y01595D02*
D03*
Y01695D02*
D03*
D96*
X070789Y020637D02*
D03*
X071789Y022637D02*
D03*
X072789Y020637D02*
D03*
D97*
X068741Y02318D02*
D03*
D98*
X067741D02*
D03*
X066741D02*
D03*
D99*
X06537Y032385D02*
D03*
Y033365D02*
D03*
D100*
Y034375D02*
D03*
D101*
X0512Y015905D02*
D03*
Y016693D02*
D03*
Y01748D02*
D03*
X06643Y032079D02*
D03*
Y032866D02*
D03*
Y033654D02*
D03*
D102*
X0512Y018267D02*
D03*
X06643Y034441D02*
D03*
D103*
X073625Y030039D02*
D03*
X062976Y023706D02*
D03*
X061353Y02355D02*
D03*
X06638Y028269D02*
D03*
X065748Y028894D02*
D03*
X06937Y02406D02*
D03*
X053572Y019411D02*
D03*
X05607D02*
D03*
X055572Y03486D02*
D03*
X073184Y03479D02*
D03*
X07788Y021081D02*
D03*
Y025443D02*
D03*
Y03032D02*
D03*
Y03479D02*
D03*
X066254Y0315D02*
D03*
X06863Y032002D02*
D03*
X062962Y026346D02*
D03*
X066132Y025658D02*
D03*
X065294Y025716D02*
D03*
X06118Y02846D02*
D03*
X06275Y03085D02*
D03*
X059354Y018373D02*
D03*
X068783Y02186D02*
D03*
X067332Y021551D02*
D03*
X067863Y025481D02*
D03*
X066544Y026526D02*
D03*
X06352Y0259D02*
D03*
X06355Y02678D02*
D03*
X062959Y02597D02*
D03*
X06388Y02547D02*
D03*
X05758Y01758D02*
D03*
X0615Y017684D02*
D03*
X0719Y025791D02*
D03*
X07211Y025571D02*
D03*
X06517Y018D02*
D03*
X06507Y02001D02*
D03*
X06341Y020241D02*
D03*
X06404D02*
D03*
X07196Y028201D02*
D03*
X06638Y02036D02*
D03*
X07149Y021584D02*
D03*
X070345Y022737D02*
D03*
X067778Y025827D02*
D03*
X06806Y025021D02*
D03*
X064379Y020934D02*
D03*
X06388Y02365D02*
D03*
X06348Y02367D02*
D03*
X06421Y023898D02*
D03*
X06944Y025965D02*
D03*
X07356Y02507D02*
D03*
X0699Y03025D02*
D03*
X07151Y03022D02*
D03*
X06404Y02978D02*
D03*
X06325Y02724D02*
D03*
X06117Y02781D02*
D03*
X06153Y02759D02*
D03*
X06725Y02844D02*
D03*
X06776Y026896D02*
D03*
X06806Y02717D02*
D03*
X06335Y03137D02*
D03*
X061468Y02875D02*
D03*
X06144Y02819D02*
D03*
X0644Y02739D02*
D03*
X06295Y02703D02*
D03*
X06318Y02761D02*
D03*
X06805Y02931D02*
D03*
X05974Y02719D02*
D03*
X06123Y02446D02*
D03*
X0615Y02483D02*
D03*
X061817Y025115D02*
D03*
X06544Y02976D02*
D03*
X06513Y02921D02*
D03*
X0648Y02981D02*
D03*
X06178Y0263D02*
D03*
X06045Y02626D02*
D03*
X0609Y02627D02*
D03*
X06133Y02628D02*
D03*
D104*
X076344Y032681D02*
D03*
Y029529D02*
D03*
D105*
X06926Y03096D02*
D03*
D106*
X07145Y03098D02*
D03*
D107*
X06407Y034046D02*
D03*
Y033546D02*
D03*
Y033046D02*
D03*
Y032546D02*
D03*
Y032046D02*
D03*
Y031546D02*
D03*
Y031046D02*
D03*
Y030546D02*
D03*
X06035Y034046D02*
D03*
Y033546D02*
D03*
Y033046D02*
D03*
Y032546D02*
D03*
Y032046D02*
D03*
Y031546D02*
D03*
Y031046D02*
D03*
D108*
Y030546D02*
D03*
D109*
X065282Y027344D02*
D03*
X065644Y026982D02*
D03*
X065756Y027818D02*
D03*
X066118Y027456D02*
D03*
D110*
X07095Y024098D02*
D03*
D111*
X071856Y026382D02*
D03*
X07095Y026382D02*
D03*
X070044Y026382D02*
D03*
D112*
X07363Y03019D02*
D03*
X06759D02*
D03*
D113*
X064711Y026749D02*
D03*
X065129Y026331D02*
D03*
D114*
X064791Y027851D02*
D03*
X065209Y028269D02*
D03*
D115*
X072432Y028998D02*
Y031618D01*
Y028998D02*
X07329Y02814D01*
X07173Y03232D02*
X072432Y031618D01*
X06993Y03232D02*
X07173D01*
X07452Y02401D02*
Y03215D01*
X06843Y03382D02*
X06993Y03232D01*
X071937Y0263D02*
X07329D01*
X07285Y03382D02*
X07452Y03215D01*
X07043Y03382D02*
X07285D01*
X07329Y0263D02*
Y02814D01*
D116*
X07095Y024098D02*
X071038Y02401D01*
X07326D01*
M02*
