G04*
G04 #@! TF.GenerationSoftware,Altium Limited,Altium Designer,21.0.8 (223)*
G04*
G04 Layer_Physical_Order=1*
G04 Layer_Color=255*
%FSTAX24Y24*%
%MOIN*%
G70*
G04*
G04 #@! TF.SameCoordinates,2867BDE3-1686-46F1-8F54-3A33D440E248*
G04*
G04*
G04 #@! TF.FilePolarity,Positive*
G04*
G01*
G75*
%ADD14C,0.0150*%
%ADD16C,0.0100*%
%ADD21R,0.0700X0.0700*%
%ADD22R,0.0354X0.0512*%
%ADD23R,0.0400X0.0591*%
%ADD24R,0.0787X0.0866*%
G04:AMPARAMS|DCode=25|XSize=63mil|YSize=86.2mil|CornerRadius=15.7mil|HoleSize=0mil|Usage=FLASHONLY|Rotation=90.000|XOffset=0mil|YOffset=0mil|HoleType=Round|Shape=RoundedRectangle|*
%AMROUNDEDRECTD25*
21,1,0.0630,0.0547,0,0,90.0*
21,1,0.0315,0.0862,0,0,90.0*
1,1,0.0315,0.0274,0.0157*
1,1,0.0315,0.0274,-0.0157*
1,1,0.0315,-0.0274,-0.0157*
1,1,0.0315,-0.0274,0.0157*
%
%ADD25ROUNDEDRECTD25*%
%ADD26R,0.0750X0.0250*%
G04:AMPARAMS|DCode=27|XSize=25mil|YSize=75mil|CornerRadius=6.3mil|HoleSize=0mil|Usage=FLASHONLY|Rotation=270.000|XOffset=0mil|YOffset=0mil|HoleType=Round|Shape=RoundedRectangle|*
%AMROUNDEDRECTD27*
21,1,0.0250,0.0625,0,0,270.0*
21,1,0.0125,0.0750,0,0,270.0*
1,1,0.0125,-0.0313,-0.0063*
1,1,0.0125,-0.0313,0.0063*
1,1,0.0125,0.0313,0.0063*
1,1,0.0125,0.0313,-0.0063*
%
%ADD27ROUNDEDRECTD27*%
%ADD28R,0.0591X0.0400*%
%ADD29R,0.0433X0.0350*%
%ADD30R,0.0700X0.0700*%
G04:AMPARAMS|DCode=31|XSize=11.8mil|YSize=59.1mil|CornerRadius=3mil|HoleSize=0mil|Usage=FLASHONLY|Rotation=0.000|XOffset=0mil|YOffset=0mil|HoleType=Round|Shape=RoundedRectangle|*
%AMROUNDEDRECTD31*
21,1,0.0118,0.0531,0,0,0.0*
21,1,0.0059,0.0591,0,0,0.0*
1,1,0.0059,0.0030,-0.0266*
1,1,0.0059,-0.0030,-0.0266*
1,1,0.0059,-0.0030,0.0266*
1,1,0.0059,0.0030,0.0266*
%
%ADD31ROUNDEDRECTD31*%
G04:AMPARAMS|DCode=32|XSize=11.8mil|YSize=59.1mil|CornerRadius=3mil|HoleSize=0mil|Usage=FLASHONLY|Rotation=90.000|XOffset=0mil|YOffset=0mil|HoleType=Round|Shape=RoundedRectangle|*
%AMROUNDEDRECTD32*
21,1,0.0118,0.0531,0,0,90.0*
21,1,0.0059,0.0591,0,0,90.0*
1,1,0.0059,0.0266,0.0030*
1,1,0.0059,0.0266,-0.0030*
1,1,0.0059,-0.0266,-0.0030*
1,1,0.0059,-0.0266,0.0030*
%
%ADD32ROUNDEDRECTD32*%
%ADD33R,0.0591X0.0118*%
G04:AMPARAMS|DCode=34|XSize=63mil|YSize=55.1mil|CornerRadius=2.8mil|HoleSize=0mil|Usage=FLASHONLY|Rotation=90.000|XOffset=0mil|YOffset=0mil|HoleType=Round|Shape=RoundedRectangle|*
%AMROUNDEDRECTD34*
21,1,0.0630,0.0496,0,0,90.0*
21,1,0.0575,0.0551,0,0,90.0*
1,1,0.0055,0.0248,0.0287*
1,1,0.0055,0.0248,-0.0287*
1,1,0.0055,-0.0248,-0.0287*
1,1,0.0055,-0.0248,0.0287*
%
%ADD34ROUNDEDRECTD34*%
G04:AMPARAMS|DCode=35|XSize=51.2mil|YSize=98.4mil|CornerRadius=2.6mil|HoleSize=0mil|Usage=FLASHONLY|Rotation=90.000|XOffset=0mil|YOffset=0mil|HoleType=Round|Shape=RoundedRectangle|*
%AMROUNDEDRECTD35*
21,1,0.0512,0.0933,0,0,90.0*
21,1,0.0461,0.0984,0,0,90.0*
1,1,0.0051,0.0467,0.0230*
1,1,0.0051,0.0467,-0.0230*
1,1,0.0051,-0.0467,-0.0230*
1,1,0.0051,-0.0467,0.0230*
%
%ADD35ROUNDEDRECTD35*%
G04:AMPARAMS|DCode=36|XSize=47.2mil|YSize=78.7mil|CornerRadius=2.4mil|HoleSize=0mil|Usage=FLASHONLY|Rotation=90.000|XOffset=0mil|YOffset=0mil|HoleType=Round|Shape=RoundedRectangle|*
%AMROUNDEDRECTD36*
21,1,0.0472,0.0740,0,0,90.0*
21,1,0.0425,0.0787,0,0,90.0*
1,1,0.0047,0.0370,0.0213*
1,1,0.0047,0.0370,-0.0213*
1,1,0.0047,-0.0370,-0.0213*
1,1,0.0047,-0.0370,0.0213*
%
%ADD36ROUNDEDRECTD36*%
G04:AMPARAMS|DCode=37|XSize=27.6mil|YSize=78.7mil|CornerRadius=1.4mil|HoleSize=0mil|Usage=FLASHONLY|Rotation=90.000|XOffset=0mil|YOffset=0mil|HoleType=Round|Shape=RoundedRectangle|*
%AMROUNDEDRECTD37*
21,1,0.0276,0.0760,0,0,90.0*
21,1,0.0248,0.0787,0,0,90.0*
1,1,0.0028,0.0380,0.0124*
1,1,0.0028,0.0380,-0.0124*
1,1,0.0028,-0.0380,-0.0124*
1,1,0.0028,-0.0380,0.0124*
%
%ADD37ROUNDEDRECTD37*%
G04:AMPARAMS|DCode=38|XSize=47.2mil|YSize=55.1mil|CornerRadius=2.4mil|HoleSize=0mil|Usage=FLASHONLY|Rotation=90.000|XOffset=0mil|YOffset=0mil|HoleType=Round|Shape=RoundedRectangle|*
%AMROUNDEDRECTD38*
21,1,0.0472,0.0504,0,0,90.0*
21,1,0.0425,0.0551,0,0,90.0*
1,1,0.0047,0.0252,0.0213*
1,1,0.0047,0.0252,-0.0213*
1,1,0.0047,-0.0252,-0.0213*
1,1,0.0047,-0.0252,0.0213*
%
%ADD38ROUNDEDRECTD38*%
%ADD39R,0.0472X0.0550*%
%ADD40R,0.0315X0.0315*%
%ADD41R,0.0350X0.0433*%
%ADD42R,0.0315X0.0315*%
%ADD84C,0.0080*%
%ADD85C,0.0200*%
%ADD86C,0.0090*%
%ADD87C,0.0100*%
%ADD88C,0.0250*%
%ADD89C,0.0300*%
%ADD90C,0.0650*%
%ADD91R,0.0650X0.0650*%
%ADD92C,0.0984*%
%ADD93O,0.0800X0.1200*%
%ADD94O,0.1800X0.1000*%
%ADD95C,0.0550*%
%ADD96C,0.0750*%
%ADD97R,0.0650X0.0900*%
%ADD98O,0.0650X0.0900*%
%ADD99O,0.0850X0.0700*%
%ADD100R,0.0850X0.0700*%
%ADD101C,0.0512*%
%ADD102R,0.0512X0.0512*%
%ADD103C,0.0230*%
%ADD104C,0.0433*%
%ADD105C,0.0300*%
%ADD106C,0.0350*%
G36*
X078139Y015564D02*
X06688D01*
Y01638D01*
X066716D01*
X0667Y016402D01*
X066691Y01643D01*
X066756Y016552D01*
X066767Y016565D01*
X067199D01*
Y017135D01*
X066129D01*
Y016565D01*
X066135D01*
X066164Y016515D01*
X066131Y01638D01*
X06586D01*
Y015564D01*
X06568D01*
Y01638D01*
X065432D01*
Y016479D01*
X065433D01*
X065421Y016596D01*
X065387Y01671D01*
X065331Y016814D01*
X065256Y016906D01*
X065256Y016906D01*
X065149Y016994D01*
X065027Y01706D01*
X064941Y017086D01*
X064934Y017095D01*
X064924Y017143D01*
X064962Y017201D01*
X064979Y017287D01*
Y017413D01*
X064962Y017499D01*
X064941Y017531D01*
X064953Y017557D01*
X06497Y017578D01*
X065114Y017622D01*
X065253Y017696D01*
X065374Y017796D01*
X065373Y017797D01*
X065419Y017856D01*
X065448Y017926D01*
X065457Y018D01*
X065448Y018074D01*
X065419Y018144D01*
X065373Y018203D01*
X065314Y018249D01*
X065244Y018278D01*
X06517Y018287D01*
X065096Y018278D01*
X065026Y018249D01*
X065022Y018246D01*
X064977Y018274D01*
X064979Y018288D01*
Y018412D01*
X064962Y018499D01*
X064913Y018573D01*
X064839Y018622D01*
X064752Y018639D01*
X064127D01*
X064118Y018637D01*
X063925D01*
Y018716D01*
X064257D01*
Y018739D01*
X064893D01*
Y01876D01*
X065686D01*
X065708Y018715D01*
X065659Y018652D01*
X065605Y018521D01*
X065586Y01838D01*
X065586D01*
Y018309D01*
X065589Y018295D01*
X0656Y018177D01*
X065639Y018051D01*
X065701Y017934D01*
X065777Y017842D01*
X065784Y017831D01*
X065793Y017825D01*
X065899Y017738D01*
X066029Y017669D01*
X066169Y017626D01*
X066198Y017623D01*
X066265Y017578D01*
X066352Y017561D01*
X066977D01*
X067064Y017578D01*
X067137Y017627D01*
X067186Y017701D01*
X067204Y017787D01*
Y017912D01*
X067186Y017999D01*
X067137Y018073D01*
X067064Y018122D01*
X066977Y018139D01*
X066352D01*
X066265Y018122D01*
X066234Y018101D01*
X066179Y018124D01*
X066126Y018164D01*
X066123Y018169D01*
X066116Y018174D01*
X066077Y018232D01*
X066064Y0183D01*
X066065Y018309D01*
Y01838D01*
X066065Y018382D01*
X066069Y018405D01*
X066082Y018424D01*
X066084Y018425D01*
X066419Y01876D01*
X067064D01*
Y01978D01*
X066044D01*
Y019063D01*
X06591Y018929D01*
X065864Y018948D01*
Y01978D01*
X064844D01*
Y019409D01*
X064257D01*
Y020056D01*
X064275Y020098D01*
X064296Y020134D01*
X064315Y020204D01*
Y020277D01*
X064296Y020347D01*
X06426Y020409D01*
X064209Y020461D01*
X064146Y020497D01*
X064076Y020516D01*
X064004D01*
X063934Y020497D01*
X063871Y020461D01*
X06382Y020409D01*
X063784Y020347D01*
X063765Y020277D01*
Y020274D01*
X063735Y020218D01*
X063685Y020231D01*
Y020277D01*
X063666Y020347D01*
X06363Y020409D01*
X063579Y020461D01*
X063521Y020494D01*
X063511Y020511D01*
X063502Y020545D01*
X06445Y021494D01*
X064496Y021475D01*
Y021239D01*
X064446Y0212D01*
X064415Y021209D01*
X064343D01*
X064273Y02119D01*
X06421Y021154D01*
X064159Y021102D01*
X064123Y02104D01*
X064104Y02097D01*
Y020897D01*
X064123Y020827D01*
X064159Y020765D01*
X064175Y020749D01*
X06418Y020709D01*
X064223Y020605D01*
X064288Y02052D01*
X064292Y020515D01*
X064302Y020507D01*
X064383Y020442D01*
X064485Y020387D01*
X064496Y020383D01*
Y020273D01*
X065293D01*
X065304Y020219D01*
X065353Y020146D01*
X065426Y020096D01*
X065513Y020079D01*
X066138D01*
X066148Y020081D01*
X066268D01*
X066301Y020081D01*
X06636Y020057D01*
Y020057D01*
X066402Y020075D01*
X066454Y020082D01*
X066524Y020111D01*
X066583Y020157D01*
X066629Y020216D01*
X066648Y020263D01*
X066704Y020266D01*
X066709Y020255D01*
X066815Y020126D01*
X066817Y020127D01*
X06692Y020024D01*
X066955Y019987D01*
X066955Y019987D01*
X067094Y019869D01*
X067249Y019773D01*
X067418Y019703D01*
X067571Y019667D01*
X067583Y019612D01*
X067501Y019549D01*
X067411Y019432D01*
X067354Y019296D01*
X067335Y01915D01*
Y01875D01*
X067354Y018604D01*
X067411Y018468D01*
X067501Y018351D01*
X067618Y018261D01*
X067754Y018204D01*
X067884Y018187D01*
X067896Y018168D01*
X068017Y018026D01*
X068021Y018021D01*
X068023Y018019D01*
X068155Y01791D01*
X068309Y017828D01*
X068475Y017778D01*
X068645Y017761D01*
X068649Y01776D01*
X072273D01*
Y01776D01*
X07246Y017779D01*
X072639Y017833D01*
X072804Y017922D01*
X072949Y018041D01*
X072949Y018041D01*
X072997Y018088D01*
X072997Y018088D01*
X072997Y018088D01*
X073Y018093D01*
X073108Y01822D01*
X07312Y018218D01*
X073266Y018238D01*
X073402Y018294D01*
X073519Y018384D01*
X07359Y018475D01*
X07365D01*
X073721Y018384D01*
X073838Y018294D01*
X073974Y018238D01*
X07412Y018218D01*
X074266Y018238D01*
X074402Y018294D01*
X074519Y018384D01*
X074609Y018501D01*
X074666Y018637D01*
X074685Y018783D01*
Y019183D01*
X074666Y019329D01*
X074609Y019466D01*
X074519Y019583D01*
X074402Y019672D01*
X074266Y019729D01*
X074242Y019732D01*
X074235Y019783D01*
X074319Y019818D01*
X07444Y01991D01*
X074439Y019911D01*
X07444Y019912D01*
X074523Y02002D01*
X074562Y020114D01*
X074641D01*
Y020741D01*
X07466Y020783D01*
X074691Y020783D01*
X076D01*
Y020898D01*
X07607D01*
Y020745D01*
X076863D01*
Y021615D01*
X07607D01*
Y021422D01*
X076D01*
Y021537D01*
X075235D01*
Y023379D01*
X075233Y023392D01*
X07522Y023516D01*
X07518Y023647D01*
X075116Y023769D01*
X075036Y023865D01*
X075029Y023876D01*
X075022Y023881D01*
X074951Y023967D01*
X074894Y024074D01*
X074858Y02419D01*
X074847Y024302D01*
X074849Y024311D01*
Y024398D01*
X074847Y024409D01*
X074834Y024539D01*
X074793Y024674D01*
X074727Y024798D01*
X074644Y024899D01*
X074638Y024908D01*
X074638Y024908D01*
X074638Y024908D01*
X074523Y025023D01*
X074524Y025023D01*
X074375Y025145D01*
X074206Y025235D01*
X074022Y025291D01*
X073936Y025299D01*
X073935Y025349D01*
X074017Y02536D01*
X074095Y025392D01*
X074161Y025443D01*
X074212Y025509D01*
X074244Y025586D01*
X074255Y025669D01*
Y025984D01*
X074244Y026067D01*
X074212Y026144D01*
X074161Y026211D01*
X074095Y026261D01*
X074017Y026293D01*
X073935Y026304D01*
X073872D01*
X073859Y026371D01*
X073812Y02644D01*
X073252Y027001D01*
X07328Y027043D01*
X073304Y027033D01*
X073387Y027022D01*
X073935D01*
X074017Y027033D01*
X074095Y027065D01*
X074161Y027116D01*
X074212Y027182D01*
X074244Y02726D01*
X074255Y027343D01*
Y027657D01*
X074244Y02774D01*
X074212Y027818D01*
X074161Y027884D01*
X074095Y027935D01*
X074017Y027967D01*
X073935Y027978D01*
X073446D01*
X073444Y02798D01*
Y02927D01*
X073428Y029348D01*
X073384Y029414D01*
X072886Y029912D01*
X07282Y029956D01*
X072742Y029972D01*
X072692D01*
X072661Y030017D01*
X072604Y030055D01*
X072536Y030069D01*
X071776D01*
X071708Y030055D01*
X071651Y030017D01*
X071612Y02996D01*
X071599Y029892D01*
Y02986D01*
X071549Y02984D01*
X071414Y029974D01*
X071348Y030018D01*
X07127Y030034D01*
X07102D01*
X070942Y030018D01*
X070887Y029982D01*
X070847Y029996D01*
X070837Y030004D01*
Y030342D01*
X070203D01*
Y030144D01*
X06971D01*
X069628Y030128D01*
X069559Y030081D01*
X0692Y029723D01*
X069124D01*
X069097Y029773D01*
X069115Y029799D01*
X069129Y029873D01*
Y029932D01*
X069125Y029952D01*
X069411Y030239D01*
X069422Y030254D01*
X069652D01*
Y030748D01*
X069672Y030764D01*
X069812D01*
X06989Y03078D01*
X069956Y030824D01*
X070026Y030894D01*
X07007Y03096D01*
X070086Y031038D01*
Y031085D01*
X070136Y031112D01*
X070154Y0311D01*
X070232Y031084D01*
X070498D01*
X070547Y031034D01*
X070614Y03099D01*
X070692Y030974D01*
X070692Y030974D01*
X070785Y030974D01*
X070785Y030881D01*
X0708Y030803D01*
X070844Y030737D01*
X071092Y03049D01*
X071158Y030445D01*
X071236Y03043D01*
X07162D01*
X071651Y030385D01*
X071708Y030346D01*
X071776Y030333D01*
X072536D01*
X072604Y030346D01*
X072661Y030385D01*
X0727Y030442D01*
X072713Y03051D01*
Y030758D01*
X0727Y030826D01*
X072683Y03085D01*
X0727Y030875D01*
X072713Y030943D01*
Y031191D01*
X072702Y031246D01*
X072723Y031285D01*
X072734Y031297D01*
X072807Y031312D01*
X072873Y031356D01*
X073124Y031607D01*
X073168Y031673D01*
X073184Y031751D01*
Y03246D01*
X073168Y032538D01*
X073124Y032604D01*
X072844Y032884D01*
X072778Y032928D01*
X0727Y032944D01*
X0679D01*
X067822Y032928D01*
X067756Y032884D01*
X066896Y032024D01*
X066846Y032045D01*
Y032134D01*
X066818Y032239D01*
X066763Y032334D01*
X066685Y032412D01*
X066591Y032466D01*
X066485Y032495D01*
X066375D01*
X066269Y032466D01*
X066245Y032452D01*
X066202Y032477D01*
Y032797D01*
X0662Y032807D01*
X066214Y032951D01*
X066259Y033099D01*
X066332Y033236D01*
X066341Y033247D01*
X066375Y033238D01*
X066485D01*
X066591Y033266D01*
X066685Y033321D01*
X066763Y033398D01*
X066818Y033493D01*
X066846Y033599D01*
Y033708D01*
X066818Y033814D01*
X066763Y033909D01*
X066697Y033975D01*
X066713Y034025D01*
X066846D01*
Y034857D01*
X066014D01*
Y034025D01*
X066147D01*
X066163Y033975D01*
X066097Y033909D01*
X066042Y033814D01*
X066014Y033708D01*
Y033599D01*
X06603Y033539D01*
X066006Y033511D01*
X065906Y033348D01*
X065833Y033172D01*
X065789Y032987D01*
X065777Y032836D01*
X065725Y032813D01*
X065702Y03283D01*
X065578Y032882D01*
X065445Y032899D01*
X065295D01*
X065162Y032882D01*
X065038Y03283D01*
X065021Y032818D01*
X064977Y03284D01*
Y033865D01*
X065955D01*
Y034885D01*
X064785D01*
Y034419D01*
X064739Y0344D01*
X064324Y034814D01*
X064258Y034858D01*
X06418Y034874D01*
X05622D01*
X05622Y034874D01*
X056142Y034858D01*
X056076Y034814D01*
X055956Y034694D01*
X055912Y034628D01*
X055896Y03455D01*
Y03437D01*
X055912Y034292D01*
X055956Y034226D01*
X056056Y034126D01*
X056122Y034082D01*
X0562Y034066D01*
X058596D01*
X058727Y033935D01*
X058706Y033885D01*
X058385D01*
Y033545D01*
X058335Y033538D01*
X058322Y033587D01*
X058258Y033698D01*
X058168Y033788D01*
X058057Y033852D01*
X057934Y033885D01*
X057806D01*
X057683Y033852D01*
X057572Y033788D01*
X057482Y033698D01*
X057418Y033587D01*
X057396Y033504D01*
X057344D01*
X057322Y033587D01*
X057258Y033698D01*
X057168Y033788D01*
X057057Y033852D01*
X056934Y033885D01*
X056806D01*
X056683Y033852D01*
X056572Y033788D01*
X056482Y033698D01*
X056418Y033587D01*
X056396Y033504D01*
X056344D01*
X056322Y033587D01*
X056258Y033698D01*
X056168Y033788D01*
X056057Y033852D01*
X055934Y033885D01*
X055806D01*
X055683Y033852D01*
X055572Y033788D01*
X055482Y033698D01*
X055418Y033587D01*
X055396Y033504D01*
X055344D01*
X055322Y033587D01*
X055258Y033698D01*
X055168Y033788D01*
X055057Y033852D01*
X054934Y033885D01*
X054806D01*
X054683Y033852D01*
X054572Y033788D01*
X054482Y033698D01*
X054418Y033587D01*
X054396Y033504D01*
X054344D01*
X054322Y033587D01*
X054258Y033698D01*
X054168Y033788D01*
X054057Y033852D01*
X053934Y033885D01*
X053806D01*
X053683Y033852D01*
X053572Y033788D01*
X053482Y033698D01*
X053418Y033587D01*
X053396Y033504D01*
X053344D01*
X053322Y033587D01*
X053258Y033698D01*
X053168Y033788D01*
X053057Y033852D01*
X052934Y033885D01*
X052806D01*
X052683Y033852D01*
X052572Y033788D01*
X052482Y033698D01*
X052418Y033587D01*
X052396Y033504D01*
X052344D01*
X052322Y033587D01*
X052258Y033698D01*
X052168Y033788D01*
X052057Y033852D01*
X051934Y033885D01*
X051806D01*
X051683Y033852D01*
X051572Y033788D01*
X051482Y033698D01*
X051418Y033587D01*
X051385Y033464D01*
Y033336D01*
X051418Y033213D01*
X051482Y033102D01*
X051572Y033012D01*
X051683Y032948D01*
X051806Y032915D01*
X051934D01*
X052027Y03294D01*
X052166Y032801D01*
Y031699D01*
X051709Y031241D01*
X051662Y031172D01*
X051646Y03109D01*
Y029764D01*
X051572Y029721D01*
X051482Y029631D01*
X051418Y029521D01*
X051385Y029397D01*
Y029269D01*
X051418Y029146D01*
X051482Y029036D01*
X051572Y028945D01*
X051683Y028881D01*
X051806Y028848D01*
X051889D01*
X052156Y028581D01*
Y027739D01*
X051719Y027301D01*
X051672Y027232D01*
X051656Y02715D01*
Y025703D01*
X051572Y025655D01*
X051482Y025564D01*
X051418Y025454D01*
X051385Y025331D01*
Y025203D01*
X051418Y025079D01*
X051482Y024969D01*
X051572Y024879D01*
X051683Y024815D01*
X051806Y024782D01*
X051836D01*
X052166Y024451D01*
Y023369D01*
X051719Y022921D01*
X051672Y022852D01*
X051656Y02277D01*
Y021636D01*
X051572Y021588D01*
X051482Y021498D01*
X051418Y021387D01*
X051385Y021264D01*
Y021136D01*
X051418Y021013D01*
X051482Y020902D01*
X051572Y020812D01*
X051683Y020748D01*
X051806Y020715D01*
X051934D01*
X052057Y020748D01*
X052123Y020786D01*
X052166Y020761D01*
Y02069D01*
X052182Y020608D01*
X052229Y020539D01*
X05241Y020357D01*
X052385Y020264D01*
Y020136D01*
X052418Y020013D01*
X052482Y019902D01*
X052572Y019812D01*
X052683Y019748D01*
X052806Y019715D01*
X052934D01*
X053057Y019748D01*
X053168Y019812D01*
X053258Y019902D01*
X053322Y020013D01*
X053344Y020096D01*
X053396D01*
X053418Y020013D01*
X053482Y019902D01*
X053572Y019812D01*
X053683Y019748D01*
X053806Y019715D01*
X053934D01*
X054057Y019748D01*
X054168Y019812D01*
X054258Y019902D01*
X054322Y020013D01*
X054344Y020096D01*
X054396D01*
X054418Y020013D01*
X054482Y019902D01*
X054572Y019812D01*
X054683Y019748D01*
X054806Y019715D01*
X054934D01*
X055057Y019748D01*
X055168Y019812D01*
X055258Y019902D01*
X055322Y020013D01*
X055344Y020096D01*
X055396D01*
X055418Y020013D01*
X055482Y019902D01*
X055572Y019812D01*
X055683Y019748D01*
X055806Y019715D01*
X055934D01*
X056057Y019748D01*
X056127Y019788D01*
X056131Y019788D01*
X056182Y019762D01*
X056192Y019712D01*
X056236Y019646D01*
X056471Y019411D01*
X056537Y019367D01*
X056615Y019351D01*
X057071D01*
X057436Y018986D01*
X057502Y018942D01*
X05758Y018926D01*
X061798D01*
X061876Y018942D01*
X061942Y018986D01*
X062791Y019835D01*
X062837Y019815D01*
Y019291D01*
X062749D01*
X062741Y019289D01*
X062595Y019275D01*
X062447Y01923D01*
X06231Y019157D01*
X062197Y019064D01*
X06219Y01906D01*
X06219Y01906D01*
X06219Y01906D01*
X06193Y0188D01*
X061925Y018792D01*
X061839Y018721D01*
X061732Y018664D01*
X061616Y018629D01*
X061505Y018618D01*
X061496Y01862D01*
X061239D01*
Y018794D01*
X060219D01*
Y018221D01*
X06018Y01819D01*
X059503D01*
Y017886D01*
X059459Y017862D01*
X059445Y017872D01*
X059358Y017889D01*
X058733D01*
X058646Y017872D01*
X058573Y017823D01*
X058523Y017749D01*
X058506Y017663D01*
Y017537D01*
X058523Y017451D01*
X058573Y017377D01*
X058646Y017328D01*
X058733Y017311D01*
X059264D01*
X059378Y017264D01*
X059457Y017203D01*
X059494Y017171D01*
X059494Y017171D01*
X059636Y017049D01*
X059796Y016951D01*
X05997Y016879D01*
X060152Y016835D01*
X060219Y01683D01*
Y016574D01*
X061239D01*
Y017594D01*
X060257D01*
Y01769D01*
X060262Y017692D01*
X060416Y017774D01*
X061239D01*
Y018141D01*
X061496D01*
X061506Y018143D01*
X061667Y018155D01*
X061833Y018195D01*
X061992Y018261D01*
X062138Y01835D01*
X06226Y018455D01*
X062269Y018461D01*
X062456Y018648D01*
X062502Y018629D01*
Y017925D01*
X062437D01*
Y017015D01*
X063157D01*
Y017893D01*
X063177D01*
Y018716D01*
X06325D01*
Y017893D01*
X0633D01*
Y017002D01*
X063301Y016998D01*
X063287Y016863D01*
X063275Y016823D01*
X062676D01*
Y015637D01*
X063784D01*
Y016532D01*
X063813Y016604D01*
X063853Y016769D01*
X063904Y016768D01*
X063918Y016701D01*
X063967Y016627D01*
X064041Y016578D01*
X064127Y016561D01*
X064752D01*
X064824Y016575D01*
X064826Y016575D01*
X064845Y016562D01*
X064884Y016534D01*
X064901Y016508D01*
X064907Y016479D01*
X064908D01*
Y01638D01*
X06466D01*
Y015564D01*
X059681D01*
X059669Y015613D01*
X059713Y015636D01*
X059867Y015763D01*
X059867Y015763D01*
X059903Y015796D01*
X05997Y015851D01*
X06009Y015915D01*
X060221Y015955D01*
X060353Y015968D01*
X060356Y015968D01*
X061416D01*
Y015637D01*
X062524D01*
Y016823D01*
X061416D01*
Y016492D01*
X060356D01*
Y016494D01*
X060165Y016479D01*
X059979Y016434D01*
X059802Y016361D01*
X059639Y016261D01*
X059493Y016137D01*
X059493Y016137D01*
X059457Y016105D01*
X059394Y016056D01*
X059276Y016008D01*
X059154Y015992D01*
X059149Y015992D01*
X057802D01*
X057788Y016042D01*
X057882Y0161D01*
X058021Y016219D01*
X058021Y016219D01*
X058058Y01625D01*
X058104Y016284D01*
X058201Y016325D01*
X058303Y016338D01*
X058305Y016338D01*
X058511D01*
Y016315D01*
X059581D01*
Y016885D01*
X058511D01*
Y016862D01*
X058305D01*
Y016864D01*
X058124Y016847D01*
X05795Y016794D01*
X057789Y016708D01*
X057648Y016592D01*
X057648Y016592D01*
X057612Y016559D01*
X057553Y016511D01*
X057443Y016452D01*
X057389Y016436D01*
X057348Y016476D01*
X05736Y016537D01*
Y016662D01*
X057343Y016749D01*
X057297Y016819D01*
X057291Y016835D01*
Y016865D01*
X057297Y016881D01*
X057343Y016951D01*
X05736Y017038D01*
Y017162D01*
X057343Y017249D01*
X057318Y017288D01*
X057344Y017338D01*
X05745D01*
X057474Y017324D01*
X057544Y017305D01*
X057616D01*
X057686Y017324D01*
X057749Y01736D01*
X0578Y017411D01*
X057836Y017474D01*
X057855Y017544D01*
Y017616D01*
X057836Y017686D01*
X0578Y017749D01*
X057749Y0178D01*
X057686Y017836D01*
X057616Y017855D01*
X057591D01*
X057532Y017863D01*
Y017862D01*
X057344D01*
X057318Y017912D01*
X057343Y017951D01*
X05736Y018038D01*
Y018162D01*
X057343Y018249D01*
X057294Y018323D01*
X05722Y018372D01*
X057134Y018389D01*
X056611D01*
X056591Y018398D01*
X056504Y018464D01*
X056498Y018473D01*
X056422Y01855D01*
X056413Y018556D01*
X05631Y01864D01*
X056184Y018707D01*
X056047Y018749D01*
X055915Y018762D01*
X055904Y018764D01*
X055069D01*
X055062Y018763D01*
X054875Y018748D01*
X054686Y018703D01*
X054506Y018628D01*
X054341Y018527D01*
X054243Y018443D01*
X053426D01*
Y017257D01*
X054016D01*
X054192Y017081D01*
X054197Y017077D01*
X054239Y017023D01*
X054258Y016976D01*
X054231Y016926D01*
X054177D01*
Y016094D01*
X054851D01*
Y016926D01*
X054748D01*
X054738Y01703D01*
X054695Y017173D01*
X054625Y017304D01*
X054536Y017411D01*
X054534Y017416D01*
Y018066D01*
X054537Y018072D01*
X054644Y01816D01*
X054776Y01823D01*
X05492Y018274D01*
X055058Y018287D01*
X055069Y018285D01*
X05511D01*
Y01734D01*
X055908D01*
Y01716D01*
X05511D01*
Y01614D01*
X055775D01*
X0558Y016119D01*
X055925Y016042D01*
X055911Y015992D01*
X051623D01*
X051623Y015992D01*
X051607Y015994D01*
X051588Y016066D01*
X051533Y016161D01*
X051455Y016238D01*
X051361Y016293D01*
X051255Y016321D01*
X051145D01*
X051039Y016293D01*
X050945Y016238D01*
X050867Y016161D01*
X050844Y016121D01*
X050794Y016134D01*
Y017851D01*
X051616D01*
Y018005D01*
X051888D01*
X051892Y018006D01*
X052033Y017992D01*
X052166Y017951D01*
Y017257D01*
X053274D01*
Y018443D01*
X052343D01*
X052279Y018469D01*
X052086Y018516D01*
X051888Y018531D01*
Y01853D01*
X051616D01*
Y018683D01*
X050794D01*
X050794Y034985D01*
X050798Y035003D01*
X050825Y035035D01*
X078139D01*
Y015564D01*
D02*
G37*
G36*
X066712Y030191D02*
X066771D01*
X06684Y030205D01*
X066908Y030191D01*
X066931D01*
Y030168D01*
X066946Y03009D01*
X066991Y030023D01*
X067246Y029768D01*
X067312Y029724D01*
X06739Y029708D01*
X067989D01*
X068067Y029724D01*
X068133Y029768D01*
X068178Y029813D01*
X068211Y029803D01*
X068229Y029794D01*
X068268Y029736D01*
X068276Y02973D01*
Y02968D01*
X068268Y029675D01*
X068226Y029612D01*
X068221Y029587D01*
X068165Y029561D01*
X068156Y029566D01*
X068086Y029585D01*
X068014D01*
X067944Y029566D01*
X067881Y02953D01*
X06783Y029479D01*
X067794Y029416D01*
X067775Y029346D01*
Y029274D01*
X067794Y029204D01*
X06783Y029141D01*
X067881Y02909D01*
X067944Y029054D01*
X068014Y029035D01*
X068086D01*
X068156Y029054D01*
X068165Y029059D01*
X068222Y029034D01*
X068225Y029016D01*
X068211Y028947D01*
Y028935D01*
X067531D01*
X067449Y028919D01*
X06738Y028872D01*
X067222Y028715D01*
X067214D01*
X067144Y028696D01*
X067081Y02866D01*
X06703Y028609D01*
X066994Y028546D01*
X066975Y028476D01*
Y028404D01*
X066994Y028334D01*
X06703Y028271D01*
X067081Y02822D01*
X067144Y028184D01*
X067214Y028165D01*
X067286D01*
X067356Y028184D01*
X067419Y02822D01*
X06747Y028271D01*
X067506Y028334D01*
X067525Y028404D01*
Y028412D01*
X06762Y028507D01*
X068211D01*
Y028495D01*
X068225Y028426D01*
X068211Y028357D01*
Y028298D01*
X068225Y028229D01*
X068211Y02816D01*
Y028101D01*
X068225Y028032D01*
X068211Y027963D01*
Y027904D01*
X068225Y027835D01*
X068211Y027766D01*
Y027707D01*
X068225Y027638D01*
X068211Y02757D01*
Y02751D01*
X068223Y027451D01*
X068203Y02743D01*
X068179Y027419D01*
X068166Y027426D01*
X068096Y027445D01*
X068024D01*
X067954Y027426D01*
X067891Y02739D01*
X06784Y027339D01*
X067804Y027276D01*
X067785Y027206D01*
Y027171D01*
X067724D01*
X067654Y027153D01*
X067591Y027116D01*
X06754Y027065D01*
X067504Y027002D01*
X067485Y026932D01*
Y02686D01*
X067504Y02679D01*
X06754Y026727D01*
X067591Y026676D01*
X0676Y026671D01*
X067587Y026621D01*
X066948D01*
Y026621D01*
X066868Y026632D01*
X066794Y026663D01*
X066775Y026677D01*
X066764Y026695D01*
X066713Y026746D01*
X06665Y026782D01*
X06658Y026801D01*
X066537D01*
X06372Y029618D01*
X063711Y029624D01*
X06363Y02973D01*
X063574Y029864D01*
X063557Y029996D01*
X063559Y030007D01*
Y030013D01*
X063559Y030015D01*
X063544Y030132D01*
X063535Y030152D01*
X063573Y030191D01*
X063621D01*
X06369Y030205D01*
X063759Y030191D01*
X063818D01*
X063887Y030205D01*
X063956Y030191D01*
X064015D01*
X064084Y030205D01*
X064153Y030191D01*
X064175D01*
Y030073D01*
X06414Y030038D01*
X064076Y030055D01*
X064004D01*
X063934Y030036D01*
X063871Y03D01*
X06382Y029949D01*
X063784Y029886D01*
X063765Y029816D01*
Y029744D01*
X063784Y029674D01*
X06382Y029611D01*
X063871Y02956D01*
X063934Y029524D01*
X064004Y029505D01*
X064076D01*
X064146Y029524D01*
X064209Y02956D01*
X064239Y02959D01*
X064248Y029592D01*
X064314Y029636D01*
X064475Y029797D01*
X064525Y029776D01*
Y029774D01*
X064544Y029704D01*
X06458Y029641D01*
X064631Y02959D01*
X064694Y029554D01*
X064764Y029535D01*
X064836D01*
X064906Y029554D01*
X064919Y029561D01*
X064962Y029536D01*
Y029431D01*
X064961Y02943D01*
X06491Y029379D01*
X064874Y029316D01*
X064855Y029246D01*
Y029174D01*
X064874Y029104D01*
X06491Y029041D01*
X064961Y02899D01*
X065024Y028954D01*
X065094Y028935D01*
X065166D01*
X065236Y028954D01*
X065299Y02899D01*
X06535Y029041D01*
X065386Y029104D01*
X065405Y029174D01*
Y029246D01*
X065386Y029316D01*
X06537Y029344D01*
Y029459D01*
X065404Y029485D01*
X065476D01*
X065546Y029504D01*
X065609Y02954D01*
X06566Y029591D01*
X065696Y029654D01*
X065715Y029724D01*
Y029796D01*
X065696Y029866D01*
X06566Y029929D01*
X065644Y029945D01*
Y030013D01*
X065628Y030091D01*
X065594Y030143D01*
X065594Y030144D01*
X065607Y030186D01*
X065616Y030196D01*
X065658Y030205D01*
X065727Y030191D01*
X065786D01*
X065855Y030205D01*
X065924Y030191D01*
X065983D01*
X066052Y030205D01*
X066121Y030191D01*
X06618D01*
X066249Y030205D01*
X066318Y030191D01*
X066377D01*
X066446Y030205D01*
X066515Y030191D01*
X066574D01*
X066643Y030205D01*
X066712Y030191D01*
D02*
G37*
G36*
X072836Y028891D02*
Y028244D01*
X072656Y028064D01*
X071874D01*
X071801Y028137D01*
X071806Y028187D01*
X071834Y028206D01*
X071924Y028296D01*
X071968Y028362D01*
X071984Y02844D01*
Y0286D01*
X072536D01*
X072604Y028614D01*
X072661Y028652D01*
X0727Y02871D01*
X072713Y028778D01*
Y028949D01*
X072759Y028968D01*
X072836Y028891D01*
D02*
G37*
G36*
X061981Y028825D02*
X062002Y028808D01*
X061991Y028751D01*
Y028692D01*
X062004Y028623D01*
X061991Y028554D01*
Y028495D01*
X062004Y028426D01*
X061991Y028357D01*
Y028298D01*
X062005Y028224D01*
X062031Y028186D01*
X062015Y028132D01*
X062013Y02813D01*
X061945Y028085D01*
X061681Y027821D01*
X061636Y027846D01*
X061566Y027865D01*
X061494D01*
X061424Y027846D01*
X061361Y02781D01*
X06131Y027759D01*
X061274Y027696D01*
X061255Y027626D01*
Y027554D01*
X061274Y027484D01*
X06131Y027421D01*
X061322Y027409D01*
X061306Y027354D01*
X061254Y027344D01*
X061185Y027298D01*
X06111Y027223D01*
X061064Y027242D01*
Y027816D01*
X061234Y027986D01*
X061255D01*
X061271Y02797D01*
X061334Y027934D01*
X061404Y027915D01*
X061476D01*
X061546Y027934D01*
X061609Y02797D01*
X06166Y028021D01*
X061696Y028084D01*
X061715Y028154D01*
Y028226D01*
X061696Y028296D01*
X06166Y028359D01*
X061609Y02841D01*
X06156Y028438D01*
X061563Y028488D01*
X061564Y028491D01*
X061574Y028494D01*
X061637Y02853D01*
X061688Y028581D01*
X061725Y028644D01*
X061743Y028714D01*
Y028779D01*
X061819D01*
X061897Y028795D01*
X061951Y028831D01*
X061981Y028825D01*
D02*
G37*
G36*
X062633Y026205D02*
X062699Y026178D01*
X062758Y026138D01*
X062783Y026113D01*
X062783D01*
X062976Y02592D01*
X062973Y025917D01*
X062965Y025912D01*
X062956Y025908D01*
X062947Y025907D01*
X062572D01*
X06253Y025915D01*
X062491Y025931D01*
X062455Y025955D01*
X06244Y02597D01*
X062528Y026219D01*
X062563D01*
X062633Y026205D01*
D02*
G37*
G36*
X066913Y025162D02*
Y024889D01*
X066908D01*
X06684Y024875D01*
X066771Y024889D01*
X066712D01*
X066643Y024875D01*
X066574Y024889D01*
X066515D01*
X066446Y024875D01*
X066377Y024889D01*
X066318D01*
X066249Y024875D01*
X06618Y024889D01*
X066121D01*
X066052Y024875D01*
X065983Y024889D01*
X065924D01*
X065855Y024875D01*
X065786Y024889D01*
X065727D01*
X065658Y024875D01*
X06559Y024889D01*
X065567D01*
Y024967D01*
X065552Y025045D01*
X065507Y025111D01*
X065218Y0254D01*
X065244Y025445D01*
X065257Y025441D01*
X06533D01*
X0654Y02546D01*
X065463Y025496D01*
X065514Y025547D01*
X06555Y02561D01*
X065569Y02568D01*
Y025753D01*
X06555Y025823D01*
X065514Y025885D01*
X065463Y025936D01*
X0654Y025973D01*
X06533Y025991D01*
X065257D01*
X065252Y02599D01*
X065224Y026008D01*
X065188Y026043D01*
X064317Y026914D01*
X064315Y026916D01*
X064274Y026977D01*
X064259Y027049D01*
X06426Y027053D01*
Y027193D01*
X064262D01*
X064245Y027316D01*
X064198Y027431D01*
X064122Y02753D01*
X064122Y02753D01*
X064034Y027597D01*
X063932Y027639D01*
X063822Y027654D01*
X063785Y027684D01*
X063746Y027777D01*
X063676Y027868D01*
X063674Y027871D01*
X06363Y027916D01*
X063627Y027918D01*
X06351Y028014D01*
X063373Y028087D01*
X063224Y028132D01*
X063073Y028147D01*
X06307Y028148D01*
X062903D01*
X062877Y028198D01*
X062894Y028224D01*
X062909Y028298D01*
Y028357D01*
X062895Y028426D01*
X062909Y028495D01*
Y028554D01*
X062895Y028623D01*
X062909Y028692D01*
Y028751D01*
X062895Y02882D01*
X062909Y028888D01*
Y028947D01*
X062895Y029016D01*
X062909Y029085D01*
Y029096D01*
X062959Y029117D01*
X066913Y025162D01*
D02*
G37*
G36*
X069751Y026119D02*
X069821Y026072D01*
X069903Y026056D01*
X070621D01*
X070658Y026012D01*
X070649Y025987D01*
X070107D01*
Y025156D01*
X07011D01*
Y024335D01*
X070757D01*
X070768Y024193D01*
X070816Y023992D01*
X070846Y02392D01*
Y023057D01*
X071387D01*
X071406Y023011D01*
X071361Y022965D01*
X07129Y022843D01*
X071254Y022707D01*
Y02265D01*
X07117Y022642D01*
X07117Y022642D01*
X069226D01*
Y02379D01*
X069003D01*
Y024052D01*
X069003D01*
X069014Y024134D01*
X069046Y024209D01*
X069095Y024274D01*
X069095Y024275D01*
X069133Y024312D01*
X069133Y024312D01*
X06917Y024343D01*
X069244Y024404D01*
X069267Y024416D01*
X06931Y024391D01*
Y024335D01*
X07003D01*
Y025245D01*
X06931D01*
Y025003D01*
X069264Y024992D01*
X06908Y024916D01*
X068911Y024813D01*
X068761Y024684D01*
X068761Y024684D01*
X068759Y024682D01*
X068723Y024647D01*
X068723Y024647D01*
X068619Y024519D01*
X068541Y024374D01*
X068493Y024216D01*
X068477Y024052D01*
X068479D01*
Y02379D01*
X068256D01*
Y02346D01*
X068206Y02345D01*
X068165Y02355D01*
X068087Y023651D01*
X067986Y023729D01*
X067868Y023778D01*
X067741Y023794D01*
X067614Y023778D01*
X067497Y023729D01*
X067395Y023651D01*
X067317Y02355D01*
X067269Y023432D01*
X067266Y023414D01*
X067216D01*
X067214Y023432D01*
X067165Y02355D01*
X067087Y023651D01*
X066986Y023729D01*
X066868Y023778D01*
X066782Y023789D01*
X066741Y023842D01*
X066748Y023876D01*
Y023971D01*
X066771D01*
X06684Y023984D01*
X066908Y023971D01*
X066967D01*
X067036Y023984D01*
X067105Y023971D01*
X067164D01*
X067233Y023984D01*
X067302Y023971D01*
X067361D01*
X06743Y023984D01*
X067499Y023971D01*
X067558D01*
X067632Y023985D01*
X067695Y024027D01*
X0677Y024036D01*
X06775D01*
X067756Y024027D01*
X067819Y023985D01*
X067893Y023971D01*
X067952D01*
X068026Y023985D01*
X068088Y024027D01*
X06813Y02409D01*
X068145Y024164D01*
Y024696D01*
X06814Y024723D01*
X068144Y024755D01*
X068146Y024759D01*
X068166Y024765D01*
X068229Y024801D01*
X06828Y024852D01*
X068316Y024915D01*
X068319Y024924D01*
X06832Y024926D01*
X068342Y024967D01*
X068404Y024955D01*
X068936D01*
X06901Y02497D01*
X069073Y025012D01*
X069115Y025074D01*
X069129Y025148D01*
Y025207D01*
X069116Y025276D01*
X069129Y025345D01*
Y025404D01*
X069116Y025473D01*
X069129Y025542D01*
Y025601D01*
X069116Y02567D01*
X069129Y025739D01*
Y025798D01*
X069116Y025867D01*
X069129Y025936D01*
Y025995D01*
X069116Y026064D01*
X069129Y026133D01*
Y026192D01*
X069116Y02626D01*
X069129Y026329D01*
Y026388D01*
X069116Y026457D01*
X069129Y026526D01*
Y026585D01*
X069116Y026654D01*
X06912Y026679D01*
X069175Y026695D01*
X069751Y026119D01*
D02*
G37*
G36*
X060156Y026164D02*
X060197Y026148D01*
X06023Y026091D01*
X060281Y02604D01*
X060344Y026004D01*
X060414Y025985D01*
X060486D01*
X060556Y026004D01*
X060619Y02604D01*
X06067Y026091D01*
X060714Y026067D01*
X060731Y02605D01*
X060794Y026014D01*
X060864Y025995D01*
X060936D01*
X061006Y026014D01*
X061069Y02605D01*
X06112Y026101D01*
X061161Y02606D01*
X061224Y026024D01*
X061294Y026005D01*
X061366D01*
X061436Y026024D01*
X061499Y02606D01*
X06155Y026111D01*
X061576Y026115D01*
X061611Y02608D01*
X061674Y026044D01*
X061716Y026032D01*
X061709Y025982D01*
X061578D01*
X061496Y025966D01*
X061427Y02592D01*
X061079Y025571D01*
X061032Y025502D01*
X061016Y02542D01*
Y024635D01*
X06101Y024629D01*
X060974Y024566D01*
X060955Y024496D01*
Y024424D01*
X060974Y024354D01*
X06101Y024291D01*
X061061Y02424D01*
X061124Y024204D01*
X061194Y024185D01*
X061266D01*
X061336Y024204D01*
X061399Y02424D01*
X06145Y024291D01*
X061486Y024354D01*
X061505Y024424D01*
Y024496D01*
X0615Y024515D01*
X061525Y024548D01*
X061541Y024556D01*
X061606Y024574D01*
X061669Y02461D01*
X06172Y024661D01*
X061756Y024724D01*
X061775Y024794D01*
Y024835D01*
X061781Y02484D01*
X061854D01*
X06186Y024842D01*
X06189Y024836D01*
X061972Y024852D01*
X062041Y024899D01*
X062088Y024968D01*
X062138Y024964D01*
X062184Y024955D01*
X062716D01*
X062789Y02497D01*
X062852Y025012D01*
X062894Y025074D01*
X062909Y025148D01*
Y025207D01*
X062895Y025276D01*
X062909Y025345D01*
Y025404D01*
X062895Y025473D01*
X062909Y025542D01*
Y025601D01*
X062899Y025649D01*
X062907Y025665D01*
X062934Y025695D01*
X062995D01*
X063065Y025713D01*
X063127Y025749D01*
X063159Y025781D01*
X063204Y025755D01*
X063194Y025723D01*
X063183Y025608D01*
X063181Y025598D01*
Y024739D01*
X063172Y024696D01*
Y024164D01*
X063187Y02409D01*
X063228Y024027D01*
X063291Y023985D01*
X063358Y023972D01*
X063365Y023952D01*
X063365Y023921D01*
X063311Y02389D01*
X06326Y023839D01*
X063224Y023776D01*
X063205Y023706D01*
Y023634D01*
X063224Y023564D01*
X063228Y023557D01*
X063203Y023514D01*
X062304D01*
X062226Y023498D01*
X06216Y023454D01*
X06216Y023454D01*
X062039Y023334D01*
X0611D01*
X061022Y023318D01*
X060956Y023274D01*
X060786Y023104D01*
X059964D01*
X059944Y023124D01*
Y023256D01*
X060323D01*
X060401Y023272D01*
X060467Y023316D01*
X060537Y023386D01*
X060581Y023452D01*
X060597Y02353D01*
Y02367D01*
X060581Y023748D01*
X060537Y023814D01*
X060471Y02388D01*
X060537Y023946D01*
X060581Y024012D01*
X060597Y02409D01*
Y02423D01*
X060581Y024308D01*
X060537Y024374D01*
X060471Y02444D01*
X060537Y024506D01*
X060581Y024572D01*
X060597Y02465D01*
Y02479D01*
X060581Y024868D01*
X060537Y024934D01*
X060467Y025004D01*
X060401Y025048D01*
X060323Y025064D01*
X059937D01*
X059928Y025105D01*
X059884Y025171D01*
X059644Y025411D01*
X059578Y025455D01*
X0595Y025471D01*
X059355D01*
Y025752D01*
X058385D01*
Y025412D01*
X058335Y025405D01*
X058322Y025454D01*
X058258Y025564D01*
X058168Y025655D01*
X058057Y025719D01*
X057934Y025752D01*
X057806D01*
X057683Y025719D01*
X057617Y025681D01*
X057574Y025706D01*
Y025906D01*
X057754Y026086D01*
X05998D01*
X060058Y026102D01*
X060124Y026146D01*
X060145Y026167D01*
X060156Y026164D01*
D02*
G37*
G36*
X067848Y022118D02*
X069639D01*
Y021453D01*
X069642D01*
Y020833D01*
X069621D01*
Y019922D01*
X070341D01*
Y020257D01*
X070391Y020278D01*
X07046Y020208D01*
X070582Y020138D01*
X070718Y020102D01*
X070859D01*
X070995Y020138D01*
X071117Y020208D01*
X071217Y020308D01*
X071243Y020353D01*
X071377Y020363D01*
X071574Y020411D01*
X071761Y020488D01*
X071933Y020594D01*
X072087Y020725D01*
X072086Y020726D01*
X072273Y020914D01*
X072313Y020883D01*
X07229Y020843D01*
X072254Y020707D01*
Y020566D01*
X07229Y02043D01*
X072361Y020308D01*
X07246Y020208D01*
X072582Y020138D01*
X072718Y020102D01*
X072859D01*
X072995Y020138D01*
X073117Y020208D01*
X073169Y02026D01*
X073219Y020249D01*
Y020114D01*
X073277D01*
X073295Y020064D01*
X073196Y019983D01*
X073191Y01998D01*
X073191Y019979D01*
X073184Y01997D01*
X073084Y019852D01*
X073011Y019734D01*
X072974Y019729D01*
X072838Y019672D01*
X072721Y019583D01*
X072631Y019466D01*
X072574Y019329D01*
X072555Y019183D01*
Y018783D01*
X072574Y018637D01*
X072631Y018501D01*
X07265Y018476D01*
X072658Y018427D01*
X072658Y018427D01*
X072658Y018427D01*
X072611Y018379D01*
X072604Y01837D01*
X072514Y0183D01*
X072398Y018252D01*
X072284Y018237D01*
X072273Y01824D01*
X072237D01*
X07222Y01829D01*
X072299Y018351D01*
X072389Y018468D01*
X072446Y018604D01*
X072465Y01875D01*
Y01915D01*
X072446Y019296D01*
X072389Y019432D01*
X072299Y019549D01*
X072182Y019639D01*
X072046Y019696D01*
X0719Y019715D01*
X071754Y019696D01*
X071618Y019639D01*
X071501Y019549D01*
X07143Y019458D01*
X07137D01*
X071299Y019549D01*
X071182Y019639D01*
X071046Y019696D01*
X0709Y019715D01*
X070754Y019696D01*
X070618Y019639D01*
X070501Y019549D01*
X070411Y019432D01*
X070354Y019296D01*
X070335Y01915D01*
Y01875D01*
X070354Y018604D01*
X070411Y018468D01*
X070501Y018351D01*
X07058Y01829D01*
X070563Y01824D01*
X069237D01*
X06922Y01829D01*
X069299Y018351D01*
X069389Y018468D01*
X069446Y018604D01*
X069465Y01875D01*
Y01915D01*
X069446Y019296D01*
X069389Y019432D01*
X069299Y019549D01*
X069182Y019639D01*
X069046Y019696D01*
X0689Y019715D01*
X068808Y019703D01*
X068795Y019751D01*
X068873Y019784D01*
X069042Y019887D01*
X069083Y019922D01*
X069541D01*
Y020663D01*
X069562D01*
Y021574D01*
X068842D01*
Y021384D01*
X068705Y021311D01*
X068629Y021249D01*
X068584Y021276D01*
X06859Y021306D01*
Y021431D01*
X068572Y021518D01*
X068523Y021591D01*
X068449Y021641D01*
X068363Y021658D01*
X067738D01*
X067651Y021641D01*
X067639Y021633D01*
X067589Y021653D01*
X067588Y021658D01*
X067552Y02172D01*
X067501Y021772D01*
X067438Y021808D01*
X067368Y021826D01*
X067317D01*
X0673Y021876D01*
X067328Y0219D01*
X067329Y021901D01*
X067365Y021934D01*
X067438Y021994D01*
X067565Y022062D01*
X067704Y022104D01*
X067844Y022118D01*
X067848Y022118D01*
D02*
G37*
%LPC*%
G36*
X068494Y034472D02*
X068366D01*
X06824Y034447D01*
X068121Y034398D01*
X068014Y034327D01*
X067923Y034236D01*
X067852Y034129D01*
X067803Y03401D01*
X067778Y033884D01*
Y033756D01*
X067803Y03363D01*
X067852Y033511D01*
X067923Y033404D01*
X068014Y033313D01*
X068121Y033242D01*
X06824Y033193D01*
X068366Y033168D01*
X068494D01*
X06862Y033193D01*
X068739Y033242D01*
X068846Y033313D01*
X068937Y033404D01*
X069008Y033511D01*
X069057Y03363D01*
X069082Y033756D01*
Y033884D01*
X069057Y03401D01*
X069008Y034129D01*
X068937Y034236D01*
X068846Y034327D01*
X068739Y034398D01*
X06862Y034447D01*
X068494Y034472D01*
D02*
G37*
G36*
X076394Y033058D02*
X076295D01*
X076199Y033032D01*
X076113Y032982D01*
X076043Y032912D01*
X075993Y032826D01*
X075968Y032731D01*
Y032632D01*
X075993Y032536D01*
X076043Y03245D01*
X076113Y03238D01*
X076199Y03233D01*
X076295Y032305D01*
X076394D01*
X07649Y03233D01*
X076575Y03238D01*
X076645Y03245D01*
X076695Y032536D01*
X076721Y032632D01*
Y032731D01*
X076695Y032826D01*
X076645Y032912D01*
X076575Y032982D01*
X07649Y033032D01*
X076394Y033058D01*
D02*
G37*
G36*
Y029906D02*
X076295D01*
X076199Y02988D01*
X076113Y02983D01*
X076043Y02976D01*
X075993Y029674D01*
X075968Y029579D01*
Y02948D01*
X075993Y029384D01*
X076043Y029298D01*
X076113Y029228D01*
X076199Y029178D01*
X076295Y029153D01*
X076394D01*
X07649Y029178D01*
X076575Y029228D01*
X076645Y029298D01*
X076695Y029384D01*
X076721Y02948D01*
Y029579D01*
X076695Y029674D01*
X076645Y02976D01*
X076575Y02983D01*
X07649Y02988D01*
X076394Y029906D01*
D02*
G37*
G36*
X07712Y019748D02*
X076974Y019729D01*
X076838Y019672D01*
X076721Y019583D01*
X07665Y019491D01*
X07659D01*
X076519Y019583D01*
X076402Y019672D01*
X076266Y019729D01*
X07612Y019748D01*
X075974Y019729D01*
X075838Y019672D01*
X075721Y019583D01*
X075631Y019466D01*
X075574Y019329D01*
X075555Y019183D01*
Y018783D01*
X075574Y018637D01*
X075631Y018501D01*
X075721Y018384D01*
X075838Y018294D01*
X075974Y018238D01*
X07612Y018218D01*
X076266Y018238D01*
X076402Y018294D01*
X076519Y018384D01*
X07659Y018475D01*
X07665D01*
X076721Y018384D01*
X076838Y018294D01*
X076974Y018238D01*
X07712Y018218D01*
X077266Y018238D01*
X077402Y018294D01*
X077519Y018384D01*
X077609Y018501D01*
X077666Y018637D01*
X077685Y018783D01*
Y019183D01*
X077666Y019329D01*
X077609Y019466D01*
X077519Y019583D01*
X077402Y019672D01*
X077266Y019729D01*
X07712Y019748D01*
D02*
G37*
G36*
X0534Y017005D02*
X05268D01*
Y016095D01*
X0534D01*
Y016095D01*
X053429Y016094D01*
Y016094D01*
X05345Y016094D01*
X054103D01*
Y016926D01*
X053429D01*
X0534Y016964D01*
Y017005D01*
D02*
G37*
%LPD*%
D14*
X06664Y01927D02*
G03*
X066555Y019235I0J-000121D01*
G01*
X06341Y020241D02*
G03*
X063214Y019766I000474J-000474D01*
G01*
X06404Y020241D02*
G03*
X06388Y019854I000386J-000386D01*
G01*
X074354Y024853D02*
G03*
X073831Y02507I-000523J-000523D01*
G01*
X07461Y024311D02*
G03*
X07486Y023706I000855J0D01*
G01*
X07461Y024398D02*
G03*
X074468Y024739I-000482J0D01*
G01*
X067332Y021551D02*
G03*
X067773Y021368I000442J000442D01*
G01*
X05398Y01785D02*
G03*
X054134Y017477I000527J0D01*
G01*
X054514Y016882D02*
G03*
X054362Y01725I-00052J0D01*
G01*
X056253Y01838D02*
G03*
X055904Y018525I-000349J-000349D01*
G01*
X056329Y018304D02*
G03*
X056821Y0181I000492J000492D01*
G01*
X055069Y018525D02*
G03*
X054362Y018232I0J-001D01*
G01*
X060785Y01838D02*
G03*
X06071Y018372I0J-000329D01*
G01*
X05988Y017855D02*
G03*
X060416Y018077I0J000758D01*
G01*
X061496Y01838D02*
G03*
X0621Y01863I0J000854D01*
G01*
X061513Y01767D02*
G03*
X061997Y01747I000484J000484D01*
G01*
X074995Y023379D02*
G03*
X07486Y023706I-000462J0D01*
G01*
X062749Y019051D02*
G03*
X06236Y01889I0J-000551D01*
G01*
X065915Y018595D02*
G03*
X065826Y01838I000214J-000214D01*
G01*
X065954Y018D02*
G03*
X066316Y01785I000362J000362D01*
G01*
X065826Y018309D02*
G03*
X065954Y018I000437J0D01*
G01*
X064912Y019051D02*
G03*
X06544Y01927I0J000746D01*
G01*
X069192Y021219D02*
G03*
X068741Y021033I0J-000638D01*
G01*
X068345Y020868D02*
G03*
X068741Y021033I0J00056D01*
G01*
X064839Y020555D02*
G03*
X065166Y02069I0J000463D01*
G01*
X065597Y020868D02*
G03*
X065166Y02069I0J-000609D01*
G01*
X074029Y01998D02*
G03*
X07427Y02008I0J000341D01*
G01*
X07377Y01998D02*
G03*
X07336Y01981I0J-000579D01*
G01*
X07427Y02008D02*
G03*
X074354Y020283I-000203J000203D01*
G01*
X07336Y01981D02*
G03*
X07312Y019231I000579J-000579D01*
G01*
X072827Y018257D02*
G03*
X07312Y018964I-000707J000707D01*
G01*
X072273Y018D02*
G03*
X07278Y01821I0J000717D01*
G01*
X06819Y01819D02*
G03*
X068649Y018I000459J000459D01*
G01*
X0679Y01889D02*
G03*
X06819Y01819I00099J0D01*
G01*
X06388Y019051D02*
X064912D01*
X07356Y02507D02*
X073831D01*
X074354Y024853D02*
X074468Y024739D01*
X07461Y024311D02*
Y024398D01*
X05398Y01785D02*
X054362Y018232D01*
X054514Y01651D02*
Y016882D01*
X054134Y017477D02*
X054362Y01725D01*
X056253Y01838D02*
X056329Y018304D01*
X055069Y018525D02*
X055904D01*
X060785Y01838D02*
X061496D01*
X060416Y018077D02*
X06071Y018372D01*
X0615Y017684D02*
X061513Y01767D01*
X074995Y02116D02*
Y023379D01*
X062749Y019051D02*
X063214D01*
X0621Y01863D02*
X06236Y01889D01*
X066316Y01785D02*
X066664D01*
X065826Y018309D02*
Y01838D01*
X065915Y018595D02*
X066555Y019235D01*
X063214Y019721D02*
Y019766D01*
X06388Y019721D02*
Y019854D01*
X069192Y021219D02*
X06921D01*
X06805Y020868D02*
X068345D01*
X065597D02*
X065826D01*
X067773Y021368D02*
X06805D01*
X07377Y01998D02*
X074029D01*
X074354Y020283D02*
Y02069D01*
X07336Y01981D02*
X07336Y01981D01*
X07312Y018983D02*
Y019231D01*
X07278Y01821D02*
X072827Y018257D01*
X068649Y018D02*
X072273D01*
X0679Y01889D02*
Y01895D01*
X07312Y018964D02*
Y018983D01*
X06805Y020368D02*
Y020868D01*
D16*
X06806Y025021D02*
G03*
X067922Y024688I000333J-000333D01*
G01*
X066281Y033504D02*
G03*
X065988Y032797I000707J-000707D01*
G01*
Y032142D02*
G03*
X066254Y0315I000908J0D01*
G01*
X063206Y025934D02*
G03*
X063189Y02606I-000477J0D01*
G01*
X062962Y026346D02*
G03*
X062931Y026359I-00003J-00003D01*
G01*
X06352Y025928D02*
G03*
X063515Y026004I-00056J0D01*
G01*
X06325Y02658D02*
G03*
X063356Y026324I000362J0D01*
G01*
X063515Y026004D02*
G03*
X063356Y026324I-000554J-000076D01*
G01*
X063484Y027079D02*
G03*
X063593Y027343I-000264J000264D01*
G01*
X063189Y02606D02*
G03*
X063067Y026271I-00046J-000126D01*
G01*
X067863Y025481D02*
G03*
X067725Y025148I000333J-000333D01*
G01*
X063952Y027838D02*
G03*
X063245Y028131I-000707J-000707D01*
G01*
X063593Y027551D02*
G03*
X063523Y02772I-000239J0D01*
G01*
X063436Y025781D02*
G03*
X063395Y025598I000387J-000183D01*
G01*
X06352Y0259D02*
G03*
X063436Y025781I000303J-000303D01*
G01*
X063478Y027765D02*
G03*
X06307Y027934I-000408J-000408D01*
G01*
X063395Y02699D02*
G03*
X06325Y026641I000349J-000349D01*
G01*
X062682Y026136D02*
G03*
X062498Y026162I-000184J-000629D01*
G01*
X062707Y026125D02*
G03*
X062682Y026136I-000052J-000085D01*
G01*
X077279Y021215D02*
G03*
X077293Y02118I000049J0D01*
G01*
X07196Y028201D02*
G03*
X072333Y028355I0J000527D01*
G01*
X06715Y029705D02*
G03*
X066442Y029412I0J-001D01*
G01*
X067778Y025827D02*
G03*
X067529Y025225I000601J-000601D01*
G01*
X064443Y020666D02*
G03*
X064712Y020555I000269J000269D01*
G01*
X064379Y020821D02*
G03*
X064443Y020666I00022J0D01*
G01*
X064084Y024204D02*
G03*
X06421Y023898I000433J0D01*
G01*
X07359Y030039D02*
X073625D01*
X073428Y030201D02*
X07359Y030039D01*
X071529Y030201D02*
X073428D01*
X06926Y03039D02*
Y03096D01*
X066281Y033504D02*
X06643Y033654D01*
X065988Y032142D02*
Y032797D01*
X06245Y026359D02*
X062931D01*
X06325Y02658D02*
Y026641D01*
X063395Y02699D02*
X063484Y027079D01*
X0644Y02739D02*
X066132Y025658D01*
X063952Y027838D02*
X0644Y02739D01*
X067725Y02443D02*
Y025148D01*
X06245Y028131D02*
X063245D01*
X063593Y027343D02*
Y027551D01*
X063478Y027765D02*
X063523Y02772D01*
X06352Y0259D02*
Y025928D01*
X063395Y02443D02*
Y025598D01*
X06245Y027934D02*
X06307D01*
X063206Y024696D02*
X063206Y025716D01*
Y025934D01*
X062707Y026125D02*
X062959Y02597D01*
X062682Y026136D02*
X062682Y026136D01*
X06245Y026162D02*
X062498D01*
X063198Y02443D02*
X063206Y024675D01*
Y024696D01*
X06388Y02547D02*
X064088Y025262D01*
X064196D01*
X064379Y025079D01*
Y02443D02*
Y025079D01*
X06245Y025965D02*
Y026162D01*
X06989Y01695D02*
X0719D01*
Y01595D02*
Y01695D01*
X077279Y021215D02*
Y02248D01*
Y024153D01*
X0679Y01695D02*
X06989D01*
X072333Y028355D02*
X072407Y028429D01*
X066289Y029259D02*
X066442Y029412D01*
X06715Y029705D02*
X06867D01*
X07252Y024333D02*
Y02593D01*
X073346Y022737D02*
Y023507D01*
X07252Y024333D02*
X073346Y023507D01*
Y022737D02*
X073603Y02248D01*
X073661D01*
X067529Y02443D02*
Y025225D01*
X067922Y02443D02*
Y024688D01*
X064712Y020555D02*
X064839D01*
X064379Y020821D02*
Y020934D01*
X064084Y024204D02*
Y02443D01*
X06944Y025906D02*
Y025965D01*
X069696Y025571D02*
Y02565D01*
X06944Y025906D02*
X069696Y02565D01*
X07511Y016983D02*
X07712D01*
X07312Y015983D02*
Y01681D01*
X07298Y01695D02*
X075077D01*
X07511Y016983D01*
X07712Y015983D02*
Y016983D01*
X07298Y01695D02*
X07312Y01681D01*
X077279Y028261D02*
Y033439D01*
Y0275D02*
Y028261D01*
X076187Y034532D02*
X077279Y033439D01*
X07317Y0275D02*
X073661D01*
X07289Y02722D02*
X07317Y0275D01*
X06974Y02722D02*
X07289D01*
X06984Y02686D02*
X07309D01*
X06916Y02754D02*
X06984Y02686D01*
X069875Y02657D02*
X07246D01*
X069102Y027343D02*
X069875Y02657D01*
X069026Y027146D02*
X069903Y02627D01*
X077279Y025827D02*
Y0275D01*
Y024153D02*
Y025827D01*
X077111Y028429D02*
X077279Y028261D01*
X076187Y028429D02*
X077111D01*
X06961Y03025D02*
X0699D01*
Y030477D01*
X06996Y030537D01*
X069925Y030572D02*
X06996Y030537D01*
X068772Y029902D02*
X06926Y03039D01*
X069925Y030572D02*
X069969Y030615D01*
X07052D01*
X06867Y029509D02*
X069289D01*
X06971Y02993D01*
X070425D01*
X07052Y030025D01*
X069065Y029705D02*
X06961Y03025D01*
X06867Y029705D02*
X069065D01*
X07151Y03022D02*
X071529Y030201D01*
X06867Y029902D02*
X068772D01*
X070153Y03382D02*
X07043D01*
X069373Y03304D02*
X070153Y03382D01*
X06762Y03304D02*
X069373D01*
X067446Y032866D02*
X06762Y03304D01*
X06643Y032866D02*
X067446D01*
X07292Y02476D02*
Y02611D01*
X07246Y02657D02*
X07292Y02611D01*
X073527Y024153D02*
X073661D01*
X07292Y02476D02*
X073527Y024153D01*
X07218Y02627D02*
X07252Y02593D01*
X069903Y02627D02*
X07218D01*
X06867Y027146D02*
X069026D01*
X06867Y027343D02*
X069102D01*
X06867Y02754D02*
X06916D01*
X069581Y027379D02*
X06974Y02722D01*
X06958Y027379D02*
X069581D01*
X06941Y027549D02*
X06958Y027379D01*
X06941Y027549D02*
Y02755D01*
X069223Y027737D02*
X06941Y02755D01*
X06867Y027737D02*
X069223D01*
X073661Y025827D02*
Y026289D01*
X07309Y02686D02*
X073661Y026289D01*
X06146Y02794D02*
X06169D01*
X06133Y02781D02*
X06146Y02794D01*
X06117Y02781D02*
X06133D01*
X06169Y02794D02*
X061881Y028131D01*
X06245D01*
X062097Y027934D02*
X06245D01*
X061753Y02759D02*
X062097Y027934D01*
X06153Y02759D02*
X061753D01*
X067531Y028721D02*
X06867D01*
X06725Y02844D02*
X067531Y028721D01*
X06776Y026896D02*
X067904Y026753D01*
X06867D01*
X06806Y02717D02*
X068281Y026949D01*
X06867D01*
X06335Y03137D02*
X06343D01*
X063591Y031209D01*
Y03065D02*
Y031209D01*
X06805Y02931D02*
X068052Y029312D01*
X06867D01*
X05587Y03053D02*
Y0324D01*
X0554Y03006D02*
X05587Y03053D01*
X05537Y03068D02*
Y0329D01*
X05487Y03018D02*
X05537Y03068D01*
X05487Y03083D02*
Y0324D01*
X05439Y03035D02*
X05487Y03083D01*
X05439Y02906D02*
Y03035D01*
X05436Y03097D02*
Y03291D01*
X05387Y03048D02*
X05436Y03097D01*
X05288Y02742D02*
Y028483D01*
Y02309D02*
Y02441D01*
X061578Y025768D02*
X06245D01*
X06123Y02542D02*
X061578Y025768D01*
X05186Y02918D02*
Y03109D01*
X05187Y02505D02*
Y02715D01*
Y0334D02*
X05238Y03289D01*
Y03161D02*
Y03289D01*
X05186Y03109D02*
X05238Y03161D01*
X05187Y03167D02*
Y0324D01*
X05123Y03103D02*
X05187Y03167D01*
X05186Y02918D02*
X05237Y02867D01*
Y02765D02*
Y02867D01*
X05187Y02715D02*
X05237Y02765D01*
X05238Y028983D02*
X05288Y028483D01*
X05238Y028983D02*
Y03093D01*
X05187Y02505D02*
X05238Y02454D01*
Y02328D02*
Y02454D01*
X05187Y02277D02*
X05238Y02328D01*
Y02491D02*
X05288Y02441D01*
X05187Y0212D02*
Y02277D01*
X05287Y03142D02*
Y0324D01*
X05238Y03093D02*
X05287Y03142D01*
X05238Y02692D02*
X05288Y02742D01*
Y029083D02*
Y03074D01*
Y029083D02*
X0534Y028563D01*
X05335Y02906D02*
Y0306D01*
Y02906D02*
X05387Y02854D01*
X05238Y02491D02*
Y02692D01*
Y02259D02*
X05288Y02309D01*
X05238Y02069D02*
Y02259D01*
Y02069D02*
X05287Y0202D01*
X05288Y02507D02*
Y02679D01*
X05287Y0334D02*
X05338Y03289D01*
Y03124D02*
Y03289D01*
X05288Y03074D02*
X05338Y03124D01*
X0534Y02731D02*
Y028563D01*
X05288Y02679D02*
X0534Y02731D01*
X05288Y02507D02*
X05337Y02458D01*
Y02303D02*
Y02458D01*
X05287Y02253D02*
X05337Y02303D01*
X05287Y0212D02*
Y02253D01*
X05338Y02248D02*
X05387Y02297D01*
X05338Y02069D02*
Y02248D01*
X0615Y02525D02*
X061821Y025571D01*
X0615Y02483D02*
Y02525D01*
X06123Y02446D02*
Y02542D01*
X061817Y025115D02*
X061825D01*
X06189Y02505D01*
X061817Y025115D02*
Y025138D01*
X062055Y025375D01*
X061821Y025571D02*
X06245D01*
X062055Y025375D02*
X06245D01*
X05536Y02675D02*
Y02864D01*
X05487Y02913D02*
X05536Y02864D01*
X05487Y02913D02*
Y029333D01*
X06178Y0263D02*
X062036Y026556D01*
X06133Y02629D02*
X061793Y026753D01*
X06045Y02626D02*
X061336Y027146D01*
X06245D01*
X061793Y026753D02*
X06245D01*
X062036Y026556D02*
X06245D01*
X06133Y02628D02*
Y02629D01*
X05587Y02656D02*
Y028333D01*
X05487Y02688D02*
Y028333D01*
X05487Y02626D02*
X05536Y02675D01*
X05438Y02639D02*
X05487Y02688D01*
X05437Y02699D02*
Y02862D01*
X05387Y02649D02*
X05437Y02699D01*
X0554Y02609D02*
X05587Y02656D01*
X05122Y02085D02*
X05187Y0202D01*
X05122Y02085D02*
Y023617D01*
X05187Y024267D01*
X05123Y024907D02*
X05187Y024267D01*
X05123Y024907D02*
Y027693D01*
X05187Y028333D01*
X05123Y028973D02*
X05187Y028333D01*
X05123Y028973D02*
Y03103D01*
X05387Y03112D02*
Y0324D01*
X05335Y0306D02*
X05387Y03112D01*
X05387Y029333D02*
Y03048D01*
X05487Y029333D02*
Y03018D01*
X0554Y02894D02*
Y03006D01*
X05387Y02722D02*
Y028333D01*
X05335Y0267D02*
X05387Y02722D01*
X05335Y02495D02*
Y0267D01*
X05387Y025267D02*
Y02649D01*
X05438Y02497D02*
Y02639D01*
X05487Y025267D02*
Y02626D01*
X0554Y02491D02*
Y02609D01*
X05387Y02297D02*
Y024267D01*
X05438Y0228D02*
Y02458D01*
X05387Y02229D02*
X05438Y0228D01*
X05387Y0212D02*
Y02229D01*
X05487Y02261D02*
Y024267D01*
X05438Y02212D02*
X05487Y02261D01*
X05438Y02069D02*
Y02212D01*
X05538Y02249D02*
Y02457D01*
X05487Y02198D02*
X05538Y02249D01*
X05487Y0212D02*
Y02198D01*
X05587Y02242D02*
Y024267D01*
X05538Y02193D02*
X05587Y02242D01*
X05538Y02069D02*
Y02193D01*
X05387Y024267D02*
Y02443D01*
X05335Y02495D02*
X05387Y02443D01*
X05387Y028333D02*
Y02854D01*
X05387Y02509D02*
X05438Y02458D01*
X05387Y02509D02*
Y025267D01*
X05487Y024267D02*
Y02448D01*
X05438Y02497D02*
X05487Y02448D01*
X05387Y02912D02*
X05437Y02862D01*
X05387Y02912D02*
Y029333D01*
X05487Y028333D02*
Y02858D01*
X05439Y02906D02*
X05487Y02858D01*
X05387Y0334D02*
X05436Y03291D01*
X05338Y02069D02*
X05387Y0202D01*
X05487Y02508D02*
X05538Y02457D01*
X05487Y02508D02*
Y025267D01*
X05587Y024267D02*
Y02444D01*
X0554Y02491D02*
X05587Y02444D01*
X05487Y0334D02*
X05537Y0329D01*
X05587Y028333D02*
Y02847D01*
X0554Y02894D02*
X05587Y02847D01*
X05438Y02069D02*
X05487Y0202D01*
X05538Y02069D02*
X05587Y0202D01*
D21*
X066554Y01927D02*
D03*
X065354D02*
D03*
X06637Y01587D02*
D03*
X06517D02*
D03*
D22*
X070444Y025571D02*
D03*
X069696D02*
D03*
X071066Y02479D02*
D03*
X071814D02*
D03*
X073556Y02053D02*
D03*
X074304D02*
D03*
X069228Y021868D02*
D03*
X069976D02*
D03*
X063588Y018309D02*
D03*
X062839D02*
D03*
X054514Y01651D02*
D03*
X053766D02*
D03*
D23*
X06967Y02479D02*
D03*
X07047D02*
D03*
X07184Y025571D02*
D03*
X07104D02*
D03*
X070002Y021118D02*
D03*
X069202D02*
D03*
X061997Y01747D02*
D03*
X062797D02*
D03*
X05224Y01655D02*
D03*
X05304D02*
D03*
X069981Y020377D02*
D03*
X069181D02*
D03*
D24*
X07014Y02365D02*
D03*
X0714D02*
D03*
X06197Y01623D02*
D03*
X06323D02*
D03*
X05272Y01785D02*
D03*
X05398D02*
D03*
D25*
X073661Y0275D02*
D03*
X077279D02*
D03*
X073661Y025827D02*
D03*
X077279D02*
D03*
Y024153D02*
D03*
X073661D02*
D03*
Y02248D02*
D03*
X077279D02*
D03*
D26*
X06805Y020368D02*
D03*
X066664Y01685D02*
D03*
X059046Y0166D02*
D03*
D27*
X06805Y020868D02*
D03*
Y021368D02*
D03*
Y021868D02*
D03*
X065826Y020368D02*
D03*
Y020868D02*
D03*
Y021368D02*
D03*
Y021868D02*
D03*
X06444Y01835D02*
D03*
Y01785D02*
D03*
Y01735D02*
D03*
Y01685D02*
D03*
X066664Y01835D02*
D03*
Y01785D02*
D03*
Y01735D02*
D03*
X059046Y0171D02*
D03*
Y0176D02*
D03*
Y0181D02*
D03*
X056821Y0166D02*
D03*
Y0171D02*
D03*
Y0176D02*
D03*
Y0181D02*
D03*
D28*
X064952Y021432D02*
D03*
Y020633D02*
D03*
D29*
X064516Y019744D02*
D03*
Y019074D02*
D03*
X06388Y019721D02*
D03*
Y019051D02*
D03*
X063214Y019721D02*
D03*
Y019051D02*
D03*
X05988Y017855D02*
D03*
Y018525D02*
D03*
D30*
X060729Y017084D02*
D03*
Y018284D02*
D03*
X05562Y01665D02*
D03*
Y01785D02*
D03*
D31*
X063198Y03065D02*
D03*
X063395D02*
D03*
X063591D02*
D03*
X063788D02*
D03*
X063985D02*
D03*
X064182D02*
D03*
X064379D02*
D03*
X064576D02*
D03*
X064773D02*
D03*
X064969D02*
D03*
X065166D02*
D03*
X065363D02*
D03*
X06556D02*
D03*
X065757D02*
D03*
X065954D02*
D03*
X066151D02*
D03*
X066347D02*
D03*
X066544D02*
D03*
X066741D02*
D03*
X066938D02*
D03*
X067135D02*
D03*
X067332D02*
D03*
X067529D02*
D03*
X067725D02*
D03*
X067922D02*
D03*
Y02443D02*
D03*
X067725D02*
D03*
X067529D02*
D03*
X067332D02*
D03*
X067135D02*
D03*
X066938D02*
D03*
X066741D02*
D03*
X066544D02*
D03*
X066347D02*
D03*
X066151D02*
D03*
X065954D02*
D03*
X065757D02*
D03*
X06556D02*
D03*
X065363D02*
D03*
X065166D02*
D03*
X064969D02*
D03*
X064773D02*
D03*
X064576D02*
D03*
X064379D02*
D03*
X064182D02*
D03*
X063985D02*
D03*
X063788D02*
D03*
X063591D02*
D03*
X063395D02*
D03*
X063198D02*
D03*
D32*
X06867Y029902D02*
D03*
Y029705D02*
D03*
Y029509D02*
D03*
Y029312D02*
D03*
Y029115D02*
D03*
Y028918D02*
D03*
Y028721D02*
D03*
Y028524D02*
D03*
Y028327D02*
D03*
Y028131D02*
D03*
Y027934D02*
D03*
Y027737D02*
D03*
Y02754D02*
D03*
Y027343D02*
D03*
Y027146D02*
D03*
Y026949D02*
D03*
Y026753D02*
D03*
Y026556D02*
D03*
Y026359D02*
D03*
Y026162D02*
D03*
Y025965D02*
D03*
Y025768D02*
D03*
Y025571D02*
D03*
Y025375D02*
D03*
Y025178D02*
D03*
X06245D02*
D03*
Y025375D02*
D03*
Y025571D02*
D03*
Y025768D02*
D03*
Y025965D02*
D03*
Y026162D02*
D03*
Y026359D02*
D03*
Y026556D02*
D03*
Y026753D02*
D03*
Y026949D02*
D03*
Y027146D02*
D03*
Y027343D02*
D03*
Y02754D02*
D03*
Y027737D02*
D03*
Y027934D02*
D03*
Y028131D02*
D03*
Y028327D02*
D03*
Y028524D02*
D03*
Y028721D02*
D03*
Y028918D02*
D03*
Y029115D02*
D03*
Y029312D02*
D03*
Y029509D02*
D03*
Y029705D02*
D03*
D33*
Y029902D02*
D03*
D34*
X072407Y034177D02*
D03*
D35*
X076187Y034532D02*
D03*
D36*
Y028429D02*
D03*
D37*
X072156Y032366D02*
D03*
Y031933D02*
D03*
Y0315D02*
D03*
Y031067D02*
D03*
Y030634D02*
D03*
Y030201D02*
D03*
Y029768D02*
D03*
Y029335D02*
D03*
Y028902D02*
D03*
D38*
X072407Y028429D02*
D03*
D39*
X076467Y02118D02*
D03*
X077293D02*
D03*
D40*
X069335Y030572D02*
D03*
X069925D02*
D03*
D41*
X074995Y02116D02*
D03*
X075665D02*
D03*
D42*
X07052Y030025D02*
D03*
Y030615D02*
D03*
D84*
X063788Y023871D02*
G03*
X06388Y02365I000313J0D01*
G01*
X0631Y029523D02*
G03*
X063123Y029467I00008J0D01*
G01*
X0631Y03001D02*
G03*
X063057Y030119I-00016J-0D01*
G01*
X062088Y031152D02*
G03*
X06203Y031177I-000058J-000055D01*
G01*
X06348Y02367D02*
G03*
X063591Y023939I-000269J000269D01*
G01*
X067922Y031295D02*
X06863Y032002D01*
X067922Y03065D02*
Y031295D01*
X06113Y02846D02*
X06118D01*
X06063Y02796D02*
X06113Y02846D01*
X062088Y031152D02*
X063057Y030119D01*
X0631Y03001D02*
X0631Y029523D01*
X063123Y029467D02*
X067332Y025258D01*
X06203Y031177D02*
Y031177D01*
X058563D02*
X06203D01*
X065363Y02443D02*
Y024967D01*
X06355Y02678D02*
X065363Y024967D01*
X065345Y024448D02*
X065363Y02443D01*
X062397Y02314D02*
X06419D01*
X063788Y023871D02*
Y02443D01*
X062304Y02331D02*
X0641D01*
X063591Y023939D02*
Y02443D01*
X0622Y022943D02*
X062397Y02314D01*
X06419D02*
X064969Y023919D01*
X0641Y02331D02*
X064773Y023983D01*
X062124Y02313D02*
X062304Y02331D01*
X07324Y02798D02*
Y02927D01*
X072874Y027614D02*
X07324Y02798D01*
X07304Y02816D02*
Y028976D01*
X07274Y02786D02*
X07304Y02816D01*
X06891Y03038D02*
Y031162D01*
X07079Y02932D02*
X07088Y02923D01*
Y02912D02*
Y02923D01*
X070789Y029029D02*
X07088Y02912D01*
X06972Y02932D02*
X07079D01*
X07127Y02983D02*
X07144Y02966D01*
Y02937D02*
Y02966D01*
X07127Y0292D02*
X07144Y02937D01*
X07102Y02983D02*
X07127D01*
Y028986D02*
Y0292D01*
Y028986D02*
X07144Y028816D01*
X07154Y02835D02*
X07169D01*
X07144Y02845D02*
X07154Y02835D01*
X07144Y02845D02*
Y028816D01*
X07084Y02965D02*
X07102Y02983D01*
X069732Y02965D02*
X07084D01*
X07178Y02844D02*
Y028721D01*
X07169Y02835D02*
X07178Y02844D01*
Y028721D02*
X07196Y028902D01*
X072156D01*
X06964Y029558D02*
X069732Y02965D01*
X06964Y0294D02*
Y029558D01*
Y0294D02*
X06972Y02932D01*
X069279Y029029D02*
X070789D01*
X06919Y02894D02*
X069279Y029029D01*
X06919Y02879D02*
Y02894D01*
Y02879D02*
X06925Y02873D01*
X069491D01*
X06956Y028661D01*
Y02851D02*
Y028661D01*
X069477Y028427D02*
X06956Y02851D01*
X06921Y028427D02*
X069477D01*
X06867Y028327D02*
X06911D01*
X06921Y028427D01*
X06404Y02978D02*
X06417D01*
X064379Y029989D01*
Y03065D01*
X063183Y02724D02*
X06325D01*
X06196Y03099D02*
X06294Y03001D01*
Y029424D02*
Y03001D01*
Y029424D02*
X067117Y025247D01*
X06113Y02875D02*
X061468D01*
X061627Y028983D02*
X061819D01*
X061527Y029083D02*
X061627Y028983D01*
X0614Y029083D02*
X061527D01*
X061267Y02895D02*
X0614Y029083D01*
X061123Y02895D02*
X061267D01*
X06099Y029083D02*
X061123Y02895D01*
X061353Y02926D02*
X061422Y02933D01*
X060342Y02926D02*
X061353D01*
X06115Y02819D02*
X06144D01*
X06086Y0279D02*
X06115Y02819D01*
X06295Y02703D02*
Y02723D01*
X062837Y027343D02*
X06295Y02723D01*
X06245Y027343D02*
X062837D01*
X062883Y02754D02*
X063183Y02724D01*
X06245Y02754D02*
X062883D01*
X063053Y027737D02*
X06318Y02761D01*
X06245Y027737D02*
X063053D01*
X072156Y029768D02*
X072742D01*
X07324Y02927D01*
X071689Y027614D02*
X072874D01*
X07137Y027934D02*
X071689Y027614D01*
X06867Y027934D02*
X06916D01*
X07105D02*
X07137D01*
X07098Y027864D02*
X07105Y027934D01*
X07098Y027619D02*
Y027864D01*
X07091Y027549D02*
X07098Y027619D01*
X07077Y027549D02*
X07091D01*
X0707Y027619D02*
X07077Y027549D01*
X0707Y027619D02*
Y027934D01*
X070657Y027976D02*
X0707Y027934D01*
X070463Y027976D02*
X070657D01*
X07042Y027934D02*
X070463Y027976D01*
X07042Y027619D02*
Y027934D01*
X07035Y027549D02*
X07042Y027619D01*
X07021Y027549D02*
X07035D01*
X07014Y027619D02*
X07021Y027549D01*
X07014Y027619D02*
Y027934D01*
X070097Y027976D02*
X07014Y027934D01*
X069903Y027976D02*
X070097D01*
X06986Y027934D02*
X069903Y027976D01*
X06986Y027619D02*
Y027934D01*
X06979Y027549D02*
X06986Y027619D01*
X06965Y027549D02*
X06979D01*
X06958Y027619D02*
X06965Y027549D01*
X06958Y027619D02*
Y027864D01*
X06951Y027934D02*
X06958Y027864D01*
X0693Y027934D02*
X06951D01*
X06916D02*
X0693D01*
X072156Y029335D02*
X072681D01*
X07304Y028976D01*
X07179Y02786D02*
X07274D01*
X071519Y028131D02*
X07179Y02786D01*
X06867Y028131D02*
X06909D01*
X07126D02*
X071519D01*
X07119Y028201D02*
X07126Y028131D01*
X07119Y028201D02*
Y028637D01*
X07112Y028707D02*
X07119Y028637D01*
X07098Y028707D02*
X07112D01*
X07091Y028637D02*
X07098Y028707D01*
X07091Y028201D02*
Y028637D01*
X07084Y028131D02*
X07091Y028201D01*
X0707Y028131D02*
X07084D01*
X07063Y028201D02*
X0707Y028131D01*
X07063Y028201D02*
Y028637D01*
X07056Y028707D02*
X07063Y028637D01*
X07042Y028707D02*
X07056D01*
X07035Y028637D02*
X07042Y028707D01*
X07035Y028201D02*
Y028637D01*
X07028Y028131D02*
X07035Y028201D01*
X07014Y028131D02*
X07028D01*
X07007Y028201D02*
X07014Y028131D01*
X07007Y028201D02*
Y028637D01*
X07Y028707D02*
X07007Y028637D01*
X06986Y028707D02*
X07D01*
X06979Y028637D02*
X06986Y028707D01*
X06979Y028201D02*
Y028637D01*
X06972Y028131D02*
X06979Y028201D01*
X069514Y028131D02*
X06972D01*
X06951Y028135D02*
X069514Y028131D01*
X06944Y028205D02*
X06951Y028135D01*
X0693Y028205D02*
X06944D01*
X06923Y028135D02*
X0693Y028205D01*
X069226Y028131D02*
X06923Y028135D01*
X06909Y028131D02*
X069226D01*
X07163Y030634D02*
X072156D01*
X071236D02*
X07149D01*
X07163D01*
X070582Y031288D02*
X070692Y031178D01*
X070791Y031178D01*
X070918Y031306D01*
X071017D01*
X071116Y031207D01*
Y031108D02*
Y031207D01*
X070989Y03098D02*
X071116Y031108D01*
X070989Y03098D02*
X070989Y030881D01*
X071137Y030733D01*
X071236Y030634D01*
X069036Y031288D02*
X06911D01*
X069532D01*
X069602Y031218D01*
Y031038D02*
Y031218D01*
Y031038D02*
X069672Y030968D01*
X069812D01*
X069882Y031038D01*
Y031288D01*
Y031399D01*
X069952Y031469D01*
X070092D01*
X070162Y031399D01*
Y031358D02*
Y031399D01*
Y031358D02*
X070232Y031288D01*
X070442D01*
X070582D01*
X06891Y031162D02*
X069036Y031288D01*
X06885Y03032D02*
X06891Y03038D01*
X068692Y03032D02*
X06885D01*
X06863Y030382D02*
X068692Y03032D01*
X06863Y030382D02*
Y030962D01*
X06854Y031052D02*
X06863Y030962D01*
X068451Y031052D02*
X06854D01*
X06835Y030951D02*
X068451Y031052D01*
X06835Y030273D02*
Y030951D01*
X067989Y029912D02*
X06835Y030273D01*
X06739Y029912D02*
X067989D01*
X067135Y030168D02*
X06739Y029912D01*
X067135Y030168D02*
Y03065D01*
X07168Y031933D02*
X072156D01*
X068953D02*
X07007D01*
X07014Y031863D01*
Y031677D02*
Y031863D01*
Y031677D02*
X07021Y031607D01*
X07035D01*
X07042Y031677D01*
Y031933D01*
Y032112D01*
X07049Y032182D01*
X07063D01*
X0707Y032112D01*
Y031933D02*
Y032112D01*
Y031677D02*
Y031933D01*
Y031677D02*
X07077Y031607D01*
X07091D01*
X07098Y031677D01*
Y031933D01*
Y032112D01*
X07105Y032182D01*
X07119D01*
X07126Y032112D01*
Y031933D02*
Y032112D01*
Y031677D02*
Y031933D01*
Y031677D02*
X07133Y031607D01*
X07147D01*
X07154Y031677D01*
Y031863D01*
X07161Y031933D01*
X07168D01*
X06817Y03115D02*
X06822Y0312D01*
X068409Y031389D01*
X068508D01*
X068639Y031257D01*
X068738D01*
X068837Y031356D01*
Y031455D01*
X068706Y031587D02*
X068837Y031455D01*
X068706Y031587D02*
X068706Y031686D01*
X068854Y031834D01*
X068953Y031933D01*
X06817Y03034D02*
Y03115D01*
X06793Y0301D02*
X06817Y03034D01*
X06745Y0301D02*
X06793D01*
X067332Y030218D02*
X06745Y0301D01*
X067332Y030218D02*
Y03065D01*
X07149Y032366D02*
X072156D01*
X069926D02*
X07149D01*
X069856Y032296D02*
X069926Y032366D01*
X069856Y03217D02*
Y032296D01*
X069786Y0321D02*
X069856Y03217D01*
X069646Y0321D02*
X069786D01*
X069576Y03217D02*
X069646Y0321D01*
X069576Y03217D02*
Y032366D01*
Y032503D01*
X069506Y032573D02*
X069576Y032503D01*
X069366Y032573D02*
X069506D01*
X069296Y032503D02*
X069366Y032573D01*
X069296Y032366D02*
Y032503D01*
Y03217D02*
Y032366D01*
X069226Y0321D02*
X069296Y03217D01*
X069086Y0321D02*
X069226D01*
X069016Y03217D02*
X069086Y0321D01*
X069016Y03217D02*
Y032366D01*
Y032503D01*
X068946Y032573D02*
X069016Y032503D01*
X068806Y032573D02*
X068946D01*
X068736Y032503D02*
X068806Y032573D01*
X068736Y032436D02*
Y032503D01*
X068666Y032366D02*
X068736Y032436D01*
X068456Y032366D02*
X068666D01*
X068316D02*
X068456D01*
X0682Y03225D02*
X068316Y032366D01*
X068101Y03225D02*
X0682D01*
X067957Y032394D02*
X068101Y03225D01*
X067858Y032394D02*
X067957D01*
X067759Y032295D02*
X067858Y032394D01*
X067759Y032196D02*
Y032295D01*
Y032196D02*
X067952Y032002D01*
X068115Y03184D01*
Y031741D02*
Y03184D01*
X068016Y031642D02*
X068115Y031741D01*
X067917Y031642D02*
X068016D01*
X067804Y031755D02*
X067917Y031642D01*
X067705Y031755D02*
X067804Y031755D01*
X067556Y031606D02*
X067705Y031755D01*
X067457Y031507D02*
X067556Y031606D01*
X066967Y031507D02*
X067457D01*
X0669Y03144D02*
X066967Y031507D01*
X0669Y031267D02*
Y03144D01*
Y031267D02*
X066957Y03121D01*
X06742D01*
X067529Y031102D01*
Y03065D02*
Y031102D01*
X07298Y031751D02*
Y03246D01*
X0727Y03274D02*
X07298Y03246D01*
X0679Y03274D02*
X0727D01*
X072156Y0315D02*
X072729D01*
X07298Y031751D01*
X066544Y031384D02*
X0679Y03274D01*
X066544Y03065D02*
Y031384D01*
X064182Y031288D02*
Y032638D01*
X06377Y03305D02*
X064182Y032638D01*
X0603Y03305D02*
X06041D01*
X06342D02*
X06377D01*
X06335Y03298D02*
X06342Y03305D01*
X06335Y032794D02*
Y03298D01*
X06328Y032724D02*
X06335Y032794D01*
X06314Y032724D02*
X06328D01*
X06307Y032794D02*
X06314Y032724D01*
X06307Y032794D02*
Y03305D01*
Y033306D01*
X063Y033376D02*
X06307Y033306D01*
X06286Y033376D02*
X063D01*
X06279Y033306D02*
X06286Y033376D01*
X06279Y03305D02*
Y033306D01*
Y032794D02*
Y03305D01*
X06272Y032724D02*
X06279Y032794D01*
X06258Y032724D02*
X06272D01*
X06251Y032794D02*
X06258Y032724D01*
X06251Y032794D02*
Y03305D01*
Y033306D01*
X06244Y033376D02*
X06251Y033306D01*
X0623Y033376D02*
X06244D01*
X06223Y033306D02*
X0623Y033376D01*
X06223Y03305D02*
Y033306D01*
Y032794D02*
Y03305D01*
X06216Y032724D02*
X06223Y032794D01*
X06202Y032724D02*
X06216D01*
X06195Y032794D02*
X06202Y032724D01*
X06195Y032794D02*
Y03305D01*
Y033306D01*
X06188Y033376D02*
X06195Y033306D01*
X06174Y033376D02*
X06188D01*
X06167Y033306D02*
X06174Y033376D01*
X06167Y03305D02*
Y033306D01*
Y032794D02*
Y03305D01*
X0616Y032724D02*
X06167Y032794D01*
X06146Y032724D02*
X0616D01*
X06139Y032794D02*
X06146Y032724D01*
X06139Y032794D02*
Y03305D01*
Y033306D01*
X06132Y033376D02*
X06139Y033306D01*
X06118Y033376D02*
X06132D01*
X06111Y033306D02*
X06118Y033376D01*
X06111Y03305D02*
Y033306D01*
Y032794D02*
Y03305D01*
X06104Y032724D02*
X06111Y032794D01*
X0609Y032724D02*
X06104D01*
X06083Y032794D02*
X0609Y032724D01*
X06083Y032794D02*
Y03305D01*
Y033306D01*
X06076Y033376D02*
X06083Y033306D01*
X06062Y033376D02*
X06076D01*
X06055Y033306D02*
X06062Y033376D01*
X06055Y03312D02*
Y033306D01*
X06048Y03305D02*
X06055Y03312D01*
X06041Y03305D02*
X06048D01*
X05997Y03272D02*
X0603Y03305D01*
X05997Y03209D02*
Y03272D01*
X05958Y0317D02*
X05997Y03209D01*
X05874Y0317D02*
X05958D01*
X058385Y032055D02*
X05874Y0317D01*
X058385Y032055D02*
Y032885D01*
X05787Y0334D02*
X058385Y032885D01*
X060941Y022521D02*
X061111D01*
X062064Y029705D02*
X06245D01*
X06198Y02979D02*
X062064Y029705D01*
X06198Y02979D02*
Y03032D01*
X06171Y03059D02*
X06198Y03032D01*
X06051Y03059D02*
X06171D01*
X06039D02*
X06051D01*
X06011D02*
X06039D01*
X059843D02*
X06011D01*
X05983Y030577D02*
X059843Y03059D01*
X05976Y030507D02*
X05983Y030577D01*
X05962Y030507D02*
X05976D01*
X05955Y030577D02*
X05962Y030507D01*
X059537Y03059D02*
X05955Y030577D01*
X05927Y03059D02*
X059537D01*
X05913D02*
X05927D01*
X05907Y03053D02*
X05913Y03059D01*
X05907Y03042D02*
Y03053D01*
Y03042D02*
X05913Y03036D01*
X05929D01*
X059556D01*
X05957Y030346D01*
X05964Y030276D01*
X05978D01*
X05985Y030346D01*
Y03036D01*
Y03036D01*
X05992Y03043D01*
X06006D01*
X06013Y03036D01*
X06013Y03036D01*
X06041D01*
X06041Y03036D01*
X06048Y03043D01*
X06062D01*
X06069Y03036D01*
X06069Y03036D01*
X06097D01*
X06097Y03036D01*
X06104Y03043D01*
X06118D01*
X06125Y03036D01*
X06125Y03036D01*
X06153D01*
X06167D01*
X06176Y03027D01*
Y03016D02*
Y03027D01*
X06167Y03007D02*
X06176Y03016D01*
X06144Y03007D02*
X06167D01*
X06122D02*
X06144D01*
X06116Y03013D02*
X06122Y03007D01*
X06109Y0302D02*
X06116Y03013D01*
X06095Y0302D02*
X06109D01*
X06088Y03013D02*
X06095Y0302D01*
X06082Y03007D02*
X06088Y03013D01*
X06066Y03007D02*
X06082D01*
X0606Y03013D02*
X06066Y03007D01*
X06053Y0302D02*
X0606Y03013D01*
X06039Y0302D02*
X06053D01*
X06032Y03013D02*
X06039Y0302D01*
X06026Y03007D02*
X06032Y03013D01*
X06004Y03007D02*
X06026D01*
X05976D02*
X06004D01*
X05962D02*
X05976D01*
X05948Y03021D02*
X05962Y03007D01*
X05932Y03021D02*
X05948D01*
X05924Y03013D02*
X05932Y03021D01*
X05924Y02995D02*
Y03013D01*
Y02995D02*
X0594Y02979D01*
Y02858D02*
Y02979D01*
X059153Y028333D02*
X0594Y02858D01*
X05814Y03033D02*
X05825Y03022D01*
X05756Y03033D02*
X05814D01*
X05746Y03023D02*
X05756Y03033D01*
X05798Y03D02*
X05806Y02992D01*
Y02978D02*
Y02992D01*
X05787Y02959D02*
X05806Y02978D01*
X057528Y03D02*
X05798D01*
X05746Y030068D02*
X057528Y03D01*
X05787Y029333D02*
Y02959D01*
X056577Y02989D02*
X05728D01*
X05651Y029823D02*
X056577Y02989D01*
X05651Y029693D02*
Y029823D01*
Y029693D02*
X05687Y029333D01*
X05737Y03053D02*
X05878D01*
X05727Y03043D02*
X05737Y03053D01*
X05727Y03014D02*
Y03043D01*
X05721Y03008D02*
X05727Y03014D01*
X05684Y03053D02*
X05695D01*
X05631D02*
X05648D01*
X05654Y03047D01*
Y03026D02*
Y03047D01*
Y03026D02*
X0566Y0302D01*
X05672D01*
X05678Y03026D01*
Y03047D01*
X05684Y03053D01*
X05701Y03014D02*
Y03047D01*
X05695Y03053D02*
X05701Y03047D01*
Y03014D02*
X05707Y03008D01*
X05721D01*
X05878Y03053D02*
X05888Y03043D01*
Y03025D02*
Y03043D01*
X05746Y030068D02*
Y03023D01*
X05698Y0278D02*
X057257D01*
X05687Y02791D02*
X05698Y0278D01*
X05687Y02791D02*
Y028333D01*
X057257Y0278D02*
X05737Y027687D01*
Y02746D02*
Y027687D01*
Y02746D02*
X05745Y02738D01*
X059605Y027455D02*
X060178D01*
X05953Y02738D02*
X059605Y027455D01*
X05857Y02738D02*
X05953D01*
X05745D02*
X05759D01*
X0578D01*
X05787Y02745D01*
Y02759D01*
X05794Y02766D01*
X05808D01*
X05815Y02759D01*
Y02745D02*
Y02759D01*
Y02745D02*
X05822Y02738D01*
X05843D01*
X05857D01*
X05739Y02802D02*
X05759Y02782D01*
X0585Y02759D02*
X0592D01*
X05759Y02782D02*
X05827D01*
X0585Y02759D01*
X060514Y029083D02*
X06099D01*
X05739Y02802D02*
Y02978D01*
X05728Y02989D02*
X05739Y02978D01*
X059716Y02788D02*
X0602D01*
X05966Y027824D02*
X059716Y02788D01*
X05966Y02772D02*
Y027824D01*
Y02772D02*
X05972Y02766D01*
X060192D01*
X06023Y027622D01*
Y027508D02*
Y027622D01*
X060178Y027455D02*
X06023Y027508D01*
X059997Y028327D02*
X060477D01*
X05995Y02828D02*
X059997Y028327D01*
X05995Y028176D02*
Y02828D01*
X060523Y028373D02*
Y028454D01*
X060477Y028327D02*
X060523Y028373D01*
X060467Y02851D02*
X060523Y028454D01*
X06015Y02851D02*
X060467D01*
X06046Y029029D02*
X060514Y029083D01*
X06046Y02894D02*
Y029029D01*
X0602Y02788D02*
X060268Y027948D01*
Y028064D01*
X060202Y02813D02*
X060268Y028064D01*
X059996Y02813D02*
X060202D01*
X05995Y028176D02*
X059996Y02813D01*
X0601Y02856D02*
X06015Y02851D01*
X0601Y02856D02*
Y02864D01*
X06017Y02871D01*
X06084D01*
X05978Y02857D02*
X060252Y029042D01*
X0596Y02865D02*
X06006Y02911D01*
X05978Y02817D02*
Y02857D01*
X0596Y02834D02*
Y02865D01*
X05907Y02781D02*
X0596Y02834D01*
X06084Y02871D02*
X06089Y02876D01*
Y028855D01*
X060845Y0289D02*
X06089Y028855D01*
X0605Y0289D02*
X060845D01*
X06046Y02894D02*
X0605Y0289D01*
X06006Y02911D02*
Y02967D01*
X060252Y029042D02*
Y02917D01*
X060342Y02926D01*
X05964Y0291D02*
X05976D01*
X05981Y02915D01*
Y029675D01*
X059875Y02974D01*
X05999D01*
X06006Y02967D01*
X061819Y028983D02*
X06195Y029115D01*
X0603Y02947D02*
X061349D01*
X06023Y02954D02*
X0603Y02947D01*
X06023Y02954D02*
Y02965D01*
X06029Y02971D02*
X061538D01*
X06023Y02965D02*
X06029Y02971D01*
X061422Y02933D02*
Y029397D01*
X061349Y02947D02*
X061422Y029397D01*
X06195Y029115D02*
X06245D01*
X0592Y02759D02*
X05978Y02817D01*
X061793Y029312D02*
X06245D01*
X05958Y02916D02*
X05964Y0291D01*
X05958Y02916D02*
Y02973D01*
X061538Y02971D02*
X06161Y029638D01*
Y029494D02*
Y029638D01*
Y029494D02*
X061793Y029312D01*
X05729Y02719D02*
X05974D01*
X05635Y02813D02*
X05729Y02719D01*
X05635Y02813D02*
Y028853D01*
X061883Y029509D02*
X06245D01*
X06178Y029611D02*
X061883Y029509D01*
X06178Y029611D02*
Y02981D01*
X05835Y02806D02*
Y02962D01*
X05825Y02972D02*
X05835Y02962D01*
X05825Y02972D02*
Y03022D01*
X05958Y02973D02*
X05974Y02989D01*
X0617D01*
X058771Y029868D02*
X05887Y029769D01*
Y029333D02*
Y029769D01*
X05881Y03018D02*
X05888Y03025D01*
X05854Y03018D02*
X05881D01*
X05846Y0301D02*
X05854Y03018D01*
X05846Y02998D02*
Y0301D01*
Y02998D02*
X058572Y029868D01*
X058771D01*
X0617Y02989D02*
X06178Y02981D01*
X0563Y03077D02*
X061834D01*
X05624Y0306D02*
X05631Y03053D01*
X05624Y0306D02*
Y03071D01*
X0563Y03077D01*
X061834D02*
X06245Y030154D01*
Y029902D02*
Y030154D01*
X064573Y03065D02*
Y033547D01*
X064515Y033605D02*
X064573Y033547D01*
X063943Y034177D02*
X06402Y0341D01*
X064169Y033951D01*
Y033852D02*
Y033951D01*
X064012Y033696D02*
X064169Y033852D01*
X064012Y033597D02*
Y033696D01*
Y033597D02*
X064111Y033498D01*
X06421D01*
X064367Y033654D01*
X064465D01*
X064515Y033605D01*
X060251Y034177D02*
X060653D01*
X060723Y034107D01*
Y033886D02*
Y034107D01*
Y033886D02*
X060793Y033816D01*
X060933D01*
X061003Y033886D01*
Y034177D01*
Y034401D01*
X061073Y034471D01*
X061213D01*
X061283Y034401D01*
Y034177D02*
Y034401D01*
Y033886D02*
Y034177D01*
Y033886D02*
X061353Y033816D01*
X061493D01*
X061563Y033886D01*
Y034177D01*
Y034401D01*
X061633Y034471D01*
X061773D01*
X061843Y034401D01*
Y034177D02*
Y034401D01*
Y033886D02*
Y034177D01*
Y033886D02*
X061913Y033816D01*
X062053D01*
X062123Y033886D01*
Y034177D01*
Y034401D01*
X062193Y034471D01*
X062333D01*
X062403Y034401D01*
Y034177D02*
Y034401D01*
Y033886D02*
Y034177D01*
Y033886D02*
X062473Y033816D01*
X062613D01*
X062683Y033886D01*
Y034177D01*
Y034401D01*
X062753Y034471D01*
X062893D01*
X062963Y034401D01*
Y034177D02*
Y034401D01*
Y033886D02*
Y034177D01*
Y033886D02*
X063033Y033816D01*
X063173D01*
X063243Y033886D01*
Y034177D01*
Y034401D01*
X063313Y034471D01*
X063453D01*
X063523Y034401D01*
Y034247D02*
Y034401D01*
Y034247D02*
X063593Y034177D01*
X063803D01*
X063943D01*
X059468Y033394D02*
X060251Y034177D01*
X059468Y032698D02*
Y033394D01*
X05917Y0324D02*
X059468Y032698D01*
X063982Y03113D02*
Y031748D01*
X06371Y03202D02*
X063982Y031748D01*
X06359Y03202D02*
X06371D01*
X06352Y03209D02*
X06359Y03202D01*
X06352Y03209D02*
Y032331D01*
X06345Y032401D02*
X06352Y032331D01*
X06331Y032401D02*
X06345D01*
X06324Y032331D02*
X06331Y032401D01*
X06324Y03202D02*
Y032331D01*
Y031709D02*
Y03202D01*
X06317Y031639D02*
X06324Y031709D01*
X06303Y031639D02*
X06317D01*
X06296Y031709D02*
X06303Y031639D01*
X06296Y031709D02*
Y03202D01*
Y032331D01*
X06289Y032401D02*
X06296Y032331D01*
X06275Y032401D02*
X06289D01*
X06268Y032331D02*
X06275Y032401D01*
X06268Y03202D02*
Y032331D01*
Y031709D02*
Y03202D01*
X06261Y031639D02*
X06268Y031709D01*
X06247Y031639D02*
X06261D01*
X0624Y031709D02*
X06247Y031639D01*
X0624Y031709D02*
Y03202D01*
Y032331D01*
X06233Y032401D02*
X0624Y032331D01*
X06219Y032401D02*
X06233D01*
X06212Y032331D02*
X06219Y032401D01*
X06212Y03202D02*
Y032331D01*
Y031709D02*
Y03202D01*
X06205Y031639D02*
X06212Y031709D01*
X06191Y031639D02*
X06205D01*
X06184Y031709D02*
X06191Y031639D01*
X06184Y031709D02*
Y03202D01*
Y032331D01*
X06177Y032401D02*
X06184Y032331D01*
X06163Y032401D02*
X06177D01*
X06156Y032331D02*
X06163Y032401D01*
X06156Y03202D02*
Y032331D01*
Y031709D02*
Y03202D01*
X06149Y031639D02*
X06156Y031709D01*
X06135Y031639D02*
X06149D01*
X06128Y031709D02*
X06135Y031639D01*
X06128Y031709D02*
Y03202D01*
Y032331D01*
X06121Y032401D02*
X06128Y032331D01*
X06107Y032401D02*
X06121D01*
X061Y032331D02*
X06107Y032401D01*
X061Y03202D02*
Y032331D01*
Y031709D02*
Y03202D01*
X06093Y031639D02*
X061Y031709D01*
X06079Y031639D02*
X06093D01*
X06072Y031709D02*
X06079Y031639D01*
X06072Y031709D02*
Y03195D01*
X06065Y03202D02*
X06072Y03195D01*
X06044Y03202D02*
X06065D01*
X0603D02*
X06044D01*
X05978Y0315D02*
X0603Y03202D01*
X058657Y0315D02*
X05978D01*
X05787Y032287D02*
X058657Y0315D01*
X05787Y032287D02*
Y0326D01*
X05707Y0334D02*
X05787Y0326D01*
X064182Y031288D02*
X064185Y031285D01*
Y03065D02*
Y031285D01*
X064182Y03065D02*
Y031288D01*
X05887Y0324D02*
X05917D01*
X05622Y03467D02*
X06418D01*
X0561Y03455D02*
X05622Y03467D01*
X0561Y03437D02*
Y03455D01*
X0562Y03427D02*
X05868D01*
X0561Y03437D02*
X0562Y03427D01*
X064773Y03065D02*
Y034077D01*
X05887Y0334D02*
X05895Y03348D01*
Y034D01*
X05868Y03427D02*
X05895Y034D01*
X06418Y03467D02*
X064773Y034077D01*
X05637Y03099D02*
X06196D01*
X05625Y03111D02*
X05637Y03099D01*
X05625Y03111D02*
Y03135D01*
X05636Y03146D02*
X056687D01*
X05625Y03135D02*
X05636Y03146D01*
X05687Y031643D02*
Y0324D01*
X056687Y03146D02*
X05687Y031643D01*
X0574Y03234D02*
X058563Y031177D01*
X0574Y03234D02*
Y03261D01*
X064773Y023983D02*
Y02443D01*
X0611Y02313D02*
X062124D01*
X06087Y0229D02*
X0611Y02313D01*
X05988Y0229D02*
X06087D01*
X05974Y02304D02*
X05988Y0229D01*
X05974Y02497D02*
Y025027D01*
Y02493D02*
Y02497D01*
Y02493D02*
X05981Y02486D01*
X060323D01*
X060393Y02479D01*
Y02465D02*
Y02479D01*
X060323Y02458D02*
X060393Y02465D01*
X05974Y02458D02*
X060323D01*
X05947D02*
X05974D01*
X0594Y02451D02*
X05947Y02458D01*
X0594Y02437D02*
Y02451D01*
Y02437D02*
X05947Y0243D01*
X05974D01*
X060323D01*
X060393Y02423D01*
Y02409D02*
Y02423D01*
X060323Y02402D02*
X060393Y02409D01*
X05974Y02402D02*
X060323D01*
X05967Y02395D02*
X05974Y02402D01*
X05967Y02381D02*
Y02395D01*
Y02381D02*
X05974Y02374D01*
X060323D01*
X060393Y02367D01*
Y02353D02*
Y02367D01*
X060323Y02346D02*
X060393Y02353D01*
X05981Y02346D02*
X060323D01*
X05974Y02339D02*
X05981Y02346D01*
X05974Y02318D02*
Y02339D01*
Y02304D02*
Y02318D01*
X0595Y025267D02*
X05974Y025027D01*
X05887Y025267D02*
X0595D01*
X06126Y022943D02*
X0622D01*
X061373Y022783D02*
X06229D01*
X061111Y022521D02*
X061373Y022783D01*
X06229D02*
X062467Y02296D01*
X05887Y02247D02*
Y02267D01*
X0588Y02274D02*
X05887Y02267D01*
X058386Y02274D02*
X0588D01*
X058316Y02281D02*
X058386Y02274D01*
X058316Y02281D02*
Y02295D01*
X058386Y02302D01*
X05887D01*
X059354D01*
X059424Y02309D01*
Y02323D01*
X059354Y0233D02*
X059424Y02323D01*
X05887Y0233D02*
X059354D01*
X058386D02*
X05887D01*
X058316Y02337D02*
X058386Y0233D01*
X058316Y02337D02*
Y02351D01*
X058386Y02358D01*
X05887D01*
X059354D01*
X059424Y02365D01*
Y02379D01*
X059354Y02386D02*
X059424Y02379D01*
X05894Y02386D02*
X059354D01*
X05887Y02393D02*
X05894Y02386D01*
X05887Y02393D02*
Y024D01*
Y02247D02*
X05906Y02228D01*
X059585D01*
X05887Y024D02*
Y024267D01*
X059585Y02228D02*
X059986Y022681D01*
X060998D01*
X06126Y022943D01*
X064969Y023919D02*
Y02443D01*
X0608Y02238D02*
X060941Y022521D01*
X062467Y02296D02*
X06426D01*
X065166Y023866D01*
X064443Y022907D02*
X065552Y024016D01*
X063841Y022079D02*
X065749Y023986D01*
X063573Y021584D02*
X065954Y023965D01*
X063506Y021291D02*
X066151Y023935D01*
X06356Y021118D02*
X06634Y023898D01*
X061798Y01913D02*
X066544Y023876D01*
X065166Y023866D02*
Y02443D01*
X06015Y02238D02*
X0608D01*
X05968Y02191D02*
X06015Y02238D01*
X05793Y02191D02*
X05968D01*
X05735Y02249D02*
X05793Y02191D01*
X05735Y02405D02*
Y02456D01*
Y02354D02*
Y02405D01*
X05728Y02347D02*
X05735Y02354D01*
X05716Y02347D02*
X05728D01*
X05709Y0234D02*
X05716Y02347D01*
X05709Y02326D02*
Y0234D01*
Y02326D02*
X05716Y02319D01*
X05735D01*
X05754D01*
X05761Y02312D01*
Y02298D02*
Y02312D01*
X05754Y02291D02*
X05761Y02298D01*
X05742Y02291D02*
X05754D01*
X05735Y02284D02*
X05742Y02291D01*
X05735Y02263D02*
Y02284D01*
Y02249D02*
Y02263D01*
Y02456D02*
X057933Y025143D01*
X065552Y024016D02*
Y024422D01*
X064331Y022795D02*
X064443Y022907D01*
X064133Y022597D02*
X064331Y022795D01*
X063935Y022399D02*
X064133Y022597D01*
X063836Y0223D02*
X063935Y022399D01*
X06376Y0223D02*
X063836D01*
X06355D02*
X06376D01*
X06348Y02237D02*
X06355Y0223D01*
X06348Y02237D02*
Y02273D01*
X06341Y0228D02*
X06348Y02273D01*
X06327Y0228D02*
X06341D01*
X0632Y02273D02*
X06327Y0228D01*
X0632Y02237D02*
Y02273D01*
X06313Y0223D02*
X0632Y02237D01*
X06299Y0223D02*
X06313D01*
X06292Y02237D02*
X06299Y0223D01*
X06292Y02237D02*
Y02273D01*
X06285Y0228D02*
X06292Y02273D01*
X06271Y0228D02*
X06285D01*
X06264Y02273D02*
X06271Y0228D01*
X06264Y02237D02*
Y02273D01*
X06257Y0223D02*
X06264Y02237D01*
X06243Y0223D02*
X06257D01*
X06236Y02237D02*
X06243Y0223D01*
X06236Y02237D02*
Y022553D01*
X06229Y022623D02*
X06236Y022553D01*
X06215Y022623D02*
X06229D01*
X06208Y022553D02*
X06215Y022623D01*
X06208Y02237D02*
Y022553D01*
X06201Y0223D02*
X06208Y02237D01*
X06187Y0223D02*
X06201D01*
X0618Y02237D02*
X06187Y0223D01*
X0618Y02237D02*
Y022553D01*
X06173Y022623D02*
X0618Y022553D01*
X06159Y022623D02*
X06173D01*
X06152Y022553D02*
X06159Y022623D01*
X06152Y02237D02*
Y022553D01*
X06145Y0223D02*
X06152Y02237D01*
X06124Y0223D02*
X06145D01*
X0611D02*
X06124D01*
X05994Y02114D02*
X060005Y021205D01*
X061094Y022294D02*
X0611Y0223D01*
X060896Y022096D02*
X061094Y022294D01*
X060747Y021947D02*
X060896Y022096D01*
X060648Y021947D02*
X060747Y021947D01*
X060394Y022202D02*
X060648Y021947D01*
X060295Y022202D02*
X060394D01*
X060196Y022103D02*
X060295Y022202D01*
X060196Y022004D02*
Y022103D01*
Y022004D02*
X06045Y021749D01*
X06045Y02165D02*
X06045Y021749D01*
X060351Y021551D02*
X06045Y02165D01*
X060252Y021551D02*
X060351Y021551D01*
X059998Y021806D02*
X060252Y021551D01*
X059899Y021806D02*
X059998D01*
X0598Y021707D02*
X059899Y021806D01*
X0598Y021608D02*
Y021707D01*
Y021608D02*
X060054Y021353D01*
X060054Y021254D02*
X060054Y021353D01*
X060005Y021205D02*
X060054Y021254D01*
X05959Y02114D02*
X05994D01*
X05953Y02108D02*
X05959Y02114D01*
X05953Y02089D02*
Y02108D01*
Y02089D02*
X059585Y020835D01*
X059884D01*
X059978Y02074D01*
Y020623D02*
Y02074D01*
X059896Y02054D02*
X059978Y020623D01*
X059408Y02054D02*
X059896D01*
X05931Y020638D02*
X059408Y02054D01*
X05931Y020638D02*
Y02111D01*
X05922Y0212D02*
X05931Y02111D01*
X05887Y0212D02*
X05922D01*
X065749Y023986D02*
Y024422D01*
X06369Y021927D02*
X063742Y02198D01*
X063841Y022079D01*
X061627Y021927D02*
X0618D01*
X06187Y021997D01*
Y022045D01*
X06194Y022115D01*
X06208D01*
X06215Y022045D01*
Y021927D02*
Y022045D01*
Y021839D02*
Y021927D01*
Y021839D02*
X06222Y021769D01*
X06236D01*
X06243Y021839D01*
Y021927D01*
Y022045D01*
X0625Y022115D01*
X06264D01*
X06271Y022045D01*
Y021927D02*
Y022045D01*
Y021839D02*
Y021927D01*
Y021839D02*
X06278Y021769D01*
X06292D01*
X06299Y021839D01*
Y021927D01*
Y022045D01*
X06306Y022115D01*
X0632D01*
X06327Y022045D01*
Y021997D02*
Y022045D01*
Y021997D02*
X06334Y021927D01*
X06355D01*
X06369D01*
X06006Y02036D02*
X06029Y02059D01*
X06029Y020689D01*
X06007Y02091D02*
X06029Y020689D01*
X06007Y02091D02*
Y021009D01*
X060169Y021108D01*
X060268D01*
X060538Y020838D01*
X060552Y020823D01*
X060651D01*
X06075Y020922D01*
Y021021D01*
X060736Y021036D02*
X06075Y021021D01*
X060466Y021306D02*
X060736Y021036D01*
X060466Y021306D02*
Y021405D01*
X060565Y021504D01*
X060664D01*
X060934Y021234D01*
X060948Y021219D01*
X061047D01*
X061146Y021318D01*
Y021417D01*
X061132Y021432D02*
X061146Y021417D01*
X060862Y021702D02*
X061132Y021432D01*
X060862Y021702D02*
Y021801D01*
X060961Y0219D01*
X06106D01*
X06128Y021679D01*
X061379D01*
X061528Y021828D01*
X061627Y021927D01*
X059438Y02036D02*
X06006D01*
X05938Y020302D02*
X059438Y02036D01*
X05938Y02014D02*
Y020302D01*
Y02014D02*
X05944Y02008D01*
X059976D01*
X060047Y02001D01*
Y019869D02*
Y02001D01*
X059977Y0198D02*
X060047Y019869D01*
X05927Y0198D02*
X059977D01*
X05887Y0202D02*
X05927Y0198D01*
X062134Y021584D02*
X063573D01*
X061859Y021309D02*
X062134Y021584D01*
X06176Y021309D02*
X061859Y021309D01*
X06162Y02145D02*
X06176Y021309D01*
X061521Y02145D02*
X06162D01*
X061422Y021351D02*
X061521Y02145D01*
X061422Y021252D02*
Y021351D01*
Y021252D02*
X061612Y021062D01*
X061847Y020827D01*
Y020728D02*
Y020827D01*
X061748Y020629D02*
X061847Y020728D01*
X061649Y020629D02*
X061748D01*
X061414Y020864D02*
X061649Y020629D01*
X061224Y021054D02*
X061414Y020864D01*
X061125Y021054D02*
X061224D01*
X061026Y020955D02*
X061125Y021054D01*
X061026Y020856D02*
Y020955D01*
Y020856D02*
X061216Y020666D01*
Y020578D02*
Y020666D01*
X061106Y020468D02*
X061216Y020578D01*
X061018Y020468D02*
X061106D01*
X060828Y020658D02*
X061018Y020468D01*
X060729Y020658D02*
X060828D01*
X06063Y020559D02*
X060729Y020658D01*
X06063Y02046D02*
Y020559D01*
Y02046D02*
X06082Y02027D01*
Y020182D02*
Y02027D01*
X06071Y020072D02*
X06082Y020182D01*
X060622Y020072D02*
X06071D01*
X060432Y020262D02*
X060622Y020072D01*
X060333Y020262D02*
X060432D01*
X060234Y020163D02*
X060333Y020262D01*
X060234Y020064D02*
Y020163D01*
Y020064D02*
X060374Y019923D01*
X060374Y019825D02*
X060374Y019923D01*
X060325Y019775D02*
X060374Y019825D01*
X06017Y01962D02*
X060325Y019775D01*
X065954Y023965D02*
Y02443D01*
X05865Y01962D02*
X06017D01*
X05836Y01991D02*
X05865Y01962D01*
X05836Y01991D02*
Y02066D01*
X05787Y02115D02*
X05836Y02066D01*
X066151Y023935D02*
Y02443D01*
X062721Y021291D02*
X063506D01*
X062175Y020745D02*
X062721Y021291D01*
X06088Y01945D02*
X06098Y01955D01*
X061722Y020292D02*
X062175Y020745D01*
X061623Y020292D02*
X061722Y020292D01*
X06144Y020476D02*
X061623Y020292D01*
X061341Y020476D02*
X06144D01*
X061242Y020377D02*
X061341Y020476D01*
X061242Y020278D02*
Y020377D01*
Y020278D02*
X061475Y020045D01*
X061558Y019962D01*
Y019863D02*
Y019962D01*
X061459Y019764D02*
X061558Y019863D01*
X06136Y019764D02*
X061459D01*
X061277Y019847D02*
X06136Y019764D01*
X061044Y02008D02*
X061277Y019847D01*
X060945Y02008D02*
X061044D01*
X060846Y019981D02*
X060945Y02008D01*
X060846Y019882D02*
Y019981D01*
Y019882D02*
X06103Y019698D01*
X06103Y019599D02*
X06103Y019698D01*
X06098Y01955D02*
X06103Y019599D01*
X05787Y01945D02*
X06088D01*
X05738Y01994D02*
X05787Y01945D01*
X05738Y01994D02*
Y02069D01*
X05687Y0212D02*
X05738Y02069D01*
X06634Y023898D02*
Y024422D01*
X061732Y01929D02*
X061828Y019386D01*
Y019485D01*
X061666Y019647D02*
X061828Y019485D01*
X061666Y019647D02*
Y019746D01*
X061765Y019845D01*
X061864D01*
X062026Y019683D01*
X062125Y019683D01*
X062224Y019782D01*
Y019881D01*
X062062Y020043D02*
X062224Y019881D01*
X062062Y020043D02*
Y020142D01*
X062161Y020241D01*
X06226D01*
X062422Y020079D01*
X062521D01*
X06262Y020178D01*
X06262Y020277D02*
X06262Y020178D01*
X062458Y020439D02*
X06262Y020277D01*
X062458Y020439D02*
Y020538D01*
X062557Y020637D01*
X062656D01*
X062818Y020475D01*
X062917D01*
X063016Y020574D01*
X063016Y020673D01*
X062854Y020835D02*
X063016Y020673D01*
X062854Y020835D02*
Y020934D01*
X062953Y021033D01*
X063052D01*
X063214Y020871D01*
X063313Y020871D01*
X063461Y021019D01*
X06356Y021118D01*
X05778Y01929D02*
X061732D01*
X05687Y0202D02*
X05778Y01929D01*
X066544Y023876D02*
Y02443D01*
X05758Y01913D02*
X061798D01*
X05787Y025267D02*
X057933Y025203D01*
Y025143D02*
Y025203D01*
X05737Y025D02*
Y02599D01*
X05687Y0245D02*
X05737Y025D01*
X05687Y024267D02*
Y0245D01*
X05751Y02658D02*
X05992D01*
X056867D02*
X05702D01*
X05736Y02643D02*
X05751Y02658D01*
X05717Y02643D02*
X05736D01*
X05702Y02658D02*
X05717Y02643D01*
X05685Y02619D02*
X05694D01*
X05678Y02626D02*
X05685Y02619D01*
X05678Y02626D02*
Y026493D01*
X05687Y025267D02*
Y0258D01*
X05694Y02619D02*
X05704Y026089D01*
X05687Y0258D02*
X05704Y02597D01*
Y026089D01*
X05678Y026493D02*
X056867Y02658D01*
X05598Y02604D02*
X056154Y026214D01*
X056253D01*
X056365Y026101D01*
X056464D01*
X056563Y0262D01*
Y026299D01*
X056451Y026412D02*
X056563Y026299D01*
X056451Y026412D02*
X056451Y026511D01*
X0565Y02656D01*
X05676Y02682D01*
X05587Y02593D02*
X05598Y02604D01*
X06043Y02805D02*
X06113Y02875D01*
X06043Y02743D02*
Y02805D01*
X05982Y02682D02*
X06043Y02743D01*
X05676Y02682D02*
X05982D01*
X05587Y025267D02*
Y02593D01*
X065363Y03009D02*
Y03065D01*
Y03009D02*
X06544Y030013D01*
Y02976D02*
Y030013D01*
X05587Y0334D02*
X05588D01*
X05638Y0329D01*
X05711D01*
X0574Y03261D01*
X05687Y0334D02*
X05707D01*
X05587Y029333D02*
X05635Y028853D01*
X067332Y02443D02*
Y025258D01*
X067117Y024448D02*
Y025247D01*
Y024448D02*
X067135Y02443D01*
X06513Y02921D02*
X065166Y029246D01*
Y03065D01*
X0648Y02981D02*
X064969Y029979D01*
Y03065D01*
X06086Y02717D02*
Y0279D01*
X06063Y02729D02*
Y02796D01*
X05998Y02629D02*
X06086Y02717D01*
X05992Y02658D02*
X06063Y02729D01*
X05767Y02629D02*
X05998D01*
X05737Y02599D02*
X05767Y02629D01*
X061579Y026949D02*
X06245D01*
X0609Y02627D02*
X061579Y026949D01*
X0586Y02781D02*
X05907D01*
X05835Y02806D02*
X0586Y02781D01*
X05638Y01979D02*
X056615Y019555D01*
X057155D02*
X05758Y01913D01*
X056615Y019555D02*
X057155D01*
X05787Y02115D02*
Y0212D01*
X05587Y0212D02*
X05638Y02069D01*
Y01979D02*
Y02069D01*
X065552Y024422D02*
X06556Y02443D01*
X065749Y024422D02*
X065757Y02443D01*
X06634Y024422D02*
X066347Y02443D01*
X05887Y028333D02*
X059153D01*
X063982Y03113D02*
X063985Y031127D01*
Y03065D02*
Y031127D01*
D85*
X06806Y025021D02*
G03*
X068158Y025259I-000238J000238D01*
G01*
X066544Y026526D02*
G03*
X066948Y026359I000404J000404D01*
G01*
X065038Y025822D02*
G03*
X065294Y025716I000256J000256D01*
G01*
X05988Y018525D02*
G03*
X05918Y018235I0J-000989D01*
G01*
X058386Y018D02*
G03*
X058316Y017831I000169J-000169D01*
G01*
X058627Y0181D02*
G03*
X058386Y018I0J-000341D01*
G01*
X07014Y023231D02*
G03*
X070345Y022737I000698J0D01*
G01*
X063935Y027343D02*
G03*
X063822Y02739I-000113J-000113D01*
G01*
X063998Y027193D02*
G03*
X063935Y027343I-000212J0D01*
G01*
X063998Y027053D02*
G03*
X064132Y026728I000459J0D01*
G01*
X068158Y025979D02*
G03*
X06805Y026241I-00037J0D01*
G01*
D02*
G03*
X067765Y026359I-000285J-000285D01*
G01*
X05758Y01758D02*
G03*
X057532Y0176I-000048J-000048D01*
G01*
X0512Y016693D02*
G03*
X051544Y01655I000344J000344D01*
G01*
X060356Y01623D02*
G03*
X05968Y01595I0J-000956D01*
G01*
X059149Y01573D02*
G03*
X05968Y01595I0J000751D01*
G01*
X0512Y015905D02*
G03*
X051623Y01573I000423J000423D01*
G01*
X052596Y017975D02*
G03*
X051888Y018267I-000707J-000707D01*
G01*
X05304Y01655D02*
G03*
X053137Y01651I000097J000097D01*
G01*
X058305Y0166D02*
G03*
X057835Y016405I0J-000665D01*
G01*
X057198Y016141D02*
G03*
X057835Y016405I0J0009D01*
G01*
X055836Y016434D02*
G03*
X056543Y016141I000707J000707D01*
G01*
X056253Y01672D02*
G03*
X056542Y0166I00029J00029D01*
G01*
X05617Y016919D02*
G03*
X056253Y01672I000282J0D01*
G01*
X05607Y017684D02*
G03*
X055669Y01785I-000401J-000401D01*
G01*
X05617Y017442D02*
G03*
X05607Y017684I-000341J0D01*
G01*
X05968Y017357D02*
G03*
X060339Y017084I000659J000659D01*
G01*
X05968Y017357D02*
G03*
X059093Y0176I-000587J-000587D01*
G01*
X05836Y01725D02*
G03*
X058722Y0171I000362J000362D01*
G01*
X058316Y017357D02*
G03*
X05836Y01725I000151J0D01*
G01*
X076418Y02116D02*
G03*
X076467Y02118I0J000068D01*
G01*
X0679Y017478D02*
G03*
X067848Y017684I-000432J0D01*
G01*
X06749Y017828D02*
G03*
X067332Y01821I-000541J0D01*
G01*
X067848Y017684D02*
G03*
X067501Y017828I-000347J-000347D01*
G01*
X067042Y01735D02*
G03*
X067332Y01747I0J00041D01*
G01*
X067349Y017487D02*
G03*
X06749Y017828I-00034J00034D01*
G01*
X067332Y01821D02*
G03*
X066994Y01835I-000338J-000338D01*
G01*
X06507Y02001D02*
G03*
X064579Y019806I0J-000695D01*
G01*
X066663Y016848D02*
G03*
X06637Y016141I000707J-000707D01*
G01*
X06517Y016479D02*
G03*
X06507Y01672I-000341J0D01*
G01*
D02*
G03*
X064756Y01685I-000314J-000314D01*
G01*
X07117Y02238D02*
G03*
X071789Y022637I0J000876D01*
G01*
X072789Y020637D02*
G03*
X073046Y02053I000257J000257D01*
G01*
X069654Y02479D02*
G03*
X068947Y024497I0J-001D01*
G01*
X06891Y02446D02*
G03*
X068741Y024052I000408J-000408D01*
G01*
X064834Y021368D02*
G03*
X0648Y021355I0J-000048D01*
G01*
X066613Y021306D02*
G03*
X066461Y021368I-000152J-000152D01*
G01*
X06683Y020781D02*
G03*
X066613Y021306I-000741J0D01*
G01*
X06683Y020728D02*
G03*
X067002Y020313I000588J0D01*
G01*
X067141Y020174D02*
G03*
X067778Y01991I000636J000636D01*
G01*
X068299D02*
G03*
X069007Y020203I0J001D01*
G01*
X067848Y02238D02*
G03*
X067141Y022088I0J-001D01*
G01*
X066613Y021868D02*
G03*
X067141Y022088I0J000746D01*
G01*
X068158Y025259D02*
Y025979D01*
X059046Y0181D02*
X05918Y018235D01*
X05187Y019983D02*
Y0202D01*
X058627Y0181D02*
X059046D01*
X0512Y016693D02*
Y01748D01*
X07014Y023231D02*
Y02365D01*
X068783Y02186D02*
X068788Y021864D01*
X069224D01*
X069228Y021868D01*
X068779Y021864D02*
X068783Y02186D01*
X06805Y021868D02*
X068054Y021864D01*
X068779D01*
X063608Y02739D02*
X063822D01*
X063998Y027053D02*
Y027193D01*
X064132Y026728D02*
X065038Y025822D01*
X066948Y026359D02*
X067765D01*
X056821Y0176D02*
X057532D01*
X051544Y01655D02*
X05224D01*
X060356Y01623D02*
X06197D01*
X051623Y01573D02*
X059149D01*
X052596Y017975D02*
X05272Y01785D01*
X0512Y018267D02*
X051888D01*
X053137Y01651D02*
X053766D01*
X058305Y0166D02*
X059046D01*
X056543Y016141D02*
X057198D01*
X05562Y01665D02*
X055836Y016434D01*
X05617Y016919D02*
Y017442D01*
X056542Y0166D02*
X056821D01*
X05562Y01785D02*
X055669D01*
X060339Y017084D02*
X060729D01*
X059046Y0176D02*
X059093D01*
X058722Y0171D02*
X059046D01*
X058316Y017357D02*
Y017831D01*
X075665Y02116D02*
X076418D01*
X0679Y01695D02*
Y017478D01*
Y01595D02*
Y01695D01*
X067332Y01747D02*
X067349Y017487D01*
X06749Y017828D02*
X067501D01*
X066664Y01735D02*
X067042D01*
X066664Y01835D02*
X066994D01*
X064516Y019744D02*
X064579Y019806D01*
X06637Y01587D02*
Y016141D01*
X066663Y016848D02*
X066664Y01685D01*
X06517Y01587D02*
Y016479D01*
X06444Y01685D02*
X064756D01*
X067848Y02238D02*
X07117D01*
X07263Y02071D02*
X072789D01*
X073046Y02053D02*
X073556D01*
X069654Y02479D02*
X06967D01*
X06891Y02446D02*
X068947Y024497D01*
X068741Y02318D02*
Y024052D01*
X07261Y02073D02*
X07263Y02071D01*
X065826Y021368D02*
X066461D01*
X064834D02*
X065826D01*
X06683Y020728D02*
Y020781D01*
X067002Y020313D02*
X067141Y020174D01*
X067778Y01991D02*
X068299D01*
X069007Y020203D02*
X069181Y020377D01*
X066612Y021868D02*
X066613Y021868D01*
X065826Y021868D02*
X066612D01*
X07043Y03382D02*
X07205D01*
X072407Y034177D01*
X072762Y034532D01*
X076187D01*
D86*
X066391Y026652D02*
G03*
X066544Y026526I000707J000707D01*
G01*
X06335Y030013D02*
G03*
X063277Y030189I-000249J0D01*
G01*
X06275Y03085D02*
G03*
X062845Y030622I000323J0D01*
G01*
X06335Y030007D02*
G03*
X063573Y02947I00076J0D01*
G01*
X063593Y030013D02*
G03*
X063522Y030185I-000243J0D01*
G01*
X063593Y030013D02*
G03*
X063764Y0296I000585J0D01*
G01*
X064216Y029148D02*
G03*
X064923Y028855I000707J000707D01*
G01*
X065471D02*
G03*
X066178Y029148I0J001D01*
G01*
X063573Y02947D02*
X066391Y026652D01*
X063198Y030268D02*
X063277Y030189D01*
X062845Y030622D02*
X063198Y030268D01*
X06335Y030007D02*
Y030013D01*
X063764Y0296D02*
X064216Y029148D01*
X063395Y030312D02*
X063522Y030185D01*
X066178Y029148D02*
X066289Y029259D01*
X064923Y028855D02*
X065471D01*
X063395Y030312D02*
Y03065D01*
X063198Y030268D02*
Y03065D01*
D87*
X063206Y024696D02*
D03*
D88*
X064808Y01785D02*
G03*
X06517Y018I0J000512D01*
G01*
X06638Y02036D02*
G03*
X06636Y020368I-00002J-00002D01*
G01*
X07184Y025571D02*
G03*
X0719Y025716I-000145J000145D01*
G01*
X062797Y01747D02*
G03*
X062839Y017572I-000102J000102D01*
G01*
X063687Y01835D02*
G03*
X063588Y018309I0J-00014D01*
G01*
X063295Y016295D02*
G03*
X063588Y017002I-000707J000707D01*
G01*
X070789Y021384D02*
G03*
X070657Y021702I-000449J0D01*
G01*
D02*
G03*
X070254Y021868I-000403J-000403D01*
G01*
X070607Y020637D02*
G03*
X069981Y020377I0J-000885D01*
G01*
X071175Y020637D02*
G03*
X071883Y020929I0J001D01*
G01*
X072627Y021674D02*
G03*
X07292Y022381I-000707J000707D01*
G01*
Y022999D02*
G03*
X072627Y023706I-001J0D01*
G01*
X071814Y02479D02*
G03*
X072005Y024328I000653J0D01*
G01*
X070345Y021081D02*
G03*
X07001Y021219I-000335J-000335D01*
G01*
X06444Y01785D02*
X064808D01*
X065826Y020368D02*
X06636D01*
X07184Y025571D02*
X07211D01*
X0719Y025716D02*
Y025791D01*
X062839Y017572D02*
Y018309D01*
X063687Y01835D02*
X06444D01*
X063588Y017002D02*
Y018309D01*
X06323Y01623D02*
X063295Y016295D01*
X070789Y020637D02*
Y021384D01*
X069976Y021868D02*
X070254D01*
X070345Y021081D02*
X070789Y020637D01*
X070607D02*
X070789D01*
X071175D01*
X071883Y020929D02*
X072627Y021674D01*
X07292Y022381D02*
Y022999D01*
X072005Y024328D02*
X072627Y023706D01*
X07145Y03098D02*
X071537Y031067D01*
X072156D01*
D89*
X071495Y021584D02*
G03*
X07196Y021777I0J000658D01*
G01*
X071066Y024398D02*
G03*
X071359Y023691I001J0D01*
G01*
X072146Y023357D02*
G03*
X071439Y02365I-000707J-000707D01*
G01*
X07246Y022779D02*
G03*
X072273Y023231I-000638J0D01*
G01*
X072221Y022037D02*
G03*
X07246Y022615I-000578J000578D01*
G01*
X07149Y021584D02*
X071495D01*
X0714Y02365D02*
X071439D01*
X071359Y023691D02*
X0714Y02365D01*
X072146Y023357D02*
X072273Y023231D01*
X07246Y022615D02*
Y022779D01*
X07196Y021777D02*
X072221Y022037D01*
X071066Y024398D02*
Y02479D01*
X071053Y024803D02*
Y025559D01*
X07104Y025571D02*
X071053Y025559D01*
Y024803D02*
X071066Y02479D01*
X070444Y025571D02*
X07104D01*
X070457Y024803D02*
Y025559D01*
Y024803D02*
X07047Y02479D01*
X070444Y025571D02*
X070457Y025559D01*
D90*
X05187Y0324D02*
D03*
X05287D02*
D03*
X05387D02*
D03*
X05487D02*
D03*
X05587D02*
D03*
X05687D02*
D03*
X05887D02*
D03*
X05287Y0334D02*
D03*
X05487Y0334D02*
D03*
X05787Y0334D02*
D03*
X05687D02*
D03*
X05587Y0334D02*
D03*
X05387Y0334D02*
D03*
X05187Y0334D02*
D03*
Y028333D02*
D03*
X05287Y028333D02*
D03*
X05387D02*
D03*
X05487D02*
D03*
X05587Y028333D02*
D03*
X05687Y028333D02*
D03*
X05787D02*
D03*
X05887D02*
D03*
X05287Y029333D02*
D03*
X05487D02*
D03*
X05787D02*
D03*
X05687D02*
D03*
X05587D02*
D03*
X05387D02*
D03*
X05187D02*
D03*
Y025267D02*
D03*
X05387D02*
D03*
X05587D02*
D03*
X05687D02*
D03*
X05787D02*
D03*
X05487D02*
D03*
X05287D02*
D03*
X05887Y024267D02*
D03*
X05787Y024267D02*
D03*
X05687D02*
D03*
X05587Y024267D02*
D03*
X05487D02*
D03*
X05387Y024267D02*
D03*
X05287D02*
D03*
X05187Y024267D02*
D03*
Y0202D02*
D03*
X05287Y0202D02*
D03*
X05387Y0202D02*
D03*
X05487Y0202D02*
D03*
X05587Y0202D02*
D03*
X05687D02*
D03*
X05787Y0202D02*
D03*
X05887D02*
D03*
X05287Y0212D02*
D03*
X05487Y0212D02*
D03*
X05787Y0212D02*
D03*
X05687Y0212D02*
D03*
X05587D02*
D03*
X05387D02*
D03*
X05187D02*
D03*
D91*
X05887Y0334D02*
D03*
X05887Y029333D02*
D03*
X05887Y025267D02*
D03*
Y0212D02*
D03*
D92*
X07043Y03382D02*
D03*
X06843D02*
D03*
D93*
X07312Y018983D02*
D03*
X07412D02*
D03*
X07612D02*
D03*
X07712D02*
D03*
X0719Y01895D02*
D03*
X0709D02*
D03*
X0689D02*
D03*
X0679D02*
D03*
D94*
X07511Y016983D02*
D03*
X06989Y01695D02*
D03*
D95*
X07712Y016983D02*
D03*
Y015983D02*
D03*
X07512Y018983D02*
D03*
X07312Y016983D02*
D03*
Y015983D02*
D03*
X0679Y01595D02*
D03*
Y01695D02*
D03*
X0699Y01895D02*
D03*
X0719Y01595D02*
D03*
Y01695D02*
D03*
D96*
X070789Y020637D02*
D03*
X071789Y022637D02*
D03*
X072789Y020637D02*
D03*
D97*
X068741Y02318D02*
D03*
D98*
X067741D02*
D03*
X066741D02*
D03*
D99*
X06537Y032385D02*
D03*
Y033365D02*
D03*
D100*
Y034375D02*
D03*
D101*
X0512Y015905D02*
D03*
Y016693D02*
D03*
Y01748D02*
D03*
X06643Y032079D02*
D03*
Y032866D02*
D03*
Y033654D02*
D03*
D102*
X0512Y018267D02*
D03*
X06643Y034441D02*
D03*
D103*
X073625Y030039D02*
D03*
X062976Y023706D02*
D03*
X061353Y02355D02*
D03*
X06638Y028269D02*
D03*
X065748Y028894D02*
D03*
X06937Y02406D02*
D03*
X053572Y019411D02*
D03*
X05607D02*
D03*
X055572Y03486D02*
D03*
X073184Y03479D02*
D03*
X07788Y021081D02*
D03*
Y025443D02*
D03*
Y03032D02*
D03*
Y03479D02*
D03*
X066254Y0315D02*
D03*
X06863Y032002D02*
D03*
X062962Y026346D02*
D03*
X066132Y025658D02*
D03*
X065294Y025716D02*
D03*
X06118Y02846D02*
D03*
X06275Y03085D02*
D03*
X059354Y018373D02*
D03*
X068783Y02186D02*
D03*
X067332Y021551D02*
D03*
X067863Y025481D02*
D03*
X066544Y026526D02*
D03*
X06352Y0259D02*
D03*
X06355Y02678D02*
D03*
X062959Y02597D02*
D03*
X06388Y02547D02*
D03*
X05758Y01758D02*
D03*
X0615Y017684D02*
D03*
X0719Y025791D02*
D03*
X07211Y025571D02*
D03*
X06517Y018D02*
D03*
X06507Y02001D02*
D03*
X06341Y020241D02*
D03*
X06404D02*
D03*
X07196Y028201D02*
D03*
X06638Y02036D02*
D03*
X07149Y021584D02*
D03*
X070345Y022737D02*
D03*
X067778Y025827D02*
D03*
X06806Y025021D02*
D03*
X064379Y020934D02*
D03*
X06388Y02365D02*
D03*
X06348Y02367D02*
D03*
X06421Y023898D02*
D03*
X06944Y025965D02*
D03*
X07356Y02507D02*
D03*
X0699Y03025D02*
D03*
X07151Y03022D02*
D03*
X06404Y02978D02*
D03*
X06325Y02724D02*
D03*
X06117Y02781D02*
D03*
X06153Y02759D02*
D03*
X06725Y02844D02*
D03*
X06776Y026896D02*
D03*
X06806Y02717D02*
D03*
X06335Y03137D02*
D03*
X061468Y02875D02*
D03*
X06144Y02819D02*
D03*
X0644Y02739D02*
D03*
X06295Y02703D02*
D03*
X06318Y02761D02*
D03*
X06805Y02931D02*
D03*
X05974Y02719D02*
D03*
X06123Y02446D02*
D03*
X0615Y02483D02*
D03*
X061817Y025115D02*
D03*
X06544Y02976D02*
D03*
X06513Y02921D02*
D03*
X0648Y02981D02*
D03*
X06178Y0263D02*
D03*
X06045Y02626D02*
D03*
X0609Y02627D02*
D03*
X06133Y02628D02*
D03*
D104*
X076344Y032681D02*
D03*
Y029529D02*
D03*
D105*
X06926Y03096D02*
D03*
D106*
X07145Y03098D02*
D03*
M02*
