G04*
G04 #@! TF.GenerationSoftware,Altium Limited,Altium Designer,21.0.8 (223)*
G04*
G04 Layer_Color=16711935*
%FSTAX24Y24*%
%MOIN*%
G70*
G04*
G04 #@! TF.SameCoordinates,2867BDE3-1686-46F1-8F54-3A33D440E248*
G04*
G04*
G04 #@! TF.FilePolarity,Positive*
G04*
G01*
G75*
%ADD17C,0.0059*%
%ADD20C,0.0039*%
D17*
X065304Y01892D02*
Y01962D01*
Y01892D02*
X066604D01*
Y01962D01*
X065304D02*
X066604D01*
X07324Y02366D02*
Y02436D01*
X07454D01*
Y02366D02*
Y02436D01*
X07324Y02366D02*
X07454D01*
X06195Y01588D02*
X06325D01*
X06195D02*
Y01658D01*
X06325D01*
Y01588D02*
Y01658D01*
X060379Y018334D02*
X061079D01*
X060379Y017034D02*
Y018334D01*
Y017034D02*
X061079D01*
Y018334D01*
X0527Y0175D02*
X054D01*
X0527D02*
Y0182D01*
X054D01*
Y0175D02*
Y0182D01*
X07327Y02595D02*
X07457D01*
Y02665D01*
X07327D02*
X07457D01*
X07327Y02595D02*
Y02665D01*
D20*
X061285Y030623D02*
G03*
X061285Y030623I-000197J0D01*
G01*
X067568Y020469D02*
G03*
X067568Y020469I-000197J0D01*
G01*
X066182Y01695D02*
G03*
X066182Y01695I-000197J0D01*
G01*
X058563Y0167D02*
G03*
X058563Y0167I-000197J0D01*
G01*
X063355Y029942D02*
G03*
X063355Y029942I-000197J0D01*
G01*
D02*
G03*
X063355Y029942I-000197J0D01*
G01*
X061876Y026913D02*
X062564D01*
X061876Y027287D02*
X062564D01*
X061876Y026913D02*
Y027287D01*
X062564Y026913D02*
Y027287D01*
X068686Y024246D02*
Y024934D01*
X068312Y024246D02*
Y024934D01*
Y024246D02*
X068686D01*
X068312Y024934D02*
X068686D01*
X060734Y030269D02*
X063686D01*
Y034324D01*
X060734Y030269D02*
Y034324D01*
X063686D01*
X067725Y020115D02*
Y022122D01*
X066151Y020115D02*
Y022122D01*
Y020115D02*
X067725D01*
X066151Y022122D02*
X067725D01*
X064765Y018604D02*
X06634D01*
X064765Y016596D02*
X06634D01*
X064765D02*
Y018604D01*
X06634Y016596D02*
Y018604D01*
X06278Y018585D02*
X063647D01*
X06278Y018033D02*
X063647D01*
X06278D02*
Y018585D01*
X063647Y018033D02*
Y018585D01*
X058721Y016346D02*
Y018354D01*
X057146Y016346D02*
Y018354D01*
Y016346D02*
X058721D01*
X057146Y018354D02*
X058721D01*
X053707Y016786D02*
X054573D01*
X053707Y016234D02*
X054573D01*
X053707D02*
Y016786D01*
X054573Y016234D02*
Y016786D01*
X068873Y024939D02*
X069247D01*
X068873Y02425D02*
X069247D01*
X068873D02*
Y024939D01*
X069247Y02425D02*
Y024939D01*
X06805Y024246D02*
Y024934D01*
X067676Y024246D02*
Y024934D01*
Y024246D02*
X06805D01*
X067676Y024934D02*
X06805D01*
X073546Y02746D02*
X074234D01*
X073546Y027086D02*
X074234D01*
Y02746D01*
X073546Y027086D02*
Y02746D01*
X068126Y025778D02*
Y026152D01*
X068814Y025778D02*
Y026152D01*
X068126Y025778D02*
X068814D01*
X068126Y026152D02*
X068814D01*
X062804Y024784D02*
X068316D01*
X062804Y030296D02*
X068316D01*
Y024784D02*
Y030296D01*
X062804Y024784D02*
Y030296D01*
X062804Y024784D02*
X068316D01*
X062804Y030296D02*
X068316D01*
Y024784D02*
Y030296D01*
X062804Y024784D02*
Y030296D01*
X06563Y026746D02*
X066354Y02747D01*
X065046Y02733D02*
X06577Y028054D01*
X065046Y02733D02*
X06563Y026746D01*
X06577Y028054D02*
X066354Y02747D01*
X072269Y024512D02*
Y025968D01*
X069631Y024512D02*
Y025968D01*
Y024512D02*
X072269D01*
X069631Y025968D02*
X072269Y025968D01*
X076447Y020914D02*
Y021446D01*
X077313Y020914D02*
Y021446D01*
X076447D02*
X077313D01*
X076447Y020914D02*
X077313D01*
X069286Y030385D02*
X069974D01*
X069286Y030759D02*
X069974D01*
Y030385D02*
Y030759D01*
X069286Y030385D02*
Y030759D01*
X065031Y026164D02*
X065296Y026429D01*
X064544Y026651D02*
X064809Y026916D01*
X065296Y026429D01*
X064544Y026651D02*
X065031Y026164D01*
X065111Y028436D02*
X065376Y028171D01*
X064624Y027949D02*
X064889Y027684D01*
X064624Y027949D02*
X065111Y028436D01*
X064889Y027684D02*
X065376Y028171D01*
X070707Y029976D02*
Y030664D01*
X070333Y029976D02*
Y030664D01*
X070707D01*
X070333Y029976D02*
X070707D01*
M02*
