G04*
G04 #@! TF.GenerationSoftware,Altium Limited,Altium Designer,21.0.8 (223)*
G04*
G04 Layer_Color=255*
%FSTAX24Y24*%
%MOIN*%
G70*
G04*
G04 #@! TF.SameCoordinates,2867BDE3-1686-46F1-8F54-3A33D440E248*
G04*
G04*
G04 #@! TF.FilePolarity,Positive*
G04*
G01*
G75*
%ADD23R,0.0400X0.0591*%
%ADD24R,0.0787X0.0866*%
%ADD40R,0.0315X0.0315*%
%ADD41R,0.0350X0.0433*%
%ADD42R,0.0315X0.0315*%
%ADD90C,0.0650*%
%ADD91R,0.0650X0.0650*%
%ADD92C,0.0984*%
%ADD93O,0.0800X0.1200*%
%ADD94O,0.1800X0.1000*%
%ADD95C,0.0550*%
%ADD96C,0.0750*%
%ADD97R,0.0650X0.0900*%
%ADD98O,0.0650X0.0900*%
%ADD99O,0.0850X0.0700*%
%ADD100R,0.0850X0.0700*%
%ADD101C,0.0512*%
%ADD102R,0.0512X0.0512*%
G04:AMPARAMS|DCode=107|XSize=30mil|YSize=80mil|CornerRadius=7.5mil|HoleSize=0mil|Usage=FLASHONLY|Rotation=270.000|XOffset=0mil|YOffset=0mil|HoleType=Round|Shape=RoundedRectangle|*
%AMROUNDEDRECTD107*
21,1,0.0300,0.0650,0,0,270.0*
21,1,0.0150,0.0800,0,0,270.0*
1,1,0.0150,-0.0325,-0.0075*
1,1,0.0150,-0.0325,0.0075*
1,1,0.0150,0.0325,0.0075*
1,1,0.0150,0.0325,-0.0075*
%
%ADD107ROUNDEDRECTD107*%
%ADD108R,0.0800X0.0300*%
G04:AMPARAMS|DCode=109|XSize=39.4mil|YSize=47.2mil|CornerRadius=0mil|HoleSize=0mil|Usage=FLASHONLY|Rotation=135.000|XOffset=0mil|YOffset=0mil|HoleType=Round|Shape=Rectangle|*
%AMROTATEDRECTD109*
4,1,4,0.0306,0.0028,-0.0028,-0.0306,-0.0306,-0.0028,0.0028,0.0306,0.0306,0.0028,0.0*
%
%ADD109ROTATEDRECTD109*%

%ADD110R,0.1299X0.0945*%
%ADD111R,0.0394X0.0945*%
%ADD112R,0.1378X0.1102*%
%ADD113P,0.0445X4X180.0*%
%ADD114P,0.0445X4X270.0*%
D23*
X06798Y02112D02*
D03*
X06878D02*
D03*
D24*
X07326Y02401D02*
D03*
X07452D02*
D03*
X07455Y0263D02*
D03*
X07329D02*
D03*
D40*
X062515Y0271D02*
D03*
X061925D02*
D03*
X073595Y027273D02*
D03*
X074185D02*
D03*
X068765Y025965D02*
D03*
X068175D02*
D03*
D41*
X063585Y029597D02*
D03*
X062915D02*
D03*
X061859Y02772D02*
D03*
X062528D02*
D03*
D42*
X068499Y024885D02*
D03*
Y024295D02*
D03*
X06906Y024299D02*
D03*
Y02489D02*
D03*
X067863Y024885D02*
D03*
Y024295D02*
D03*
D90*
X05187Y0324D02*
D03*
X05287D02*
D03*
X05387D02*
D03*
X05487D02*
D03*
X05587D02*
D03*
X05687D02*
D03*
X05887D02*
D03*
X05287Y0334D02*
D03*
X05487Y0334D02*
D03*
X05787Y0334D02*
D03*
X05687D02*
D03*
X05587Y0334D02*
D03*
X05387Y0334D02*
D03*
X05187Y0334D02*
D03*
Y028333D02*
D03*
X05287Y028333D02*
D03*
X05387D02*
D03*
X05487D02*
D03*
X05587Y028333D02*
D03*
X05687Y028333D02*
D03*
X05787D02*
D03*
X05887D02*
D03*
X05287Y029333D02*
D03*
X05487D02*
D03*
X05787D02*
D03*
X05687D02*
D03*
X05587D02*
D03*
X05387D02*
D03*
X05187D02*
D03*
Y025267D02*
D03*
X05387D02*
D03*
X05587D02*
D03*
X05687D02*
D03*
X05787D02*
D03*
X05487D02*
D03*
X05287D02*
D03*
X05887Y024267D02*
D03*
X05787Y024267D02*
D03*
X05687D02*
D03*
X05587Y024267D02*
D03*
X05487D02*
D03*
X05387Y024267D02*
D03*
X05287D02*
D03*
X05187Y024267D02*
D03*
Y0202D02*
D03*
X05287Y0202D02*
D03*
X05387Y0202D02*
D03*
X05487Y0202D02*
D03*
X05587Y0202D02*
D03*
X05687D02*
D03*
X05787Y0202D02*
D03*
X05887D02*
D03*
X05287Y0212D02*
D03*
X05487Y0212D02*
D03*
X05787Y0212D02*
D03*
X05687Y0212D02*
D03*
X05587D02*
D03*
X05387D02*
D03*
X05187D02*
D03*
D91*
X05887Y0334D02*
D03*
X05887Y029333D02*
D03*
X05887Y025267D02*
D03*
Y0212D02*
D03*
D92*
X07043Y03382D02*
D03*
X06843D02*
D03*
D93*
X07312Y018983D02*
D03*
X07412D02*
D03*
X07612D02*
D03*
X07712D02*
D03*
X0719Y01895D02*
D03*
X0709D02*
D03*
X0689D02*
D03*
X0679D02*
D03*
D94*
X07511Y016983D02*
D03*
X06989Y01695D02*
D03*
D95*
X07712Y016983D02*
D03*
Y015983D02*
D03*
X07512Y018983D02*
D03*
X07312Y016983D02*
D03*
Y015983D02*
D03*
X0679Y01595D02*
D03*
Y01695D02*
D03*
X0699Y01895D02*
D03*
X0719Y01595D02*
D03*
Y01695D02*
D03*
D96*
X070789Y020637D02*
D03*
X071789Y022637D02*
D03*
X072789Y020637D02*
D03*
D97*
X068741Y02318D02*
D03*
D98*
X067741D02*
D03*
X066741D02*
D03*
D99*
X06537Y032385D02*
D03*
Y033365D02*
D03*
D100*
Y034375D02*
D03*
D101*
X0512Y015905D02*
D03*
Y016693D02*
D03*
Y01748D02*
D03*
X06643Y032079D02*
D03*
Y032866D02*
D03*
Y033654D02*
D03*
D102*
X0512Y018267D02*
D03*
X06643Y034441D02*
D03*
D107*
X06407Y034046D02*
D03*
Y033546D02*
D03*
Y033046D02*
D03*
Y032546D02*
D03*
Y032046D02*
D03*
Y031546D02*
D03*
Y031046D02*
D03*
Y030546D02*
D03*
X06035Y034046D02*
D03*
Y033546D02*
D03*
Y033046D02*
D03*
Y032546D02*
D03*
Y032046D02*
D03*
Y031546D02*
D03*
Y031046D02*
D03*
D108*
Y030546D02*
D03*
D109*
X065282Y027344D02*
D03*
X065644Y026982D02*
D03*
X065756Y027818D02*
D03*
X066118Y027456D02*
D03*
D110*
X07095Y024098D02*
D03*
D111*
X071856Y026382D02*
D03*
X07095Y026382D02*
D03*
X070044Y026382D02*
D03*
D112*
X07363Y03019D02*
D03*
X06759D02*
D03*
D113*
X064711Y026749D02*
D03*
X065129Y026331D02*
D03*
D114*
X064791Y027851D02*
D03*
X065209Y028269D02*
D03*
M02*
