G04*
G04 #@! TF.GenerationSoftware,Altium Limited,Altium Designer,21.6.1 (37)*
G04*
G04 Layer_Color=16711935*
%FSLAX25Y25*%
%MOIN*%
G70*
G04*
G04 #@! TF.SameCoordinates,01938319-B850-4C9D-A5BA-AB94FDF17EC4*
G04*
G04*
G04 #@! TF.FilePolarity,Positive*
G04*
G01*
G75*
%ADD10C,0.00984*%
%ADD12C,0.00500*%
%ADD15C,0.01000*%
%ADD38C,0.00400*%
%ADD39C,0.00300*%
D10*
X99461Y124700D02*
X98739D01*
X99461D01*
Y166200D02*
X98739D01*
X99461D01*
Y83200D02*
X98739D01*
X99461D01*
Y41700D02*
X98739D01*
X99461D01*
D12*
X97100Y98900D02*
Y127200D01*
Y98900D02*
X128200D01*
Y127200D01*
X97100D02*
X128200D01*
X97100Y140400D02*
Y168700D01*
Y140400D02*
X128200D01*
Y168700D01*
X97100D02*
X128200D01*
X97100Y57400D02*
Y85700D01*
Y57400D02*
X128200D01*
Y85700D01*
X97100D02*
X128200D01*
X97100Y15900D02*
Y44200D01*
Y15900D02*
X128200D01*
Y44200D01*
X97100D02*
X128200D01*
X114366Y134516D02*
X113950Y134932D01*
X113117D01*
X112700Y134516D01*
Y132850D01*
X113117Y132433D01*
X113950D01*
X114366Y132850D01*
X115199Y134516D02*
X115616Y134932D01*
X116449D01*
X116865Y134516D01*
Y134099D01*
X116449Y133683D01*
X116032D01*
X116449D01*
X116865Y133266D01*
Y132850D01*
X116449Y132433D01*
X115616D01*
X115199Y132850D01*
X114366Y176183D02*
X113950Y176599D01*
X113117D01*
X112700Y176183D01*
Y174516D01*
X113117Y174100D01*
X113950D01*
X114366Y174516D01*
X116449Y174100D02*
Y176599D01*
X115199Y175350D01*
X116865D01*
X114366Y92849D02*
X113950Y93266D01*
X113117D01*
X112700Y92849D01*
Y91183D01*
X113117Y90767D01*
X113950D01*
X114366Y91183D01*
X116865Y90767D02*
X115199D01*
X116865Y92433D01*
Y92849D01*
X116449Y93266D01*
X115616D01*
X115199Y92849D01*
X114366Y51183D02*
X113950Y51599D01*
X113117D01*
X112700Y51183D01*
Y49516D01*
X113117Y49100D01*
X113950D01*
X114366Y49516D01*
X115199Y49100D02*
X116032D01*
X115616D01*
Y51599D01*
X115199Y51183D01*
X112866Y12183D02*
X112450Y12599D01*
X111617D01*
X111200Y12183D01*
Y10516D01*
X111617Y10100D01*
X112450D01*
X112866Y10516D01*
X115365Y12599D02*
X113699D01*
Y11350D01*
X114532Y11766D01*
X114949D01*
X115365Y11350D01*
Y10516D01*
X114949Y10100D01*
X114116D01*
X113699Y10516D01*
D15*
X101900Y117798D02*
Y112800D01*
X102900Y111800D01*
X104899D01*
X105899Y112800D01*
Y117798D01*
X111897Y111800D02*
X107898D01*
X111897Y115799D01*
Y116798D01*
X110897Y117798D01*
X108898D01*
X107898Y116798D01*
X101900Y159298D02*
Y154300D01*
X102900Y153300D01*
X104899D01*
X105899Y154300D01*
Y159298D01*
X110897Y153300D02*
Y159298D01*
X107898Y156299D01*
X111897D01*
X101900Y76298D02*
Y71300D01*
X102900Y70300D01*
X104899D01*
X105899Y71300D01*
Y76298D01*
X107898Y75298D02*
X108898Y76298D01*
X110897D01*
X111897Y75298D01*
Y74299D01*
X110897Y73299D01*
X109897D01*
X110897D01*
X111897Y72299D01*
Y71300D01*
X110897Y70300D01*
X108898D01*
X107898Y71300D01*
X101900Y34798D02*
Y29800D01*
X102900Y28800D01*
X104899D01*
X105899Y29800D01*
Y34798D01*
X107898Y28800D02*
X109897D01*
X108898D01*
Y34798D01*
X107898Y33798D01*
D38*
X112841Y135933D02*
D03*
Y177600D02*
D03*
Y94267D02*
D03*
Y52600D02*
D03*
X111341Y13600D02*
D03*
D39*
X111800Y129833D02*
Y136833D01*
X125200Y136833D01*
Y129833D02*
Y136833D01*
X111800Y129833D02*
X125200D01*
X111800Y171500D02*
Y178500D01*
X125200Y178500D01*
Y171500D02*
Y178500D01*
X111800Y171500D02*
X125200D01*
X111800Y88167D02*
Y95167D01*
X125200Y95167D01*
Y88167D02*
Y95167D01*
X111800Y88167D02*
X125200D01*
X111800Y46500D02*
Y53500D01*
X125200Y53500D01*
Y46500D02*
Y53500D01*
X111800Y46500D02*
X125200D01*
X110300Y7500D02*
Y14500D01*
X123700Y14500D01*
Y7500D02*
Y14500D01*
X110300Y7500D02*
X123700D01*
M02*
