G04*
G04 #@! TF.GenerationSoftware,Altium Limited,Altium Designer,21.6.1 (37)*
G04*
G04 Layer_Physical_Order=1*
G04 Layer_Color=255*
%FSLAX25Y25*%
%MOIN*%
G70*
G04*
G04 #@! TF.SameCoordinates,01938319-B850-4C9D-A5BA-AB94FDF17EC4*
G04*
G04*
G04 #@! TF.FilePolarity,Positive*
G04*
G01*
G75*
%ADD15C,0.01000*%
%ADD16R,0.05512X0.01772*%
%ADD17O,0.05512X0.01772*%
%ADD18R,0.03543X0.05118*%
%ADD28C,0.04000*%
%ADD29C,0.01500*%
%ADD30C,0.05906*%
%ADD31R,0.05906X0.05906*%
%ADD32C,0.09843*%
%ADD33C,0.06500*%
%ADD34R,0.06500X0.06500*%
%ADD35C,0.02300*%
G36*
X220063Y1937D02*
X1937D01*
X1937Y194913D01*
X220063D01*
Y1937D01*
D02*
G37*
%LPC*%
G36*
X87550Y185150D02*
X12288D01*
X11704Y184993D01*
X11573Y184968D01*
X11512Y184942D01*
X11105Y184833D01*
X10741Y184623D01*
X10709Y184609D01*
X10652Y184572D01*
X10045Y184221D01*
X9179Y183355D01*
X8913Y182894D01*
X8750Y182651D01*
X8694Y182515D01*
X8567Y182295D01*
X8501Y182049D01*
X8392Y181787D01*
X8282Y181231D01*
X8250Y181112D01*
Y181071D01*
X8210Y180869D01*
Y179953D01*
X8385Y179074D01*
X8728Y178246D01*
X9226Y177500D01*
X9860Y176866D01*
X10606Y176368D01*
X11434Y176025D01*
X12214Y175870D01*
X12288Y175850D01*
X13512D01*
X14010Y175801D01*
X14929Y175420D01*
X15633Y174716D01*
X16014Y173797D01*
X16063Y173299D01*
Y164802D01*
X11530Y160270D01*
X11110Y159641D01*
X10963Y158900D01*
Y144084D01*
X10045Y143554D01*
X9179Y142688D01*
X8567Y141628D01*
X8250Y140445D01*
Y139221D01*
X8567Y138038D01*
X9179Y136978D01*
X10045Y136112D01*
X11105Y135500D01*
X12288Y135183D01*
X12669D01*
X16063Y131790D01*
Y122865D01*
X11530Y118332D01*
X11110Y117704D01*
X10963Y116962D01*
Y103418D01*
X10045Y102888D01*
X9179Y102022D01*
X8567Y100961D01*
X8250Y99779D01*
Y98554D01*
X8567Y97372D01*
X9179Y96311D01*
X10045Y95446D01*
X11105Y94833D01*
X12288Y94517D01*
X12406D01*
X12583Y94253D01*
X16063Y90773D01*
Y83302D01*
X11530Y78770D01*
X11110Y78141D01*
X10963Y77400D01*
Y62751D01*
X10045Y62221D01*
X9179Y61355D01*
X8567Y60295D01*
X8250Y59112D01*
Y57888D01*
X8567Y56705D01*
X9179Y55645D01*
X10045Y54779D01*
X11105Y54167D01*
X12288Y53850D01*
X12467D01*
X12583Y53678D01*
X16063Y50198D01*
Y46683D01*
X16210Y45941D01*
X16630Y45313D01*
X18250Y43692D01*
X18295Y43625D01*
X19688Y42232D01*
X19755Y42188D01*
X42269Y19673D01*
X42898Y19254D01*
X43639Y19106D01*
X97801D01*
X98124Y18890D01*
X99016Y18713D01*
X102756D01*
X103648Y18890D01*
X104404Y19395D01*
X104909Y20151D01*
X105087Y21043D01*
X104909Y21935D01*
X104650Y22323D01*
X104909Y22711D01*
X105087Y23602D01*
X104909Y24494D01*
X104650Y24882D01*
X104909Y25269D01*
X105087Y26161D01*
X104909Y27053D01*
X104650Y27441D01*
X104909Y27829D01*
X105087Y28721D01*
X104909Y29612D01*
X104650Y30000D01*
X104909Y30388D01*
X105087Y31280D01*
X104909Y32171D01*
X104650Y32559D01*
X104909Y32947D01*
X105087Y33839D01*
X104909Y34730D01*
X104650Y35118D01*
X104909Y35506D01*
X105087Y36398D01*
X104909Y37290D01*
X104650Y37677D01*
X104909Y38065D01*
X105087Y38957D01*
X105062Y39079D01*
X105355Y39579D01*
X109071D01*
Y15429D01*
X36369D01*
X36278Y15887D01*
X35802Y17038D01*
X35110Y18073D01*
X34230Y18953D01*
X33194Y19645D01*
X32044Y20122D01*
X30823Y20365D01*
X29577D01*
X28356Y20122D01*
X27206Y19645D01*
X26170Y18953D01*
X25290Y18073D01*
X24598Y17038D01*
X24122Y15887D01*
X23879Y14666D01*
Y13421D01*
X24122Y12200D01*
X24598Y11049D01*
X25290Y10014D01*
X26170Y9133D01*
X27206Y8442D01*
X28356Y7965D01*
X29577Y7722D01*
X30823D01*
X32044Y7965D01*
X33194Y8442D01*
X33388Y8571D01*
X110088D01*
Y7041D01*
X116431D01*
Y14959D01*
X115929D01*
Y39324D01*
X121548D01*
X122111Y39212D01*
Y38702D01*
X121352Y38551D01*
X120596Y38046D01*
X120091Y37290D01*
X119913Y36398D01*
X120091Y35506D01*
X120350Y35118D01*
X120091Y34730D01*
X119913Y33839D01*
X120091Y32947D01*
X120350Y32559D01*
X120091Y32171D01*
X119913Y31280D01*
X120091Y30388D01*
X120350Y30000D01*
X120091Y29612D01*
X119913Y28721D01*
X120091Y27829D01*
X120350Y27441D01*
X120091Y27053D01*
X119913Y26161D01*
X120091Y25269D01*
X120350Y24882D01*
X120091Y24494D01*
X119913Y23602D01*
X120091Y22711D01*
X120350Y22323D01*
X120091Y21935D01*
X119913Y21043D01*
X120091Y20151D01*
X120350Y19764D01*
X120091Y19376D01*
X119913Y18484D01*
X120091Y17592D01*
X120596Y16836D01*
X121352Y16331D01*
X122244Y16154D01*
X125984D01*
X126876Y16331D01*
X127199Y16547D01*
X194146D01*
X194887Y16694D01*
X195516Y17114D01*
X213870Y35469D01*
X214290Y36097D01*
X214437Y36839D01*
Y44592D01*
X215173Y45017D01*
X215983Y45827D01*
X216556Y46820D01*
X216853Y47927D01*
Y49073D01*
X216556Y50180D01*
X215983Y51173D01*
X215173Y51983D01*
X214180Y52556D01*
X213073Y52853D01*
X212698D01*
X209437Y56113D01*
Y63417D01*
X213870Y67849D01*
X214290Y68478D01*
X214437Y69219D01*
Y85259D01*
X215173Y85684D01*
X215983Y86494D01*
X216556Y87486D01*
X216853Y88594D01*
Y89740D01*
X216556Y90847D01*
X215983Y91839D01*
X215173Y92650D01*
X214180Y93223D01*
X213073Y93519D01*
X212957D01*
X212931Y93558D01*
X209437Y97052D01*
Y104977D01*
X213120Y108660D01*
X213540Y109288D01*
X213687Y110030D01*
Y125645D01*
X214180Y125777D01*
X215173Y126350D01*
X215983Y127161D01*
X216556Y128153D01*
X216853Y129260D01*
Y130406D01*
X216556Y131513D01*
X215983Y132506D01*
X215173Y133316D01*
X214180Y133889D01*
X213653Y134030D01*
X213619Y134201D01*
X213199Y134830D01*
X209937Y138092D01*
Y145944D01*
X213870Y149877D01*
X214290Y150505D01*
X214437Y151247D01*
Y166592D01*
X215173Y167017D01*
X215983Y167827D01*
X216556Y168820D01*
X216853Y169927D01*
Y171073D01*
X216556Y172180D01*
X215983Y173173D01*
X215173Y173983D01*
X214180Y174556D01*
X213073Y174853D01*
X211927D01*
X210820Y174556D01*
X209937Y174047D01*
X209437Y174233D01*
Y175500D01*
X209290Y176241D01*
X208870Y176870D01*
X206884Y178856D01*
Y181365D01*
X206736Y182109D01*
X206445Y182811D01*
X206024Y183442D01*
X205487Y183979D01*
X204856Y184400D01*
X204154Y184691D01*
X203410Y184839D01*
X203125D01*
X203073Y184853D01*
X201927D01*
X201875Y184839D01*
X193125D01*
X193073Y184853D01*
X191927D01*
X191875Y184839D01*
X183125D01*
X183073Y184853D01*
X181927D01*
X181875Y184839D01*
X173125D01*
X173073Y184853D01*
X171927D01*
X171875Y184839D01*
X163125D01*
X163073Y184853D01*
X161927D01*
X161875Y184839D01*
X153125D01*
X153073Y184853D01*
X151927D01*
X151875Y184839D01*
X143125D01*
X143073Y184853D01*
X141927D01*
X141560Y184754D01*
X141024Y184648D01*
X140118Y184273D01*
X139304Y183728D01*
X138611Y183035D01*
X138066Y182220D01*
X137691Y181315D01*
X137500Y180354D01*
Y177500D01*
X137430Y169837D01*
X137407D01*
Y162835D01*
X127199D01*
X126876Y163051D01*
X126117Y163202D01*
Y163712D01*
X126876Y163863D01*
X127632Y164368D01*
X128137Y165124D01*
X128315Y166016D01*
X128137Y166908D01*
X127632Y167664D01*
X126876Y168169D01*
X125984Y168346D01*
X122244D01*
X121548Y168208D01*
X115092D01*
X114925Y168425D01*
X114692Y168604D01*
Y171041D01*
X117931D01*
Y178959D01*
X111588D01*
Y174141D01*
X110950Y173503D01*
X110475Y172792D01*
X110308Y171953D01*
Y168604D01*
X110075Y168425D01*
X109713Y167953D01*
X105042D01*
Y168302D01*
X96730D01*
Y165537D01*
X92464D01*
X91158Y166843D01*
Y174179D01*
X91010Y174921D01*
X90590Y175549D01*
X87550Y178590D01*
Y185150D01*
D02*
G37*
%LPD*%
G36*
X109071Y126453D02*
X105042D01*
Y126802D01*
X96730D01*
Y143606D01*
X97801D01*
X98124Y143390D01*
X99016Y143213D01*
X102756D01*
X103648Y143390D01*
X104404Y143895D01*
X104909Y144651D01*
X105087Y145543D01*
X104909Y146435D01*
X104650Y146823D01*
X104909Y147211D01*
X105087Y148102D01*
X104909Y148994D01*
X104650Y149382D01*
X104909Y149769D01*
X105087Y150661D01*
X104909Y151553D01*
X104650Y151941D01*
X104909Y152329D01*
X105087Y153220D01*
X104909Y154112D01*
X104650Y154500D01*
X104909Y154888D01*
X105087Y155780D01*
X104909Y156671D01*
X104650Y157059D01*
X104909Y157447D01*
X105087Y158339D01*
X104909Y159230D01*
X104650Y159618D01*
X104909Y160006D01*
X105087Y160898D01*
X104909Y161790D01*
X104650Y162177D01*
X104909Y162565D01*
X105087Y163457D01*
X105062Y163578D01*
X105355Y164078D01*
X109071D01*
Y126453D01*
D02*
G37*
G36*
X122111Y163712D02*
Y163202D01*
X121352Y163051D01*
X120596Y162546D01*
X120091Y161790D01*
X119913Y160898D01*
X120091Y160006D01*
X120350Y159618D01*
X120091Y159230D01*
X119913Y158339D01*
X120091Y157447D01*
X120350Y157059D01*
X120091Y156671D01*
X119913Y155780D01*
X120091Y154888D01*
X120350Y154500D01*
X120091Y154112D01*
X119913Y153220D01*
X120091Y152329D01*
X120350Y151941D01*
X120091Y151553D01*
X119913Y150661D01*
X120091Y149769D01*
X120350Y149382D01*
X120091Y148994D01*
X119913Y148102D01*
X120091Y147211D01*
X120350Y146823D01*
X120091Y146435D01*
X119913Y145543D01*
X120091Y144651D01*
X120350Y144264D01*
X120091Y143876D01*
X119913Y142984D01*
X120091Y142092D01*
X120596Y141336D01*
X121352Y140831D01*
X122244Y140654D01*
X125984D01*
X126876Y140831D01*
X127199Y141047D01*
X137407D01*
Y123287D01*
X131541D01*
X130800Y123140D01*
X130171Y122720D01*
X128786Y121335D01*
X127199D01*
X126876Y121551D01*
X126117Y121702D01*
Y122212D01*
X126876Y122363D01*
X127632Y122868D01*
X128137Y123624D01*
X128315Y124516D01*
X128137Y125408D01*
X127632Y126164D01*
X126876Y126669D01*
X125984Y126846D01*
X122244D01*
X121548Y126708D01*
X115929D01*
Y129374D01*
X117931D01*
Y137292D01*
X115929D01*
Y163824D01*
X121548D01*
X122111Y163712D01*
D02*
G37*
G36*
X109071Y84953D02*
X105042D01*
Y85302D01*
X96730D01*
Y102106D01*
X97801D01*
X98124Y101890D01*
X99016Y101713D01*
X102756D01*
X103648Y101890D01*
X104404Y102395D01*
X104909Y103151D01*
X105087Y104043D01*
X104909Y104935D01*
X104650Y105323D01*
X104909Y105710D01*
X105087Y106602D01*
X104909Y107494D01*
X104650Y107882D01*
X104909Y108270D01*
X105087Y109161D01*
X104909Y110053D01*
X104650Y110441D01*
X104909Y110829D01*
X105087Y111721D01*
X104909Y112612D01*
X104650Y113000D01*
X104909Y113388D01*
X105087Y114279D01*
X104909Y115171D01*
X104650Y115559D01*
X104909Y115947D01*
X105087Y116839D01*
X104909Y117730D01*
X104650Y118118D01*
X104909Y118506D01*
X105087Y119398D01*
X104909Y120290D01*
X104650Y120677D01*
X104909Y121065D01*
X105087Y121957D01*
X105062Y122079D01*
X105355Y122579D01*
X109071D01*
Y84953D01*
D02*
G37*
G36*
X122111Y122212D02*
Y121702D01*
X121352Y121551D01*
X120596Y121046D01*
X120091Y120290D01*
X119913Y119398D01*
X120091Y118506D01*
X120350Y118118D01*
X120091Y117730D01*
X119913Y116839D01*
X120091Y115947D01*
X120350Y115559D01*
X120091Y115171D01*
X119913Y114279D01*
X120091Y113388D01*
X120350Y113000D01*
X120091Y112612D01*
X119913Y111721D01*
X120091Y110829D01*
X120350Y110441D01*
X120091Y110053D01*
X119913Y109161D01*
X120091Y108270D01*
X120350Y107882D01*
X120091Y107494D01*
X119913Y106602D01*
X120091Y105710D01*
X120350Y105323D01*
X120091Y104935D01*
X119913Y104043D01*
X120091Y103151D01*
X120350Y102764D01*
X120091Y102376D01*
X119913Y101484D01*
X120091Y100592D01*
X120596Y99836D01*
X121352Y99331D01*
X122244Y99154D01*
X125984D01*
X126876Y99331D01*
X127199Y99547D01*
X136480D01*
X136907Y99632D01*
X137407Y99263D01*
Y97495D01*
X135110Y95199D01*
X134690Y94570D01*
X134542Y93829D01*
Y81993D01*
X132385Y79835D01*
X127199D01*
X126876Y80051D01*
X126117Y80202D01*
Y80712D01*
X126876Y80863D01*
X127632Y81368D01*
X128137Y82124D01*
X128315Y83016D01*
X128137Y83908D01*
X127632Y84664D01*
X126876Y85169D01*
X125984Y85346D01*
X122244D01*
X121548Y85208D01*
X115929D01*
Y87708D01*
X117931D01*
Y95626D01*
X115929D01*
Y122324D01*
X121548D01*
X122111Y122212D01*
D02*
G37*
G36*
X109071Y43453D02*
X105042D01*
Y43802D01*
X96730D01*
Y59877D01*
X97460Y60606D01*
X97801D01*
X98124Y60390D01*
X99016Y60213D01*
X102756D01*
X103648Y60390D01*
X104404Y60895D01*
X104909Y61651D01*
X105087Y62543D01*
X104909Y63435D01*
X104650Y63823D01*
X104909Y64210D01*
X105087Y65102D01*
X104909Y65994D01*
X104650Y66382D01*
X104909Y66769D01*
X105087Y67661D01*
X104909Y68553D01*
X104650Y68941D01*
X104909Y69329D01*
X105087Y70221D01*
X104909Y71112D01*
X104650Y71500D01*
X104909Y71888D01*
X105087Y72780D01*
X104909Y73671D01*
X104650Y74059D01*
X104909Y74447D01*
X105087Y75339D01*
X104909Y76231D01*
X104650Y76618D01*
X104909Y77006D01*
X105087Y77898D01*
X104909Y78790D01*
X104650Y79177D01*
X104909Y79565D01*
X105087Y80457D01*
X105062Y80579D01*
X105355Y81078D01*
X109071D01*
Y43453D01*
D02*
G37*
G36*
X122111Y80712D02*
Y80202D01*
X121352Y80051D01*
X120596Y79546D01*
X120091Y78790D01*
X119913Y77898D01*
X120091Y77006D01*
X120350Y76618D01*
X120091Y76231D01*
X119913Y75339D01*
X120091Y74447D01*
X120350Y74059D01*
X120091Y73671D01*
X119913Y72780D01*
X120091Y71888D01*
X120350Y71500D01*
X120091Y71112D01*
X119913Y70221D01*
X120091Y69329D01*
X120350Y68941D01*
X120091Y68553D01*
X119913Y67661D01*
X120091Y66769D01*
X120350Y66382D01*
X120091Y65994D01*
X119913Y65102D01*
X120091Y64210D01*
X120350Y63823D01*
X120091Y63435D01*
X119913Y62543D01*
X120091Y61651D01*
X120350Y61264D01*
X120091Y60876D01*
X119913Y59984D01*
X120091Y59092D01*
X120596Y58336D01*
X121352Y57831D01*
X122244Y57654D01*
X125984D01*
X126876Y57831D01*
X127199Y58047D01*
X128035D01*
X128840Y57242D01*
Y49723D01*
X128987Y48982D01*
X129407Y48353D01*
X132098Y45663D01*
X132726Y45243D01*
X133467Y45095D01*
X137407D01*
Y38335D01*
X127199D01*
X126876Y38551D01*
X126117Y38702D01*
Y39212D01*
X126876Y39363D01*
X127632Y39868D01*
X128137Y40624D01*
X128315Y41516D01*
X128137Y42408D01*
X127632Y43164D01*
X126876Y43669D01*
X125984Y43846D01*
X122244D01*
X121548Y43708D01*
X115929D01*
Y46041D01*
X117931D01*
Y53959D01*
X115929D01*
Y80824D01*
X121548D01*
X122111Y80712D01*
D02*
G37*
D15*
X101900Y133779D02*
Y142984D01*
X102453Y134333D02*
X102500Y134286D01*
X100886Y142984D02*
X101900D01*
X187500Y137065D02*
Y150595D01*
X192500Y155595D01*
Y170500D01*
Y149480D02*
X197500Y154481D01*
X192500Y139833D02*
Y149480D01*
X197500Y154481D02*
Y175500D01*
X182500Y139833D02*
Y151382D01*
X187500Y156382D02*
Y175500D01*
X182500Y151382D02*
X187500Y156382D01*
X182500Y157533D02*
Y170500D01*
X177500Y137327D02*
Y152532D01*
X182500Y157533D01*
X177500Y158610D02*
Y175500D01*
X172500Y153611D02*
X177500Y158610D01*
X172500Y139833D02*
Y153611D01*
X197500Y137194D02*
Y148406D01*
X202500Y153406D01*
Y170500D01*
Y139833D02*
Y147143D01*
X207500Y152143D02*
Y175500D01*
X202500Y147143D02*
X207500Y152143D01*
X212500Y151247D02*
Y170500D01*
X208000Y137290D02*
Y146747D01*
X212500Y151247D01*
X181561Y130772D02*
Y133265D01*
X177500Y137327D02*
X181561Y133265D01*
X177500Y119000D02*
Y132691D01*
X172500Y139833D02*
X173439Y138895D01*
Y136752D02*
Y138895D01*
Y136752D02*
X177500Y132691D01*
X187500Y137065D02*
X191561Y133004D01*
Y130772D02*
X192500Y129833D01*
X191561Y130772D02*
Y133004D01*
X192500Y114595D02*
Y129833D01*
X182500Y139833D02*
X183439Y138895D01*
Y136686D02*
X187500Y132624D01*
Y116064D02*
Y132624D01*
X183439Y136686D02*
Y138895D01*
X201561Y130772D02*
Y133133D01*
Y130772D02*
X202500Y129833D01*
X197500Y137194D02*
X201561Y133133D01*
X192500Y139833D02*
X193439Y138895D01*
X197500Y114500D02*
Y132831D01*
X193439Y136892D02*
Y138895D01*
Y136892D02*
X197500Y132831D01*
X203439Y136514D02*
X207381Y132571D01*
Y111840D02*
Y132571D01*
X202500Y106958D02*
X207381Y111840D01*
X202500Y139833D02*
X203439Y138895D01*
Y136514D02*
Y138895D01*
X211830Y130504D02*
X212500Y129833D01*
X211830Y130504D02*
Y133460D01*
X208000Y137290D02*
X211830Y133460D01*
X182500Y99167D02*
Y111064D01*
X187500Y116064D01*
X192500Y109500D02*
X197500Y114500D01*
X202500Y112762D02*
Y129833D01*
X197500Y96651D02*
Y107762D01*
X202500Y112762D01*
Y99167D02*
Y106958D01*
X207500Y96249D02*
Y105780D01*
X211750Y110030D02*
Y129083D01*
X207500Y105780D02*
X211750Y110030D01*
X211561Y90105D02*
X212500Y89167D01*
X211561Y90105D02*
Y92188D01*
X207500Y96249D02*
X211561Y92188D01*
X203439Y95835D02*
Y98228D01*
Y95835D02*
X207500Y91774D01*
Y71623D02*
Y91774D01*
X202500Y99167D02*
X203439Y98228D01*
X201594Y90073D02*
Y92558D01*
X197500Y96651D02*
X201594Y92558D01*
Y90073D02*
X202500Y89167D01*
X193439Y95917D02*
Y98228D01*
Y95917D02*
X197500Y91856D01*
Y74850D02*
Y91856D01*
X192500Y99167D02*
X193439Y98228D01*
X192500Y99167D02*
Y109500D01*
X187500Y96093D02*
X191203Y92390D01*
Y91791D02*
Y92390D01*
X187500Y96093D02*
Y109595D01*
X192500Y76504D02*
Y90494D01*
X191203Y91791D02*
X192500Y90494D01*
X182500Y99167D02*
X183381Y98285D01*
Y95751D02*
Y98285D01*
Y95751D02*
X187500Y91632D01*
Y77702D02*
Y91632D01*
X181561Y90105D02*
X182500Y89167D01*
X177500Y96167D02*
Y112589D01*
Y96167D02*
X181561Y92106D01*
Y90105D02*
Y92106D01*
X172500Y99167D02*
X173400Y98267D01*
X177500Y78974D02*
Y91669D01*
X173400Y95769D02*
Y98267D01*
Y95769D02*
X177500Y91669D01*
X172500Y99167D02*
Y114000D01*
Y73974D02*
X177500Y78974D01*
X172500Y58500D02*
Y73974D01*
X182500Y58500D02*
Y72702D01*
X187500Y77702D01*
Y55494D02*
Y71504D01*
X192500Y76504D01*
Y58500D02*
Y69850D01*
X197500Y74850D01*
Y68319D02*
X202500Y73319D01*
X197500Y55918D02*
Y68319D01*
X202500Y73319D02*
Y89167D01*
Y66623D02*
X207500Y71623D01*
X202500Y58500D02*
Y66623D01*
X207500Y55311D02*
Y64219D01*
X212500Y69219D02*
Y89167D01*
X207500Y64219D02*
X212500Y69219D01*
X211561Y49439D02*
X212500Y48500D01*
X211561Y49439D02*
Y51249D01*
X207500Y55311D02*
X211561Y51249D01*
X203348Y55051D02*
Y57652D01*
Y55051D02*
X207500Y50899D01*
Y37000D02*
Y50899D01*
X202500Y58500D02*
X203348Y57652D01*
X201561Y49439D02*
Y51857D01*
X197500Y55918D02*
X201561Y51857D01*
X192500Y58500D02*
X193403Y57597D01*
X197500Y38145D02*
Y51008D01*
X193403Y55106D02*
Y57597D01*
Y55106D02*
X197500Y51008D01*
X191561Y49439D02*
Y51432D01*
X187500Y55494D02*
X191561Y51432D01*
X187500Y39964D02*
Y50868D01*
X182500Y58500D02*
X183333Y57667D01*
Y55036D02*
Y57667D01*
Y55036D02*
X187500Y50868D01*
X177500Y55745D02*
Y73500D01*
X181561Y49439D02*
Y51684D01*
X177500Y55745D02*
X181561Y51684D01*
Y49439D02*
X182500Y48500D01*
X173352Y55055D02*
Y57648D01*
Y55055D02*
X177500Y50906D01*
Y42000D02*
Y50906D01*
X172500Y58500D02*
X173352Y57648D01*
X124114Y26161D02*
X185516D01*
X197500Y38145D01*
X124114Y31280D02*
X178815D01*
X187500Y39964D01*
X182500Y40509D02*
Y48500D01*
X175830Y33839D02*
X182500Y40509D01*
X124114Y33839D02*
X175830D01*
X46184Y23602D02*
X100886D01*
X24452Y45334D02*
X46184Y23602D01*
X22900Y47012D02*
Y48500D01*
Y47012D02*
X24452Y45460D01*
Y45334D02*
Y45460D01*
X32900Y47012D02*
Y48500D01*
X34426Y45308D02*
X51014Y28721D01*
X100886D01*
X32900Y47012D02*
X34426Y45486D01*
Y45308D02*
Y45486D01*
X31848Y49552D02*
X32900Y48500D01*
X56027Y33839D02*
X100886D01*
X42900Y47012D02*
Y48500D01*
X44492Y45374D02*
X56027Y33839D01*
X42900Y47012D02*
X44492Y45420D01*
Y45374D02*
Y45420D01*
X52900Y47012D02*
X54334Y45578D01*
X60594Y38957D02*
X100886D01*
X52900Y47012D02*
Y48500D01*
X54334Y45217D02*
Y45578D01*
Y45217D02*
X60594Y38957D01*
X18000Y56135D02*
Y76360D01*
X21909Y49491D02*
Y52226D01*
X18000Y56135D02*
X21909Y52226D01*
X23952Y54994D02*
X27988Y50958D01*
X22900Y58500D02*
X23952Y57448D01*
Y54994D02*
Y57448D01*
X22900Y58500D02*
Y74314D01*
X28000Y55913D02*
Y74000D01*
X31848Y49552D02*
Y52066D01*
X28000Y55913D02*
X31848Y52066D01*
X27988Y46694D02*
Y50958D01*
Y46694D02*
X48521Y26161D01*
X37650Y56089D02*
X41848Y51891D01*
Y49552D02*
Y51891D01*
X37650Y56089D02*
Y70541D01*
X33952Y54944D02*
Y57448D01*
X37988Y46695D02*
Y50909D01*
X32900Y58322D02*
Y71776D01*
Y58500D02*
X33952Y57448D01*
Y54944D02*
X37988Y50909D01*
Y46695D02*
X53403Y31280D01*
X51860Y49540D02*
Y52178D01*
X48150Y55888D02*
X51860Y52178D01*
X48150Y55888D02*
Y66887D01*
X43952Y55393D02*
Y57448D01*
X47837Y46846D02*
Y51508D01*
X42900Y58500D02*
X43952Y57448D01*
Y55393D02*
X47837Y51508D01*
X42900Y58500D02*
Y68583D01*
X47837Y46846D02*
X58285Y36398D01*
X18000Y76360D02*
X22900Y81260D01*
Y90428D01*
X28000Y79414D02*
Y91401D01*
X22900Y74314D02*
X28000Y79414D01*
X38000Y76876D02*
Y91569D01*
X32900Y71776D02*
X38000Y76876D01*
X37650Y70541D02*
X42900Y75791D01*
Y90655D01*
Y68583D02*
X47955Y73638D01*
Y91746D01*
X48150Y66887D02*
X52900Y71637D01*
Y89167D01*
X18000Y122062D02*
Y132592D01*
X12900Y99167D02*
Y116962D01*
X18000Y122062D01*
Y95328D02*
Y115692D01*
X22900Y120592D02*
Y129833D01*
X18000Y115692D02*
X22900Y120592D01*
X28000Y119596D02*
Y132501D01*
X22900Y99167D02*
Y114496D01*
X28000Y119596D01*
X32900Y118217D02*
Y129833D01*
X28000Y96467D02*
Y113317D01*
X32900Y118217D01*
X32900Y99167D02*
Y112180D01*
X38000Y117280D01*
Y132312D01*
X37650Y110930D02*
X42900Y116180D01*
X37650Y95905D02*
Y110930D01*
X42900Y116180D02*
Y131322D01*
X42900Y99167D02*
Y109400D01*
X48000Y114500D01*
Y132552D01*
X47650Y96845D02*
Y107311D01*
X52900Y112561D01*
Y131322D01*
X51848Y90219D02*
X52900Y89167D01*
X47650Y96845D02*
X51848Y92647D01*
Y90219D02*
Y92647D01*
X43952Y95748D02*
Y98114D01*
Y95748D02*
X47955Y91746D01*
X42900Y99167D02*
X43952Y98114D01*
X37650Y95905D02*
X42900Y90655D01*
X32900Y99167D02*
X33952Y98114D01*
Y95616D02*
X38000Y91569D01*
X33952Y95616D02*
Y98114D01*
X31848Y90219D02*
X32900Y89167D01*
X31848Y90219D02*
Y92619D01*
X28000Y96467D02*
X31848Y92619D01*
X23952Y95449D02*
Y98114D01*
Y95449D02*
X28000Y91401D01*
X18000Y82500D02*
Y91575D01*
X13952Y95623D02*
X18000Y91575D01*
X12900Y99167D02*
X13952Y98114D01*
Y95623D02*
Y98114D01*
X12900Y139833D02*
Y158900D01*
X13952Y136640D02*
Y138781D01*
X12900Y139833D02*
X13952Y138781D01*
Y136640D02*
X18000Y132592D01*
X23952Y136548D02*
X28000Y132501D01*
X22900Y139833D02*
Y156138D01*
Y139833D02*
X23952Y138781D01*
Y136548D02*
Y138781D01*
X32900Y139833D02*
X33952Y138781D01*
Y136360D02*
X38000Y132312D01*
X33952Y136360D02*
Y138781D01*
X38000Y136222D02*
X42900Y131322D01*
X38000Y136222D02*
Y151749D01*
X21848Y130886D02*
X22900Y129833D01*
X21848Y130886D02*
Y133251D01*
X18000Y137099D02*
X21848Y133251D01*
X18000Y137099D02*
Y157411D01*
X28000Y137154D02*
X31848Y133307D01*
X28000Y137154D02*
Y154303D01*
X31848Y130886D02*
Y133307D01*
Y130886D02*
X32900Y129833D01*
X52900Y138529D02*
Y139833D01*
X57650Y121350D02*
Y133779D01*
X52900Y138529D02*
X57650Y133779D01*
X43952Y136599D02*
X48000Y132552D01*
X43952Y136599D02*
Y138781D01*
X51499Y132722D02*
Y133150D01*
X48000Y136650D02*
Y148661D01*
X51499Y132722D02*
X52900Y131322D01*
X48000Y136650D02*
X51499Y133150D01*
X42900Y139833D02*
X43952Y138781D01*
X22900Y162311D02*
Y170500D01*
X18000Y157411D02*
X22900Y162311D01*
X27650Y160888D02*
Y175750D01*
X22900Y156138D02*
X27650Y160888D01*
X28000Y154303D02*
X32900Y159203D01*
Y170500D01*
Y139833D02*
Y153377D01*
X38000Y158477D02*
Y175400D01*
X32900Y153377D02*
X38000Y158477D01*
X42900Y156649D02*
Y170500D01*
X38000Y151749D02*
X42900Y156649D01*
X43000Y139933D02*
Y150500D01*
X48000Y155500D02*
Y175400D01*
X43000Y150500D02*
X48000Y155500D01*
X52900Y153561D02*
Y170500D01*
X48000Y148661D02*
X52900Y153561D01*
X162500Y165392D02*
Y170500D01*
X150329Y153220D02*
X162500Y165392D01*
X124114Y153220D02*
X150329D01*
X167500Y162950D02*
Y175500D01*
X124114Y150661D02*
X155211D01*
X167500Y162950D01*
X124114Y158339D02*
X141980D01*
X147500Y163858D02*
Y175500D01*
X141980Y158339D02*
X147500Y163858D01*
X172500Y161109D02*
Y170500D01*
X124114Y148102D02*
X159493D01*
X172500Y161109D01*
X167500Y94167D02*
Y101602D01*
X157602Y111500D02*
X167500Y101602D01*
X135000Y111500D02*
X157602D01*
X157052Y72780D02*
X167500Y62332D01*
X124114Y72780D02*
X157052D01*
X167500Y53500D02*
Y62332D01*
X161851Y59149D02*
Y62296D01*
X153927Y70221D02*
X161851Y62296D01*
X124114Y70221D02*
X153927D01*
X157500Y53500D02*
Y61572D01*
X151411Y67661D02*
X157500Y61572D01*
X124114Y67661D02*
X151411D01*
X130777Y49723D02*
Y58045D01*
X128837Y59984D02*
X130777Y58045D01*
Y49723D02*
X133467Y47032D01*
X73257Y62664D02*
X78254Y67661D01*
X100886D01*
X72900Y58500D02*
X73257Y58857D01*
Y62664D01*
X53288Y58887D02*
Y62664D01*
X65962Y75339D01*
X100886D01*
X52900Y58500D02*
X53288Y58887D01*
X65002Y109161D02*
X100886D01*
X57967Y94099D02*
Y102126D01*
X65002Y109161D01*
X52900Y99167D02*
Y103777D01*
X60844Y111721D02*
X100886D01*
X52900Y103777D02*
X60844Y111721D01*
X161561Y100105D02*
Y102105D01*
X135783Y109161D02*
X154505D01*
X161561Y102105D01*
Y100105D02*
X162500Y99167D01*
X92876Y102384D02*
X94535Y104043D01*
X89836Y102384D02*
X92876D01*
X87618Y104602D02*
X89836Y102384D01*
X94535Y104043D02*
X100886D01*
X5000Y162600D02*
X12900Y170500D01*
X2500Y160100D02*
X5000Y162600D01*
Y185000D01*
X13000Y193000D01*
X114500D01*
X122240Y185260D01*
Y175000D02*
Y185260D01*
X100886Y59984D02*
X101900D01*
X102256Y59628D01*
Y53552D02*
Y59628D01*
Y53552D02*
X104500Y51308D01*
X100886Y95598D02*
Y101484D01*
Y95598D02*
X103500Y92984D01*
X122240Y175000D02*
X130780D01*
X133187Y172592D01*
Y165904D02*
Y172592D01*
X130740Y163457D02*
X133187Y165904D01*
X124114Y163457D02*
X130740D01*
X122240Y133333D02*
X129589D01*
X131541Y131381D01*
X128373Y121957D02*
X131541Y125125D01*
Y131381D01*
X124114Y121957D02*
X128373D01*
X122240Y91667D02*
X129736D01*
X132045Y89358D01*
Y82658D02*
Y89358D01*
X129844Y80457D02*
X132045Y82658D01*
X124114Y80457D02*
X129844D01*
X132705Y41914D02*
X132791Y42000D01*
X131541Y41914D02*
X132705D01*
X122240Y50000D02*
X125370D01*
X131541Y43829D01*
X130498Y38957D02*
X131541Y40000D01*
X124114Y38957D02*
X130498D01*
X125500Y5000D02*
X197500D01*
X16346D02*
X125500D01*
X120740Y10213D02*
X125500Y5453D01*
X120740Y10213D02*
Y11000D01*
X125500Y5000D02*
Y5453D01*
X197500Y5000D02*
X218000Y25500D01*
X100886Y41516D02*
X112500D01*
X100886Y83016D02*
X112500D01*
X100886Y124516D02*
X112500D01*
X100886Y166016D02*
X112484D01*
X12000Y9607D02*
Y12000D01*
X15106Y6068D02*
X16260Y4914D01*
X16346Y5000D01*
X12000Y9607D02*
X15106Y6501D01*
Y6068D02*
Y6501D01*
X218000Y25500D02*
Y53000D01*
X212500Y58500D02*
X218000Y53000D01*
X212500Y58500D02*
X218000Y64000D01*
X212500Y99167D02*
X218000Y93667D01*
Y64000D02*
Y93667D01*
X212500Y99167D02*
X218000Y104667D01*
Y134333D01*
X212500Y139833D02*
X218000Y134333D01*
X212500Y139833D02*
Y144500D01*
X218000Y150000D01*
Y175000D01*
X212500Y180500D02*
X218000Y175000D01*
X202500Y180500D02*
X207500Y175500D01*
X211750Y129083D02*
X212500Y129833D01*
X201561Y49439D02*
X202500Y48500D01*
X192500Y180500D02*
X197500Y175500D01*
X187500Y109595D02*
X192500Y114595D01*
X191561Y49439D02*
X192500Y48500D01*
X182500Y180500D02*
X187500Y175500D01*
X181561Y130772D02*
X182500Y129833D01*
X177500Y112589D02*
X182500Y117588D01*
Y129833D01*
X172500Y114000D02*
X177500Y119000D01*
X182500Y78500D02*
Y89167D01*
X177500Y73500D02*
X182500Y78500D01*
X172500Y180500D02*
X177500Y175500D01*
X172500Y121000D02*
Y129833D01*
X165779Y114279D02*
X172500Y121000D01*
X134604Y114279D02*
X165779D01*
X142500Y164761D02*
Y170500D01*
X138636Y160898D02*
X142500Y164761D01*
X124114Y160898D02*
X138636D01*
X142500Y180500D02*
X147500Y175500D01*
X152505Y162177D02*
Y170495D01*
X152500Y170500D02*
X152505Y170495D01*
X146108Y155780D02*
X152505Y162177D01*
X124114Y155780D02*
X146108D01*
X162500Y180500D02*
X167500Y175500D01*
X124114Y145543D02*
X144273D01*
X124114Y142984D02*
X139349D01*
X142500Y139833D01*
X144273Y145543D02*
X147500Y142316D01*
Y134833D02*
Y142316D01*
X142500Y129833D02*
X147500Y134833D01*
X82932Y139865D02*
Y143975D01*
X82900Y139833D02*
X82932Y139865D01*
X87059Y148102D02*
X100886D01*
X82932Y143975D02*
X87059Y148102D01*
X94535Y145543D02*
X100886D01*
X91661Y142669D02*
X94535Y145543D01*
X91661Y133000D02*
Y142669D01*
X82900Y129833D02*
X88495D01*
X91661Y133000D01*
X152500Y123964D02*
Y129833D01*
X149886Y121350D02*
X152500Y123964D01*
X131541Y121350D02*
X149886D01*
X81997Y121957D02*
X100886D01*
X78000Y125954D02*
X81997Y121957D01*
X78000Y125954D02*
Y134733D01*
X72900Y139833D02*
X78000Y134733D01*
X124114Y119398D02*
X129589D01*
X131541Y121350D01*
X130379Y116839D02*
X132791Y119250D01*
X132045Y111721D02*
X134604Y114279D01*
X131541D02*
X134100Y116839D01*
X124114D02*
X130379D01*
X134100D02*
X160661D01*
X124114Y111721D02*
X132045D01*
X132791Y119250D02*
X157424D01*
X124114Y114279D02*
X131541D01*
X157424Y119250D02*
X162500Y124326D01*
Y129833D01*
Y139833D02*
X167500Y134833D01*
Y123677D02*
Y134833D01*
X160661Y116839D02*
X167500Y123677D01*
X124114Y109161D02*
X132661D01*
X135000Y111500D01*
X137181Y106602D02*
X152036D01*
X157500Y101139D01*
Y94267D02*
Y101139D01*
X167500Y94167D02*
X172500Y89167D01*
X133224Y106602D02*
X135783Y109161D01*
X134622Y104043D02*
X137181Y106602D01*
X136480Y101484D02*
X139039Y104043D01*
X145841D01*
X147500Y102384D01*
X124114Y106602D02*
X133224D01*
X124114Y104043D02*
X134622D01*
X162500Y89167D02*
Y89267D01*
X157500Y94267D02*
X162500Y89267D01*
X57967Y94099D02*
X62900Y89167D01*
X70000Y106602D02*
X100886D01*
X62900Y99502D02*
X70000Y106602D01*
X62900Y99167D02*
Y99502D01*
X72900Y99167D02*
X78336Y104602D01*
X87618D01*
X64720Y114279D02*
X100886D01*
X57650Y121350D02*
X64720Y114279D01*
X124114Y101484D02*
X136480D01*
X147500Y94167D02*
Y102384D01*
Y94167D02*
X152500Y89167D01*
X141817Y99167D02*
X142500D01*
X136480Y93829D02*
X141817Y99167D01*
X136480Y81190D02*
Y93829D01*
X133187Y77898D02*
X136480Y81190D01*
X124114Y77898D02*
X133187D01*
X142500Y82658D02*
Y89167D01*
X135181Y75339D02*
X142500Y82658D01*
X124114Y75339D02*
X135181D01*
X82900Y82790D02*
X85233Y80457D01*
X100886D01*
X82900Y82790D02*
Y89167D01*
X78000Y94267D02*
X82900Y99167D01*
X78000Y81190D02*
Y94267D01*
X81292Y77898D02*
X100886D01*
X78000Y81190D02*
X81292Y77898D01*
X138000Y57032D02*
X139468Y58500D01*
X142500D01*
X138000Y52828D02*
Y57032D01*
X136480Y51308D02*
X138000Y52828D01*
X134988Y51308D02*
X136480D01*
X133467Y52828D02*
X134988Y51308D01*
X133467Y52828D02*
Y59984D01*
X130909Y62543D02*
X133467Y59984D01*
X124114Y62543D02*
X130909D01*
X141033Y47032D02*
X142500Y48500D01*
X133467Y47032D02*
X141033D01*
X124114Y59984D02*
X128837D01*
X82900Y58500D02*
X82932Y58532D01*
X87914D01*
X88500Y57946D01*
Y52317D02*
Y57946D01*
X89509Y51308D02*
X92343D01*
X88500Y52317D02*
X89509Y51308D01*
X92343D02*
X94535Y53500D01*
Y60422D01*
X96657Y62543D02*
X100886D01*
X94535Y60422D02*
X96657Y62543D01*
X80277Y65102D02*
X100886D01*
X77650Y62476D02*
X80277Y65102D01*
X77650Y53750D02*
X82900Y48500D01*
X77650Y53750D02*
Y62476D01*
X70008Y72780D02*
X100886D01*
X57650Y60422D02*
X70008Y72780D01*
X74620Y70221D02*
X100886D01*
X62900Y58500D02*
X74620Y70221D01*
X124114Y65102D02*
X143898D01*
X147000Y62000D01*
Y54000D02*
Y62000D01*
Y54000D02*
X152500Y48500D01*
X161851Y59149D02*
X162500Y58500D01*
X167500Y53500D02*
X172500Y48500D01*
X157500Y53500D02*
X162500Y48500D01*
X57650Y53750D02*
X62900Y48500D01*
X57650Y53750D02*
Y60422D01*
X171898Y36398D02*
X177500Y42000D01*
X124114Y36398D02*
X171898D01*
X182220Y28721D02*
X192500Y39000D01*
Y48500D01*
X124114Y28721D02*
X182220D01*
X188764Y23602D02*
X202500Y37339D01*
Y48500D01*
X124114Y23602D02*
X188764D01*
X191543Y21043D02*
X207500Y37000D01*
X124114Y21043D02*
X191543D01*
X194146Y18484D02*
X212500Y36839D01*
Y48500D01*
X124114Y18484D02*
X194146D01*
X91661Y163600D02*
X100743D01*
X100886Y163457D01*
X89220Y166041D02*
X91661Y163600D01*
X82900Y180500D02*
X89220Y174179D01*
Y166041D02*
Y174179D01*
X82900Y163777D02*
Y170500D01*
X85779Y160898D02*
X100886D01*
X82900Y163777D02*
X85779Y160898D01*
X81838Y158339D02*
X100886D01*
X78000Y162177D02*
X81838Y158339D01*
X72900Y180500D02*
X78000Y175400D01*
Y162177D02*
Y175400D01*
X62900Y180500D02*
X68018Y175382D01*
Y163457D02*
Y175382D01*
Y163457D02*
X75695Y155780D01*
X100886D01*
X62900Y161339D02*
Y170500D01*
Y161339D02*
X71018Y153220D01*
X100886D01*
X68018Y150661D02*
X100886D01*
X58000Y160679D02*
X68018Y150661D01*
X58000Y160679D02*
Y175400D01*
X52900Y180500D02*
X58000Y175400D01*
X62900Y139833D02*
X68000Y134733D01*
Y123500D02*
Y134733D01*
X72102Y119398D02*
X100886D01*
X68000Y123500D02*
X72102Y119398D01*
X62900Y124170D02*
Y129833D01*
Y124170D02*
X70232Y116839D01*
X100886D01*
X12450Y13839D02*
Y48050D01*
X10650Y14493D02*
Y15882D01*
X12450Y13839D02*
X15846Y17235D01*
X10200Y14043D02*
X10650Y14493D01*
X12450Y48050D02*
X12900Y48500D01*
X15846Y17235D02*
Y19846D01*
X18000Y22000D01*
X34043D02*
X37559Y18484D01*
X18000Y22000D02*
X34043D01*
X37559Y18484D02*
X100886D01*
X43639Y21043D02*
X100886D01*
X18000Y46683D02*
X43639Y21043D01*
X18000Y46683D02*
Y51000D01*
X48521Y26161D02*
X100886D01*
X53403Y31280D02*
X100886D01*
X58285Y36398D02*
X100886D01*
X42900Y139833D02*
X43000Y139933D01*
X42900Y180500D02*
X48000Y175400D01*
X32900Y139833D02*
X32900Y139833D01*
Y180500D02*
X38000Y175400D01*
X32900Y78900D02*
Y89167D01*
X28000Y74000D02*
X32900Y78900D01*
X22900Y99167D02*
X23952Y98114D01*
X22900Y180500D02*
X27650Y175750D01*
X18000Y95328D02*
X22900Y90428D01*
X13952Y55048D02*
Y57448D01*
X12900Y58500D02*
X13952Y57448D01*
Y55048D02*
X18000Y51000D01*
X12900Y58500D02*
Y77400D01*
X18000Y164000D02*
Y175400D01*
X12900Y158900D02*
X18000Y164000D01*
X12900Y77400D02*
X18000Y82500D01*
X12900Y180500D02*
X18000Y175400D01*
X2500Y94500D02*
Y136500D01*
Y55000D02*
Y94500D01*
X8150Y49350D02*
X12050D01*
X2500Y55000D02*
X8150Y49350D01*
X12050D02*
X12900Y48500D01*
X2500Y136500D02*
Y160100D01*
X12067Y90000D02*
X12900Y89167D01*
X7000Y90000D02*
X12067D01*
X2500Y94500D02*
X7000Y90000D01*
X11883Y130850D02*
X12900Y129833D01*
X8150Y130850D02*
X11883D01*
X2500Y136500D02*
X8150Y130850D01*
D16*
X100886Y124516D02*
D03*
Y166016D02*
D03*
Y83016D02*
D03*
Y41516D02*
D03*
D17*
Y121957D02*
D03*
Y119398D02*
D03*
Y116839D02*
D03*
Y114279D02*
D03*
Y111721D02*
D03*
Y109161D02*
D03*
Y106602D02*
D03*
Y104043D02*
D03*
Y101484D02*
D03*
X124114Y124516D02*
D03*
Y121957D02*
D03*
Y119398D02*
D03*
Y116839D02*
D03*
Y114279D02*
D03*
Y111721D02*
D03*
Y109161D02*
D03*
Y106602D02*
D03*
Y104043D02*
D03*
Y101484D02*
D03*
X100886Y163457D02*
D03*
Y160898D02*
D03*
Y158339D02*
D03*
Y155780D02*
D03*
Y153220D02*
D03*
Y150661D02*
D03*
Y148102D02*
D03*
Y145543D02*
D03*
Y142984D02*
D03*
X124114Y166016D02*
D03*
Y163457D02*
D03*
Y160898D02*
D03*
Y158339D02*
D03*
Y155780D02*
D03*
Y153220D02*
D03*
Y150661D02*
D03*
Y148102D02*
D03*
Y145543D02*
D03*
Y142984D02*
D03*
X100886Y80457D02*
D03*
Y77898D02*
D03*
Y75339D02*
D03*
Y72780D02*
D03*
Y70221D02*
D03*
Y67661D02*
D03*
Y65102D02*
D03*
Y62543D02*
D03*
Y59984D02*
D03*
X124114Y83016D02*
D03*
Y80457D02*
D03*
Y77898D02*
D03*
Y75339D02*
D03*
Y72780D02*
D03*
Y70221D02*
D03*
Y67661D02*
D03*
Y65102D02*
D03*
Y62543D02*
D03*
Y59984D02*
D03*
X100886Y38957D02*
D03*
Y36398D02*
D03*
Y33839D02*
D03*
Y31280D02*
D03*
Y28721D02*
D03*
Y26161D02*
D03*
Y23602D02*
D03*
Y21043D02*
D03*
Y18484D02*
D03*
X124114Y41516D02*
D03*
Y38957D02*
D03*
Y36398D02*
D03*
Y33839D02*
D03*
Y31280D02*
D03*
Y28721D02*
D03*
Y26161D02*
D03*
Y23602D02*
D03*
Y21043D02*
D03*
Y18484D02*
D03*
D18*
X122240Y133333D02*
D03*
X114760D02*
D03*
X122240Y175000D02*
D03*
X114760D02*
D03*
X122240Y91667D02*
D03*
X114760D02*
D03*
X122240Y50000D02*
D03*
X114760D02*
D03*
X120740Y11000D02*
D03*
X113260D02*
D03*
D28*
X112500Y124516D02*
Y166000D01*
Y12000D02*
Y41516D01*
X32000Y12000D02*
X112500D01*
Y41516D02*
Y83016D01*
Y124516D01*
D29*
Y166016D02*
X124114D01*
X112484D02*
X112500D01*
Y166000D02*
Y166016D01*
X114760Y174213D02*
Y175000D01*
X112500Y171953D02*
X114760Y174213D01*
X112500Y166016D02*
Y171953D01*
Y41516D02*
X124114D01*
X112500Y124516D02*
X124114D01*
X112500Y83016D02*
X124114D01*
D30*
X142500Y180500D02*
D03*
X152500D02*
D03*
X162500D02*
D03*
X172500D02*
D03*
X182500D02*
D03*
X192500D02*
D03*
X202500D02*
D03*
X212500D02*
D03*
X152500Y170500D02*
D03*
X162500D02*
D03*
X172500D02*
D03*
X182500D02*
D03*
X192500D02*
D03*
X202500D02*
D03*
X212500D02*
D03*
Y89167D02*
D03*
X202500D02*
D03*
X192500D02*
D03*
X182500D02*
D03*
X172500D02*
D03*
X162500D02*
D03*
X152500D02*
D03*
X212500Y99167D02*
D03*
X202500D02*
D03*
X192500D02*
D03*
X182500D02*
D03*
X172500D02*
D03*
X162500D02*
D03*
X152500D02*
D03*
X142500D02*
D03*
X212500Y48500D02*
D03*
X202500D02*
D03*
X192500D02*
D03*
X182500D02*
D03*
X172500D02*
D03*
X162500D02*
D03*
X152500D02*
D03*
X212500Y58500D02*
D03*
X202500D02*
D03*
X192500D02*
D03*
X182500D02*
D03*
X172500D02*
D03*
X162500D02*
D03*
X152500D02*
D03*
X142500D02*
D03*
Y139833D02*
D03*
X152500D02*
D03*
X162500D02*
D03*
X172500D02*
D03*
X182500D02*
D03*
X192500D02*
D03*
X202500D02*
D03*
X212500D02*
D03*
X152500Y129833D02*
D03*
X162500D02*
D03*
X172500D02*
D03*
X182500D02*
D03*
X192500D02*
D03*
X202500D02*
D03*
X212500D02*
D03*
D31*
X142500Y170500D02*
D03*
Y89167D02*
D03*
Y48500D02*
D03*
Y129833D02*
D03*
D32*
X30200Y14043D02*
D03*
X10200D02*
D03*
D33*
X12900Y180500D02*
D03*
X32900D02*
D03*
X52900D02*
D03*
X62900D02*
D03*
X72900D02*
D03*
X42900D02*
D03*
X22900D02*
D03*
X82900Y170500D02*
D03*
X72900D02*
D03*
X62900D02*
D03*
X52900D02*
D03*
X42900D02*
D03*
X32900D02*
D03*
X22900D02*
D03*
X12900D02*
D03*
X12900Y139833D02*
D03*
X32900D02*
D03*
X52900D02*
D03*
X62900D02*
D03*
X72900D02*
D03*
X42900D02*
D03*
X22900D02*
D03*
X82900Y129833D02*
D03*
X72900D02*
D03*
X62900D02*
D03*
X52900D02*
D03*
X42900D02*
D03*
X32900D02*
D03*
X22900D02*
D03*
X12900D02*
D03*
X12900Y99167D02*
D03*
X32900D02*
D03*
X52900D02*
D03*
X62900D02*
D03*
X72900D02*
D03*
X42900D02*
D03*
X22900D02*
D03*
X82900Y89167D02*
D03*
X72900D02*
D03*
X62900D02*
D03*
X52900D02*
D03*
X42900D02*
D03*
X32900D02*
D03*
X22900D02*
D03*
X12900D02*
D03*
Y58500D02*
D03*
X32900D02*
D03*
X52900D02*
D03*
X62900D02*
D03*
X72900D02*
D03*
X42900D02*
D03*
X22900D02*
D03*
X82900Y48500D02*
D03*
X72900D02*
D03*
X62900D02*
D03*
X52900D02*
D03*
X42900D02*
D03*
X32900D02*
D03*
X22900D02*
D03*
X12900D02*
D03*
D34*
X82900Y180500D02*
D03*
X82900Y139833D02*
D03*
X82900Y99167D02*
D03*
Y58500D02*
D03*
D35*
X135181Y164761D02*
D03*
Y138895D02*
D03*
X107000Y161790D02*
D03*
X134100Y97495D02*
D03*
X107000Y121000D02*
D03*
Y79414D02*
D03*
X132705Y41914D02*
D03*
X107000Y37677D02*
D03*
X5000Y4000D02*
D03*
X65962D02*
D03*
X117931D02*
D03*
X168703D02*
D03*
X218000D02*
D03*
Y62296D02*
D03*
Y105710D02*
D03*
Y146747D02*
D03*
X218000Y192000D02*
D03*
X160661D02*
D03*
X105355D02*
D03*
X52900D02*
D03*
X5000Y37290D02*
D03*
Y73638D02*
D03*
Y106602D02*
D03*
Y132722D02*
D03*
Y162600D02*
D03*
Y192000D02*
D03*
M02*
