G04*
G04 #@! TF.GenerationSoftware,Altium Limited,Altium Designer,21.6.1 (37)*
G04*
G04 Layer_Color=255*
%FSLAX25Y25*%
%MOIN*%
G70*
G04*
G04 #@! TF.SameCoordinates,01938319-B850-4C9D-A5BA-AB94FDF17EC4*
G04*
G04*
G04 #@! TF.FilePolarity,Positive*
G04*
G01*
G75*
%ADD30C,0.05906*%
%ADD31R,0.05906X0.05906*%
%ADD32C,0.09843*%
%ADD33C,0.06500*%
%ADD34R,0.06500X0.06500*%
D30*
X142500Y180500D02*
D03*
X152500D02*
D03*
X162500D02*
D03*
X172500D02*
D03*
X182500D02*
D03*
X192500D02*
D03*
X202500D02*
D03*
X212500D02*
D03*
X152500Y170500D02*
D03*
X162500D02*
D03*
X172500D02*
D03*
X182500D02*
D03*
X192500D02*
D03*
X202500D02*
D03*
X212500D02*
D03*
Y89167D02*
D03*
X202500D02*
D03*
X192500D02*
D03*
X182500D02*
D03*
X172500D02*
D03*
X162500D02*
D03*
X152500D02*
D03*
X212500Y99167D02*
D03*
X202500D02*
D03*
X192500D02*
D03*
X182500D02*
D03*
X172500D02*
D03*
X162500D02*
D03*
X152500D02*
D03*
X142500D02*
D03*
X212500Y48500D02*
D03*
X202500D02*
D03*
X192500D02*
D03*
X182500D02*
D03*
X172500D02*
D03*
X162500D02*
D03*
X152500D02*
D03*
X212500Y58500D02*
D03*
X202500D02*
D03*
X192500D02*
D03*
X182500D02*
D03*
X172500D02*
D03*
X162500D02*
D03*
X152500D02*
D03*
X142500D02*
D03*
Y139833D02*
D03*
X152500D02*
D03*
X162500D02*
D03*
X172500D02*
D03*
X182500D02*
D03*
X192500D02*
D03*
X202500D02*
D03*
X212500D02*
D03*
X152500Y129833D02*
D03*
X162500D02*
D03*
X172500D02*
D03*
X182500D02*
D03*
X192500D02*
D03*
X202500D02*
D03*
X212500D02*
D03*
D31*
X142500Y170500D02*
D03*
Y89167D02*
D03*
Y48500D02*
D03*
Y129833D02*
D03*
D32*
X30200Y14043D02*
D03*
X10200D02*
D03*
D33*
X12900Y180500D02*
D03*
X32900D02*
D03*
X52900D02*
D03*
X62900D02*
D03*
X72900D02*
D03*
X42900D02*
D03*
X22900D02*
D03*
X82900Y170500D02*
D03*
X72900D02*
D03*
X62900D02*
D03*
X52900D02*
D03*
X42900D02*
D03*
X32900D02*
D03*
X22900D02*
D03*
X12900D02*
D03*
X12900Y139833D02*
D03*
X32900D02*
D03*
X52900D02*
D03*
X62900D02*
D03*
X72900D02*
D03*
X42900D02*
D03*
X22900D02*
D03*
X82900Y129833D02*
D03*
X72900D02*
D03*
X62900D02*
D03*
X52900D02*
D03*
X42900D02*
D03*
X32900D02*
D03*
X22900D02*
D03*
X12900D02*
D03*
X12900Y99167D02*
D03*
X32900D02*
D03*
X52900D02*
D03*
X62900D02*
D03*
X72900D02*
D03*
X42900D02*
D03*
X22900D02*
D03*
X82900Y89167D02*
D03*
X72900D02*
D03*
X62900D02*
D03*
X52900D02*
D03*
X42900D02*
D03*
X32900D02*
D03*
X22900D02*
D03*
X12900D02*
D03*
Y58500D02*
D03*
X32900D02*
D03*
X52900D02*
D03*
X62900D02*
D03*
X72900D02*
D03*
X42900D02*
D03*
X22900D02*
D03*
X82900Y48500D02*
D03*
X72900D02*
D03*
X62900D02*
D03*
X52900D02*
D03*
X42900D02*
D03*
X32900D02*
D03*
X22900D02*
D03*
X12900D02*
D03*
D34*
X82900Y180500D02*
D03*
X82900Y139833D02*
D03*
X82900Y99167D02*
D03*
Y58500D02*
D03*
M02*
