G04*
G04 #@! TF.GenerationSoftware,Altium Limited,Altium Designer,21.6.1 (37)*
G04*
G04 Layer_Color=65535*
%FSLAX25Y25*%
%MOIN*%
G70*
G04*
G04 #@! TF.SameCoordinates,01938319-B850-4C9D-A5BA-AB94FDF17EC4*
G04*
G04*
G04 #@! TF.FilePolarity,Positive*
G04*
G01*
G75*
%ADD10C,0.00984*%
%ADD11C,0.02362*%
%ADD12C,0.00500*%
%ADD13C,0.00787*%
%ADD14C,0.00591*%
%ADD15C,0.01000*%
D10*
X101378Y127567D02*
X100640Y127993D01*
Y127141D01*
X101378Y127567D01*
Y169067D02*
X100640Y169493D01*
Y168641D01*
X101378Y169067D01*
Y86067D02*
X100640Y86493D01*
Y85641D01*
X101378Y86067D01*
Y44567D02*
X100640Y44993D01*
Y44141D01*
X101378Y44567D01*
D11*
X110335Y122055D02*
X109890Y122978D01*
X108891Y123207D01*
X108089Y122568D01*
Y121543D01*
X108891Y120904D01*
X109890Y121132D01*
X110335Y122055D01*
Y163555D02*
X109890Y164479D01*
X108891Y164707D01*
X108089Y164068D01*
Y163043D01*
X108891Y162404D01*
X109890Y162632D01*
X110335Y163555D01*
Y80555D02*
X109890Y81479D01*
X108891Y81707D01*
X108089Y81068D01*
Y80043D01*
X108891Y79404D01*
X109890Y79632D01*
X110335Y80555D01*
Y39055D02*
X109890Y39979D01*
X108891Y40207D01*
X108089Y39568D01*
Y38543D01*
X108891Y37904D01*
X109890Y38132D01*
X110335Y39055D01*
D12*
X217500Y160539D02*
Y190461D01*
X137500Y164476D02*
X141437Y160539D01*
X141988D01*
X217500D01*
X137500Y190461D02*
X217500D01*
X137500Y164476D02*
Y190461D01*
Y83143D02*
Y109127D01*
X217500D01*
X141988Y79206D02*
X217500D01*
X141437D02*
X141988D01*
X137500Y83143D02*
X141437Y79206D01*
X217500D02*
Y109127D01*
X137500Y42476D02*
Y68461D01*
X217500D01*
X141988Y38539D02*
X217500D01*
X141437D02*
X141988D01*
X137500Y42476D02*
X141437Y38539D01*
X217500D02*
Y68461D01*
Y119873D02*
Y149794D01*
X137500Y123810D02*
X141437Y119873D01*
X141988D01*
X217500D01*
X137500Y149794D02*
X217500D01*
X137500Y123810D02*
Y149794D01*
D13*
X105217Y100008D02*
Y125992D01*
X119783Y100008D02*
Y125992D01*
X105217D02*
X119783D01*
X105217Y100008D02*
X119783D01*
X105217Y141508D02*
Y167492D01*
X119783Y141508D02*
Y167492D01*
X105217D02*
X119783D01*
X105217Y141508D02*
X119783D01*
X105217Y58508D02*
Y84492D01*
X119783Y58508D02*
Y84492D01*
X105217D02*
X119783D01*
X105217Y58508D02*
X119783D01*
X105217Y17008D02*
Y42992D01*
X119783Y17008D02*
Y42992D01*
X105217D02*
X119783D01*
X105217Y17008D02*
X119783D01*
D14*
X118500Y129790D02*
Y136877D01*
X125193Y135302D02*
Y136877D01*
X111807D02*
X125193D01*
X111807Y135302D02*
Y136877D01*
Y129790D02*
Y131365D01*
Y129790D02*
X125193D01*
Y131365D01*
X118500Y171457D02*
Y178543D01*
X125193Y176969D02*
Y178543D01*
X111807D02*
X125193D01*
X111807Y176969D02*
Y178543D01*
Y171457D02*
Y173031D01*
Y171457D02*
X125193D01*
Y173031D01*
X118500Y88123D02*
Y95210D01*
X125193Y93635D02*
Y95210D01*
X111807D02*
X125193D01*
X111807Y93635D02*
Y95210D01*
Y88123D02*
Y89698D01*
Y88123D02*
X125193D01*
Y89698D01*
X118500Y46457D02*
Y53543D01*
X125193Y51968D02*
Y53543D01*
X111807D02*
X125193D01*
X111807Y51968D02*
Y53543D01*
Y46457D02*
Y48031D01*
Y46457D02*
X125193D01*
Y48031D01*
X117000Y7457D02*
Y14543D01*
X123693Y12968D02*
Y14543D01*
X110307D02*
X123693D01*
X110307Y12968D02*
Y14543D01*
Y7457D02*
Y9031D01*
Y7457D02*
X123693D01*
Y9031D01*
D15*
X20250Y743D02*
Y6893D01*
X22250Y4893D01*
X18250D02*
X20250Y6893D01*
X700Y543D02*
X39700D01*
X700D02*
Y30093D01*
X39700Y543D02*
Y30093D01*
X700D02*
X39700D01*
X130708Y187999D02*
X129042D01*
X129875D01*
Y183834D01*
X129042Y183001D01*
X128209D01*
X127376Y183834D01*
X132374Y187166D02*
X133207Y187999D01*
X134873D01*
X135706Y187166D01*
Y186333D01*
X134873Y185500D01*
X135706Y184667D01*
Y183834D01*
X134873Y183001D01*
X133207D01*
X132374Y183834D01*
Y184667D01*
X133207Y185500D01*
X132374Y186333D01*
Y187166D01*
X133207Y185500D02*
X134873D01*
X128903Y12666D02*
X128070Y13499D01*
X126404D01*
X125571Y12666D01*
Y9334D01*
X126404Y8501D01*
X128070D01*
X128903Y9334D01*
X133901Y13499D02*
X130569D01*
Y11000D01*
X132235Y11833D01*
X133068D01*
X133901Y11000D01*
Y9334D01*
X133068Y8501D01*
X131402D01*
X130569Y9334D01*
X104384Y176666D02*
X103550Y177499D01*
X101884D01*
X101051Y176666D01*
Y173334D01*
X101884Y172501D01*
X103550D01*
X104384Y173334D01*
X108549Y172501D02*
Y177499D01*
X106050Y175000D01*
X109382D01*
X102167Y135166D02*
X101334Y135999D01*
X99668D01*
X98835Y135166D01*
Y131834D01*
X99668Y131001D01*
X101334D01*
X102167Y131834D01*
X103833Y135166D02*
X104666Y135999D01*
X106332D01*
X107165Y135166D01*
Y134333D01*
X106332Y133500D01*
X105499D01*
X106332D01*
X107165Y132667D01*
Y131834D01*
X106332Y131001D01*
X104666D01*
X103833Y131834D01*
X102167Y93166D02*
X101334Y93999D01*
X99668D01*
X98835Y93166D01*
Y89834D01*
X99668Y89001D01*
X101334D01*
X102167Y89834D01*
X107165Y89001D02*
X103833D01*
X107165Y92333D01*
Y93166D01*
X106332Y93999D01*
X104666D01*
X103833Y93166D01*
X104000Y51666D02*
X103167Y52499D01*
X101501D01*
X100668Y51666D01*
Y48334D01*
X101501Y47501D01*
X103167D01*
X104000Y48334D01*
X105666Y47501D02*
X107332D01*
X106499D01*
Y52499D01*
X105666Y51666D01*
X17668Y36499D02*
Y31501D01*
Y33167D01*
X21000Y36499D01*
X18501Y34000D01*
X21000Y31501D01*
X22666D02*
X24332D01*
X23499D01*
Y36499D01*
X22666Y35666D01*
X141632Y115999D02*
X139966D01*
X140799D01*
Y111834D01*
X139966Y111001D01*
X139133D01*
X138300Y111834D01*
X146631Y115999D02*
X144965Y115166D01*
X143298Y113500D01*
Y111834D01*
X144131Y111001D01*
X145798D01*
X146631Y111834D01*
Y112667D01*
X145798Y113500D01*
X143298D01*
X141632Y76698D02*
X139966D01*
X140799D01*
Y72533D01*
X139966Y71700D01*
X139133D01*
X138300Y72533D01*
X145798Y71700D02*
Y76698D01*
X143298Y74199D01*
X146631D01*
X109335Y156999D02*
Y152834D01*
X110168Y152001D01*
X111834D01*
X112667Y152834D01*
Y156999D01*
X116832Y152001D02*
Y156999D01*
X114333Y154500D01*
X117665D01*
X108835Y71999D02*
Y67834D01*
X109668Y67001D01*
X111334D01*
X112167Y67834D01*
Y71999D01*
X113833Y71166D02*
X114666Y71999D01*
X116332D01*
X117165Y71166D01*
Y70333D01*
X116332Y69500D01*
X115499D01*
X116332D01*
X117165Y68667D01*
Y67834D01*
X116332Y67001D01*
X114666D01*
X113833Y67834D01*
X108835Y116999D02*
Y112834D01*
X109668Y112001D01*
X111334D01*
X112167Y112834D01*
Y116999D01*
X117165Y112001D02*
X113833D01*
X117165Y115333D01*
Y116166D01*
X116332Y116999D01*
X114666D01*
X113833Y116166D01*
X109168Y26499D02*
Y22334D01*
X110001Y21501D01*
X111667D01*
X112500Y22334D01*
Y26499D01*
X114166Y21501D02*
X115832D01*
X114999D01*
Y26499D01*
X114166Y25666D01*
X11667Y162999D02*
X10001D01*
X10834D01*
Y158834D01*
X10001Y158001D01*
X9168D01*
X8335Y158834D01*
X13333Y162999D02*
X16665D01*
Y162166D01*
X13333Y158834D01*
Y158001D01*
X6502Y81913D02*
X4835D01*
X5669D01*
Y77748D01*
X4835Y76915D01*
X4002D01*
X3169Y77748D01*
X11500Y81913D02*
X8168D01*
Y79414D01*
X9834Y80247D01*
X10667D01*
X11500Y79414D01*
Y77748D01*
X10667Y76915D01*
X9001D01*
X8168Y77748D01*
X10667Y41554D02*
X9001D01*
X9834D01*
Y37389D01*
X9001Y36556D01*
X8168D01*
X7335Y37389D01*
X12333Y40721D02*
X13166Y41554D01*
X14832D01*
X15665Y40721D01*
Y39888D01*
X14832Y39055D01*
X13999D01*
X14832D01*
X15665Y38222D01*
Y37389D01*
X14832Y36556D01*
X13166D01*
X12333Y37389D01*
X6502Y123499D02*
X4835D01*
X5669D01*
Y119334D01*
X4835Y118501D01*
X4002D01*
X3169Y119334D01*
X11500Y118501D02*
X8168D01*
X11500Y121833D01*
Y122666D01*
X10667Y123499D01*
X9001D01*
X8168Y122666D01*
X141632Y157998D02*
X139966D01*
X140799D01*
Y153833D01*
X139966Y153000D01*
X139133D01*
X138300Y153833D01*
X143298Y153000D02*
X144965D01*
X144131D01*
Y157998D01*
X143298Y157165D01*
M02*
