G04*
G04 #@! TF.GenerationSoftware,Altium Limited,Altium Designer,21.6.1 (37)*
G04*
G04 Layer_Color=16711935*
%FSLAX25Y25*%
%MOIN*%
G70*
G04*
G04 #@! TF.SameCoordinates,01938319-B850-4C9D-A5BA-AB94FDF17EC4*
G04*
G04*
G04 #@! TF.FilePolarity,Negative*
G04*
G01*
G75*
%ADD22C,0.06706*%
%ADD23R,0.06706X0.06706*%
%ADD24C,0.10642*%
%ADD25C,0.07300*%
%ADD26R,0.07300X0.07300*%
%ADD27C,0.03100*%
D22*
X142500Y180500D02*
D03*
X152500D02*
D03*
X162500D02*
D03*
X172500D02*
D03*
X182500D02*
D03*
X192500D02*
D03*
X202500D02*
D03*
X212500D02*
D03*
X152500Y170500D02*
D03*
X162500D02*
D03*
X172500D02*
D03*
X182500D02*
D03*
X192500D02*
D03*
X202500D02*
D03*
X212500D02*
D03*
Y89167D02*
D03*
X202500D02*
D03*
X192500D02*
D03*
X182500D02*
D03*
X172500D02*
D03*
X162500D02*
D03*
X152500D02*
D03*
X212500Y99167D02*
D03*
X202500D02*
D03*
X192500D02*
D03*
X182500D02*
D03*
X172500D02*
D03*
X162500D02*
D03*
X152500D02*
D03*
X142500D02*
D03*
X212500Y48500D02*
D03*
X202500D02*
D03*
X192500D02*
D03*
X182500D02*
D03*
X172500D02*
D03*
X162500D02*
D03*
X152500D02*
D03*
X212500Y58500D02*
D03*
X202500D02*
D03*
X192500D02*
D03*
X182500D02*
D03*
X172500D02*
D03*
X162500D02*
D03*
X152500D02*
D03*
X142500D02*
D03*
Y139833D02*
D03*
X152500D02*
D03*
X162500D02*
D03*
X172500D02*
D03*
X182500D02*
D03*
X192500D02*
D03*
X202500D02*
D03*
X212500D02*
D03*
X152500Y129833D02*
D03*
X162500D02*
D03*
X172500D02*
D03*
X182500D02*
D03*
X192500D02*
D03*
X202500D02*
D03*
X212500D02*
D03*
D23*
X142500Y170500D02*
D03*
Y89167D02*
D03*
Y48500D02*
D03*
Y129833D02*
D03*
D24*
X30200Y14043D02*
D03*
X10200D02*
D03*
D25*
X12900Y180500D02*
D03*
X32900D02*
D03*
X52900D02*
D03*
X62900D02*
D03*
X72900D02*
D03*
X42900D02*
D03*
X22900D02*
D03*
X82900Y170500D02*
D03*
X72900D02*
D03*
X62900D02*
D03*
X52900D02*
D03*
X42900D02*
D03*
X32900D02*
D03*
X22900D02*
D03*
X12900D02*
D03*
X12900Y139833D02*
D03*
X32900D02*
D03*
X52900D02*
D03*
X62900D02*
D03*
X72900D02*
D03*
X42900D02*
D03*
X22900D02*
D03*
X82900Y129833D02*
D03*
X72900D02*
D03*
X62900D02*
D03*
X52900D02*
D03*
X42900D02*
D03*
X32900D02*
D03*
X22900D02*
D03*
X12900D02*
D03*
X12900Y99167D02*
D03*
X32900D02*
D03*
X52900D02*
D03*
X62900D02*
D03*
X72900D02*
D03*
X42900D02*
D03*
X22900D02*
D03*
X82900Y89167D02*
D03*
X72900D02*
D03*
X62900D02*
D03*
X52900D02*
D03*
X42900D02*
D03*
X32900D02*
D03*
X22900D02*
D03*
X12900D02*
D03*
Y58500D02*
D03*
X32900D02*
D03*
X52900D02*
D03*
X62900D02*
D03*
X72900D02*
D03*
X42900D02*
D03*
X22900D02*
D03*
X82900Y48500D02*
D03*
X72900D02*
D03*
X62900D02*
D03*
X52900D02*
D03*
X42900D02*
D03*
X32900D02*
D03*
X22900D02*
D03*
X12900D02*
D03*
D26*
X82900Y180500D02*
D03*
X82900Y139833D02*
D03*
X82900Y99167D02*
D03*
Y58500D02*
D03*
D27*
X135181Y164761D02*
D03*
Y138895D02*
D03*
X107000Y161790D02*
D03*
X134100Y97495D02*
D03*
X107000Y121000D02*
D03*
Y79414D02*
D03*
X132705Y41914D02*
D03*
X107000Y37677D02*
D03*
X5000Y4000D02*
D03*
X65962D02*
D03*
X117931D02*
D03*
X168703D02*
D03*
X218000D02*
D03*
Y62296D02*
D03*
Y105710D02*
D03*
Y146747D02*
D03*
X218000Y192000D02*
D03*
X160661D02*
D03*
X105355D02*
D03*
X52900D02*
D03*
X5000Y37290D02*
D03*
Y73638D02*
D03*
Y106602D02*
D03*
Y132722D02*
D03*
Y162600D02*
D03*
Y192000D02*
D03*
M02*
