G04*
G04 #@! TF.GenerationSoftware,Altium Limited,Altium Designer,21.6.1 (37)*
G04*
G04 Layer_Color=32768*
%FSLAX25Y25*%
%MOIN*%
G70*
G04*
G04 #@! TF.SameCoordinates,01938319-B850-4C9D-A5BA-AB94FDF17EC4*
G04*
G04*
G04 #@! TF.FilePolarity,Positive*
G04*
G01*
G75*
%ADD12C,0.00500*%
%ADD36C,0.00197*%
%ADD37C,0.00394*%
D12*
X97146Y99024D02*
Y126976D01*
X127854Y99024D02*
Y126976D01*
X97146D02*
X127854D01*
X97146Y99024D02*
X127854D01*
X110531Y113000D02*
X114469D01*
X112500Y111031D02*
Y114969D01*
X97146Y140524D02*
Y168476D01*
X127854Y140524D02*
Y168476D01*
X97146D02*
X127854D01*
X97146Y140524D02*
X127854D01*
X110531Y154500D02*
X114469D01*
X112500Y152532D02*
Y156468D01*
X97146Y57524D02*
Y85476D01*
X127854Y57524D02*
Y85476D01*
X97146D02*
X127854D01*
X97146Y57524D02*
X127854D01*
X110531Y71500D02*
X114469D01*
X112500Y69532D02*
Y73469D01*
X97146Y16024D02*
Y43976D01*
X127854Y16024D02*
Y43976D01*
X97146D02*
X127854D01*
X97146Y16024D02*
X127854D01*
X110531Y30000D02*
X114469D01*
X112500Y28032D02*
Y31969D01*
D36*
X111807Y129593D02*
Y137074D01*
X125193Y129593D02*
Y137074D01*
X111807D02*
X125193D01*
X111807Y129593D02*
X125193D01*
X111807Y171260D02*
Y178740D01*
X125193Y171260D02*
Y178740D01*
X111807D02*
X125193D01*
X111807Y171260D02*
X125193D01*
X111807Y87927D02*
Y95407D01*
X125193Y87927D02*
Y95407D01*
X111807D02*
X125193D01*
X111807Y87927D02*
X125193D01*
X111807Y46260D02*
Y53740D01*
X125193Y46260D02*
Y53740D01*
X111807D02*
X125193D01*
X111807Y46260D02*
X125193D01*
X110307Y7260D02*
Y14740D01*
X123693Y7260D02*
Y14740D01*
X110307D02*
X123693D01*
X110307Y7260D02*
X123693D01*
D37*
X116532Y133333D02*
X120468D01*
X118500Y131365D02*
Y135302D01*
X116532Y175000D02*
X120468D01*
X118500Y173031D02*
Y176969D01*
X116532Y91667D02*
X120468D01*
X118500Y89698D02*
Y93635D01*
X116532Y50000D02*
X120468D01*
X118500Y48031D02*
Y51968D01*
X115032Y11000D02*
X118968D01*
X117000Y9031D02*
Y12968D01*
M02*
