M48
;Layer_Color=9474304
;FILE_FORMAT=2:4
INCH,TZ
;TYPE=PLATED
T1F00S00C0.0150
T2F00S00C0.0394
T3F00S00C0.0402
T4F00S00C0.0512
%
T01
X500Y400
Y3729
X6596Y400
X11793
X10700Y3768
X13271Y4191
X16870Y400
X21800
Y6230
Y10571
Y14675
X21800Y19200
X16066
X13518Y16476
Y13889
X13410Y9750
X10700Y7941
Y12100
Y16179
X10535Y19200
X5290
X500
Y16260
Y13272
Y10660
Y7364
T02
X14250Y4850
X15250
X16250
X17250
X18250
X19250
X20250
X21250
Y5850
Y8917
Y9917
Y12983
Y13983
Y17050
Y18050
X20250
X19250
X18250
X17250
X16250
X15250
X14250
Y17050
X15250
X16250
X17250
X18250
X19250
X20250
Y13983
X19250
X18250
X17250
X16250
X15250
X14250
Y12983
X15250
X16250
X17250
X18250
X19250
X20250
Y9917
Y8917
X19250
X18250
X17250
X16250
X15250
X14250
Y9917
X15250
X16250
X17250
X18250
X19250
Y5850
X20250
X18250
X17250
X16250
X15250
X14250
T03
X1290Y4850
X2290
X3290
X4290
X5290
X6290
X7290
X8290
Y5850
X7290
X6290
Y8917
Y9917
X7290
X8290
Y8917
X7290
X7290Y12983
Y13983
X6290
Y12983
X8290
Y13983
X8290Y17050
Y18050
X7290
X6290
Y17050
X7290
X5290
Y18050
X4290
X3290
X2290
X1290
Y17050
X2290
X3290
X4290
X4290Y13983
X3290
X2290
X1290
Y12983
X2290
X3290
X4290
X5290
Y13983
X5290Y9917
X4290
X3290
X2290
X1290
Y8917
X2290
X3290
X4290
X5290
Y5850
X4290
X3290
X2290
X1290
T04
X1020Y1404
X3020
M30
