G04*
G04 #@! TF.GenerationSoftware,Altium Limited,Altium Designer,21.0.8 (223)*
G04*
G04 Layer_Color=32768*
%FSTAX24Y24*%
%MOIN*%
G70*
G04*
G04 #@! TF.SameCoordinates,2867BDE3-1686-46F1-8F54-3A33D440E248*
G04*
G04*
G04 #@! TF.FilePolarity,Positive*
G04*
G01*
G75*
%ADD129C,0.0010*%
%ADD130C,0.0010*%
%ADD131C,0.0020*%
D129*
X073202Y024563D02*
X073202Y02346D01*
X071458Y0231D02*
Y024203D01*
X063288Y01568D02*
X063288Y016783D01*
X054038Y0173D02*
X054038Y018403D01*
X073232Y026853D02*
X073232Y02575D01*
D130*
X074265Y023578D02*
X07458D01*
X074265D02*
Y024444D01*
X07458D01*
X073202Y023578D02*
X073517D01*
Y024444D01*
X073202D02*
X073517D01*
X073202Y024563D02*
X07458D01*
Y02346D02*
Y024563D01*
X073202Y02346D02*
X07458D01*
X07008Y0231D02*
X071458D01*
X07008D02*
Y024203D01*
X071458D01*
X071143Y024084D02*
X071458D01*
X071143Y023218D02*
Y024084D01*
Y023218D02*
X071458D01*
X07008Y024084D02*
X070395D01*
Y023218D02*
Y024084D01*
X07008Y023218D02*
X070395D01*
X06191Y01568D02*
X063288D01*
X06191D02*
Y016783D01*
X063288D01*
X062973Y016664D02*
X063288D01*
X062973Y015798D02*
Y016664D01*
Y015798D02*
X063288D01*
X06191Y016664D02*
X062225D01*
Y015798D02*
Y016664D01*
X06191Y015798D02*
X062225D01*
X05266Y0173D02*
X054038D01*
X05266D02*
Y018403D01*
X054038D01*
X053723Y018284D02*
X054038D01*
X053723Y017418D02*
Y018284D01*
Y017418D02*
X054038D01*
X05266Y018284D02*
X052975D01*
Y017418D02*
Y018284D01*
X05266Y017418D02*
X052975D01*
X073232Y02575D02*
X07461D01*
Y026853D01*
X073232D02*
X07461D01*
X073232Y026734D02*
X073547D01*
Y025868D02*
Y026734D01*
X073232Y025868D02*
X073547D01*
X074295Y026734D02*
X07461D01*
X074295Y025868D02*
Y026734D01*
Y025868D02*
X07461D01*
D131*
X073221Y024876D02*
X073286D01*
X073254D01*
Y024679D01*
X073221Y024712D01*
X073385D02*
X073418Y024679D01*
X073483D01*
X073516Y024712D01*
Y024843D01*
X073483Y024876D01*
X073418D01*
X073385Y024843D01*
Y024712D01*
X073581D02*
X073614Y024679D01*
X07368D01*
X073713Y024712D01*
Y024843D01*
X07368Y024876D01*
X073614D01*
X073581Y024843D01*
Y024712D01*
X073778Y024745D02*
Y024843D01*
X073811Y024876D01*
X073909D01*
Y024745D01*
X074106Y024679D02*
X073975D01*
Y024778D01*
X074041D01*
X073975D01*
Y024876D01*
X073313Y023137D02*
X07328Y023105D01*
X073214D01*
X073181Y023137D01*
Y023269D01*
X073214Y023301D01*
X07328D01*
X073313Y023269D01*
X073378Y023301D02*
X073444D01*
X073411D01*
Y023105D01*
X073378Y023137D01*
X073542D02*
X073575Y023105D01*
X073641D01*
X073673Y023137D01*
Y023269D01*
X073641Y023301D01*
X073575D01*
X073542Y023269D01*
Y023137D01*
X071347Y022777D02*
X07138Y022745D01*
X071446D01*
X071479Y022777D01*
Y022909D01*
X071446Y022941D01*
X07138D01*
X071347Y022909D01*
X071282Y022941D02*
X071216D01*
X071249D01*
Y022745D01*
X071282Y022777D01*
X071118Y022745D02*
X070987D01*
Y022777D01*
X071118Y022909D01*
Y022941D01*
X071439Y024516D02*
X071374D01*
X071406D01*
Y024319D01*
X071439Y024352D01*
X071275D02*
X071242Y024319D01*
X071177D01*
X071144Y024352D01*
Y024483D01*
X071177Y024516D01*
X071242D01*
X071275Y024483D01*
Y024352D01*
X071079D02*
X071046Y024319D01*
X07098D01*
X070947Y024352D01*
Y024483D01*
X07098Y024516D01*
X071046D01*
X071079Y024483D01*
Y024352D01*
X070882Y024385D02*
Y024483D01*
X070849Y024516D01*
X070751D01*
Y024385D01*
X070554Y024319D02*
X070685D01*
Y024418D01*
X070619D01*
X070685D01*
Y024516D01*
X063177Y015357D02*
X06321Y015325D01*
X063276D01*
X063309Y015357D01*
Y015489D01*
X063276Y015521D01*
X06321D01*
X063177Y015489D01*
X062981Y015521D02*
X063112D01*
X062981Y01539D01*
Y015357D01*
X063013Y015325D01*
X063079D01*
X063112Y015357D01*
X062915Y015325D02*
X062784D01*
Y015357D01*
X062915Y015489D01*
Y015521D01*
X063269Y017096D02*
X063204D01*
X063236D01*
Y016899D01*
X063269Y016932D01*
X063105D02*
X063073Y016899D01*
X063007D01*
X062974Y016932D01*
Y017063D01*
X063007Y017096D01*
X063073D01*
X063105Y017063D01*
Y016932D01*
X062909D02*
X062876Y016899D01*
X06281D01*
X062777Y016932D01*
Y017063D01*
X06281Y017096D01*
X062876D01*
X062909Y017063D01*
Y016932D01*
X062712Y016965D02*
Y017063D01*
X062679Y017096D01*
X062581D01*
Y016965D01*
X062384Y016899D02*
X062515D01*
Y016998D01*
X062449D01*
X062515D01*
Y017096D01*
X053927Y016977D02*
X05396Y016945D01*
X054026D01*
X054059Y016977D01*
Y017109D01*
X054026Y017141D01*
X05396D01*
X053927Y017109D01*
X053731Y017141D02*
X053862D01*
X053731Y01701D01*
Y016977D01*
X053763Y016945D01*
X053829D01*
X053862Y016977D01*
X053665Y017109D02*
X053632Y017141D01*
X053567D01*
X053534Y017109D01*
Y016977D01*
X053567Y016945D01*
X053632D01*
X053665Y016977D01*
Y01701D01*
X053632Y017043D01*
X053534D01*
X054019Y018716D02*
X053954D01*
X053986D01*
Y018519D01*
X054019Y018552D01*
X053855D02*
X053822Y018519D01*
X053757D01*
X053724Y018552D01*
Y018683D01*
X053757Y018716D01*
X053822D01*
X053855Y018683D01*
Y018552D01*
X053659D02*
X053626Y018519D01*
X05356D01*
X053527Y018552D01*
Y018683D01*
X05356Y018716D01*
X053626D01*
X053659Y018683D01*
Y018552D01*
X053462Y018585D02*
Y018683D01*
X053429Y018716D01*
X053331D01*
Y018585D01*
X053134Y018519D02*
X053265D01*
Y018618D01*
X053199D01*
X053265D01*
Y018716D01*
X073343Y025427D02*
X07331Y025395D01*
X073244D01*
X073211Y025427D01*
Y025559D01*
X073244Y025591D01*
X07331D01*
X073343Y025559D01*
X073539Y025395D02*
X073408D01*
Y025493D01*
X073474Y02546D01*
X073507D01*
X073539Y025493D01*
Y025559D01*
X073507Y025591D01*
X073441D01*
X073408Y025559D01*
X07436Y02704D02*
X074426D01*
X074393D01*
Y026843D01*
X07436Y026876D01*
X074524D02*
X074557Y026843D01*
X074622D01*
X074655Y026876D01*
Y027007D01*
X074622Y02704D01*
X074557D01*
X074524Y027007D01*
Y026876D01*
X074721D02*
X074754Y026843D01*
X074819D01*
X074852Y026876D01*
Y027007D01*
X074819Y02704D01*
X074754D01*
X074721Y027007D01*
Y026876D01*
X074918Y026909D02*
Y027007D01*
X07495Y02704D01*
X075049D01*
Y026909D01*
X075246Y026843D02*
X075114D01*
Y026942D01*
X07518D01*
X075114D01*
Y02704D01*
M02*
