G04*
G04 #@! TF.GenerationSoftware,Altium Limited,Altium Designer,21.0.8 (223)*
G04*
G04 Layer_Color=255*
%FSTAX24Y24*%
%MOIN*%
G70*
G04*
G04 #@! TF.SameCoordinates,2867BDE3-1686-46F1-8F54-3A33D440E248*
G04*
G04*
G04 #@! TF.FilePolarity,Positive*
G04*
G01*
G75*
%ADD21R,0.0700X0.0700*%
%ADD22R,0.0354X0.0512*%
%ADD23R,0.0400X0.0591*%
%ADD24R,0.0787X0.0866*%
G04:AMPARAMS|DCode=25|XSize=63mil|YSize=86.2mil|CornerRadius=15.7mil|HoleSize=0mil|Usage=FLASHONLY|Rotation=90.000|XOffset=0mil|YOffset=0mil|HoleType=Round|Shape=RoundedRectangle|*
%AMROUNDEDRECTD25*
21,1,0.0630,0.0547,0,0,90.0*
21,1,0.0315,0.0862,0,0,90.0*
1,1,0.0315,0.0274,0.0157*
1,1,0.0315,0.0274,-0.0157*
1,1,0.0315,-0.0274,-0.0157*
1,1,0.0315,-0.0274,0.0157*
%
%ADD25ROUNDEDRECTD25*%
%ADD26R,0.0750X0.0250*%
G04:AMPARAMS|DCode=27|XSize=25mil|YSize=75mil|CornerRadius=6.3mil|HoleSize=0mil|Usage=FLASHONLY|Rotation=270.000|XOffset=0mil|YOffset=0mil|HoleType=Round|Shape=RoundedRectangle|*
%AMROUNDEDRECTD27*
21,1,0.0250,0.0625,0,0,270.0*
21,1,0.0125,0.0750,0,0,270.0*
1,1,0.0125,-0.0313,-0.0063*
1,1,0.0125,-0.0313,0.0063*
1,1,0.0125,0.0313,0.0063*
1,1,0.0125,0.0313,-0.0063*
%
%ADD27ROUNDEDRECTD27*%
%ADD28R,0.0591X0.0400*%
%ADD29R,0.0433X0.0350*%
%ADD30R,0.0700X0.0700*%
G04:AMPARAMS|DCode=31|XSize=11.8mil|YSize=59.1mil|CornerRadius=3mil|HoleSize=0mil|Usage=FLASHONLY|Rotation=0.000|XOffset=0mil|YOffset=0mil|HoleType=Round|Shape=RoundedRectangle|*
%AMROUNDEDRECTD31*
21,1,0.0118,0.0531,0,0,0.0*
21,1,0.0059,0.0591,0,0,0.0*
1,1,0.0059,0.0030,-0.0266*
1,1,0.0059,-0.0030,-0.0266*
1,1,0.0059,-0.0030,0.0266*
1,1,0.0059,0.0030,0.0266*
%
%ADD31ROUNDEDRECTD31*%
G04:AMPARAMS|DCode=32|XSize=11.8mil|YSize=59.1mil|CornerRadius=3mil|HoleSize=0mil|Usage=FLASHONLY|Rotation=90.000|XOffset=0mil|YOffset=0mil|HoleType=Round|Shape=RoundedRectangle|*
%AMROUNDEDRECTD32*
21,1,0.0118,0.0531,0,0,90.0*
21,1,0.0059,0.0591,0,0,90.0*
1,1,0.0059,0.0266,0.0030*
1,1,0.0059,0.0266,-0.0030*
1,1,0.0059,-0.0266,-0.0030*
1,1,0.0059,-0.0266,0.0030*
%
%ADD32ROUNDEDRECTD32*%
%ADD33R,0.0591X0.0118*%
G04:AMPARAMS|DCode=34|XSize=63mil|YSize=55.1mil|CornerRadius=2.8mil|HoleSize=0mil|Usage=FLASHONLY|Rotation=90.000|XOffset=0mil|YOffset=0mil|HoleType=Round|Shape=RoundedRectangle|*
%AMROUNDEDRECTD34*
21,1,0.0630,0.0496,0,0,90.0*
21,1,0.0575,0.0551,0,0,90.0*
1,1,0.0055,0.0248,0.0287*
1,1,0.0055,0.0248,-0.0287*
1,1,0.0055,-0.0248,-0.0287*
1,1,0.0055,-0.0248,0.0287*
%
%ADD34ROUNDEDRECTD34*%
G04:AMPARAMS|DCode=35|XSize=51.2mil|YSize=98.4mil|CornerRadius=2.6mil|HoleSize=0mil|Usage=FLASHONLY|Rotation=90.000|XOffset=0mil|YOffset=0mil|HoleType=Round|Shape=RoundedRectangle|*
%AMROUNDEDRECTD35*
21,1,0.0512,0.0933,0,0,90.0*
21,1,0.0461,0.0984,0,0,90.0*
1,1,0.0051,0.0467,0.0230*
1,1,0.0051,0.0467,-0.0230*
1,1,0.0051,-0.0467,-0.0230*
1,1,0.0051,-0.0467,0.0230*
%
%ADD35ROUNDEDRECTD35*%
G04:AMPARAMS|DCode=36|XSize=47.2mil|YSize=78.7mil|CornerRadius=2.4mil|HoleSize=0mil|Usage=FLASHONLY|Rotation=90.000|XOffset=0mil|YOffset=0mil|HoleType=Round|Shape=RoundedRectangle|*
%AMROUNDEDRECTD36*
21,1,0.0472,0.0740,0,0,90.0*
21,1,0.0425,0.0787,0,0,90.0*
1,1,0.0047,0.0370,0.0213*
1,1,0.0047,0.0370,-0.0213*
1,1,0.0047,-0.0370,-0.0213*
1,1,0.0047,-0.0370,0.0213*
%
%ADD36ROUNDEDRECTD36*%
G04:AMPARAMS|DCode=37|XSize=27.6mil|YSize=78.7mil|CornerRadius=1.4mil|HoleSize=0mil|Usage=FLASHONLY|Rotation=90.000|XOffset=0mil|YOffset=0mil|HoleType=Round|Shape=RoundedRectangle|*
%AMROUNDEDRECTD37*
21,1,0.0276,0.0760,0,0,90.0*
21,1,0.0248,0.0787,0,0,90.0*
1,1,0.0028,0.0380,0.0124*
1,1,0.0028,0.0380,-0.0124*
1,1,0.0028,-0.0380,-0.0124*
1,1,0.0028,-0.0380,0.0124*
%
%ADD37ROUNDEDRECTD37*%
G04:AMPARAMS|DCode=38|XSize=47.2mil|YSize=55.1mil|CornerRadius=2.4mil|HoleSize=0mil|Usage=FLASHONLY|Rotation=90.000|XOffset=0mil|YOffset=0mil|HoleType=Round|Shape=RoundedRectangle|*
%AMROUNDEDRECTD38*
21,1,0.0472,0.0504,0,0,90.0*
21,1,0.0425,0.0551,0,0,90.0*
1,1,0.0047,0.0252,0.0213*
1,1,0.0047,0.0252,-0.0213*
1,1,0.0047,-0.0252,-0.0213*
1,1,0.0047,-0.0252,0.0213*
%
%ADD38ROUNDEDRECTD38*%
%ADD39R,0.0472X0.0550*%
%ADD40R,0.0315X0.0315*%
%ADD41R,0.0350X0.0433*%
%ADD42R,0.0315X0.0315*%
%ADD90C,0.0650*%
%ADD91R,0.0650X0.0650*%
%ADD92C,0.0984*%
%ADD93O,0.0800X0.1200*%
%ADD94O,0.1800X0.1000*%
%ADD95C,0.0550*%
%ADD96C,0.0750*%
%ADD97R,0.0650X0.0900*%
%ADD98O,0.0650X0.0900*%
%ADD99O,0.0850X0.0700*%
%ADD100R,0.0850X0.0700*%
%ADD101C,0.0512*%
%ADD102R,0.0512X0.0512*%
D21*
X066554Y01927D02*
D03*
X065354D02*
D03*
X06637Y01587D02*
D03*
X06517D02*
D03*
D22*
X070444Y025571D02*
D03*
X069696D02*
D03*
X071066Y02479D02*
D03*
X071814D02*
D03*
X073556Y02053D02*
D03*
X074304D02*
D03*
X069228Y021868D02*
D03*
X069976D02*
D03*
X063588Y018309D02*
D03*
X062839D02*
D03*
X054514Y01651D02*
D03*
X053766D02*
D03*
D23*
X06967Y02479D02*
D03*
X07047D02*
D03*
X07184Y025571D02*
D03*
X07104D02*
D03*
X070002Y021118D02*
D03*
X069202D02*
D03*
X061997Y01747D02*
D03*
X062797D02*
D03*
X05224Y01655D02*
D03*
X05304D02*
D03*
X069981Y020377D02*
D03*
X069181D02*
D03*
D24*
X07014Y02365D02*
D03*
X0714D02*
D03*
X06197Y01623D02*
D03*
X06323D02*
D03*
X05272Y01785D02*
D03*
X05398D02*
D03*
D25*
X073661Y0275D02*
D03*
X077279D02*
D03*
X073661Y025827D02*
D03*
X077279D02*
D03*
Y024153D02*
D03*
X073661D02*
D03*
Y02248D02*
D03*
X077279D02*
D03*
D26*
X06805Y020368D02*
D03*
X066664Y01685D02*
D03*
X059046Y0166D02*
D03*
D27*
X06805Y020868D02*
D03*
Y021368D02*
D03*
Y021868D02*
D03*
X065826Y020368D02*
D03*
Y020868D02*
D03*
Y021368D02*
D03*
Y021868D02*
D03*
X06444Y01835D02*
D03*
Y01785D02*
D03*
Y01735D02*
D03*
Y01685D02*
D03*
X066664Y01835D02*
D03*
Y01785D02*
D03*
Y01735D02*
D03*
X059046Y0171D02*
D03*
Y0176D02*
D03*
Y0181D02*
D03*
X056821Y0166D02*
D03*
Y0171D02*
D03*
Y0176D02*
D03*
Y0181D02*
D03*
D28*
X064952Y021432D02*
D03*
Y020633D02*
D03*
D29*
X064516Y019744D02*
D03*
Y019074D02*
D03*
X06388Y019721D02*
D03*
Y019051D02*
D03*
X063214Y019721D02*
D03*
Y019051D02*
D03*
X05988Y017855D02*
D03*
Y018525D02*
D03*
D30*
X060729Y017084D02*
D03*
Y018284D02*
D03*
X05562Y01665D02*
D03*
Y01785D02*
D03*
D31*
X063198Y03065D02*
D03*
X063395D02*
D03*
X063591D02*
D03*
X063788D02*
D03*
X063985D02*
D03*
X064182D02*
D03*
X064379D02*
D03*
X064576D02*
D03*
X064773D02*
D03*
X064969D02*
D03*
X065166D02*
D03*
X065363D02*
D03*
X06556D02*
D03*
X065757D02*
D03*
X065954D02*
D03*
X066151D02*
D03*
X066347D02*
D03*
X066544D02*
D03*
X066741D02*
D03*
X066938D02*
D03*
X067135D02*
D03*
X067332D02*
D03*
X067529D02*
D03*
X067725D02*
D03*
X067922D02*
D03*
Y02443D02*
D03*
X067725D02*
D03*
X067529D02*
D03*
X067332D02*
D03*
X067135D02*
D03*
X066938D02*
D03*
X066741D02*
D03*
X066544D02*
D03*
X066347D02*
D03*
X066151D02*
D03*
X065954D02*
D03*
X065757D02*
D03*
X06556D02*
D03*
X065363D02*
D03*
X065166D02*
D03*
X064969D02*
D03*
X064773D02*
D03*
X064576D02*
D03*
X064379D02*
D03*
X064182D02*
D03*
X063985D02*
D03*
X063788D02*
D03*
X063591D02*
D03*
X063395D02*
D03*
X063198D02*
D03*
D32*
X06867Y029902D02*
D03*
Y029705D02*
D03*
Y029509D02*
D03*
Y029312D02*
D03*
Y029115D02*
D03*
Y028918D02*
D03*
Y028721D02*
D03*
Y028524D02*
D03*
Y028327D02*
D03*
Y028131D02*
D03*
Y027934D02*
D03*
Y027737D02*
D03*
Y02754D02*
D03*
Y027343D02*
D03*
Y027146D02*
D03*
Y026949D02*
D03*
Y026753D02*
D03*
Y026556D02*
D03*
Y026359D02*
D03*
Y026162D02*
D03*
Y025965D02*
D03*
Y025768D02*
D03*
Y025571D02*
D03*
Y025375D02*
D03*
Y025178D02*
D03*
X06245D02*
D03*
Y025375D02*
D03*
Y025571D02*
D03*
Y025768D02*
D03*
Y025965D02*
D03*
Y026162D02*
D03*
Y026359D02*
D03*
Y026556D02*
D03*
Y026753D02*
D03*
Y026949D02*
D03*
Y027146D02*
D03*
Y027343D02*
D03*
Y02754D02*
D03*
Y027737D02*
D03*
Y027934D02*
D03*
Y028131D02*
D03*
Y028327D02*
D03*
Y028524D02*
D03*
Y028721D02*
D03*
Y028918D02*
D03*
Y029115D02*
D03*
Y029312D02*
D03*
Y029509D02*
D03*
Y029705D02*
D03*
D33*
Y029902D02*
D03*
D34*
X072407Y034177D02*
D03*
D35*
X076187Y034532D02*
D03*
D36*
Y028429D02*
D03*
D37*
X072156Y032366D02*
D03*
Y031933D02*
D03*
Y0315D02*
D03*
Y031067D02*
D03*
Y030634D02*
D03*
Y030201D02*
D03*
Y029768D02*
D03*
Y029335D02*
D03*
Y028902D02*
D03*
D38*
X072407Y028429D02*
D03*
D39*
X076467Y02118D02*
D03*
X077293D02*
D03*
D40*
X069335Y030572D02*
D03*
X069925D02*
D03*
D41*
X074995Y02116D02*
D03*
X075665D02*
D03*
D42*
X07052Y030025D02*
D03*
Y030615D02*
D03*
D90*
X05187Y0324D02*
D03*
X05287D02*
D03*
X05387D02*
D03*
X05487D02*
D03*
X05587D02*
D03*
X05687D02*
D03*
X05887D02*
D03*
X05287Y0334D02*
D03*
X05487Y0334D02*
D03*
X05787Y0334D02*
D03*
X05687D02*
D03*
X05587Y0334D02*
D03*
X05387Y0334D02*
D03*
X05187Y0334D02*
D03*
Y028333D02*
D03*
X05287Y028333D02*
D03*
X05387D02*
D03*
X05487D02*
D03*
X05587Y028333D02*
D03*
X05687Y028333D02*
D03*
X05787D02*
D03*
X05887D02*
D03*
X05287Y029333D02*
D03*
X05487D02*
D03*
X05787D02*
D03*
X05687D02*
D03*
X05587D02*
D03*
X05387D02*
D03*
X05187D02*
D03*
Y025267D02*
D03*
X05387D02*
D03*
X05587D02*
D03*
X05687D02*
D03*
X05787D02*
D03*
X05487D02*
D03*
X05287D02*
D03*
X05887Y024267D02*
D03*
X05787Y024267D02*
D03*
X05687D02*
D03*
X05587Y024267D02*
D03*
X05487D02*
D03*
X05387Y024267D02*
D03*
X05287D02*
D03*
X05187Y024267D02*
D03*
Y0202D02*
D03*
X05287Y0202D02*
D03*
X05387Y0202D02*
D03*
X05487Y0202D02*
D03*
X05587Y0202D02*
D03*
X05687D02*
D03*
X05787Y0202D02*
D03*
X05887D02*
D03*
X05287Y0212D02*
D03*
X05487Y0212D02*
D03*
X05787Y0212D02*
D03*
X05687Y0212D02*
D03*
X05587D02*
D03*
X05387D02*
D03*
X05187D02*
D03*
D91*
X05887Y0334D02*
D03*
X05887Y029333D02*
D03*
X05887Y025267D02*
D03*
Y0212D02*
D03*
D92*
X07043Y03382D02*
D03*
X06843D02*
D03*
D93*
X07312Y018983D02*
D03*
X07412D02*
D03*
X07612D02*
D03*
X07712D02*
D03*
X0719Y01895D02*
D03*
X0709D02*
D03*
X0689D02*
D03*
X0679D02*
D03*
D94*
X07511Y016983D02*
D03*
X06989Y01695D02*
D03*
D95*
X07712Y016983D02*
D03*
Y015983D02*
D03*
X07512Y018983D02*
D03*
X07312Y016983D02*
D03*
Y015983D02*
D03*
X0679Y01595D02*
D03*
Y01695D02*
D03*
X0699Y01895D02*
D03*
X0719Y01595D02*
D03*
Y01695D02*
D03*
D96*
X070789Y020637D02*
D03*
X071789Y022637D02*
D03*
X072789Y020637D02*
D03*
D97*
X068741Y02318D02*
D03*
D98*
X067741D02*
D03*
X066741D02*
D03*
D99*
X06537Y032385D02*
D03*
Y033365D02*
D03*
D100*
Y034375D02*
D03*
D101*
X0512Y015905D02*
D03*
Y016693D02*
D03*
Y01748D02*
D03*
X06643Y032079D02*
D03*
Y032866D02*
D03*
Y033654D02*
D03*
D102*
X0512Y018267D02*
D03*
X06643Y034441D02*
D03*
M02*
