G04*
G04 #@! TF.GenerationSoftware,Altium Limited,Altium Designer,21.0.8 (223)*
G04*
G04 Layer_Color=16711935*
%FSTAX24Y24*%
%MOIN*%
G70*
G04*
G04 #@! TF.SameCoordinates,2867BDE3-1686-46F1-8F54-3A33D440E248*
G04*
G04*
G04 #@! TF.FilePolarity,Positive*
G04*
G01*
G75*
%ADD14C,0.0150*%
%ADD18C,0.0040*%
%ADD19C,0.0050*%
%ADD84C,0.0080*%
%ADD143C,0.0030*%
G36*
X061634Y032055D02*
X061448D01*
X061455Y032045D01*
X061458Y032041D01*
X061461Y032038D01*
X061464Y032034D01*
X061466Y032032D01*
X061467Y03203D01*
X061468Y03203D01*
X061471Y032027D01*
X061474Y032024D01*
X061482Y032017D01*
X06149Y032009D01*
X0615Y032001D01*
X061508Y031994D01*
X061512Y031991D01*
X061515Y031987D01*
X061518Y031985D01*
X06152Y031984D01*
X061521Y031982D01*
X061522Y031982D01*
X061531Y031974D01*
X061539Y031967D01*
X061547Y03196D01*
X061554Y031954D01*
X061561Y031948D01*
X061566Y031943D01*
X061572Y031938D01*
X061576Y031933D01*
X06158Y031929D01*
X061584Y031926D01*
X061586Y031923D01*
X061589Y03192D01*
X061592Y031917D01*
X061593Y031916D01*
X061601Y031907D01*
X061607Y031898D01*
X061613Y03189D01*
X061617Y031884D01*
X06162Y031878D01*
X061622Y031873D01*
X061623Y031871D01*
X061624Y031869D01*
X061627Y031861D01*
X06163Y031853D01*
X061632Y031845D01*
X061633Y031839D01*
X061633Y031833D01*
X061634Y031828D01*
Y031826D01*
Y031825D01*
X061633Y031816D01*
X061632Y031809D01*
X061631Y031801D01*
X061629Y031795D01*
X061623Y031782D01*
X061618Y031771D01*
X061615Y031766D01*
X061612Y031762D01*
X061609Y031759D01*
X061607Y031756D01*
X061604Y031754D01*
X061603Y031751D01*
X061602Y031751D01*
X061602Y03175D01*
X061596Y031745D01*
X061589Y03174D01*
X061582Y031736D01*
X061575Y031733D01*
X061561Y031727D01*
X061547Y031724D01*
X06154Y031723D01*
X061534Y031721D01*
X061529Y031721D01*
X061525Y03172D01*
X061521Y03172D01*
X061515D01*
X061506Y03172D01*
X061496Y031721D01*
X061488Y031723D01*
X061479Y031724D01*
X061472Y031726D01*
X061465Y031729D01*
X061458Y031731D01*
X061452Y031734D01*
X061447Y031737D01*
X061442Y031739D01*
X061438Y031742D01*
X061435Y031744D01*
X061432Y031745D01*
X061431Y031747D01*
X06143Y031748D01*
X061429Y031748D01*
X061424Y031754D01*
X061419Y03176D01*
X061414Y031766D01*
X06141Y031773D01*
X061403Y031786D01*
X061399Y031799D01*
X061397Y031805D01*
X061396Y031811D01*
X061395Y031816D01*
X061394Y03182D01*
X061393Y031824D01*
Y031827D01*
X061393Y031828D01*
Y031829D01*
X06144Y031834D01*
X061441Y031821D01*
X061443Y03181D01*
X061447Y031801D01*
X06145Y031793D01*
X061454Y031786D01*
X061457Y031782D01*
X061459Y031779D01*
X06146Y031778D01*
X061468Y031772D01*
X061477Y031767D01*
X061486Y031763D01*
X061495Y031761D01*
X061502Y031759D01*
X061509Y031759D01*
X061511Y031758D01*
X061514D01*
X061526Y031759D01*
X061536Y031761D01*
X061545Y031764D01*
X061553Y031767D01*
X061559Y031771D01*
X061562Y031774D01*
X061565Y031776D01*
X061566Y031777D01*
X061573Y031785D01*
X061578Y031792D01*
X061581Y0318D01*
X061584Y031808D01*
X061585Y031814D01*
X061586Y031819D01*
X061586Y031822D01*
Y031823D01*
Y031824D01*
X061585Y031833D01*
X061583Y031844D01*
X061579Y031853D01*
X061575Y031862D01*
X061571Y031869D01*
X061567Y031875D01*
X061566Y031877D01*
X061565Y031879D01*
X061564Y031879D01*
Y03188D01*
X06156Y031886D01*
X061554Y031892D01*
X061548Y031898D01*
X061542Y031905D01*
X061528Y031918D01*
X061514Y031931D01*
X061507Y031937D01*
X061501Y031943D01*
X061495Y031948D01*
X06149Y031952D01*
X061486Y031955D01*
X061483Y031958D01*
X061481Y03196D01*
X06148Y03196D01*
X061467Y031972D01*
X061454Y031982D01*
X061444Y031992D01*
X061436Y032D01*
X061429Y032008D01*
X061424Y032012D01*
X061421Y032016D01*
X06142Y032016D01*
Y032017D01*
X061412Y032026D01*
X061406Y032035D01*
X061401Y032044D01*
X061396Y032051D01*
X061393Y032058D01*
X061391Y032063D01*
X06139Y032066D01*
X061389Y032067D01*
Y032067D01*
X061387Y032073D01*
X061386Y032079D01*
X061385Y032084D01*
X061384Y032089D01*
X061384Y032093D01*
Y032097D01*
Y032099D01*
Y032099D01*
X061634D01*
Y032055D01*
D02*
G37*
G36*
X061198Y032105D02*
X061206Y032104D01*
X061215Y032103D01*
X061223Y032101D01*
X06123Y032099D01*
X061236Y032098D01*
X061242Y032095D01*
X061248Y032093D01*
X061252Y032092D01*
X061257Y03209D01*
X06126Y032088D01*
X061263Y032087D01*
X061264Y032086D01*
X061265Y032085D01*
X061266D01*
X061278Y032077D01*
X061288Y032068D01*
X061295Y032059D01*
X061302Y03205D01*
X061307Y032043D01*
X06131Y032036D01*
X061311Y032034D01*
X061312Y032033D01*
X061313Y032032D01*
Y032031D01*
X061315Y032024D01*
X061317Y032017D01*
X06132Y032003D01*
X061323Y031987D01*
X061324Y031973D01*
X061325Y031966D01*
X061325Y03196D01*
Y031954D01*
X061326Y031949D01*
Y031945D01*
Y031943D01*
Y03194D01*
Y03194D01*
Y031721D01*
X061276D01*
Y03194D01*
Y031952D01*
X061275Y031964D01*
X061274Y031975D01*
X061272Y031985D01*
X06127Y031993D01*
X061268Y032002D01*
X061266Y032009D01*
X061264Y032015D01*
X061262Y03202D01*
X06126Y032024D01*
X061258Y032028D01*
X061256Y032031D01*
X061254Y032033D01*
X061253Y032035D01*
X061253Y032035D01*
X061252Y032036D01*
X061247Y03204D01*
X061242Y032044D01*
X06123Y03205D01*
X061217Y032055D01*
X061204Y032057D01*
X061192Y032059D01*
X061187Y03206D01*
X061182D01*
X061179Y032061D01*
X061174D01*
X061162Y03206D01*
X061152Y032058D01*
X061142Y032057D01*
X061134Y032054D01*
X061128Y032052D01*
X061123Y03205D01*
X06112Y032049D01*
X061119Y032048D01*
X061111Y032043D01*
X061105Y032037D01*
X061099Y032031D01*
X061096Y032026D01*
X061092Y03202D01*
X06109Y032016D01*
X061088Y032014D01*
X061088Y032012D01*
X061086Y032008D01*
X061085Y032003D01*
X061083Y031991D01*
X061081Y031979D01*
X06108Y031967D01*
X06108Y031957D01*
Y031952D01*
X061079Y031948D01*
Y031945D01*
Y031942D01*
Y03194D01*
Y03194D01*
Y031721D01*
X061029D01*
Y03194D01*
Y031951D01*
X061029Y031961D01*
X06103Y031971D01*
X061031Y03198D01*
X061032Y031988D01*
X061033Y031996D01*
X061035Y032003D01*
X061036Y03201D01*
X061037Y032016D01*
X061039Y032021D01*
X06104Y032025D01*
X061041Y032028D01*
X061042Y032031D01*
X061043Y032033D01*
X061043Y032034D01*
Y032035D01*
X061049Y032047D01*
X061057Y032058D01*
X061064Y032067D01*
X061073Y032074D01*
X06108Y03208D01*
X061086Y032085D01*
X061088Y032086D01*
X06109Y032087D01*
X061091Y032088D01*
X061091D01*
X061105Y032094D01*
X061119Y032098D01*
X061134Y032101D01*
X061147Y032104D01*
X061153Y032104D01*
X061159Y032105D01*
X061165Y032105D01*
X061169D01*
X061173Y032106D01*
X061178D01*
X061198Y032105D01*
D02*
G37*
G36*
X067646Y020928D02*
X06765Y020927D01*
X067655Y020927D01*
X06766Y020925D01*
X067666Y020924D01*
X06768Y020921D01*
X067693Y020916D01*
X0677Y020912D01*
X067707Y020909D01*
X067713Y020904D01*
X06772Y020899D01*
X06772Y020898D01*
X067722Y020897D01*
X067723Y020895D01*
X067725Y020893D01*
X067728Y020891D01*
X06773Y020887D01*
X067734Y020883D01*
X067737Y020878D01*
X06774Y020872D01*
X067743Y020867D01*
X067749Y020854D01*
X067754Y020839D01*
X067756Y02083D01*
X067757Y020822D01*
X067711Y020816D01*
Y020816D01*
X06771Y020817D01*
X06771Y02082D01*
X067709Y020822D01*
X067708Y020826D01*
X067707Y020829D01*
X067705Y020838D01*
X067701Y020847D01*
X067696Y020857D01*
X06769Y020865D01*
X067684Y020873D01*
X067683Y020874D01*
X067681Y020876D01*
X067676Y020878D01*
X067671Y020881D01*
X067664Y020884D01*
X067656Y020887D01*
X067647Y020889D01*
X067637Y02089D01*
X067634D01*
X067631Y020889D01*
X067625Y020889D01*
X067618Y020887D01*
X067609Y020884D01*
X0676Y020881D01*
X067591Y020875D01*
X067582Y020868D01*
X067581Y020866D01*
X067578Y020863D01*
X067575Y020858D01*
X06757Y020852D01*
X067566Y020844D01*
X067563Y020834D01*
X06756Y020823D01*
X067559Y020811D01*
Y020811D01*
Y02081D01*
Y020808D01*
X067559Y020806D01*
X06756Y0208D01*
X067562Y020793D01*
X067564Y020784D01*
X067568Y020775D01*
X067573Y020767D01*
X06758Y020758D01*
X067581Y020757D01*
X067584Y020755D01*
X067588Y020752D01*
X067594Y020748D01*
X067602Y020744D01*
X067611Y020741D01*
X067622Y020739D01*
X067633Y020738D01*
X067638D01*
X067642Y020738D01*
X067647Y020739D01*
X067652Y02074D01*
X067659Y020741D01*
X067666Y020743D01*
X06766Y020702D01*
X067658D01*
X067656Y020702D01*
X067648D01*
X067642Y020701D01*
X067635Y0207D01*
X067627Y020698D01*
X067618Y020696D01*
X067609Y020692D01*
X0676Y020687D01*
X067599D01*
X067599Y020686D01*
X067596Y020684D01*
X067592Y02068D01*
X067588Y020675D01*
X067583Y020668D01*
X06758Y02066D01*
X067577Y020651D01*
X067576Y020645D01*
Y020639D01*
Y020639D01*
Y020638D01*
Y020635D01*
X067577Y020631D01*
X067578Y020625D01*
X06758Y020618D01*
X067583Y020611D01*
X067587Y020604D01*
X067593Y020597D01*
X067594Y020597D01*
X067597Y020595D01*
X0676Y020592D01*
X067605Y020589D01*
X067612Y020586D01*
X067619Y020583D01*
X067628Y020581D01*
X067638Y02058D01*
X067642D01*
X067647Y020581D01*
X067654Y020583D01*
X067661Y020585D01*
X067668Y020587D01*
X067676Y020592D01*
X067683Y020597D01*
X067683Y020598D01*
X067686Y020601D01*
X067689Y020604D01*
X067693Y02061D01*
X067696Y020617D01*
X0677Y020626D01*
X067704Y020636D01*
X067706Y020648D01*
X067752Y02064D01*
Y020639D01*
X067752Y020638D01*
X067751Y020636D01*
X067751Y020632D01*
X067749Y020628D01*
X067748Y020624D01*
X067744Y020614D01*
X067739Y020602D01*
X067732Y02059D01*
X067724Y020578D01*
X067714Y020568D01*
X067713Y020567D01*
X067712Y020567D01*
X067711Y020566D01*
X067708Y020564D01*
X067706Y020562D01*
X067702Y02056D01*
X067698Y020557D01*
X067693Y020555D01*
X067682Y02055D01*
X06767Y020546D01*
X067655Y020543D01*
X067647Y020542D01*
X067634D01*
X067628Y020543D01*
X067621Y020544D01*
X067612Y020545D01*
X067602Y020548D01*
X067592Y020551D01*
X067582Y020556D01*
X067582D01*
X067581Y020556D01*
X067578Y020558D01*
X067573Y020561D01*
X067568Y020565D01*
X067561Y020571D01*
X067554Y020577D01*
X067548Y020584D01*
X067542Y020592D01*
X067542Y020593D01*
X06754Y020596D01*
X067538Y020601D01*
X067535Y020607D01*
X067533Y020614D01*
X06753Y020622D01*
X067529Y020631D01*
X067528Y02064D01*
Y020642D01*
Y020645D01*
X067529Y020649D01*
X06753Y020655D01*
X067532Y020662D01*
X067534Y02067D01*
X067538Y020678D01*
X067542Y020685D01*
X067542Y020686D01*
X067544Y020688D01*
X067547Y020692D01*
X067552Y020697D01*
X067557Y020702D01*
X067564Y020707D01*
X067571Y020712D01*
X067581Y020717D01*
X06758D01*
X067579Y020717D01*
X067577Y020718D01*
X067575Y020719D01*
X067569Y020721D01*
X067562Y020724D01*
X067553Y020728D01*
X067544Y020734D01*
X067536Y020741D01*
X067528Y020749D01*
X067528Y02075D01*
X067526Y020753D01*
X067522Y020759D01*
X067519Y020766D01*
X067516Y020775D01*
X067512Y020785D01*
X06751Y020797D01*
X06751Y02081D01*
Y020811D01*
Y020812D01*
Y020815D01*
X06751Y020818D01*
X067511Y020823D01*
X067512Y020828D01*
X067513Y020833D01*
X067514Y020839D01*
X067518Y020852D01*
X067522Y020859D01*
X067525Y020866D01*
X067529Y020873D01*
X067534Y02088D01*
X06754Y020887D01*
X067546Y020894D01*
X067547Y020894D01*
X067548Y020895D01*
X06755Y020897D01*
X067553Y020899D01*
X067556Y020902D01*
X067561Y020905D01*
X067565Y020908D01*
X067571Y020911D01*
X067577Y020914D01*
X067585Y020917D01*
X067592Y02092D01*
X0676Y020923D01*
X067609Y020925D01*
X067618Y020927D01*
X067627Y020928D01*
X067637Y020928D01*
X067642D01*
X067646Y020928D01*
D02*
G37*
G36*
X067979D02*
X067983D01*
X067989Y020927D01*
X067995Y020927D01*
X068001Y020926D01*
X068014Y020924D01*
X068029Y020921D01*
X068043Y020916D01*
X068057Y02091D01*
X068057D01*
X068058Y020909D01*
X06806Y020908D01*
X068062Y020907D01*
X068068Y020903D01*
X068075Y020897D01*
X068084Y020889D01*
X068091Y02088D01*
X068099Y020869D01*
X068105Y020857D01*
Y020857D01*
X068105Y020856D01*
X068106Y020853D01*
X068107Y020851D01*
X068108Y020847D01*
X068109Y020843D01*
X068111Y020838D01*
X068112Y020832D01*
X068113Y020826D01*
X068115Y020818D01*
X068116Y020811D01*
X068117Y020803D01*
X068118Y020793D01*
X068119Y020783D01*
X068119Y020773D01*
Y020762D01*
Y020544D01*
X068069D01*
Y020762D01*
Y020763D01*
Y020764D01*
Y020767D01*
Y02077D01*
X068068Y020774D01*
Y020779D01*
X068068Y020789D01*
X068067Y020802D01*
X068065Y020814D01*
X068063Y020825D01*
X068062Y02083D01*
X06806Y020835D01*
X06806Y020836D01*
X068058Y020839D01*
X068056Y020842D01*
X068052Y020848D01*
X068049Y020853D01*
X068043Y020859D01*
X068037Y020865D01*
X068029Y02087D01*
X068028Y020871D01*
X068025Y020872D01*
X06802Y020874D01*
X068014Y020876D01*
X068006Y020879D01*
X067996Y020881D01*
X067986Y020882D01*
X067974Y020883D01*
X067969D01*
X067966Y020882D01*
X067961D01*
X067956Y020882D01*
X067944Y02088D01*
X067931Y020877D01*
X067918Y020872D01*
X067906Y020866D01*
X067901Y020863D01*
X067896Y020858D01*
X067895Y020858D01*
X067895Y020857D01*
X067894Y020856D01*
X067892Y020853D01*
X06789Y02085D01*
X067888Y020847D01*
X067886Y020842D01*
X067884Y020837D01*
X067882Y020831D01*
X06788Y020824D01*
X067878Y020816D01*
X067876Y020807D01*
X067874Y020797D01*
X067873Y020787D01*
X067872Y020775D01*
Y020762D01*
Y020544D01*
X067822D01*
Y020762D01*
Y020763D01*
Y020765D01*
Y020768D01*
Y020771D01*
X067823Y020776D01*
Y020782D01*
X067823Y020788D01*
X067824Y020795D01*
X067825Y02081D01*
X067827Y020825D01*
X067831Y02084D01*
X067833Y020847D01*
X067835Y020853D01*
Y020854D01*
X067836Y020855D01*
X067837Y020857D01*
X067838Y020859D01*
X067841Y020865D01*
X067846Y020872D01*
X067853Y020881D01*
X06786Y02089D01*
X06787Y020899D01*
X067882Y020907D01*
X067883D01*
X067884Y020909D01*
X067885Y020909D01*
X067888Y020911D01*
X067891Y020912D01*
X067896Y020914D01*
X0679Y020916D01*
X067906Y020918D01*
X067912Y02092D01*
X067918Y020922D01*
X067925Y020923D01*
X067933Y020925D01*
X067942Y020926D01*
X06795Y020927D01*
X06797Y020928D01*
X067975D01*
X067979Y020928D01*
D02*
G37*
G36*
X066593Y017409D02*
X066597D01*
X066603Y017409D01*
X066609Y017408D01*
X066615Y017408D01*
X066628Y017405D01*
X066643Y017402D01*
X066657Y017398D01*
X066671Y017392D01*
X066672D01*
X066673Y017391D01*
X066674Y01739D01*
X066677Y017388D01*
X066683Y017384D01*
X06669Y017378D01*
X066698Y01737D01*
X066705Y017362D01*
X066713Y017351D01*
X066719Y017339D01*
Y017338D01*
X06672Y017337D01*
X06672Y017335D01*
X066721Y017332D01*
X066722Y017329D01*
X066723Y017325D01*
X066725Y01732D01*
X066726Y017314D01*
X066727Y017307D01*
X066729Y0173D01*
X06673Y017292D01*
X066731Y017284D01*
X066732Y017275D01*
X066733Y017265D01*
X066733Y017255D01*
Y017244D01*
Y017025D01*
X066683D01*
Y017244D01*
Y017244D01*
Y017246D01*
Y017249D01*
Y017252D01*
X066683Y017256D01*
Y017261D01*
X066682Y017271D01*
X066681Y017283D01*
X066679Y017295D01*
X066677Y017307D01*
X066676Y017311D01*
X066674Y017316D01*
X066674Y017317D01*
X066673Y01732D01*
X06667Y017324D01*
X066667Y017329D01*
X066663Y017335D01*
X066657Y017341D01*
X066651Y017347D01*
X066643Y017352D01*
X066642Y017352D01*
X066639Y017354D01*
X066634Y017356D01*
X066628Y017358D01*
X06662Y017361D01*
X06661Y017362D01*
X0666Y017364D01*
X066589Y017364D01*
X066583D01*
X06658Y017364D01*
X066575D01*
X06657Y017363D01*
X066558Y017361D01*
X066545Y017358D01*
X066532Y017354D01*
X06652Y017348D01*
X066515Y017344D01*
X06651Y01734D01*
X066509Y017339D01*
X066509Y017339D01*
X066508Y017337D01*
X066506Y017335D01*
X066505Y017332D01*
X066502Y017328D01*
X0665Y017323D01*
X066498Y017319D01*
X066496Y017313D01*
X066494Y017305D01*
X066492Y017297D01*
X06649Y017288D01*
X066489Y017279D01*
X066488Y017268D01*
X066487Y017256D01*
Y017244D01*
Y017025D01*
X066436D01*
Y017244D01*
Y017244D01*
Y017246D01*
Y017249D01*
Y017253D01*
X066437Y017258D01*
Y017263D01*
X066437Y01727D01*
X066438Y017276D01*
X06644Y017291D01*
X066442Y017307D01*
X066445Y017321D01*
X066447Y017328D01*
X066449Y017335D01*
Y017335D01*
X06645Y017337D01*
X066451Y017338D01*
X066452Y01734D01*
X066455Y017346D01*
X06646Y017354D01*
X066467Y017363D01*
X066474Y017371D01*
X066484Y017381D01*
X066496Y017389D01*
X066497D01*
X066498Y01739D01*
X0665Y017391D01*
X066502Y017392D01*
X066506Y017394D01*
X06651Y017396D01*
X066514Y017397D01*
X06652Y017399D01*
X066526Y017402D01*
X066532Y017403D01*
X066539Y017405D01*
X066548Y017406D01*
X066556Y017408D01*
X066565Y017409D01*
X066584Y01741D01*
X066589D01*
X066593Y017409D01*
D02*
G37*
G36*
X066223Y017313D02*
X066388D01*
Y01727D01*
X066215Y017025D01*
X066177D01*
Y01727D01*
X066126D01*
Y017313D01*
X066177D01*
Y017403D01*
X066223D01*
Y017313D01*
D02*
G37*
G36*
X058641Y017159D02*
X058645Y017159D01*
X05865Y017158D01*
X058656Y017158D01*
X058662Y017156D01*
X058675Y017153D01*
X058689Y017148D01*
X058696Y017144D01*
X058703Y017141D01*
X05871Y017136D01*
X058716Y017131D01*
X058717Y017131D01*
X058718Y01713D01*
X058719Y017128D01*
X058721Y017126D01*
X058724Y017123D01*
X058727Y01712D01*
X05873Y017115D01*
X058733Y017111D01*
X058736Y017106D01*
X058739Y0171D01*
X058745Y017087D01*
X05875Y017071D01*
X058752Y017063D01*
X058753Y017054D01*
X058704Y01705D01*
Y017051D01*
Y017052D01*
X058704Y017054D01*
X058703Y017057D01*
X058702Y017063D01*
X058699Y017071D01*
X058696Y017079D01*
X058692Y017088D01*
X058686Y017096D01*
X05868Y017104D01*
X058679Y017105D01*
X058677Y017107D01*
X058672Y017109D01*
X058666Y017113D01*
X05866Y017116D01*
X058651Y017119D01*
X058642Y017121D01*
X058632Y017121D01*
X058628D01*
X058626Y017121D01*
X05862Y01712D01*
X058612Y017118D01*
X058603Y017115D01*
X058594Y017111D01*
X058584Y017105D01*
X058579Y017101D01*
X058575Y017096D01*
X058574Y017096D01*
X058574Y017095D01*
X058573Y017094D01*
X058571Y017092D01*
X058567Y017086D01*
X058563Y017078D01*
X058559Y017069D01*
X058555Y017058D01*
X058553Y017044D01*
X058552Y017037D01*
Y017029D01*
Y017029D01*
Y017028D01*
Y017025D01*
X058552Y017023D01*
Y017019D01*
X058553Y017016D01*
X058554Y017007D01*
X058557Y016996D01*
X058561Y016986D01*
X058566Y016976D01*
X058574Y016967D01*
Y016966D01*
X058575Y016966D01*
X058578Y016963D01*
X058583Y016959D01*
X058589Y016955D01*
X058598Y016951D01*
X058608Y016947D01*
X058619Y016945D01*
X058626Y016943D01*
X058636D01*
X058641Y016944D01*
X058646Y016945D01*
X058653Y016946D01*
X058659Y016948D01*
X058666Y016951D01*
X058673Y016954D01*
X058674Y016954D01*
X058676Y016955D01*
X058679Y016958D01*
X058684Y016961D01*
X058688Y016965D01*
X058692Y01697D01*
X058697Y016975D01*
X058701Y016981D01*
X058745Y016975D01*
X058708Y01678D01*
X05852D01*
Y016824D01*
X058672D01*
X058692Y016927D01*
X058691Y016926D01*
X05869Y016925D01*
X058689Y016924D01*
X058686Y016923D01*
X058683Y016921D01*
X058679Y016919D01*
X05867Y016915D01*
X058659Y01691D01*
X058647Y016906D01*
X058634Y016904D01*
X058627Y016903D01*
X058615D01*
X058612Y016903D01*
X058608Y016904D01*
X058603Y016904D01*
X058597Y016905D01*
X058591Y016907D01*
X058578Y016911D01*
X058571Y016913D01*
X058564Y016917D01*
X058557Y016921D01*
X05855Y016925D01*
X058543Y016931D01*
X058537Y016937D01*
X058536Y016937D01*
X058535Y016939D01*
X058533Y01694D01*
X058531Y016943D01*
X058529Y016947D01*
X058526Y016951D01*
X058523Y016955D01*
X058519Y016961D01*
X058517Y016967D01*
X058513Y016974D01*
X058511Y016981D01*
X058508Y016989D01*
X058506Y016997D01*
X058504Y017006D01*
X058503Y017016D01*
X058502Y017025D01*
Y017026D01*
Y017028D01*
Y01703D01*
X058503Y017034D01*
X058503Y017038D01*
X058504Y017043D01*
X058505Y017049D01*
X058506Y017055D01*
X058509Y01707D01*
X058515Y017084D01*
X058518Y017092D01*
X058523Y017099D01*
X058527Y017107D01*
X058532Y017114D01*
X058533Y017114D01*
X058534Y017116D01*
X058536Y017118D01*
X058539Y017121D01*
X058543Y017124D01*
X058547Y017129D01*
X058553Y017132D01*
X058559Y017137D01*
X058565Y017141D01*
X058573Y017145D01*
X058581Y017149D01*
X05859Y017153D01*
X058599Y017155D01*
X058609Y017158D01*
X05862Y017159D01*
X058632Y01716D01*
X058637D01*
X058641Y017159D01*
D02*
G37*
G36*
X058974D02*
X058978D01*
X058984Y017159D01*
X05899Y017158D01*
X058996Y017158D01*
X05901Y017155D01*
X059024Y017152D01*
X059039Y017148D01*
X059052Y017142D01*
X059053D01*
X059054Y017141D01*
X059055Y01714D01*
X059058Y017138D01*
X059064Y017134D01*
X059071Y017128D01*
X059079Y01712D01*
X059087Y017112D01*
X059094Y017101D01*
X0591Y017089D01*
Y017088D01*
X059101Y017087D01*
X059101Y017085D01*
X059102Y017082D01*
X059104Y017079D01*
X059105Y017075D01*
X059106Y01707D01*
X059107Y017064D01*
X059108Y017057D01*
X05911Y01705D01*
X059111Y017042D01*
X059112Y017034D01*
X059113Y017025D01*
X059114Y017015D01*
X059114Y017005D01*
Y016994D01*
Y016775D01*
X059064D01*
Y016994D01*
Y016994D01*
Y016996D01*
Y016999D01*
Y017002D01*
X059064Y017006D01*
Y017011D01*
X059063Y017021D01*
X059062Y017033D01*
X05906Y017045D01*
X059058Y017057D01*
X059057Y017061D01*
X059055Y017066D01*
X059055Y017067D01*
X059054Y01707D01*
X059051Y017074D01*
X059048Y017079D01*
X059044Y017085D01*
X059039Y017091D01*
X059032Y017097D01*
X059024Y017102D01*
X059023Y017102D01*
X059021Y017104D01*
X059016Y017106D01*
X059009Y017108D01*
X059001Y017111D01*
X058992Y017112D01*
X058981Y017114D01*
X05897Y017114D01*
X058964D01*
X058961Y017114D01*
X058956D01*
X058951Y017113D01*
X058939Y017111D01*
X058926Y017108D01*
X058914Y017104D01*
X058901Y017098D01*
X058896Y017094D01*
X058891Y01709D01*
X058891Y017089D01*
X05889Y017089D01*
X058889Y017087D01*
X058887Y017085D01*
X058886Y017082D01*
X058883Y017078D01*
X058881Y017073D01*
X058879Y017069D01*
X058877Y017063D01*
X058875Y017055D01*
X058873Y017047D01*
X058871Y017038D01*
X05887Y017029D01*
X058869Y017018D01*
X058868Y017006D01*
Y016994D01*
Y016775D01*
X058817D01*
Y016994D01*
Y016994D01*
Y016996D01*
Y016999D01*
Y017003D01*
X058818Y017008D01*
Y017013D01*
X058818Y01702D01*
X058819Y017026D01*
X058821Y017041D01*
X058823Y017057D01*
X058826Y017071D01*
X058828Y017078D01*
X058831Y017085D01*
Y017085D01*
X058831Y017087D01*
X058832Y017088D01*
X058833Y01709D01*
X058837Y017096D01*
X058841Y017104D01*
X058848Y017113D01*
X058856Y017121D01*
X058865Y017131D01*
X058877Y017139D01*
X058878D01*
X058879Y01714D01*
X058881Y017141D01*
X058883Y017142D01*
X058887Y017144D01*
X058891Y017146D01*
X058895Y017147D01*
X058901Y017149D01*
X058907Y017152D01*
X058914Y017153D01*
X058921Y017155D01*
X058929Y017156D01*
X058937Y017158D01*
X058946Y017159D01*
X058965Y01716D01*
X05897D01*
X058974Y017159D01*
D02*
G37*
G36*
X063898Y027613D02*
Y027612D01*
Y027609D01*
Y027604D01*
Y027598D01*
X063897Y027589D01*
Y02758D01*
X063896Y027569D01*
X063895Y027558D01*
X063892Y027533D01*
X063889Y027507D01*
X063883Y027482D01*
X063879Y02747D01*
X063876Y027459D01*
Y027458D01*
X063875Y027456D01*
X063873Y027453D01*
X063871Y02745D01*
X063865Y027439D01*
X063857Y027426D01*
X063846Y027412D01*
X063833Y027397D01*
X063816Y027381D01*
X063796Y027367D01*
X063795D01*
X063793Y027365D01*
X063791Y027364D01*
X063786Y027362D01*
X06378Y027359D01*
X063773Y027356D01*
X063766Y027353D01*
X063756Y02735D01*
X063746Y027346D01*
X063735Y027343D01*
X063723Y02734D01*
X063709Y027338D01*
X063695Y027336D01*
X06368Y027334D01*
X063647Y027332D01*
X063639D01*
X063632Y027333D01*
X063625D01*
X063616Y027334D01*
X063606Y027335D01*
X063595Y027336D01*
X063572Y027339D01*
X063547Y027345D01*
X063523Y027352D01*
X0635Y027363D01*
X063499D01*
X063497Y027364D01*
X063495Y027366D01*
X063491Y027368D01*
X063481Y027376D01*
X063469Y027386D01*
X063455Y027399D01*
X063442Y027413D01*
X063429Y027432D01*
X063419Y027452D01*
Y027453D01*
X063418Y027455D01*
X063417Y027459D01*
X063415Y027463D01*
X063413Y027469D01*
X063411Y027476D01*
X063409Y027485D01*
X063407Y027495D01*
X063405Y027506D01*
X063402Y027518D01*
X0634Y027531D01*
X063398Y027545D01*
X063397Y027561D01*
X063396Y027577D01*
X063395Y027595D01*
Y027613D01*
Y027983D01*
X06348D01*
Y027613D01*
Y027612D01*
Y02761D01*
Y027605D01*
Y027599D01*
X063481Y027593D01*
Y027585D01*
X063482Y027567D01*
X063483Y027547D01*
X063486Y027526D01*
X06349Y027507D01*
X063492Y027499D01*
X063495Y02749D01*
X063495Y027488D01*
X063497Y027484D01*
X063502Y027477D01*
X063507Y027468D01*
X063514Y027459D01*
X063523Y027449D01*
X063534Y027438D01*
X063547Y02743D01*
X063549Y027429D01*
X063554Y027426D01*
X063562Y027424D01*
X063573Y02742D01*
X063586Y027415D01*
X063603Y027413D01*
X06362Y02741D01*
X06364Y027409D01*
X063649D01*
X063655Y02741D01*
X063663D01*
X063671Y027411D01*
X063692Y027414D01*
X063714Y027419D01*
X063735Y027426D01*
X063755Y027437D01*
X063765Y027443D01*
X063773Y02745D01*
X063774Y027451D01*
X063775Y027452D01*
X063777Y027455D01*
X063779Y027459D01*
X063782Y027464D01*
X063786Y02747D01*
X06379Y027478D01*
X063793Y027487D01*
X063797Y027497D01*
X0638Y027509D01*
X063804Y027523D01*
X063806Y027537D01*
X063809Y027554D01*
X063811Y027572D01*
X063813Y027592D01*
Y027613D01*
Y027983D01*
X063898D01*
Y027613D01*
D02*
G37*
G36*
X064303Y027343D02*
X064224D01*
Y027844D01*
X064223Y027843D01*
X064219Y027839D01*
X064213Y027833D01*
X064204Y027827D01*
X064194Y027819D01*
X064181Y027809D01*
X064166Y027799D01*
X064149Y027789D01*
X064149D01*
X064148Y027788D01*
X064142Y027784D01*
X064133Y02778D01*
X064122Y027774D01*
X064109Y027768D01*
X064095Y027761D01*
X064081Y027755D01*
X064067Y027749D01*
Y027825D01*
X064068D01*
X06407Y027827D01*
X064074Y027828D01*
X064078Y027831D01*
X064084Y027833D01*
X06409Y027837D01*
X064106Y027846D01*
X064124Y027857D01*
X064143Y027869D01*
X064162Y027884D01*
X064182Y0279D01*
X064183Y027901D01*
X064184Y027902D01*
X064186Y027905D01*
X06419Y027907D01*
X064198Y027917D01*
X06421Y027928D01*
X064221Y027941D01*
X064233Y027956D01*
X064243Y02797D01*
X064252Y027986D01*
X064303D01*
Y027343D01*
D02*
G37*
%LPC*%
G36*
X066342Y01727D02*
X066223D01*
Y017101D01*
X066342Y01727D01*
D02*
G37*
%LPD*%
D14*
X072Y02298D02*
G03*
X072Y02298I-00001J0D01*
G01*
X06686Y01544D02*
G03*
X06686Y01544I-00001J0D01*
G01*
X0552Y01617D02*
G03*
X0552Y01617I-00001J0D01*
G01*
D18*
X067794Y02082D02*
G03*
X067794Y02082I-000014J0D01*
G01*
X070664Y025312D02*
G03*
X070664Y025312I-000014J0D01*
G01*
X070684Y02449D02*
G03*
X070684Y02449I-000014J0D01*
G01*
X070874Y02505D02*
G03*
X070874Y02505I-000014J0D01*
G01*
X072054Y025271D02*
G03*
X072054Y025271I-000014J0D01*
G01*
X073364Y02079D02*
G03*
X073364Y02079I-000014J0D01*
G01*
X070196Y021608D02*
G03*
X070196Y021608I-000014J0D01*
G01*
X069016Y021418D02*
G03*
X069016Y021418I-000014J0D01*
G01*
X065266Y021632D02*
G03*
X065266Y021632I-000014J0D01*
G01*
X068995Y020677D02*
G03*
X068995Y020677I-000014J0D01*
G01*
X07211Y02286D02*
Y02445D01*
X06937Y02286D02*
X07211Y02286D01*
X06937Y02286D02*
Y02445D01*
X07211D01*
X06697Y01532D02*
Y01642D01*
X06457Y01532D02*
X06697Y01532D01*
X06457Y01532D02*
Y01642D01*
X06697D01*
X05507Y01605D02*
X05617D01*
X05507D02*
X05507Y01845D01*
X05617D01*
Y01605D02*
Y01845D01*
D19*
X06779Y02119D02*
Y02094D01*
X067915D01*
X067957Y020982D01*
Y021065D01*
X067915Y021107D01*
X06779D01*
X067873D02*
X067957Y02119D01*
X068207Y02094D02*
X06804D01*
Y021065D01*
X068123Y021023D01*
X068165D01*
X068207Y021065D01*
Y021148D01*
X068165Y02119D01*
X068082D01*
X06804Y021148D01*
X070483Y025453D02*
X070525Y025412D01*
X070608D01*
X07065Y025453D01*
Y02562D01*
X070608Y025661D01*
X070525D01*
X070483Y02562D01*
X0704Y025661D02*
X070317D01*
X070358D01*
Y025412D01*
X0704Y025453D01*
X070192D02*
X07015Y025412D01*
X070067D01*
X070025Y025453D01*
Y025495D01*
X070067Y025537D01*
X070025Y025578D01*
Y02562D01*
X070067Y025661D01*
X07015D01*
X070192Y02562D01*
Y025578D01*
X07015Y025537D01*
X070192Y025495D01*
Y025453D01*
X07015Y025537D02*
X070067D01*
X07066Y02486D02*
Y02461D01*
X070535D01*
X070493Y024652D01*
Y024735D01*
X070535Y024777D01*
X07066D01*
X070577D02*
X070493Y02486D01*
X070243Y02461D02*
X070327Y024652D01*
X07041Y024735D01*
Y024818D01*
X070368Y02486D01*
X070285D01*
X070243Y024818D01*
Y024777D01*
X070285Y024735D01*
X07041D01*
X071027Y024908D02*
X070985Y02495D01*
X070902D01*
X07086Y024908D01*
Y024742D01*
X070902Y0247D01*
X070985D01*
X071027Y024742D01*
X071277Y0247D02*
X07111D01*
X071277Y024867D01*
Y024908D01*
X071235Y02495D01*
X071152D01*
X07111Y024908D01*
X07136D02*
X071401Y02495D01*
X071485D01*
X071526Y024908D01*
Y024742D01*
X071485Y0247D01*
X071401D01*
X07136Y024742D01*
Y024908D01*
X07203Y025641D02*
Y025392D01*
X071905D01*
X071863Y025433D01*
Y025517D01*
X071905Y025558D01*
X07203D01*
X071947D02*
X071863Y025641D01*
X071655D02*
Y025392D01*
X07178Y025517D01*
X071613D01*
X073517Y020648D02*
X073475Y02069D01*
X073392D01*
X07335Y020648D01*
Y020482D01*
X073392Y02044D01*
X073475D01*
X073517Y020482D01*
X0736Y02044D02*
X073683D01*
X073642D01*
Y02069D01*
X0736Y020648D01*
X073808Y020482D02*
X07385Y02044D01*
X073933D01*
X073975Y020482D01*
Y020648D01*
X073933Y02069D01*
X07385D01*
X073808Y020648D01*
Y020607D01*
X07385Y020565D01*
X073975D01*
X070015Y02175D02*
X070057Y021709D01*
X07014D01*
X070182Y02175D01*
Y021917D01*
X07014Y021958D01*
X070057D01*
X070015Y021917D01*
X069766Y021958D02*
X069932D01*
X069766Y021792D01*
Y02175D01*
X069807Y021709D01*
X06989D01*
X069932Y02175D01*
X069682Y021958D02*
X069599D01*
X069641D01*
Y021709D01*
X069682Y02175D01*
X069012Y021048D02*
Y021298D01*
X069137D01*
X069179Y021257D01*
Y021173D01*
X069137Y021132D01*
X069012D01*
X069095D02*
X069179Y021048D01*
X069262Y021257D02*
X069304Y021298D01*
X069387D01*
X069429Y021257D01*
Y021215D01*
X069387Y021173D01*
X069429Y021132D01*
Y02109D01*
X069387Y021048D01*
X069304D01*
X069262Y02109D01*
Y021132D01*
X069304Y021173D01*
X069262Y021215D01*
Y021257D01*
X069304Y021173D02*
X069387D01*
X064882Y021623D02*
X065132D01*
Y021498D01*
X06509Y021456D01*
X065007D01*
X064965Y021498D01*
Y021623D01*
Y021539D02*
X064882Y021456D01*
X064923Y021373D02*
X064882Y021331D01*
Y021248D01*
X064923Y021206D01*
X06509D01*
X065132Y021248D01*
Y021331D01*
X06509Y021373D01*
X065048D01*
X065007Y021331D01*
Y021206D01*
X068991Y020307D02*
Y020557D01*
X069116D01*
X069158Y020516D01*
Y020432D01*
X069116Y020391D01*
X068991D01*
X069074D02*
X069158Y020307D01*
X069241Y020557D02*
X069408D01*
Y020516D01*
X069241Y020349D01*
Y020307D01*
D84*
X071603Y023357D02*
X07167Y02329D01*
X071803D01*
X07187Y023357D01*
Y023623D01*
X071803Y02369D01*
X07167D01*
X071603Y023623D01*
X07147Y02369D02*
X071337D01*
X071403D01*
Y02329D01*
X07147Y023357D01*
X071137Y02329D02*
X07087D01*
Y023357D01*
X071137Y023623D01*
Y02369D01*
X066463Y015817D02*
X06653Y01575D01*
X066663D01*
X06673Y015817D01*
Y016083D01*
X066663Y01615D01*
X06653D01*
X066463Y016083D01*
X066064Y01615D02*
X06633D01*
X066064Y015883D01*
Y015817D01*
X06613Y01575D01*
X066263D01*
X06633Y015817D01*
X06573Y01615D02*
Y01575D01*
X06593Y01595D01*
X065664D01*
X055567Y016557D02*
X0555Y01649D01*
Y016357D01*
X055567Y01629D01*
X055833D01*
X0559Y016357D01*
Y01649D01*
X055833Y016557D01*
X0559Y016956D02*
Y01669D01*
X055633Y016956D01*
X055567D01*
X0555Y01689D01*
Y016757D01*
X055567Y01669D01*
X0555Y017356D02*
X055567Y017223D01*
X0557Y01709D01*
X055833D01*
X0559Y017156D01*
Y01729D01*
X055833Y017356D01*
X055767D01*
X0557Y01729D01*
Y01709D01*
D143*
X0677Y02148D02*
X06905D01*
Y02075D02*
Y02148D01*
X0677Y02075D02*
X06905Y02075D01*
X0677Y02075D02*
Y02148D01*
X0694Y025921D02*
X07074D01*
X0694Y025222D02*
Y025921D01*
Y025222D02*
X07074Y025221D01*
Y025921D01*
X07075Y02442D02*
Y02515D01*
X0694Y02442D02*
X07075Y02442D01*
X0694Y02442D02*
Y02515D01*
X07075D01*
X07077Y02444D02*
X07211D01*
Y02514D01*
X07077Y02514D02*
X07211Y02514D01*
X07077Y02444D02*
Y02514D01*
Y025931D02*
X07212D01*
X07077Y025201D02*
Y025931D01*
Y025201D02*
X07212Y025201D01*
Y025931D01*
X07326Y02018D02*
X0746D01*
Y02088D01*
X07326Y02088D02*
X0746Y02088D01*
X07326Y02018D02*
Y02088D01*
X070272Y021518D02*
Y022218D01*
X068932Y021518D02*
X070272Y021518D01*
X068932Y021518D02*
Y022218D01*
X070272D01*
X068922Y020758D02*
Y021488D01*
X070272Y021488D01*
Y020758D02*
Y021488D01*
X068922Y020758D02*
X070272D01*
X064592Y020363D02*
Y021713D01*
Y020363D02*
X065322D01*
X065322Y021713D01*
X064592D02*
X065322D01*
X068901Y020017D02*
Y020747D01*
X070251Y020747D01*
Y020017D02*
Y020747D01*
X068901Y020017D02*
X070251D01*
M02*
