G04*
G04 #@! TF.GenerationSoftware,Altium Limited,Altium Designer,21.0.8 (223)*
G04*
G04 Layer_Color=8388736*
%FSTAX24Y24*%
%MOIN*%
G70*
G04*
G04 #@! TF.SameCoordinates,2867BDE3-1686-46F1-8F54-3A33D440E248*
G04*
G04*
G04 #@! TF.FilePolarity,Negative*
G04*
G01*
G75*
%ADD24R,0.0787X0.0866*%
%ADD43R,0.0780X0.0780*%
%ADD44R,0.0434X0.0592*%
%ADD45R,0.0480X0.0671*%
%ADD46R,0.0867X0.0946*%
G04:AMPARAMS|DCode=47|XSize=71mil|YSize=94.2mil|CornerRadius=19.7mil|HoleSize=0mil|Usage=FLASHONLY|Rotation=90.000|XOffset=0mil|YOffset=0mil|HoleType=Round|Shape=RoundedRectangle|*
%AMROUNDEDRECTD47*
21,1,0.0710,0.0547,0,0,90.0*
21,1,0.0315,0.0942,0,0,90.0*
1,1,0.0395,0.0274,0.0157*
1,1,0.0395,0.0274,-0.0157*
1,1,0.0395,-0.0274,-0.0157*
1,1,0.0395,-0.0274,0.0157*
%
%ADD47ROUNDEDRECTD47*%
%ADD48R,0.0830X0.0330*%
G04:AMPARAMS|DCode=49|XSize=33mil|YSize=83mil|CornerRadius=10.3mil|HoleSize=0mil|Usage=FLASHONLY|Rotation=270.000|XOffset=0mil|YOffset=0mil|HoleType=Round|Shape=RoundedRectangle|*
%AMROUNDEDRECTD49*
21,1,0.0330,0.0625,0,0,270.0*
21,1,0.0125,0.0830,0,0,270.0*
1,1,0.0205,-0.0313,-0.0063*
1,1,0.0205,-0.0313,0.0063*
1,1,0.0205,0.0313,0.0063*
1,1,0.0205,0.0313,-0.0063*
%
%ADD49ROUNDEDRECTD49*%
%ADD50R,0.0671X0.0480*%
%ADD51R,0.0513X0.0430*%
%ADD52R,0.0780X0.0780*%
G04:AMPARAMS|DCode=53|XSize=19.8mil|YSize=67.1mil|CornerRadius=7mil|HoleSize=0mil|Usage=FLASHONLY|Rotation=0.000|XOffset=0mil|YOffset=0mil|HoleType=Round|Shape=RoundedRectangle|*
%AMROUNDEDRECTD53*
21,1,0.0198,0.0531,0,0,0.0*
21,1,0.0059,0.0671,0,0,0.0*
1,1,0.0139,0.0030,-0.0266*
1,1,0.0139,-0.0030,-0.0266*
1,1,0.0139,-0.0030,0.0266*
1,1,0.0139,0.0030,0.0266*
%
%ADD53ROUNDEDRECTD53*%
G04:AMPARAMS|DCode=54|XSize=19.8mil|YSize=67.1mil|CornerRadius=7mil|HoleSize=0mil|Usage=FLASHONLY|Rotation=90.000|XOffset=0mil|YOffset=0mil|HoleType=Round|Shape=RoundedRectangle|*
%AMROUNDEDRECTD54*
21,1,0.0198,0.0531,0,0,90.0*
21,1,0.0059,0.0671,0,0,90.0*
1,1,0.0139,0.0266,0.0030*
1,1,0.0139,0.0266,-0.0030*
1,1,0.0139,-0.0266,-0.0030*
1,1,0.0139,-0.0266,0.0030*
%
%ADD54ROUNDEDRECTD54*%
%ADD55R,0.0671X0.0198*%
G04:AMPARAMS|DCode=56|XSize=71mil|YSize=63.1mil|CornerRadius=6.8mil|HoleSize=0mil|Usage=FLASHONLY|Rotation=90.000|XOffset=0mil|YOffset=0mil|HoleType=Round|Shape=RoundedRectangle|*
%AMROUNDEDRECTD56*
21,1,0.0710,0.0496,0,0,90.0*
21,1,0.0575,0.0631,0,0,90.0*
1,1,0.0135,0.0248,0.0287*
1,1,0.0135,0.0248,-0.0287*
1,1,0.0135,-0.0248,-0.0287*
1,1,0.0135,-0.0248,0.0287*
%
%ADD56ROUNDEDRECTD56*%
G04:AMPARAMS|DCode=57|XSize=59.2mil|YSize=106.4mil|CornerRadius=6.6mil|HoleSize=0mil|Usage=FLASHONLY|Rotation=90.000|XOffset=0mil|YOffset=0mil|HoleType=Round|Shape=RoundedRectangle|*
%AMROUNDEDRECTD57*
21,1,0.0592,0.0933,0,0,90.0*
21,1,0.0461,0.1064,0,0,90.0*
1,1,0.0131,0.0467,0.0230*
1,1,0.0131,0.0467,-0.0230*
1,1,0.0131,-0.0467,-0.0230*
1,1,0.0131,-0.0467,0.0230*
%
%ADD57ROUNDEDRECTD57*%
G04:AMPARAMS|DCode=58|XSize=55.2mil|YSize=86.7mil|CornerRadius=6.4mil|HoleSize=0mil|Usage=FLASHONLY|Rotation=90.000|XOffset=0mil|YOffset=0mil|HoleType=Round|Shape=RoundedRectangle|*
%AMROUNDEDRECTD58*
21,1,0.0552,0.0740,0,0,90.0*
21,1,0.0425,0.0867,0,0,90.0*
1,1,0.0127,0.0370,0.0213*
1,1,0.0127,0.0370,-0.0213*
1,1,0.0127,-0.0370,-0.0213*
1,1,0.0127,-0.0370,0.0213*
%
%ADD58ROUNDEDRECTD58*%
G04:AMPARAMS|DCode=59|XSize=35.6mil|YSize=86.7mil|CornerRadius=5.4mil|HoleSize=0mil|Usage=FLASHONLY|Rotation=90.000|XOffset=0mil|YOffset=0mil|HoleType=Round|Shape=RoundedRectangle|*
%AMROUNDEDRECTD59*
21,1,0.0356,0.0760,0,0,90.0*
21,1,0.0248,0.0867,0,0,90.0*
1,1,0.0108,0.0380,0.0124*
1,1,0.0108,0.0380,-0.0124*
1,1,0.0108,-0.0380,-0.0124*
1,1,0.0108,-0.0380,0.0124*
%
%ADD59ROUNDEDRECTD59*%
G04:AMPARAMS|DCode=60|XSize=35.4mil|YSize=86.6mil|CornerRadius=5.3mil|HoleSize=0mil|Usage=FLASHONLY|Rotation=90.000|XOffset=0mil|YOffset=0mil|HoleType=Round|Shape=RoundedRectangle|*
%AMROUNDEDRECTD60*
21,1,0.0354,0.0760,0,0,90.0*
21,1,0.0248,0.0866,0,0,90.0*
1,1,0.0106,0.0380,0.0124*
1,1,0.0106,0.0380,-0.0124*
1,1,0.0106,-0.0380,-0.0124*
1,1,0.0106,-0.0380,0.0124*
%
%ADD60ROUNDEDRECTD60*%
G04:AMPARAMS|DCode=61|XSize=55.2mil|YSize=63.1mil|CornerRadius=6.4mil|HoleSize=0mil|Usage=FLASHONLY|Rotation=90.000|XOffset=0mil|YOffset=0mil|HoleType=Round|Shape=RoundedRectangle|*
%AMROUNDEDRECTD61*
21,1,0.0552,0.0504,0,0,90.0*
21,1,0.0425,0.0631,0,0,90.0*
1,1,0.0127,0.0252,0.0213*
1,1,0.0127,0.0252,-0.0213*
1,1,0.0127,-0.0252,-0.0213*
1,1,0.0127,-0.0252,0.0213*
%
%ADD61ROUNDEDRECTD61*%
%ADD62R,0.0552X0.0630*%
%ADD63R,0.0395X0.0395*%
%ADD64R,0.0430X0.0513*%
%ADD65R,0.0395X0.0395*%
%ADD66C,0.0730*%
%ADD67C,0.0080*%
%ADD68R,0.0730X0.0730*%
%ADD69C,0.1064*%
%ADD70O,0.0880X0.1280*%
%ADD71O,0.1880X0.1080*%
%ADD72C,0.0630*%
%ADD73C,0.0830*%
%ADD74R,0.0730X0.0980*%
%ADD75O,0.0730X0.0980*%
%ADD76O,0.0930X0.0780*%
%ADD77R,0.0930X0.0780*%
%ADD78C,0.0592*%
%ADD79R,0.0592X0.0592*%
%ADD80C,0.0310*%
%ADD81C,0.0513*%
%ADD82C,0.0380*%
%ADD83C,0.0430*%
D24*
X07014Y02365D02*
D03*
X06197Y01623D02*
D03*
X05272Y01785D02*
D03*
D43*
X066554Y01927D02*
D03*
X065354D02*
D03*
X06637Y01587D02*
D03*
X06517D02*
D03*
D44*
X070444Y025571D02*
D03*
X069696D02*
D03*
X071066Y02479D02*
D03*
X071814D02*
D03*
X073556Y02053D02*
D03*
X074304D02*
D03*
X069228Y021868D02*
D03*
X069976D02*
D03*
X063588Y018309D02*
D03*
X062839D02*
D03*
X054514Y01651D02*
D03*
X053766D02*
D03*
D45*
X06967Y02479D02*
D03*
X07047D02*
D03*
X07184Y025571D02*
D03*
X07104D02*
D03*
X070002Y021118D02*
D03*
X069202D02*
D03*
X061997Y01747D02*
D03*
X062797D02*
D03*
X05224Y01655D02*
D03*
X05304D02*
D03*
X069981Y020377D02*
D03*
X069181D02*
D03*
D46*
X0714Y02365D02*
D03*
X06323Y01623D02*
D03*
X05398Y01785D02*
D03*
D47*
X073661Y0275D02*
D03*
X077279D02*
D03*
X073661Y025827D02*
D03*
X077279D02*
D03*
Y024153D02*
D03*
X073661D02*
D03*
Y02248D02*
D03*
X077279D02*
D03*
D48*
X06805Y020368D02*
D03*
X066664Y01685D02*
D03*
X059046Y0166D02*
D03*
D49*
X06805Y020868D02*
D03*
Y021368D02*
D03*
Y021868D02*
D03*
X065826Y020368D02*
D03*
Y020868D02*
D03*
Y021368D02*
D03*
Y021868D02*
D03*
X06444Y01835D02*
D03*
Y01785D02*
D03*
Y01735D02*
D03*
Y01685D02*
D03*
X066664Y01835D02*
D03*
Y01785D02*
D03*
Y01735D02*
D03*
X059046Y0171D02*
D03*
Y0176D02*
D03*
Y0181D02*
D03*
X056821Y0166D02*
D03*
Y0171D02*
D03*
Y0176D02*
D03*
Y0181D02*
D03*
D50*
X064952Y021432D02*
D03*
Y020633D02*
D03*
D51*
X064516Y019744D02*
D03*
Y019074D02*
D03*
X06388Y019721D02*
D03*
Y019051D02*
D03*
X063214Y019721D02*
D03*
Y019051D02*
D03*
X05988Y017855D02*
D03*
Y018525D02*
D03*
D52*
X060729Y017084D02*
D03*
Y018284D02*
D03*
X05562Y01665D02*
D03*
Y01785D02*
D03*
D53*
X063198Y03065D02*
D03*
X063395D02*
D03*
X063591D02*
D03*
X063788D02*
D03*
X063985D02*
D03*
X064182D02*
D03*
X064379D02*
D03*
X064576D02*
D03*
X064773D02*
D03*
X064969D02*
D03*
X065166D02*
D03*
X065363D02*
D03*
X06556D02*
D03*
X065757D02*
D03*
X065954D02*
D03*
X066151D02*
D03*
X066347D02*
D03*
X066544D02*
D03*
X066741D02*
D03*
X066938D02*
D03*
X067135D02*
D03*
X067332D02*
D03*
X067529D02*
D03*
X067725D02*
D03*
X067922D02*
D03*
Y02443D02*
D03*
X067725D02*
D03*
X067529D02*
D03*
X067332D02*
D03*
X067135D02*
D03*
X066938D02*
D03*
X066741D02*
D03*
X066544D02*
D03*
X066347D02*
D03*
X066151D02*
D03*
X065954D02*
D03*
X065757D02*
D03*
X06556D02*
D03*
X065363D02*
D03*
X065166D02*
D03*
X064969D02*
D03*
X064773D02*
D03*
X064576D02*
D03*
X064379D02*
D03*
X064182D02*
D03*
X063985D02*
D03*
X063788D02*
D03*
X063591D02*
D03*
X063395D02*
D03*
X063198D02*
D03*
D54*
X06867Y029902D02*
D03*
Y029705D02*
D03*
Y029509D02*
D03*
Y029312D02*
D03*
Y029115D02*
D03*
Y028918D02*
D03*
Y028721D02*
D03*
Y028524D02*
D03*
Y028327D02*
D03*
Y028131D02*
D03*
Y027934D02*
D03*
Y027737D02*
D03*
Y02754D02*
D03*
Y027343D02*
D03*
Y027146D02*
D03*
Y026949D02*
D03*
Y026753D02*
D03*
Y026556D02*
D03*
Y026359D02*
D03*
Y026162D02*
D03*
Y025965D02*
D03*
Y025768D02*
D03*
Y025571D02*
D03*
Y025375D02*
D03*
Y025178D02*
D03*
X06245D02*
D03*
Y025375D02*
D03*
Y025571D02*
D03*
Y025768D02*
D03*
Y025965D02*
D03*
Y026162D02*
D03*
Y026359D02*
D03*
Y026556D02*
D03*
Y026753D02*
D03*
Y026949D02*
D03*
Y027146D02*
D03*
Y027343D02*
D03*
Y02754D02*
D03*
Y027737D02*
D03*
Y027934D02*
D03*
Y028131D02*
D03*
Y028327D02*
D03*
Y028524D02*
D03*
Y028721D02*
D03*
Y028918D02*
D03*
Y029115D02*
D03*
Y029312D02*
D03*
Y029509D02*
D03*
Y029705D02*
D03*
D55*
Y029902D02*
D03*
D56*
X072407Y034177D02*
D03*
D57*
X076187Y034532D02*
D03*
D58*
Y028429D02*
D03*
D59*
X072156Y032366D02*
D03*
Y031933D02*
D03*
Y0315D02*
D03*
Y031067D02*
D03*
Y030634D02*
D03*
Y030201D02*
D03*
Y029768D02*
D03*
D60*
Y029335D02*
D03*
Y028902D02*
D03*
D61*
X072407Y028429D02*
D03*
D62*
X076467Y02118D02*
D03*
X077293D02*
D03*
D63*
X069335Y030572D02*
D03*
X069925D02*
D03*
D64*
X074995Y02116D02*
D03*
X075665D02*
D03*
D65*
X07052Y030025D02*
D03*
Y030615D02*
D03*
D66*
X05187Y0324D02*
D03*
X05287D02*
D03*
X05387D02*
D03*
X05487D02*
D03*
X05587D02*
D03*
X05687D02*
D03*
X05887D02*
D03*
X05287Y0334D02*
D03*
X05487Y0334D02*
D03*
X05787Y0334D02*
D03*
X05687D02*
D03*
X05587Y0334D02*
D03*
X05387Y0334D02*
D03*
X05187Y0334D02*
D03*
Y028333D02*
D03*
X05287Y028333D02*
D03*
X05387D02*
D03*
X05487D02*
D03*
X05587Y028333D02*
D03*
X05687Y028333D02*
D03*
X05787D02*
D03*
X05887D02*
D03*
X05287Y029333D02*
D03*
X05487D02*
D03*
X05787D02*
D03*
X05687D02*
D03*
X05587D02*
D03*
X05387D02*
D03*
X05187D02*
D03*
Y025267D02*
D03*
X05387D02*
D03*
X05587D02*
D03*
X05687D02*
D03*
X05787D02*
D03*
X05487D02*
D03*
X05287D02*
D03*
X05887Y024267D02*
D03*
X05787Y024267D02*
D03*
X05687D02*
D03*
X05587Y024267D02*
D03*
X05487D02*
D03*
X05387Y024267D02*
D03*
X05287D02*
D03*
X05187Y024267D02*
D03*
Y0202D02*
D03*
X05287Y0202D02*
D03*
X05387Y0202D02*
D03*
X05487Y0202D02*
D03*
X05587Y0202D02*
D03*
X05687D02*
D03*
X05787Y0202D02*
D03*
X05887D02*
D03*
X05287Y0212D02*
D03*
X05487Y0212D02*
D03*
X05787Y0212D02*
D03*
X05687Y0212D02*
D03*
X05587D02*
D03*
X05387D02*
D03*
X05187D02*
D03*
D67*
X05787Y0324D02*
D03*
D68*
X05887Y0334D02*
D03*
X05887Y029333D02*
D03*
X05887Y025267D02*
D03*
Y0212D02*
D03*
D69*
X07043Y03382D02*
D03*
X06843D02*
D03*
D70*
X07312Y018983D02*
D03*
X07412D02*
D03*
X07612D02*
D03*
X07712D02*
D03*
X0719Y01895D02*
D03*
X0709D02*
D03*
X0689D02*
D03*
X0679D02*
D03*
D71*
X07511Y016983D02*
D03*
X06989Y01695D02*
D03*
D72*
X07712Y016983D02*
D03*
Y015983D02*
D03*
X07512Y018983D02*
D03*
X07312Y016983D02*
D03*
Y015983D02*
D03*
X0679Y01595D02*
D03*
Y01695D02*
D03*
X0699Y01895D02*
D03*
X0719Y01595D02*
D03*
Y01695D02*
D03*
D73*
X070789Y020637D02*
D03*
X071789Y022637D02*
D03*
X072789Y020637D02*
D03*
D74*
X068741Y02318D02*
D03*
D75*
X067741D02*
D03*
X066741D02*
D03*
D76*
X06537Y032385D02*
D03*
Y033365D02*
D03*
D77*
Y034375D02*
D03*
D78*
X0512Y015905D02*
D03*
Y016693D02*
D03*
Y01748D02*
D03*
X06643Y032079D02*
D03*
Y032866D02*
D03*
Y033654D02*
D03*
D79*
X0512Y018267D02*
D03*
X06643Y034441D02*
D03*
D80*
X073625Y030039D02*
D03*
X062976Y023706D02*
D03*
X061353Y02355D02*
D03*
X06638Y028269D02*
D03*
X065748Y028894D02*
D03*
X06937Y02406D02*
D03*
X053572Y019411D02*
D03*
X05607D02*
D03*
X055572Y03486D02*
D03*
X073184Y03479D02*
D03*
X07788Y021081D02*
D03*
Y025443D02*
D03*
Y03032D02*
D03*
Y03479D02*
D03*
X066254Y0315D02*
D03*
X06863Y032002D02*
D03*
X062962Y026346D02*
D03*
X066132Y025658D02*
D03*
X065294Y025716D02*
D03*
X06118Y02846D02*
D03*
X06275Y03085D02*
D03*
X059354Y018373D02*
D03*
X068783Y02186D02*
D03*
X067332Y021551D02*
D03*
X067863Y025481D02*
D03*
X066544Y026526D02*
D03*
X06352Y0259D02*
D03*
X06355Y02678D02*
D03*
X062959Y02597D02*
D03*
X06388Y02547D02*
D03*
X05758Y01758D02*
D03*
X0615Y017684D02*
D03*
X0719Y025791D02*
D03*
X07211Y025571D02*
D03*
X06517Y018D02*
D03*
X06507Y02001D02*
D03*
X06341Y020241D02*
D03*
X06404D02*
D03*
X07196Y028201D02*
D03*
X06638Y02036D02*
D03*
X07149Y021584D02*
D03*
X070345Y022737D02*
D03*
X067778Y025827D02*
D03*
X06806Y025021D02*
D03*
X064379Y020934D02*
D03*
X06388Y02365D02*
D03*
X06348Y02367D02*
D03*
X06421Y023898D02*
D03*
X06944Y025965D02*
D03*
X07356Y02507D02*
D03*
X0699Y03025D02*
D03*
X07151Y03022D02*
D03*
X06404Y02978D02*
D03*
X06325Y02724D02*
D03*
X06117Y02781D02*
D03*
X06153Y02759D02*
D03*
X06725Y02844D02*
D03*
X06776Y026896D02*
D03*
X06806Y02717D02*
D03*
X06335Y03137D02*
D03*
X061468Y02875D02*
D03*
X06144Y02819D02*
D03*
X0644Y02739D02*
D03*
X06295Y02703D02*
D03*
X06318Y02761D02*
D03*
X06805Y02931D02*
D03*
X05974Y02719D02*
D03*
X06123Y02446D02*
D03*
X0615Y02483D02*
D03*
X061817Y025115D02*
D03*
X06544Y02976D02*
D03*
X06513Y02921D02*
D03*
X0648Y02981D02*
D03*
X06178Y0263D02*
D03*
X06045Y02626D02*
D03*
X0609Y02627D02*
D03*
X06133Y02628D02*
D03*
D81*
X076344Y032681D02*
D03*
Y029529D02*
D03*
D82*
X06926Y03096D02*
D03*
D83*
X07145Y03098D02*
D03*
M02*
