G04*
G04 #@! TF.GenerationSoftware,Altium Limited,Altium Designer,21.0.8 (223)*
G04*
G04 Layer_Color=128*
%FSTAX24Y24*%
%MOIN*%
G70*
G04*
G04 #@! TF.SameCoordinates,2867BDE3-1686-46F1-8F54-3A33D440E248*
G04*
G04*
G04 #@! TF.FilePolarity,Positive*
G04*
G01*
G75*
%ADD23R,0.0400X0.0591*%
%ADD24R,0.0787X0.0866*%
%ADD40R,0.0315X0.0315*%
%ADD41R,0.0350X0.0433*%
%ADD42R,0.0315X0.0315*%
G04:AMPARAMS|DCode=107|XSize=30mil|YSize=80mil|CornerRadius=7.5mil|HoleSize=0mil|Usage=FLASHONLY|Rotation=270.000|XOffset=0mil|YOffset=0mil|HoleType=Round|Shape=RoundedRectangle|*
%AMROUNDEDRECTD107*
21,1,0.0300,0.0650,0,0,270.0*
21,1,0.0150,0.0800,0,0,270.0*
1,1,0.0150,-0.0325,-0.0075*
1,1,0.0150,-0.0325,0.0075*
1,1,0.0150,0.0325,0.0075*
1,1,0.0150,0.0325,-0.0075*
%
%ADD107ROUNDEDRECTD107*%
%ADD108R,0.0800X0.0300*%
G04:AMPARAMS|DCode=109|XSize=39.4mil|YSize=47.2mil|CornerRadius=0mil|HoleSize=0mil|Usage=FLASHONLY|Rotation=135.000|XOffset=0mil|YOffset=0mil|HoleType=Round|Shape=Rectangle|*
%AMROTATEDRECTD109*
4,1,4,0.0306,0.0028,-0.0028,-0.0306,-0.0306,-0.0028,0.0028,0.0306,0.0306,0.0028,0.0*
%
%ADD109ROTATEDRECTD109*%

%ADD110R,0.1299X0.0945*%
%ADD111R,0.0394X0.0945*%
%ADD112R,0.1378X0.1102*%
%ADD113P,0.0445X4X180.0*%
%ADD114P,0.0445X4X270.0*%
D23*
X06798Y02112D02*
D03*
X06878D02*
D03*
D24*
X07326Y02401D02*
D03*
X07452D02*
D03*
X07455Y0263D02*
D03*
X07329D02*
D03*
D40*
X062515Y0271D02*
D03*
X061925D02*
D03*
X073595Y027273D02*
D03*
X074185D02*
D03*
X068765Y025965D02*
D03*
X068175D02*
D03*
D41*
X063585Y029597D02*
D03*
X062915D02*
D03*
X061859Y02772D02*
D03*
X062528D02*
D03*
D42*
X068499Y024885D02*
D03*
Y024295D02*
D03*
X06906Y024299D02*
D03*
Y02489D02*
D03*
X067863Y024885D02*
D03*
Y024295D02*
D03*
D107*
X06407Y034046D02*
D03*
Y033546D02*
D03*
Y033046D02*
D03*
Y032546D02*
D03*
Y032046D02*
D03*
Y031546D02*
D03*
Y031046D02*
D03*
Y030546D02*
D03*
X06035Y034046D02*
D03*
Y033546D02*
D03*
Y033046D02*
D03*
Y032546D02*
D03*
Y032046D02*
D03*
Y031546D02*
D03*
Y031046D02*
D03*
D108*
Y030546D02*
D03*
D109*
X065282Y027344D02*
D03*
X065644Y026982D02*
D03*
X065756Y027818D02*
D03*
X066118Y027456D02*
D03*
D110*
X07095Y024098D02*
D03*
D111*
X071856Y026382D02*
D03*
X07095Y026382D02*
D03*
X070044Y026382D02*
D03*
D112*
X07363Y03019D02*
D03*
X06759D02*
D03*
D113*
X064711Y026749D02*
D03*
X065129Y026331D02*
D03*
D114*
X064791Y027851D02*
D03*
X065209Y028269D02*
D03*
M02*
