M48
;Layer_Color=9474304
;FILE_FORMAT=2:4
INCH,LZ
;TYPE=PLATED
T1F00S00C0.0150
T2F00S00C0.0200
T3F00S00C0.0300
T4F00S00C0.0315
T5F00S00C0.0350
T7F00S00C0.0402
T8F00S00C0.0433
T9F00S00C0.0512
T10F00S00C0.0550
%
T01
X06517Y018
X06507Y02001
X06404Y020241
X06341
X064379Y020934
X06638Y02036
X067332Y021551
X068783Y02186
X070345Y022737
X06937Y02406
X06944Y025965
X067778Y025827
X067863Y025481
X06806Y025021
Y02717
X06776Y026896
X066544Y026526
X066132Y025658
X065294Y025716
X06388Y02547
X06352Y0259
X062959Y02597
X062962Y026346
X06295Y02703
X06325Y02724
X06318Y02761
X06355Y02678
X0644Y02739
X06513Y02921
X06544Y02976
X0648Y02981
X06404Y02978
X06275Y03085
X065748Y028894
X06638Y028269
X06725Y02844
X06805Y02931
X0699Y03025
X07151Y03022
X073625Y030039
X07196Y028201
X0719Y025791
X07211Y025571
X07356Y02507
X07788Y025443
Y021081
X07149Y021584
X06421Y023898
X06388Y02365
X06348Y02367
X062976Y023706
X07788Y03032
X061468Y02875
X06118Y02846
X06144Y02819
X06117Y02781
X06153Y02759
X06133Y02628
X0609Y02627
X06045Y02626
X06178Y0263
X061817Y025115
X0615Y02483
X06123Y02446
X061353Y02355
X05974Y02719
X059354Y018373
X05758Y01758
X05607Y019411
X053572
X0615Y017684
X055572Y03486
X06335Y03137
X066254Y0315
X06863Y032002
X073184Y03479
X07788
T02
X06926Y03096
X07145Y03098
T03
X066741Y02318
X067741
X068741
T04
X0512Y015905
Y016693
Y01748
Y018267
X06643Y032079
Y032866
Y033654
Y034441
T05
X070789Y020637
X072789
X071789Y022637
X06537Y032385
Y033365
Y034375
T07
X05187Y0202
Y0212
X05287Y0212
Y0202
X05387Y0202
Y0212
X05487
X05487Y0202
X05587Y0202
X05687
Y0212
X05587
X05787Y0212
Y0202
X05887
X05887Y0212
X05887Y024267
X05787Y024267
Y025267
X05687
X05587
X05587Y024267
X05487
X05487Y025267
X05387
X05287
Y024267
X05387
X05187Y024267
X05187Y025267
X05187Y028333
X05287Y028333
X05387
X05487
X05587Y028333
X05587Y029333
X05687
Y028333
X05787
X05887
Y029333
X05787Y029333
X05487
X05387
X05287
X05187
X05687Y024267
X05887Y025267
X05887Y0324
Y0334
X05787Y0334
X05687
Y0324
X05587
X05487
Y0334
X05587
X05387Y0334
Y0324
X05287
X05187
Y0334
X05287Y0334
T08
X076344Y029529
Y032681
T09
X06843Y03382
X07043
T10
X0679Y01595
Y01695
X0699Y01895
X0719Y01695
Y01595
X07312Y015983
Y016983
X07712
Y015983
X07512Y018983
M30
