G04*
G04 #@! TF.GenerationSoftware,Altium Limited,Altium Designer,21.0.8 (223)*
G04*
G04 Layer_Color=16711935*
%FSTAX24Y24*%
%MOIN*%
G70*
G04*
G04 #@! TF.SameCoordinates,2867BDE3-1686-46F1-8F54-3A33D440E248*
G04*
G04*
G04 #@! TF.FilePolarity,Positive*
G04*
G01*
G75*
%ADD14C,0.0150*%
%ADD20C,0.0039*%
G36*
X075457Y033429D02*
X075507Y033409D01*
X075577Y033349D01*
X075627Y033279D01*
X075657Y033189D01*
X075667Y033079D01*
X075657Y032969D01*
X075627Y032909D01*
X075587Y032839D01*
X075587Y032809D01*
X075627Y032769D01*
X075657Y032699D01*
X075677Y032579D01*
X075667Y032479D01*
X075637Y032399D01*
X075597Y032329D01*
X075537Y032279D01*
X075437Y032239D01*
X074217Y032239D01*
X074197Y032259D01*
Y032509D01*
X074217Y032529D01*
X075327Y032529D01*
X075367Y032549D01*
X075387Y032579D01*
Y032649D01*
X075377Y032669D01*
X075357Y032689D01*
X075337Y032699D01*
X074217Y032699D01*
X074197Y032719D01*
Y032959D01*
X074217Y032979D01*
X075307Y032979D01*
X075357Y032989D01*
X075367Y032999D01*
X075377Y033029D01*
Y033109D01*
X075347Y033139D01*
X075317Y033149D01*
X074977D01*
X074217Y033159D01*
X074197Y033179D01*
Y033409D01*
X074217Y033429D01*
X075457Y033429D01*
D02*
G37*
G36*
X075387Y032159D02*
Y031969D01*
X075347Y031929D01*
X074767D01*
X074747Y031949D01*
X074747Y032179D01*
X074767Y032199D01*
X075347D01*
X075387Y032159D01*
D02*
G37*
G36*
X075387Y031889D02*
X075427Y031869D01*
X075517Y031819D01*
X075587Y031739D01*
X075637Y031669D01*
X075677Y031569D01*
X075697Y031509D01*
X075707Y031409D01*
X075707Y031279D01*
X075687Y031209D01*
X075647Y031169D01*
X075617Y031149D01*
X075567D01*
X075507Y031159D01*
X075457Y031179D01*
X075427Y031219D01*
X075417Y031279D01*
X075417Y031469D01*
X075387Y031529D01*
X075347Y031569D01*
X075267Y031599D01*
X075207D01*
X075147Y031589D01*
X075097Y031549D01*
X075057Y031469D01*
Y031259D01*
X075027Y031209D01*
X074977Y031169D01*
X074897Y031159D01*
X074837Y031169D01*
X074787Y031219D01*
X074767Y031249D01*
X074757Y031279D01*
Y031379D01*
X074767Y031519D01*
X074787Y031589D01*
X074817Y031649D01*
X074877Y031739D01*
X074927Y031789D01*
X074987Y031839D01*
X075027Y031869D01*
X075067Y031889D01*
X075107Y031899D01*
X075357Y031899D01*
X075387Y031889D01*
D02*
G37*
G36*
X076434Y031024D02*
X075934Y031374D01*
X076434Y031724D01*
X076434Y031024D01*
D02*
G37*
G36*
X073867Y032229D02*
X074037Y032159D01*
X074077Y032139D01*
X074087Y032099D01*
X074077Y032029D01*
X074057Y031879D01*
X074047Y031769D01*
Y031519D01*
X074057Y031499D01*
X074067Y031489D01*
X074077D01*
X074087Y031499D01*
X074107Y031529D01*
X074187Y031709D01*
X074217Y031829D01*
X074257Y031899D01*
X074317Y031949D01*
X074347Y031969D01*
X074407D01*
X074477Y031959D01*
X074537Y031919D01*
X074617Y031829D01*
X074677Y031649D01*
X074697Y031519D01*
Y030799D01*
X074487Y030869D01*
X074487Y031469D01*
X074477Y031569D01*
X074467Y031589D01*
X074447Y031599D01*
X074427Y031589D01*
X074417Y031569D01*
X074377Y031449D01*
X074347Y031329D01*
X074337Y031279D01*
X074287Y031169D01*
X074237Y031099D01*
X074187Y031049D01*
X074117Y031019D01*
X074057Y030999D01*
X073997Y030999D01*
X073917Y031029D01*
X073837Y031109D01*
X073777Y031229D01*
X073747Y031349D01*
X073737Y031449D01*
Y032199D01*
X073747Y032219D01*
X073787Y032239D01*
X073867Y032229D01*
D02*
G37*
G36*
X075507Y031119D02*
X075547Y031099D01*
X075617Y031039D01*
X075657Y030989D01*
X075687Y030929D01*
X075707Y030859D01*
X075707Y030659D01*
X075697Y030589D01*
X075657Y030519D01*
X075607Y030459D01*
X075567Y030429D01*
X075497Y030399D01*
X075337D01*
X075307Y030409D01*
X075277Y030439D01*
X075267Y030479D01*
X075267Y030599D01*
X075287Y030629D01*
X075307Y030649D01*
X075327Y030659D01*
X075387D01*
X075417Y030669D01*
X075437Y030689D01*
X075447Y030709D01*
Y030789D01*
X075437Y030829D01*
X075427Y030849D01*
X075417Y030859D01*
X075397Y030869D01*
X074777D01*
X074757Y030889D01*
Y031109D01*
X074777Y031129D01*
X075467D01*
X075507Y031119D01*
D02*
G37*
G36*
X074694Y03067D02*
X074687Y030309D01*
X074667Y030209D01*
X074467Y030439D01*
X074487Y030579D01*
Y030739D01*
X074694Y03067D01*
D02*
G37*
G36*
X074647Y030109D02*
X074597Y029919D01*
X074581Y029878D01*
X074407Y030339D01*
X074437Y030379D01*
X074444Y030393D01*
X074647Y030109D01*
D02*
G37*
G36*
X075427Y030369D02*
X075517Y030339D01*
X075587Y030269D01*
X075647Y030179D01*
X075687Y030049D01*
Y029889D01*
X075667Y029799D01*
X075607Y029709D01*
X075527Y029639D01*
X075447Y029589D01*
X075347Y029569D01*
X075147D01*
X075007Y029589D01*
X074927Y029629D01*
X074837Y029719D01*
X074797Y029819D01*
X074767Y029899D01*
Y030049D01*
X074797Y030139D01*
X074837Y030219D01*
X074897Y030289D01*
X074967Y030329D01*
X075047Y030369D01*
X075177Y030379D01*
X075287D01*
X075427Y030369D01*
D02*
G37*
G36*
X074137Y030859D02*
X074147Y030839D01*
Y030769D01*
X074157Y030629D01*
X074177Y030529D01*
X074207Y030449D01*
X074237Y030379D01*
X074277Y030329D01*
X074317Y030319D01*
X074347D01*
X074367Y030309D01*
X074547Y029789D01*
X074517Y029729D01*
X074457Y029659D01*
X074407Y029609D01*
X074357Y029579D01*
X074317Y029559D01*
X074237Y029559D01*
X074137Y029609D01*
X074017Y029709D01*
X073917Y029879D01*
X073807Y030199D01*
X073757Y030599D01*
X073747Y030799D01*
Y030929D01*
X073767Y030939D01*
X074137Y030859D01*
D02*
G37*
%LPC*%
G36*
X075307Y030139D02*
X075287Y030139D01*
X075237Y030139D01*
X075147Y030129D01*
X075087Y030099D01*
X075057Y030079D01*
X075037Y030029D01*
Y029959D01*
X075047Y029899D01*
X075087Y029849D01*
X075147Y029819D01*
X075327D01*
X075367Y029839D01*
X075407Y029869D01*
X075427Y029919D01*
X075437Y030009D01*
X075417Y030069D01*
X075357Y030119D01*
X075307Y030139D01*
D02*
G37*
%LPD*%
D14*
X075667Y032069D02*
G03*
X075667Y032069I-000071J0D01*
G01*
D20*
X072677Y034439D02*
G03*
X072578Y034518I-000089J-00001D01*
G01*
X072244Y034518D02*
G03*
X072145Y034439I-00001J-000089D01*
G01*
X072578Y033829D02*
G03*
X072677Y033928I0J000098D01*
G01*
X072145Y033928D02*
G03*
X072244Y033829I000098J0D01*
G01*
X076946Y032159D02*
G03*
X076946Y030059I00545J-00105D01*
G01*
X077069Y033283D02*
G03*
X076946Y032984I000299J-000299D01*
G01*
X076937Y029352D02*
G03*
X07739Y028899I000453J0D01*
G01*
X076673Y034694D02*
G03*
X076573Y034794I-0001J0D01*
G01*
X076573Y034244D02*
G03*
X076673Y034344I0J0001D01*
G01*
X075673Y034344D02*
G03*
X075773Y034244I0001J0D01*
G01*
Y034794D02*
G03*
X075673Y034694I0J-0001D01*
G01*
X076593Y028158D02*
G03*
X076693Y028258I0J0001D01*
G01*
Y028608D02*
G03*
X076593Y028708I-0001J0D01*
G01*
X075793D02*
G03*
X075693Y028608I0J-0001D01*
G01*
X075693Y028258D02*
G03*
X075793Y028158I0001J0D01*
G01*
X072155Y028694D02*
G03*
X072057Y028595I0J-000098D01*
G01*
Y02826D02*
G03*
X072155Y028162I000098J0D01*
G01*
X072746Y028595D02*
G03*
X072667Y028694I-000089J00001D01*
G01*
Y028162D02*
G03*
X072746Y02826I-00001J000089D01*
G01*
X071713Y032514D02*
G03*
X071663Y032439I000012J-000063D01*
G01*
Y032289D02*
G03*
X071713Y032214I000063J-000012D01*
G01*
X071663Y031856D02*
G03*
X071713Y031781I000063J-000012D01*
G01*
Y032081D02*
G03*
X071663Y032006I000012J-000063D01*
G01*
X071663Y031423D02*
G03*
X071713Y031348I000063J-000012D01*
G01*
X071713Y031648D02*
G03*
X071663Y031573I000012J-000063D01*
G01*
Y03099D02*
G03*
X071713Y030915I000063J-000012D01*
G01*
Y031215D02*
G03*
X071663Y03114I000012J-000063D01*
G01*
Y030557D02*
G03*
X071713Y030482I000063J-000012D01*
G01*
Y030782D02*
G03*
X071663Y030707I000012J-000063D01*
G01*
Y030124D02*
G03*
X071713Y030049I000063J-000012D01*
G01*
X071713Y030349D02*
G03*
X071663Y030274I000012J-000063D01*
G01*
Y029691D02*
G03*
X071713Y029616I000063J-000012D01*
G01*
X071713Y029916D02*
G03*
X071663Y029841I000012J-000063D01*
G01*
Y029258D02*
G03*
X071713Y029183I000063J-000012D01*
G01*
X071713Y029483D02*
G03*
X071663Y029408I000012J-000063D01*
G01*
X071663Y028864D02*
G03*
X071713Y028789I000063J-000012D01*
G01*
X071713Y029089D02*
G03*
X071663Y029014I000012J-000063D01*
G01*
X071946Y034244D02*
X077947Y034244D01*
X072244Y034518D02*
X072578D01*
X072244Y033829D02*
X072578Y033829D01*
X072677Y033928D02*
Y034439D01*
X072145Y033928D02*
Y034439D01*
X071946Y033959D02*
X071946Y034244D01*
X071946Y032959D02*
X072146D01*
X072146Y032514D01*
X071946D02*
X072146D01*
X071946Y032959D02*
Y033959D01*
X076946Y032959D02*
X077947D01*
X077606Y028899D02*
X077937D01*
X077947Y034244D02*
X077947Y032959D01*
X077937Y028619D02*
Y028899D01*
X077246Y033459D02*
X077446Y033459D01*
X077646Y033659D02*
Y033959D01*
X076846Y032859D02*
X076946Y032859D01*
X076846Y032359D02*
Y032859D01*
Y032359D02*
X076946D01*
X076846Y029359D02*
X076937Y029359D01*
X076846Y029359D02*
X076846Y029859D01*
X076946D01*
X076946Y032159D02*
X076946Y032359D01*
X076946Y030059D02*
X076946Y029859D01*
X076946Y032859D02*
X076946Y032984D01*
X077069Y033283D02*
X077246Y033459D01*
X077446Y033959D02*
Y034239D01*
Y033459D02*
Y033659D01*
X077646Y033659D01*
X077446Y033959D02*
X077646Y033959D01*
X077146Y029159D02*
X077937D01*
X077146Y031359D02*
X077146Y030459D01*
X07739Y028899D02*
X077606D01*
X077046Y031359D02*
X077046Y031559D01*
X077046Y031359D02*
X077146Y031359D01*
X077046Y030259D02*
Y030459D01*
X077146D01*
Y031559D02*
Y032959D01*
X077146Y029159D02*
X077146Y030259D01*
X077046Y031559D02*
X077146D01*
X077046Y030259D02*
X077146Y030259D01*
X077446Y031759D02*
X077546D01*
Y030059D02*
Y031759D01*
X077446D02*
Y032959D01*
Y029159D02*
Y030059D01*
X077546Y030059D01*
X071946Y028605D02*
Y032514D01*
X075773Y034794D02*
X076573Y034794D01*
X075773Y034244D02*
X076573Y034244D01*
X075673Y034344D02*
X075673Y034694D01*
X076673Y034344D02*
Y034694D01*
X072155Y028694D02*
X072667D01*
X072155Y028162D02*
X072667D01*
X076693Y028258D02*
Y028608D01*
X075793Y028158D02*
X076593Y028158D01*
X075793Y028708D02*
X076593Y028708D01*
X075693Y028258D02*
X075693Y028608D01*
X072057Y02826D02*
Y028595D01*
X072746Y028595D02*
X072746Y02826D01*
X071713Y032514D02*
X071946D01*
X071713Y032214D02*
X071946D01*
X071663Y032289D02*
Y032439D01*
X071663Y031856D02*
Y032006D01*
X071713Y031781D02*
X071946D01*
X071713Y032081D02*
X071946D01*
X071663Y031423D02*
Y031573D01*
X071713Y031348D02*
X071946D01*
X071713Y031648D02*
X071946D01*
X071663Y03099D02*
Y03114D01*
X071713Y030915D02*
X071946D01*
X071713Y031215D02*
X071946D01*
X071663Y030557D02*
Y030707D01*
X071713Y030482D02*
X071946D01*
X071713Y030782D02*
X071946D01*
X071663Y030124D02*
Y030274D01*
X071713Y030049D02*
X071946D01*
X071713Y030349D02*
X071946D01*
X071663Y029691D02*
Y029841D01*
X071713Y029616D02*
X071946D01*
X071713Y029916D02*
X071946D01*
X071663Y029258D02*
Y029408D01*
X071713Y029183D02*
X071946D01*
X071713Y029483D02*
X071946D01*
X071663Y028864D02*
Y029014D01*
X071713Y028789D02*
X071946D01*
X071713Y029089D02*
X071946Y029089D01*
X076693Y028619D02*
X077937D01*
X072746Y028608D02*
X075693D01*
X071946Y028595D02*
X072057D01*
X072643Y032534D02*
Y032259D01*
X07278D01*
X072826Y032305D01*
Y032488D01*
X07278Y032534D01*
X072643D01*
X072918Y032259D02*
Y032442D01*
X07301Y032534D01*
X073102Y032442D01*
Y032259D01*
Y032397D01*
X072918D01*
X073194Y032534D02*
X073377D01*
X073285D01*
Y032259D01*
X073653D02*
X073469D01*
X073653Y032442D01*
Y032488D01*
X073607Y032534D01*
X073515D01*
X073469Y032488D01*
X072643Y032065D02*
Y031789D01*
X07278D01*
X072826Y031835D01*
Y032019D01*
X07278Y032065D01*
X072643D01*
X072918Y031789D02*
Y031973D01*
X07301Y032065D01*
X073102Y031973D01*
Y031789D01*
Y031927D01*
X072918D01*
X073194Y032065D02*
X073377D01*
X073285D01*
Y031789D01*
X073469Y032019D02*
X073515Y032065D01*
X073607D01*
X073653Y032019D01*
Y031973D01*
X073607Y031927D01*
X073561D01*
X073607D01*
X073653Y031881D01*
Y031835D01*
X073607Y031789D01*
X073515D01*
X073469Y031835D01*
X072826Y031569D02*
X07278Y031615D01*
X072689D01*
X072643Y031569D01*
Y031385D01*
X072689Y031339D01*
X07278D01*
X072826Y031385D01*
X072918Y031339D02*
Y031615D01*
X07301Y031523D01*
X073102Y031615D01*
Y031339D01*
X073194Y031615D02*
Y031339D01*
X073331D01*
X073377Y031385D01*
Y031569D01*
X073331Y031615D01*
X073194D01*
X072643Y031215D02*
Y031031D01*
X072734Y030939D01*
X072826Y031031D01*
Y031215D01*
X072918D02*
Y030939D01*
X073056D01*
X073102Y030985D01*
Y031169D01*
X073056Y031215D01*
X072918D01*
X073194D02*
Y030939D01*
X073331D01*
X073377Y030985D01*
Y031169D01*
X073331Y031215D01*
X073194D01*
X072826Y030719D02*
X07278Y030765D01*
X072689D01*
X072643Y030719D01*
Y030535D01*
X072689Y030489D01*
X07278D01*
X072826Y030535D01*
X072918Y030765D02*
Y030489D01*
X073102D01*
X073194Y030765D02*
Y030489D01*
Y030581D01*
X073377Y030765D01*
X07324Y030627D01*
X073377Y030489D01*
X072643Y030365D02*
Y030181D01*
X072734Y030089D01*
X072826Y030181D01*
Y030365D01*
X073102Y030319D02*
X073056Y030365D01*
X072964D01*
X072918Y030319D01*
Y030273D01*
X072964Y030227D01*
X073056D01*
X073102Y030181D01*
Y030135D01*
X073056Y030089D01*
X072964D01*
X072918Y030135D01*
X073377Y030319D02*
X073331Y030365D01*
X07324D01*
X073194Y030319D01*
Y030273D01*
X07324Y030227D01*
X073331D01*
X073377Y030181D01*
Y030135D01*
X073331Y030089D01*
X07324D01*
X073194Y030135D01*
X072643Y029915D02*
Y029639D01*
X07278D01*
X072826Y029685D01*
Y029869D01*
X07278Y029915D01*
X072643D01*
X072918Y029639D02*
Y029823D01*
X07301Y029915D01*
X073102Y029823D01*
Y029639D01*
Y029777D01*
X072918D01*
X073194Y029915D02*
X073377D01*
X073285D01*
Y029639D01*
X073469Y029869D02*
X073515Y029915D01*
X073607D01*
X073653Y029869D01*
Y029685D01*
X073607Y029639D01*
X073515D01*
X073469Y029685D01*
Y029869D01*
X072643Y029465D02*
Y029189D01*
X07278D01*
X072826Y029235D01*
Y029419D01*
X07278Y029465D01*
X072643D01*
X072918Y029189D02*
Y029373D01*
X07301Y029465D01*
X073102Y029373D01*
Y029189D01*
Y029327D01*
X072918D01*
X073194Y029465D02*
X073377D01*
X073285D01*
Y029189D01*
X073469D02*
X073561D01*
X073515D01*
Y029465D01*
X073469Y029419D01*
X072826Y029019D02*
X07278Y029065D01*
X072689D01*
X072643Y029019D01*
Y028835D01*
X072689Y028789D01*
X07278D01*
X072826Y028835D01*
X072918Y029065D02*
Y028789D01*
X073056D01*
X073102Y028835D01*
Y029019D01*
X073056Y029065D01*
X072918D01*
M02*
